<?xml version="1.0" encoding="utf-8"?>
<!-- Generator: Adobe Illustrator 23.0.6, SVG Export Plug-In . SVG Version: 6.00 Build 0)  -->
<svg version="1.1" id="Layer_1" xmlns="http://www.w3.org/2000/svg" xmlns:xlink="http://www.w3.org/1999/xlink" x="0px" y="0px"
	 viewBox="0 0 350 140" style="enable-background:new 0 0 350 140;" xml:space="preserve">
<style type="text/css">
	.st0{clip-path:url(#SVGID_2_);}
	.st1{fill:#03304F;}
	.st2{fill:#FFFFFF;}
	.st3{fill:#2BD88D;}
	.st4{fill:#FFDB45;}
</style>
<title>ilustras</title>
<g>
	<g>
		<defs>
			<rect id="SVGID_1_" width="350" height="140"/>
		</defs>
		<clipPath id="SVGID_2_">
			<use xlink:href="#SVGID_1_"  style="overflow:visible;"/>
		</clipPath>
		<g class="st0">
			<rect x="-49.9" y="-61.1" class="st1" width="439.4" height="405.1"/>
			<rect x="78.6" y="38.5" class="st2" width="173.3" height="0.7"/>
			<rect x="78.6" y="19" class="st2" width="173.3" height="0.7"/>
			<rect x="78.6" y="58.1" class="st2" width="173.3" height="0.7"/>
			<rect x="78.6" y="77.7" class="st2" width="173.3" height="0.7"/>
			<rect x="78.6" y="97.3" class="st2" width="173.3" height="0.7"/>
			<rect x="78.6" y="116.9" class="st2" width="173.3" height="0.7"/>
			<circle class="st3" cx="164.3" cy="38.8" r="6"/>
			<circle class="st1" cx="164.3" cy="38.8" r="2.5"/>
			<polygon class="st3" points="281.3,131.3 281.3,159.6 255.4,159.6 255.4,147.6 252.2,160.3 223.9,159.6 223.9,131.3 			"/>
			<path class="st3" d="M265.1,131.3c-2,4.4-8.9,16.1-9.8,17.7v10.7h25.9v-28.4H265.1z"/>
			<path class="st4" d="M216.5,195.5c-0.3,0-0.6-0.2-0.7-0.5l-52-155.1l-20.7,10.8c-0.1,0.1-0.2,0.1-0.4,0.1h-17.1l-19.9,33.2
				c-0.1,0.2-0.3,0.3-0.5,0.4l-28.4,6.6c-0.4,0.1-0.8-0.2-0.9-0.6c-0.1-0.4,0.2-0.8,0.6-0.9c0,0,0,0,0,0l28.1-6.5l19.9-33.3
				c0.1-0.2,0.4-0.4,0.7-0.4h17.4l21.4-11.2c0.2-0.1,0.5-0.1,0.7,0c0.2,0.1,0.4,0.3,0.4,0.5l52.3,155.9c0.1,0.4-0.1,0.9-0.5,1
				c0,0,0,0,0,0C216.7,195.5,216.6,195.5,216.5,195.5z"/>
			<path class="st2" d="M173.9,69.7c0,0.3,0.2,0.5,0.5,0.5c0,0,0,0,0,0l2.1,0.1l-3.2,2.1c-0.3,0.2-0.4,0.6-0.2,0.9
				c0.2,0.2,0.5,0.3,0.8,0.2l2.4-1l3.7,0.2l-3.4-0.1l-3,2.2c-0.3,0.2-0.3,0.5-0.2,0.8c0.2,0.2,0.5,0.3,0.7,0.2l3-1.1l2.6,0.1
				c0.1,0,0.1,0,0.1,0.1c0,0.1,0,0.1-0.1,0.1c0,0,0,0,0,0l-2.4,0.2l-2.9,1.2c-0.2,0.1-0.4,0.3-0.4,0.5l0.4,0.6c0.1,0,0.2,0,0.2,0
				l3.1-0.3l2-0.1l4.5,6.3l6.5-7.3c-0.6-0.6-1.3-1.1-2-1.6l-6-4.3l-3.7-1.7c-0.4-0.2-0.8-0.2-1.2-0.2l-3.6,0.6
				C174.1,69.2,173.9,69.4,173.9,69.7z"/>
			<path class="st1" d="M181.2,70.9c0,0-0.1-0.1-0.1-0.1l-3.4-0.7c-0.3-0.1-0.7,0-1,0.1l-0.2,0.1c-0.1,0.1-0.1,0.2-0.1,0.3
				c0.1,0.1,0.2,0.1,0.3,0.1c0,0,0,0,0,0l0.2-0.1c0.2-0.1,0.4-0.1,0.7-0.1l3.5,0.8l0,0c0.1,0,0.2-0.1,0.2-0.2
				C181.2,71,181.2,70.9,181.2,70.9z"/>
			<path class="st1" d="M179.9,72.7l-3-0.2h-0.1l-0.2,0.1c-0.1,0-0.1,0-0.1,0.1c0,0.1,0,0.1,0,0.2c0,0.1,0.1,0.1,0.1,0.1
				c0.1,0,0.1,0,0.2,0h0.2l3,0.2l0,0c0.1,0,0.2-0.1,0.2-0.2C180.1,72.8,180.1,72.7,179.9,72.7C179.9,72.7,179.9,72.7,179.9,72.7z"/>
			<path class="st2" d="M256.9,47.9l-1.4-8l-23.8-18.5l-0.1,17.2c0,1.7,0.8,3.4,2.2,4.4c1.5,1.1,3.9,2.1,8,2l-0.2,4.2
				C241.5,49.1,247.2,50.8,256.9,47.9z"/>
			<path class="st3" d="M255.8,41.8c0,0-8,2.8-11.7-4.8c0,0,0-4.4-4.1-2.7c0,0-3.6-0.2-2.9-5.2c0.1-0.4,0-0.8-0.2-1.2
				c-0.4-0.6-1.2-0.8-1.8-0.5c-1.2,0.4-2.4,1-3.5,1.8v1.6c0,0-4.9-1.1-3.8-7.4c0,0,0.7-7.7,11.2-7.1c0,0,7.2,0.2,9.5,4.5l0.1-2.8
				c0,0,9.5,1.8,8.9,11.9c-0.3,2.5-0.9,5-1.8,7.3l2.1,0.1L255.8,41.8z"/>
			<path class="st2" d="M231.6,32.4l-1.2,4.6c-0.1,0.2,0.1,0.5,0.3,0.5l0.9,0.3L231.6,32.4z"/>
			<path class="st1" d="M307,108.8c-1.5-4.9-3.4-9.7-5.7-14.3c-4.9-9.6-19.3-36-19.3-36s-4.2-6.3-10-7s-10.4-0.3-13.4-7.1
				c0,0-0.1,0.1-0.1,0.1c-0.7,0.6-1.4,1-2.2,1.4c-2.6,1.3-7.4,2.8-15,1.8c-0.6-0.1-1.3-0.2-2-0.3h-0.2l-0.8,4.1l-3.1,1.4
				c-2.9,1.3-5.7,2.7-8.4,4.3c-2.9,1.8-5.5,3.9-6.4,6.2c-0.7,1.7-1.1,3.4-1.3,5.2l-2.6,23l-24.2-19.8l-2.8,3.5l-5.9,7.4l-2.7,3.4
				l30.2,30.2c3.1,2.5,6.9,3.8,10.9,3.6v11.2c39.6,10.8,61,0,61,0v-3.5l0,0c0.8,0.3,1.7,0.5,2.5,0.6l0,0c4.5,0.9,9.1,0.7,13.5-0.6
				c4.6-1.5,6.8-5.3,7.9-8.9C307.9,115.6,307.9,112.1,307,108.8z M282,108.9l-0.4-7.6l4.4,7.6H282z"/>
			<path class="st2" d="M244.1,127.8L244.1,127.8z"/>
			<path class="st3" d="M28.8,280.8c9.5-6.5,22.3-4.7,29.6,4.2l26.4-112.1c0.6,12,1.3,24.7,2,37.7c0.1,2.1,0.2,4.3,0.3,6.5
				c1.2,22.4,2.3,45.3,3.4,65.8c9.4-6.3,21.7-6.3,31.2,0c-0.5-6.9-1.4-28.1-2.6-53l0,0c-0.1-2.3-0.2-4.6-0.3-6.9l0,0
				c-1.2-27.3-2.6-57.5-3.8-77.4c-0.1-2.3-0.3-4.5-0.4-6.5c-0.6-9.7-3-15.7-3.3-15.7h-32c-3.3,3.5-6.3,7.2-9,11.1
				c-3.1,4.3-6.1,8.8-8.8,13.4c-0.9,1.5-1.7,3-2.5,4.5l0,0c-1,1.9-2,3.8-2.8,5.9l-0.7,1.5c-1.5,3.1-2.6,6.4-3.5,9.8
				c-3.5,16.6-7,33.3-10.5,49.9c0,0.1,0,0.2-0.1,0.4l-1,4.7l0,0c-0.1,0.6-0.3,1.2-0.4,1.9C36.5,244.5,32.7,262.6,28.8,280.8z"/>
			<path class="st2" d="M108.9,49.3c0,0,6.4,15.9-4.1,18.7v6.6l-13.1,0.2l0.8-21.3L108.9,49.3z"/>
			<path class="st3" d="M111.3,43.5c0.4-0.4,0.7-0.9,0.7-1.5c0-0.3-0.1-0.6-0.3-0.8c0.8-0.9,0.8-2.3-0.1-3.1
				c-0.2-0.2-0.4-0.3-0.6-0.4c0-0.2,0-0.4,0-0.6c-0.2-1.8-1.8-3-3.6-2.8c-0.4,0-0.8,0.2-1.2,0.3c-0.4-1.6-2-2.5-3.6-2.1
				c-0.4,0.1-0.8,0.3-1.2,0.6h-0.1c-0.6-1.9-2.8-3-4.8-3c-1.3,0-2.8,0.6-3.2,1.9c-0.4-0.9-1.5-1.3-2.4-0.9c-0.5,0.2-0.9,0.6-1,1.1
				c-0.5-0.6-1.2-0.8-1.9-0.7c-0.7,0.2-1.2,0.9-1.1,1.6c-0.2-1-1.9-1.5-2.8-1.6c-1.3-0.2-2.6-0.1-3.8,0.5c-2,0.9-4.4,3.6-3,5.8
				c-0.6-0.4-1.4-0.5-2.1-0.2c-0.6,0.4-1.1,1-1.2,1.7c-0.1,0.7,0.2,1.3,0.9,1.6c-2.2-0.1-4.1,1.3-4.7,3.4c-0.5,2.1,0.1,4.3,1.6,5.8
				c-0.9,0.2-1.7,0.7-2.2,1.4c-0.5,0.7-0.9,1.6-1,2.5c-0.4,1.9,0,3.9,1,5.6c0.6,1,1.6,1.9,2.8,1.7c-0.6,0.6-0.6,1.6,0,2.2
				c0.5,0.4,1.1,0.6,1.7,0.3c0,1.5,0.5,3,1.5,4.2c1,1.2,2.4,1.9,4,1.9c0.6,0,1.2-0.2,1.6-0.6c0.1,0.9,1,1.5,1.9,1.4
				c0.4-0.1,0.7-0.2,1-0.5c0.2,0.7,0.7,1.3,1.3,1.6V72h0.3c0.1,0,0.2,0.1,0.3,0.1c1.1,0.3,2.2,0.1,3.2-0.3c0.2,0.1,0.4,0.1,0.7,0.1
				c0.7-0.1,1.3-0.8,1.3-1.5c1.3,1.1,3.3,0.8,4.3-0.5c0.4-0.5,0.7-1.2,0.7-1.9c1.4,0.5,2.9-0.2,3.4-1.6c0.2-0.5,0.2-1.1,0.1-1.6
				c1.9,0.4,3.8-0.9,4.6-2.6c0.7-1.1,0.6-2.4-0.2-3.4c0.9,0.1,1.7-0.6,1.8-1.5c0-0.5-0.1-1-0.5-1.3c0.7-0.2,1.2-0.7,1.4-1.3
				c0.2-0.7-0.2-1.4-0.8-1.6c0.9,0.2,2-0.9,2.5-1.5c0.3-0.4,0.6-0.9,0.8-1.3c1-0.3,1.7-1.3,1.6-2.4c0-0.3-0.1-0.5-0.2-0.8
				c0.7-0.4,1.1-1.3,1.1-2.1C112,44.3,111.7,43.8,111.3,43.5z"/>
			<path class="st2" d="M101.8,59.9c0.2,1.5,1.6,2.6,3.1,2.3c1.5-0.2,2.6-1.6,2.3-3.1c-0.2-1.5-1.6-2.5-3.1-2.4
				C102.7,56.9,101.6,58.4,101.8,59.9z"/>
			<path class="st2" d="M130.9,96.2l3.9,4.6l14.8-25.9l6,2.2l-11.7,33.8c-1,2.7-3.1,4.8-5.7,5.9l0,0c-3.9,1.6-8.3,0.6-11.2-2.4
				l-5.4-5.8L130.9,96.2z"/>
			<path class="st1" d="M58.5,96.6c3.3,7.8,13.4,10.8,13.4,10.8l5.7-7.8l1.4,24.1c1.7,1,6.3,2.2,13.7,2.2c6.1,0,16.1-1,18.7-2.5
				l4.6-18.5c0,0,3.1,3.4,5.3,5.6c5.3-2.9,10.7-7.8,11.5-15.5c-2-2-8.5-9.5-13.6-15s-7-6-15.8-6.4c-5.2-0.3-10.5-0.1-15.7,0.5
				c-5.3,0-10.3,2.2-13.9,6.1L58.5,96.6z"/>
			<path class="st2" d="M70.1,106.6l-2.6,5.1c-0.4,0.7-0.4,1.5-0.2,2.3l5,17.4l-5.8,8.4l-11.2-20.5c-2.6-4.9-2.5-10.7,0.3-15.5
				l3.6-6.2C61.7,101.8,65.6,104.9,70.1,106.6z"/>
			<path class="st2" d="M151.8,78.6l3.7-1.5l2.2-9.1c0.1-0.4-0.1-0.9-0.5-1c-0.2,0-0.5,0.1-0.6,0.3c0.1-0.4,0.3-0.8,0.4-1.1
				c0.1-0.5-0.2-0.9-0.6-1c-0.3-0.1-0.6,0-0.8,0.3l0.5-0.9c0.2-0.4,0-0.9-0.4-1.1c-0.4-0.2-0.8-0.1-1,0.3l1.7-3.9
				c0.2-0.2,0.3-0.5,0.1-0.7s-0.5-0.3-0.7-0.1c-0.1,0.1-0.2,0.2-0.2,0.4c-2.1,3.4-4.3,6.8-6.4,10.3l-0.7-2.8
				c-0.2-0.7-0.8-1.3-1.5-1.3h-0.1l0.3,6l1.8,4.7l0.8,4.5c2.4-0.3-0.6,3.3,1.9,3L151.8,78.6z"/>
			<path class="st1" d="M152.7,68.1C152.7,68,152.7,68,152.7,68.1l2.1-4.3c0.1-0.1,0-0.2-0.1-0.3c0,0,0,0,0,0
				c-0.1-0.1-0.2,0-0.3,0.1l-2,4.2c-0.1,0.1,0,0.2,0.1,0.3C152.5,68.1,152.6,68.1,152.7,68.1z"/>
			<path class="st1" d="M154.2,69.1c0,0,0.1-0.1,0.1-0.1l1.4-3.5c0-0.1,0-0.2-0.1-0.3c-0.1,0-0.2,0-0.3,0.1l0,0l-1.5,3.5
				c-0.1,0.1,0,0.2,0.1,0.3c0,0,0,0,0,0C154.1,69.1,154.1,69.1,154.2,69.1z"/>
			<path class="st1" d="M155.9,70c0.1,0,0.1-0.1,0.1-0.1l0.8-2.5c0-0.1,0-0.2-0.1-0.3c-0.1,0-0.3,0-0.3,0.1c0,0,0,0,0,0l-0.8,2.5
				c0,0.1,0,0.2,0.1,0.3C155.7,70,155.8,70,155.9,70L155.9,70z"/>
			<path class="st2" d="M133.2,94.6c-0.6-0.7-2.2-2.4-4.1-4.6c-2.9-3.2-6.4-7.2-9.4-10.4c-5.1-5.5-7.1-6.1-16.1-6.5
				c-5.3-0.3-10.5-0.1-15.7,0.5c-3.4,0-6.8,0.9-9.7,2.6c-1.7,1-3.2,2.2-4.6,3.6L58.2,96.3c-0.1,0.1-0.2,0.3-0.1,0.5
				c3.3,8,13.6,11.1,13.7,11.1c0.2,0,0.4,0,0.5-0.2l4.9-6.8l1.3,22.8c0,0.2,0.2,0.4,0.5,0.4l0,0c0.1,0,0.2-0.1,0.3-0.2
				c0.1-0.1,0.1-0.2,0.1-0.3l-1.3-24.1c0-0.2-0.1-0.4-0.3-0.4c-0.2,0-0.4,0-0.5,0.2l-5.5,7.6c-1.5-0.5-9.7-3.6-12.7-10.2l15.1-16.4
				c1.3-1.4,2.7-2.5,4.3-3.5c2.8-1.6,6-2.5,9.3-2.5h0.1c5.2-0.6,10.4-0.8,15.6-0.5c8.8,0.5,10.5,1,15.5,6.3c3,3.2,6.6,7.2,9.4,10.4
				v0.1c1.8,2,3.3,3.7,4,4.4c-0.3,4.3-1.8,9.9-11,14.8c-2-2.1-5-5.3-5-5.3c-0.1-0.1-0.3-0.2-0.5-0.1c-0.2,0-0.3,0.2-0.3,0.3
				l-4.7,18.5c-0.1,0.2,0.1,0.5,0.3,0.6c0,0,0,0,0,0c0.2,0.1,0.5-0.1,0.6-0.3l4.4-17.7c1.1,1.2,3.2,3.4,4.7,4.9
				c0.1,0.1,0.4,0.2,0.5,0.1c9.9-5.2,11.5-11.2,11.8-15.9C133.3,94.8,133.2,94.7,133.2,94.6z"/>
			<path class="st2" d="M307.7,108.7c-1.5-5-3.4-9.8-5.8-14.4c-4.9-9.5-19.2-35.8-19.3-36s-4.4-6.5-10.3-7.2
				c-0.7-0.1-1.4-0.2-2.1-0.2c-4.7-0.5-8.4-0.9-10.9-6.6c-0.1-0.1-0.2-0.2-0.4-0.3c-0.2,0-0.3,0-0.4,0.2l-0.1,0.1
				c-0.6,0.5-1.3,1-2.1,1.3c-2.6,1.3-7.3,2.8-14.7,1.8c-0.7-0.1-1.4-0.2-2-0.3h-0.1h-0.1c-0.1,0-0.3,0-0.4,0.1
				c-0.1,0.1-0.2,0.2-0.2,0.3l-0.8,3.9l-3.6,1.7c-2.6,1.2-5.2,2.5-7.7,4c-3.6,2.2-5.8,4.3-6.6,6.4c-0.7,1.7-1.2,3.5-1.4,5.3
				l-2.5,22.2l-23.5-19.3c-0.1-0.1-0.2-0.1-0.3-0.1c-0.1,0-0.2,0.1-0.3,0.2l-11.5,14.3c-0.2,0.2-0.2,0.4,0,0.6l30.3,30.2
				c3,2.5,6.8,3.8,10.8,3.8v10.7c0,0.3,0.2,0.5,0.5,0.5h0c0.3,0,0.5-0.2,0.5-0.5v-10.8c2.2-0.3,12.5-2,15.1-12.7
				c2.9-11.4,6.6-40.2,6.8-41.4c0-0.2-0.1-0.5-0.4-0.5c0,0,0,0,0,0c-0.2,0-0.5,0.1-0.5,0.4c0,0.3-3.8,29.7-6.7,41.3
				c-2.8,11-14,12-14.7,12l0,0c-3.8,0.2-7.6-1.1-10.5-3.5l-30-29.9l10.9-13.6l23.8,19.5c0.1,0.1,0.3,0.1,0.5,0.1
				c0.2-0.1,0.3-0.2,0.3-0.4l2.6-23c0.2-1.7,0.6-3.5,1.3-5.1c0.8-1.9,2.8-3.8,6.2-5.9c2.5-1.4,5-2.7,7.6-3.9l3.8-1.8
				c0.1-0.1,0.2-0.2,0.3-0.3l0.7-3.7c0.6,0.1,1.1,0.2,1.8,0.3c7.6,1,12.5-0.5,15.3-1.9c0.7-0.3,1.3-0.7,1.9-1.2
				c2.7,5.7,6.7,6.1,11.4,6.6l2.1,0.2c5.4,0.7,9.4,6.5,9.6,6.8v0.1c1.5,2.7,14.6,26.9,19.3,35.9c2.4,4.6,4.3,9.3,5.7,14.3
				c0.9,3.2,0.9,6.6,0,9.8c-1.4,4.5-3.9,7.4-7.6,8.6c-4.3,1.3-8.9,1.5-13.3,0.6h0c-0.6-0.1-1.4-0.3-2.2-0.5l-0.8-18h3.4
				c0.2,0,0.3-0.1,0.4-0.2c0.1-0.1,0.1-0.3,0-0.5l-4.2-7.1l-1.6-35.4c0-0.1-0.1-0.2-0.2-0.3c-0.1-0.1-0.2-0.1-0.3-0.1
				c-0.3,0-0.4,0.2-0.4,0.5l2.8,61.5v3.5c0,0.3,0.3,0.4,0.5,0.4c0.2,0,0.4-0.2,0.4-0.4v-2.9c0.8,0.2,1.5,0.4,2,0.5l0,0
				c4.6,0.9,9.3,0.7,13.8-0.7c3.9-1.3,6.8-4.4,8.2-9.2C308.6,115.7,308.7,112.1,307.7,108.7z M282.5,103.6l2.9,4.9h-2.7L282.5,103.6
				z"/>
			<path class="st2" d="M109.7,53.9c0.3-0.1,1.8,1.9,2.2,2.8s-1.4,2.6-1.4,2.6L109.7,53.9z"/>
		</g>
	</g>
</g>
</svg>
