<?xml version="1.0" encoding="utf-8"?>
<!-- Generator: Adobe Illustrator 23.0.6, SVG Export Plug-In . SVG Version: 6.00 Build 0)  -->
<svg version="1.1" id="Layer_1" xmlns="http://www.w3.org/2000/svg" xmlns:xlink="http://www.w3.org/1999/xlink" x="0px" y="0px"
	 viewBox="0 0 350 140" style="enable-background:new 0 0 350 140;" xml:space="preserve">
<style type="text/css">
	.st0{clip-path:url(#SVGID_2_);}
	.st1{fill:#03304F;}
	.st2{fill:#2BD88D;}
	.st3{fill:#FFFFFF;}
	.st4{fill:#AC9AF0;}
	.st5{fill:#464646;}
	.st6{fill:#FFDB45;}
	.st7{fill:#FF7867;}
</style>
<title>ilustras</title>
<g>
	<g>
		<defs>
			<rect id="SVGID_1_" width="350" height="140"/>
		</defs>
		<clipPath id="SVGID_2_">
			<use xlink:href="#SVGID_1_"  style="overflow:visible;"/>
		</clipPath>
		<g class="st0">
			<rect x="-100.1" y="-114.9" class="st1" width="498.9" height="459.9"/>
			<path class="st2" d="M57.4,104.6v5.3c0,0,0.3,3.7-2.2,12.2c-2.3,7.8-5.7,27.1,5.5,33.4c1.6,0.9,3.4,1.3,5.3,1.3h37.5l-16,52.9
				c0,0,0.9,3.4,11.6,0.6s8,4.9,8,4.9l22.9-59.9c0,0,0.1-0.2,0.1-0.5c2.8-10.1-3-20.5-13.1-23.4c-0.5-0.1-1.1-0.3-1.6-0.4l-12.6-2.5
				l-12.2-11.2v-12.8H57.4z"/>
			<path class="st2" d="M76.5,122.1c-2.2,7.8-5.7,27.1,5.5,33.4c1.6,0.9,3.4,1.3,5.3,1.3h37.5l-16,52.9c0,0,0.9,3.4,11.6,0.6
				s8,4.9,8,4.9l22.9-59.9c0,0,0.1-0.2,0.1-0.5c2.8-10.1-3-20.5-13.1-23.4c-0.5-0.1-1.1-0.3-1.6-0.4l-43.4-4.1
				C93.4,126.9,78.9,113.6,76.5,122.1z"/>
			<path class="st1" d="M103,128.9c0.2,0,0.3-0.1,0.3-0.3c0-0.2-0.1-0.3-0.3-0.4c0,0,0,0,0,0l-27-3.3c-0.2,0-0.3,0.1-0.4,0.3
				c0,0.2,0.1,0.3,0.3,0.4L103,128.9L103,128.9z"/>
			<path class="st1" d="M103,129L103,129l-27.1-3.3c-0.2,0-0.4-0.2-0.4-0.5c0,0,0,0,0,0c0-0.2,0.2-0.4,0.5-0.4l27.1,3.3
				c0.2,0,0.4,0.2,0.4,0.4c0,0.2-0.2,0.4-0.4,0.4l0,0L103,129z M75.9,125c-0.1,0-0.2,0.1-0.2,0.2c0,0.1,0.1,0.2,0.2,0.3l27.1,3.3
				l0,0c0.1,0,0.2-0.1,0.2-0.2c0-0.1-0.1-0.2-0.2-0.3c0,0,0,0,0,0L75.9,125L75.9,125z"/>
			<path class="st2" d="M113.2,79.8c0,0-0.6,3.3-2.7,4l-2.4-3.2C109.5,79.4,111.5,79.1,113.2,79.8z"/>
			<path class="st3" d="M115.1,86.5l13.2-8.9l4.7,2.2l-13.1,16c-1.9,1.8-4.6,2.8-7.2,2.6L115.1,86.5z"/>
			<path class="st3" d="M108.9,79.9l6.6,6.7l-0.9,11.8c-0.2,0-0.4,0.1-0.6,0.1c-3,0.2-5.9-0.6-8.4-2.3l-10.1-7.8L108.9,79.9z"/>
			<path class="st1" d="M92.3,85.7l1.5,1.7l3.5,3.9c3.5-0.3,6.4-2.5,7.7-5.8c0.3-1.3,0.9-2.5,1.7-3.5c1.5-1.9,4.1-2.8,6.5-2.1
				l-9.8-10.4l-1.3-1.4l-2.8-3c-1-1.1-2.2-2.1-3.4-2.9l-0.4-0.3l-0.8-0.5l0,0L92.3,85.7z"/>
			<path class="st1" d="M57.3,82.5L57.3,82.5l0.1,2.2l1.2,26.7l33.4,1.9c-0.5-3-0.7-8.8-0.8-10.5L92,89.4c0.7-0.6,1.4-1.3,1.8-2.1
				c0.2-0.3,0.4-0.7,0.6-1.1l0.2,0.2l1.3-24.4V62l-1.2-0.7l0,0c-2.5-1.4-5.4-2.2-8.3-2.2h-4.7l-16.5,0.4h-1.1
				c-1.6,0-3.2,0.2-4.7,0.5c-0.8,0.2-1.5,0.4-2.3,0.6l0,0H57l0,0L57.3,82.5z"/>
			<path class="st4" d="M50.2,65c0.7,1.8,2.4,2.9,4.3,2.9L54.5,66c-1.3,0-2.5-0.9-2.6-2.3c-0.4,0.3-0.8,0.6-1.2,1L50.2,65z"/>
			<path class="st3" d="M76.1,73.6c-6.4-0.4-11.4-5.8-12.3-13.7c0-0.2,0.1-0.4,0.3-0.4c0.2,0,0.4,0.1,0.4,0.3c0,0,0,0,0,0
				c1,8,6.3,13.4,12.9,13.1c3.2-0.2,6.2-1.7,8.2-4.3c0.4-0.5,0.7-1,1.1-1.5c1.3-2.3,2-4.8,2.2-7.4c0-0.2,0.2-0.4,0.4-0.3
				c0,0,0,0,0,0l0,0c0.2,0,0.4,0.2,0.3,0.4c-0.1,2.7-0.9,5.4-2.3,7.7c-0.3,0.6-0.7,1.1-1.1,1.6c-2.1,2.7-5.3,4.4-8.7,4.5
				C77,73.6,76.5,73.6,76.1,73.6z"/>
			<path class="st2" d="M45,87c0,0,1.2,3.2,3.8,3l-0.5-2.3C48.3,87.7,47.2,88.5,45,87z"/>
			<path class="st1" d="M62.5,60.3L65,79.7L64.7,83l-0.4,5.2c0,0-4.4-6.3-10.5-2.9C47,89,47,88.2,45,87.1c0.3-2.8,0.5-5.6,0.8-8.5
				c0.4-4.6,0.5-9.2,3.5-13c2-2.6,4.9-4.4,8.1-5.1c1.3-0.5,2.6-0.6,4-0.5C61.4,59.9,62.5,60.2,62.5,60.3z"/>
			<path class="st3" d="M64.3,88.3c-0.1,0-0.1,0-0.1-0.1c-0.5-0.6-1-1.2-1.6-1.7c-0.1-0.1-0.1-0.2,0-0.3c0.1-0.1,0.2-0.1,0.3,0
				c0.5,0.4,1,0.9,1.4,1.4l0.1-0.7l0.4-13c0-0.1,0.1-0.2,0.2-0.2c0,0,0,0,0,0c0.1,0,0.2,0.1,0.2,0.2c0,0,0,0,0,0l-0.4,12.9l-0.1,1.2
				C64.5,88.2,64.4,88.2,64.3,88.3L64.3,88.3z"/>
			<path class="st3" d="M132.1,69.4c0.6,0.2,0.9,0.8,0.7,1.4l-0.3,2.9l6.9-4.8c0.2-0.2,0.5-0.2,0.7,0c0,0,0.1,0.1,0.1,0.2
				c0.1,0.3,0,0.6-0.3,0.8l-4.4,3.9l6.1-2.9c0.2-0.1,0.5-0.1,0.6,0.2c0,0,0,0.1,0.1,0.2c0.1,0.3-0.1,0.7-0.4,0.8h-0.1l-5.8,3.1
				l5.4-2.1c0.2-0.1,0.4,0,0.5,0.2c0,0,0,0,0,0l0,0c0.1,0.3,0,0.6-0.3,0.8l-5.4,2.9l4.5-0.8c0.3,0,0.4,0,0.5,0.3c0,0.1,0,0.1,0,0.2
				c-0.1,0.2-0.2,0.4-0.5,0.5l-10.5,5.1l-2.9-3.9c0,0,0.6-1,1.6-2.7C130.2,73.6,131.2,71.5,132.1,69.4z"/>
			<path class="st5" d="M224,91.3c0.9,0.9,2,1.6,3.2,1.9l0.3-2.5C226.3,90.4,225,90.6,224,91.3z"/>
			<path class="st3" d="M227.4,83.1L225,98.3l-19.2-18.2l-5.9,3.9l17.5,27.8c3.5,5,9.6,7.3,15.5,5.8l4.5-1.1l1.8-29.9L227.4,83.1z"
				/>
			<path class="st1" d="M224,91.4c1.6-0.8,3.3-0.9,5-0.4c1.9,0.7,3.8,1.5,5.6,2.4c0.7,0.4,1.6,0.6,2.4,0.7c0.4,0,0.8-0.1,1.1-0.2
				l-7.8,45.3l63,5.3l-0.2-22.1l-6.5-21.7l0,0l0.1-1.3c1.9-0.1,3.7,0.2,5.4,1.1c2.3,1,4.6,2.3,7.1,2.1s2.9-1.9,5.4-2
				c1.7-0.1,3.4,0.5,4.6,1.7c0,0-0.6-4.6-1.4-9.9c-0.3-2.3-0.7-4.8-1.1-7c-0.6-3.9-1.1-7.2-1.4-8c-1.4-4.6-4.1-8.6-7.9-11.4
				l-0.8-0.6c-1.1-0.8-2.3-1.5-3.6-2.1c-2-0.9-4.1-1.5-6.2-2l-1.7-0.3l-6.6-1.1l-2.5-0.3L260.5,59l-3.2,0.1l-9,0.2
				c-5.9,0.3-8.4,1.6-12.7,5.5l-0.5,0.5c-1.6,1.4-3.6,5.7-5.5,10.4c-1,2.6-2,5.2-2.9,7.7C225.5,86.7,224.5,89.8,224,91.4z"/>
			<path class="st3" d="M256.1,60.3c0.6,6.6,6.3,11.4,12.9,10.9c5.9-0.5,10.6-5.3,10.9-11.2l-2.8-0.3l-17.5-0.7L256,59
				C256,59.4,256,59.9,256.1,60.3z"/>
			<path class="st3" d="M267.9,71.6c0.4,0,0.7,0,1.1,0c6.1-0.6,10.8-5.5,11.2-11.6l-0.8,0c-0.4,5.7-4.8,10.3-10.5,10.8
				c-6.4,0.6-12-4.2-12.5-10.5c0,0,0,0,0,0c0-0.4-0.1-0.8,0-1.3h-0.8c0,0.4,0,0.9,0,1.3c0.3,3.3,1.9,6.3,4.4,8.4
				C262.3,70.6,265.1,71.6,267.9,71.6z"/>
			<path class="st2" d="M258.3,137l-52.5-10.9c-3-0.6-6.1-0.3-8.9,1l0,0c-5.2,2.4-8.4,7.7-8.3,13.3l1.8,98.6h16.5l9.4-80.2l24.6,7.1
				C241,165.9,257.4,137,258.3,137z"/>
			<path class="st2" d="M293.5,144.5c0.7,4.6,0.8,9.2,0.4,13.8c-0.4,4.5-2.5,7.9-7,7.9H255l-29.4,71.6l-16.6-6.1l13.5-69.2
				c1.3-6.2,3.1-12.2,5.6-18c3.7-8.5,13-13.2,22-10.9L293.5,144.5z"/>
			<path class="st2" d="M309.5,102.2c-1.4,0.7-3,1.2-4.6,1.3l0.7-2.9C307,100.6,308.4,101.1,309.5,102.2z"/>
			<path class="st3" d="M197.6,81.1c-0.1,0-3.7-4.9-3.7-4.9c0-0.4,0.1-0.7,0.3-1c0.3-0.4,0.8-0.5,1.3-0.3c-0.2-0.3-0.1-0.1-0.3-0.4
				c-0.1-0.4,0-0.8,0.3-1.1c0.3-0.2,0.7-0.3,1-0.1c-0.2-0.3,0.4,0.5,0.2,0.2c-0.2-0.3-0.3-0.7-0.2-1c0.1-0.1,0.1-0.3,0.2-0.4
				c0.4-0.4,1-0.5,1.4-0.2c-0.7-0.9-2.2-2.9-2.8-3.8c-0.2-0.3-0.2-0.6,0-0.9l0,0c0.2-0.3,0.7-0.4,1-0.1c0,0,0.1,0.1,0.1,0.1l6.9,6.8
				l1.4-4.7c0.2-0.8,1-1.3,1.8-1.1c0.1,0,0.1,0,0.2,0.1l-0.8,11.8l2.2,2.1l-5.4,5L197.6,81.1z"/>
			<path class="st3" d="M259.2,54.4c0,0-4.7-2.5-3.8-10.3l1.1-10.4l6.8-6.1l11.1,7.7l-1.8,7.5l4,6.3l-0.9,12.5l-17-1.2L259.2,54.4z"
				/>
			<path class="st2" d="M276.4,53.7c2.3-0.1,4.6-1,6.4-2.5c0.8-0.8,1.3-1.9,1.1-3c-0.1-1-0.9-1.8-1.9-1.7c0,0,0,0,0,0
				c0,0,7.1-4.1,6.5-11.4c0,0-0.3-3.8-5.5-2c0,0,4.4-4.3,1.6-9c-0.9-1.5-2.9-2-4.4-1.1c-0.1,0-0.1,0.1-0.2,0.1c0,0,0.5-2.6-1.8-3.4
				s-4.4,1.7-4.4,1.7s0-4.3-3.6-5.4s-5.9,2.9-5.9,2.9c-0.9-0.8-2.1-1-3.2-0.6c-1.7,0.7-1.3,2.8-1.3,2.8s-3.5-1.4-5.4,1.1
				s0.7,6.1,0.7,6.1s-7.4,0.3-7.1,7.4s7.2,8.6,7.2,8.6L256,39c0,0.3,1.6,0.6,1.8,0.6c1,0.1,1.9-0.5,2.3-1.3c0.1-0.5,0.2-1,0.2-1.5
				c0.1-1.3,0.9-2.5,2.1-3.1c1-0.3,2.1,0.2,2.4,1.2c0.1,0.3,0.1,0.6,0.1,0.9c-0.1,0.7-0.2,1.5-0.5,2.2c-0.3,1.1-0.2,2.6,1.1,3
				c0.8,0.2,1.6-0.1,2.1-0.8c0.7-0.9,1.9-2.3,3-1.8c1.7,0.7,1.7,4.7,1.7,4.7l4.4,6.1L276.4,53.7z"/>
			<path class="st3" d="M271.5,45.4c0,2.2,1.8,4,4,4s4-1.8,4-4s-1.8-4-4-4S271.5,43.2,271.5,45.4z"/>
			<path class="st1" d="M259.2,54.4c0,0,4.4,2.2,12.5-1.9c-3.3,3.3-8.1,4.8-12.7,4L259.2,54.4z"/>
			<path class="st1" d="M263.6,44.2c-0.1,0.6,0.1,1.1,0.4,1.2s0.8-0.3,0.9-0.9s-0.1-1.1-0.4-1.2S263.7,43.7,263.6,44.2z"/>
			<path class="st1" d="M257.9,43.4c-0.1,0.6,0.2,1.1,0.6,1.2s0.8-0.4,0.8-1s-0.2-1.1-0.6-1.2S258,42.8,257.9,43.4z"/>
			<path class="st1" d="M259.7,49.3c0.1,0,0.2-0.1,0.3-0.2c0.1-0.1,0-0.3-0.1-0.4c-0.1-0.1-0.5-0.3-0.5-0.6s0.2-0.5,0.4-0.6
				c1.4-1,1.8-3.9,1.8-4c0-0.2-0.1-0.3-0.3-0.3c-0.2,0-0.3,0.1-0.4,0.3c0,0-0.4,2.8-1.6,3.7c-0.4,0.2-0.6,0.7-0.6,1.1
				c0.1,0.5,0.4,0.9,0.9,1.1C259.6,49.4,259.7,49.4,259.7,49.3z"/>
			<path class="st1" d="M263.7,42.2c0.8,0,1.6,0.2,2.3,0.6c0.2,0.2,0.6,0.1,0.8-0.1l0,0c0.2-0.3,0.1-0.6-0.2-0.7c0,0,0,0,0,0
				c-0.9-0.5-1.8-0.8-2.8-0.8c-0.3,0-0.6,0.2-0.6,0.5c0,0,0,0,0,0.1l0,0C263.2,42,263.4,42.2,263.7,42.2z"/>
			<path class="st1" d="M260,41.5c-0.8-0.2-1.6-0.3-2.4-0.1c-0.3,0.1-0.6-0.1-0.7-0.3l0,0c-0.1-0.3,0.1-0.6,0.4-0.7c0,0,0,0,0.1,0
				c1-0.2,2-0.2,2.9,0.1c0.3,0.1,0.5,0.3,0.4,0.6c0,0,0,0,0,0.1l0,0C260.6,41.4,260.3,41.6,260,41.5z"/>
			<path class="st6" d="M104.2,129.2l28.3,5c1.7,0.3,3.4-0.5,4.2-2.1l17-27.3c0.9-1.9,0.1-4.2-1.9-5.1c-0.3-0.1-0.5-0.2-0.8-0.3
				l-25-4.6L104.2,129.2z"/>
			<path class="st3" d="M105.2,128.5c-0.2,0-0.4,0-0.5-0.1c-0.4-0.3-0.5-0.8-0.3-1.3l20.5-31.9c0.3-0.4,0.8-0.6,1.3-0.3c0,0,0,0,0,0
				c0.4,0.3,0.6,0.8,0.3,1.3L106,128.1C105.8,128.4,105.5,128.5,105.2,128.5z"/>
			<path class="st6" d="M109.6,130.2h-0.3l-25.5-3.7c-1-0.1-1.7-1.1-1.6-2.1s1.1-1.7,2.1-1.6l0,0l25.5,3.7c1,0.1,1.7,1,1.6,2
				C111.4,129.5,110.6,130.3,109.6,130.2L109.6,130.2z"/>
			<path class="st3" d="M131.4,113c-1.6,0.7-2.4,2.4-1.9,3.7s2.4,1.8,4,1s2.4-2.4,1.9-3.7S133,112.3,131.4,113z"/>
			<path class="st3" d="M135.4,130.2c-0.1-0.1-0.2-0.2-0.3-0.2l-27.9-4.7c-0.1,0-0.2,0-0.3,0.1c-0.2,0.1-0.2,0.4-0.1,0.6
				c0,0,0,0,0,0c0.1,0.1,0.2,0.2,0.3,0.2l27.9,4.7h0.1c0.2,0,0.4-0.2,0.4-0.4C135.5,130.4,135.5,130.3,135.4,130.2z"/>
			<path class="st6" d="M176.4,17.4c11.3,2.6,18.5,13.9,15.9,25.2c-1,4.4-3.4,8.4-6.9,11.4c0,0,0.4-0.2-1.2,1
				c-9.3,7.2-10.5,12.3-10.5,12.3c-0.2,0.7-0.9,1.2-1.6,1l-13.7-3.1c-0.7-0.2-1.2-0.9-1-1.6c0,0,0,0,0,0c0,0,1.1-5.1-4.2-15.6
				c-0.9-1.8-0.7-1.4-0.7-1.4c-1.8-4.2-2.3-8.8-1.3-13.2C153.8,22,165,14.9,176.4,17.4z"/>
			<path class="st1" d="M159.7,79.5l-6-1.3c-1.8-0.4-3-2.2-2.6-4c0,0,0,0,0,0l0,0c0.4-1.8,2.2-3,4-2.6c0,0,0,0,0,0
				c-1.8-0.4-3-2.2-2.6-4c0.4-1.8,2.2-3,4.1-2.6l0,0l16.8,3.6c1.9,0.3,3.1,2,2.9,3.9c-0.3,1.9-2,3.1-3.9,2.9c-0.1,0-0.3,0-0.4-0.1
				c1.8,0.4,3,2.2,2.6,4l0,0c-0.4,1.8-2.2,3-4,2.6c0,0,0,0,0,0l-6.2-1.3L159.7,79.5z"/>
			<path class="st1" d="M164.9,80.6l6.8,1.4c-1.2,5.5-4.3,9.5-9.9,8.4l-3.5-0.8c-5.5-1.2-6.4-6.1-5.2-11.6l6.4,1.4L164.9,80.6z"/>
			<path class="st7" d="M155.2,71.6l9.4,2L155.2,71.6z"/>
			<path class="st3" d="M182,37.2c-1.4-2.3-4.4-3-6.7-1.5c-0.7,0.5-1.4,1.1-1.8,1.9l0,0c-0.1,0.1-0.2,0.2-0.2,0.3l-0.2,0.8l0,0
				l-0.9,3.8l-2.9-0.7l0.9-3.8l0,0l0.2-0.8c0-0.1,0-0.3-0.1-0.4l0,0c0-0.9-0.3-1.7-0.7-2.5c-1.4-2.3-4.5-3-6.7-1.5
				c-2.3,1.4-3,4.5-1.5,6.7c0.4,0.6,1,1.2,1.6,1.6c0.4,0.3,0.9,0.5,1.4,0.6c0.4,0.1,0.7,0.1,1.1,0.1h0.2c0.1,0,0.2-0.1,0.3-0.2
				c0.2-0.2,0.2-0.5,0-0.7c-0.1-0.1-0.2-0.1-0.3-0.1c-0.3,0-0.7,0-1-0.1c-1-0.2-1.9-0.9-2.5-1.8c-1.2-1.8-0.6-4.3,1.2-5.4
				s4.3-0.6,5.4,1.2c0.6,0.9,0.7,1.9,0.5,3L163,65.8l-6.2-1.3c-1-0.2-2.1,0-2.9,0.5c-1.8,1.2-2.3,3.6-1.2,5.4
				c0.2,0.3,0.4,0.6,0.7,0.8c-0.4,0.1-0.7,0.3-1,0.5c-0.9,0.6-1.5,1.4-1.7,2.4c-0.3,1.6,0.4,3.3,1.8,4.2l0,0l0.1,0.1
				c-0.6,2.4-0.6,5,0.1,7.4c0.5,1.4,1.5,2.7,2.8,3.5l0,0c0.8,0.5,1.7,0.8,2.6,1l3.5,0.7c0.7,0.1,1.3,0.2,2,0.2c1.9,0,3.7-0.7,5-2
				c1.8-1.9,2.9-4.2,3.4-6.8c0.5-0.1,1-0.3,1.4-0.5c1.8-1.2,2.3-3.6,1.2-5.4c-0.2-0.3-0.4-0.6-0.7-0.8c0.4-0.1,0.7-0.3,1-0.5
				c1.8-1.1,2.3-3.5,1.2-5.4c-0.6-0.9-1.5-1.5-2.6-1.7l-5.8-1.3l6.3-27.8l0,0c0.5-2.1,2.6-3.5,4.7-3s3.5,2.6,3,4.7
				c-0.5,2.1-2.6,3.5-4.7,3c-0.3-0.1-0.7-0.2-1-0.3c-0.2-0.1-0.5,0-0.6,0.2s0,0.5,0.2,0.6l0,0c0.4,0.2,0.8,0.3,1.2,0.4
				c0.4,0.1,0.7,0.1,1.1,0.1c0.9,0,1.8-0.3,2.6-0.8C182.8,42.6,183.4,39.5,182,37.2C182,37.2,182,37.2,182,37.2z M167,67.6h0.1
				l6.2,1.4c1.6,0.3,2.7,1.8,2.4,3.4c-0.3,1.6-1.8,2.7-3.4,2.4c-0.1,0-0.2,0-0.3-0.1h-0.2l-0.2,0.9h0.2c1.6,0.4,2.6,2,2.2,3.5
				c-0.4,1.5-1.9,2.5-3.4,2.2l-5.7-1.3l0,0l-0.4-0.1c-0.1,0-0.2,0-0.4,0.1c-0.1,0.1-0.2,0.2-0.2,0.3c0,0.1,0,0.3,0.1,0.4
				c0.1,0.1,0.2,0.2,0.3,0.2l0.4,0.1l0,0l6.3,1.3c-0.4,2.2-1.5,4.3-3.1,6c-1.6,1.6-4,2.2-6.2,1.6l-3.5-0.7c-2.2-0.3-4-1.8-4.8-3.9
				c-0.6-2.2-0.7-4.5-0.1-6.7l5.3,1.1l0.8,0.2c0.1,0,0.3,0,0.4-0.1c0.2-0.1,0.3-0.4,0.1-0.7c-0.1-0.1-0.2-0.2-0.3-0.2h-0.2l0,0
				l-5.7-1.2c-1.6-0.4-2.6-1.9-2.3-3.5c0.2-0.8,0.6-1.4,1.3-1.8c0.7-0.4,1.4-0.6,2.2-0.4h0.2l0,0l9.2,2h0.1c0.1,0,0.2,0,0.3-0.1
				c0.1-0.1,0.2-0.2,0.2-0.3c0-0.1,0-0.3-0.1-0.4c-0.1-0.1-0.2-0.2-0.3-0.2l-9.4-2l0,0c-1.6-0.3-2.6-1.9-2.3-3.5
				c0.3-1.6,1.9-2.6,3.5-2.3L167,67.6C167,67.7,167,67.7,167,67.6L167,67.6z M163.9,66l5.2-23.1l2.9,0.7l-5.2,23.1L163.9,66z"/>
			<path class="st7" d="M172,75.2l-2.4-0.5L172,75.2z"/>
			<path class="st3" d="M169.5,74.9C169.5,74.9,169.6,74.9,169.5,74.9l2.5,0.5c0.1,0,0.3,0,0.3-0.2c0,0,0,0,0,0c0-0.1,0-0.3-0.2-0.3
				c0,0,0,0,0,0l-2.4-0.5c-0.1,0-0.3,0.1-0.3,0.2c0,0,0,0,0,0C169.3,74.7,169.4,74.8,169.5,74.9z"/>
			<path class="st1" d="M260.2,51.6c0.5-1.4,3.3,0,3.6,0.8s-1,1.3-2.5,1.1C260.5,53.4,259.7,53,260.2,51.6z"/>
			<path class="st3" d="M61.8,103.1l0.6-16.9c-5-3.9-8.7-0.9-8.7-0.9c-1.9,1.1-3.9,2-6,2.7l0.3,6.6c0.1,3.6-0.1,7.2,1.1,10.7
				c0.6,1.7,1.6,3.3,2.9,4.5c1.6,1.2,3.4,2.2,5.3,2.7c2.1,0.8,21.1,4.9,21.4,5l1.8-4.6L61.8,103.1z"/>
			<path class="st3" d="M64.1,59.5c1,8.5,6.8,14,13.3,13.7c6.3-0.3,11.2-5.8,11.8-13.8c-0.9-0.2-1.8-0.2-2.8-0.2h-4.7l-16.5,0.4
				L64.1,59.5z"/>
			<path class="st3" d="M241.5,72.3c-0.3,0-0.6,0.1-0.6,0.4c0,0,0,0,0,0L237.8,93c0,0.3,0.2,0.6,0.4,0.6h0.1c0.3,0,0.5-0.2,0.5-0.5
				l3.1-20.3C242,72.6,241.8,72.3,241.5,72.3C241.5,72.3,241.5,72.3,241.5,72.3z"/>
			<path class="st3" d="M240.5,133.1l-1.3,0.5c-4.9,1.8-8.5,4.7-10.6,8.4c-0.5,1-0.9,2-1.2,3.1l-4.9,16.6c-0.1,0.3,0.1,0.6,0.4,0.7
				h0.2c0.2,0,0.5-0.2,0.5-0.4l4.9-16.6c0.3-1,0.7-1.9,1.1-2.9c1.9-3.4,5.4-6.2,10-7.9l1.3-0.5c0.3-0.1,0.4-0.4,0.3-0.7
				C241.1,133.1,240.8,133,240.5,133.1z"/>
			<path class="st3" d="M231.9,131.9c0.2,0,0.4-0.1,0.4-0.3l4-23.4c0-0.1,0-0.2-0.1-0.3c-0.1-0.1-0.2-0.1-0.3-0.2
				c-0.2,0-0.4,0.1-0.5,0.3c0,0,0,0,0,0l-4,23.4C231.4,131.7,231.6,131.9,231.9,131.9C231.8,131.9,231.8,131.9,231.9,131.9
				L231.9,131.9z"/>
			<path class="st3" d="M308.5,92.3v-0.2c-0.3-2.3-0.7-4.6-1-6.8c-0.5-3.2-1.1-7.1-1.4-8.1c-1.4-4.7-4.2-8.8-8.1-11.7l-0.8-0.6
				c-1.1-0.8-2.4-1.6-3.7-2.1c-2.1-0.9-4.2-1.5-6.4-1.9l-8.4-1.4l-2.5-0.3l-15.7-0.7l-12.2,0.2c-6.1,0.4-8.8,1.8-13.1,5.6l-0.5,0.5
				c-1.4,1.3-3.3,4.8-5.6,10.6c-0.9,2.2-1.8,4.8-2.9,7.7c-0.9,2.5-1.8,5.2-2.7,8.1c-0.1,0.2,0,0.4,0.2,0.6c0.2,0.1,0.4,0.1,0.6,0
				c1.4-0.7,3.1-0.8,4.6-0.4c0.3,0.1,0.5-0.1,0.6-0.3c0.1-0.3-0.1-0.5-0.4-0.6c-1.4-0.4-2.9-0.4-4.3,0c0.8-2.5,1.6-4.8,2.4-7
				c1-3,2-5.5,2.9-7.7c2.2-5.5,4.1-9.1,5.4-10.2L236,65c4.1-3.6,6.6-5,12.4-5.3l12.1-0.2l15.7,0.7l2.4,0.3l8.3,1.3
				c2.1,0.4,4.2,1,6.2,1.9c1.2,0.5,2.4,1.2,3.5,2l0.8,0.6c3.7,2.8,6.4,6.7,7.8,11.2c0.2,0.7,0.7,3.6,1.4,8c0.3,2.2,0.7,4.5,1,6.8
				v0.2c0.5,3.6,1,6.9,1.2,8.7c-1.2-0.8-2.6-1.1-4-1c-1.1,0.1-2.1,0.5-3,1.1c-0.7,0.5-1.6,0.9-2.5,0.9c-2,0.1-4-0.8-5.9-1.6l-1-0.4
				c-1.6-0.8-3.3-1.2-5-1.2c0,0,0-0.1,0-0.1l1.7-22c0-0.3-0.2-0.6-0.5-0.6c-0.3,0-0.6,0.2-0.6,0.5c0,0,0,0,0,0l-1.7,22
				c0,0.2,0,0.3,0.1,0.4c-0.1,0.1-0.2,0.2-0.2,0.3l-0.1,1.2c0,0.1,0,0.2,0,0.3l6.5,21.7l0.2,22c0,0.3,0.2,0.5,0.5,0.5l0,0
				c0.3,0,0.5-0.2,0.5-0.5c0,0,0,0,0,0l-0.2-22.1c0,0,0-0.1,0-0.1l-6.5-21.6l0.1-0.8c1.6,0,3.3,0.3,4.7,1.1l0.9,0.4
				c2,0.9,4.1,1.9,6.4,1.7c1.1-0.1,2.1-0.5,2.9-1.1c0.7-0.5,1.6-0.9,2.5-0.9c1.6-0.1,3.1,0.5,4.2,1.5c0.2,0.1,0.4,0.2,0.6,0.1
				c0.2-0.1,0.3-0.3,0.3-0.5C309.9,102.1,309.3,97.4,308.5,92.3z"/>
			<polygon class="st3" points="235.1,76.7 257.8,71.1 258.1,72.6 235.6,77.6 			"/>
			<polygon class="st3" points="235.1,76.7 218.2,70.1 218.1,71.8 232.7,77.9 			"/>
			<polygon class="st6" points="259,72.4 265.2,111.7 240.4,116.3 237.4,116.2 221,107.2 216.9,71.3 234.3,77.3 			"/>
			<polygon class="st3" points="236.8,76.8 240.4,116.3 237.4,116.2 233.1,76.8 			"/>
			<path class="st3" d="M242,91.3c-0.2,0.4-0.1,0.8,0.3,1l5.7,4.2l-8.1-2.7c-0.4-0.1-0.8,0-1,0.4c0,0,0,0,0,0.1
				c-0.1,0.4,0.1,0.9,0.5,1c0,0,0,0,0,0h0.1c-0.3,0-0.5,0.2-0.6,0.4c-0.1,0.3,0,0.6,0.2,0.8l7.6,4l-6.2-0.3c-0.4,0-0.6,0.1-0.7,0.5
				c0,0.1,0,0.1,0,0.2c0.1,0.3,0.3,0.5,0.6,0.6l14,4.7l4.4-5.3c-0.6-1.1-1.3-2.1-2-3.1c-1.4-2.3-2.6-4.8-3.6-7.3
				c-0.7,0.3-1.2,1.1-1,1.9l0.2,3.6l-9-4.9c-0.4-0.2-0.8-0.1-1.1,0.2C242,91.1,242,91.2,242,91.3z"/>
			<path class="st1" d="M198.3,71.8c0,0-0.1-0.1-0.2-0.1c-0.1,0-0.1,0-0.2,0.1c0,0-0.1,0.1-0.1,0.2c0,0.1,0,0.1,0.1,0.2l1.1,1.4
				c0.2,0.2,0.2,0.4,0.2,0.7c0,0.2-0.2,0.5-0.4,0.6c-0.4,0.2-0.8,0.2-1.1-0.2l-1.1-1.4c0-0.1-0.1-0.1-0.2-0.1c-0.1,0-0.1,0-0.2,0.1
				c0,0-0.1,0.1-0.1,0.2c0,0.1,0,0.1,0.1,0.2l0.8,1l0,0l0.4,0.5c0.3,0.3,0.2,0.7-0.1,1c-0.3,0.3-0.7,0.2-1-0.1c0,0,0,0,0,0l-0.5-0.6
				c-0.1-0.1-0.2-0.1-0.3,0c-0.1,0.1-0.1,0.2,0,0.3c0,0,0,0,0,0l0,0l0,0l0.4,0.5c0.3,0.3,0.2,0.7-0.1,1c0,0,0,0,0,0
				c-0.1,0.1-0.3,0.2-0.5,0.2c-0.2,0-0.3-0.1-0.5-0.3l-0.5-0.6c-0.1-0.1-0.2-0.1-0.3,0c-0.1,0-0.1,0.1-0.1,0.2c0,0.1,0,0.1,0.1,0.2
				l0.5,0.6c0.2,0.2,0.5,0.4,0.8,0.4h0.1c0.3,0,0.5-0.1,0.8-0.3c0.3-0.2,0.4-0.6,0.4-0.9c0.1,0,0.2,0.1,0.3,0.1h0.1
				c0.3,0,0.5-0.1,0.8-0.3c0.3-0.2,0.4-0.6,0.4-1c0.1,0,0.2,0.1,0.4,0.1c0.7,0,1.2-0.5,1.3-1.1c0.1-0.4,0-0.8-0.3-1.1L198.3,71.8z"
				/>
			<path class="st1" d="M247.3,97.9l-7.8-2.9c-0.1,0-0.1,0-0.2,0c-0.1,0-0.1,0.1-0.1,0.1c0,0.1,0,0.3,0.1,0.3c0,0,0,0,0,0l7.8,2.9
				c0,0,0.1,0,0.1,0c0.1,0,0.2-0.1,0.2-0.2C247.5,98.1,247.4,98,247.3,97.9C247.3,97.9,247.3,97.9,247.3,97.9z"/>
			<path class="st3" d="M251.6,105.2c0.1,0,1.5,1.1,1.6,1.2c4.5,3.3,8.9,6.7,13.3,10.1c2.4,1.8,4.7,3.5,7.1,5.3s4.2,3.6,6.5,5.1
				c3.8,2.6,8.5,3.4,12.9,2l0.3-0.1c4.1-1.5,6.5-5.1,7.7-9.1l4.5-19c-0.2,0-0.5,0-0.7,0c-2.5,0.2-2.9,1.8-5.4,2s-4.8-1.1-7.1-2.1
				c-1.7-0.8-3.5-1.2-5.4-1.1l-1.3,10.3l-27.8-10.3L251.6,105.2z"/>
			<path class="st3" d="M63.9,88.4c0.1,0.1,0.2,0.2,0.4,0.2l0,0c0,0,0.1,0,0.1,0c0.2,0,0.3-0.2,0.4-0.4l0.1-1.2l0.4-12.9
				c0-0.3-0.2-0.5-0.5-0.5s-0.5,0.2-0.5,0.5L63.8,87c-0.3-0.3-0.6-0.6-1-0.9C62.7,86,62.6,86,62.5,86c-0.3,0-0.5,0.3-0.4,0.5
				c0,0.1,0.1,0.2,0.2,0.3C62.8,87.3,63.4,87.8,63.9,88.4z"/>
			<path class="st3" d="M113.5,79.5L99.7,64.7c-1-1.1-2.1-2-3.3-2.8c0-0.1-0.1-0.2-0.2-0.2l-1.2-0.7h-0.1c-1.7-1-3.6-1.7-5.6-2
				c-0.9-0.2-1.9-0.2-2.8-0.2h-4.7l-16.5,0.4h-1.1c-1.4,0-2.8,0.1-4.2,0.4c-0.7,0.1-1.5,0.3-2.2,0.5L57.3,60
				c-3.3,0.8-6.2,2.7-8.3,5.3c-2.7,3.5-3.1,7.7-3.5,11.8c0,0.5-0.1,1-0.1,1.4L44.6,87c0,0.2,0.2,0.5,0.4,0.5l0,0
				c0.2,0,0.4-0.2,0.5-0.4l0.8-8.5c0-0.5,0.1-1,0.1-1.5c0.4-4.1,0.7-8,3.3-11.3c2-2.5,4.7-4.2,7.8-5l0.3-0.1
				c0.7-0.2,1.4-0.4,2.1-0.5c1.4-0.2,2.7-0.3,4.1-0.3h1.1l16.5-0.4h4.7c0.9,0,1.8,0.1,2.7,0.2c1.9,0.3,3.7,1,5.3,1.9l1.1,0.6
				c0,0.1,0.1,0.1,0.2,0.2c1.2,0.8,2.3,1.7,3.3,2.8l13.8,14.8c0.1,0.1,0.2,0.1,0.3,0.1c0.1,0,0.2,0,0.3-0.1c0.1-0.1,0.1-0.2,0.1-0.3
				C113.6,79.7,113.6,79.6,113.5,79.5z"/>
			<path class="st3" d="M94.3,87.2c0.5-1.2,0.8-2.4,0.9-3.7c0.4-4.8-1.8-10.9-1.9-11.2c0-0.1-0.1-0.2-0.2-0.3c-0.1,0-0.2,0-0.3,0
				c-0.1,0-0.2,0.1-0.3,0.2c0,0.1,0,0.2,0,0.3c0,0.1,2.2,6.3,1.8,10.8c-0.3,3.2-1.5,4.8-2.1,5.3C92.1,88.9,92,89,91.9,89l-16.8,1.4
				c-0.1,0-0.2,0.1-0.3,0.2c-0.1,0.1-0.1,0.2-0.1,0.3c0,0.2,0.2,0.4,0.4,0.4L91.5,90l-0.8,12.8c0,0.4,0.1,1,0.1,1.8
				c0.1,2.2,0.3,5.9,0.6,8.2L59,111l-2.3-24.5l0.2-1.2c0-0.1,0-0.2-0.1-0.3c-0.1-0.1-0.2-0.2-0.3-0.2c-0.1,0-0.2,0-0.3,0.1
				c-0.1,0.1-0.2,0.2-0.2,0.3l-0.2,1.3v0.1l2.3,24.9c0,0.2,0.2,0.4,0.4,0.4l33.4,1.9l0,0c0.1,0,0.3-0.1,0.3-0.2
				c0.1-0.1,0.1-0.2,0.1-0.4c-0.4-2.9-0.6-5.8-0.7-8.7v-0.1c0-0.7-0.1-1.3-0.1-1.6l0.8-13.1c0.2-0.2,0.4-0.4,0.6-0.6
				c0.3-0.3,0.6-0.6,0.8-1l3.1,3.4c0.2,0.2,0.4,0.2,0.6,0c0,0,0,0,0,0c0.2-0.2,0.2-0.5,0-0.6L94.3,87.2z"/>
			<path class="st3" d="M79,112.3l1.6,0.6c1.3,0.5,2.5,1.3,3.4,2.3l0,0c0.9,1,1.4,2.3,1.7,3.6c0.2,1.2,0.3,2.3,0.2,3.5l-0.2,4.3
				c0,0.2-0.2,0.4-0.4,0.4c-0.2,0-0.4-0.2-0.4-0.4c0,0,0,0,0,0c-0.3-2.3-0.6-4.6-0.9-7l-1.3,7.6c0,0.4-0.3,0.7-0.6,0.7
				c-0.4,0-0.7-0.3-0.7-0.6c0,0,0-0.1,0-0.1c0-0.3,0.1-0.6,0.1-0.9c0,0.3-0.3,0.6-0.6,0.5c-0.3,0-0.6-0.3-0.5-0.6l0,0
				c0-0.4-0.1-0.8-0.1-1.2c0.1,0.2,0,0.5-0.2,0.6c-0.2,0.1-0.5,0-0.6-0.2c0-0.1,0-0.2,0-0.3c0.1-2.1,0.1-4.2,0.2-6.3
				c-0.2-0.4-0.5-0.8-0.9-1L79,112.3z"/>
			<path class="st1" d="M81.4,126.3L81.4,126.3c-0.1,0-0.1-0.1-0.1-0.2l0.7-6.7c0-0.1,0.1-0.1,0.2-0.1c0,0,0.1,0.1,0.1,0.1l-0.7,6.7
				C81.6,126.2,81.5,126.3,81.4,126.3C81.5,126.3,81.4,126.3,81.4,126.3z"/>
			<path class="st1" d="M81.4,126.4L81.4,126.4c-0.1,0-0.1,0-0.2-0.1c0-0.1-0.1-0.1-0.1-0.2l0.7-6.7c0-0.1,0-0.1,0.1-0.2
				c0.1,0,0.1,0,0.2,0c0.1,0,0.1,0,0.2,0.1c0,0.1,0,0.1,0,0.2l-0.7,6.7C81.6,126.3,81.5,126.4,81.4,126.4z M82.1,119.4L82.1,119.4
				l-0.7,6.7l0,0l0,0l0,0L82.1,119.4L82.1,119.4L82.1,119.4L82.1,119.4z"/>
			<path class="st1" d="M80.2,125L80.2,125c-0.1,0-0.1-0.1-0.1-0.2l0.7-5.5c0-0.1,0.1-0.1,0.1-0.1c0,0,0,0,0,0
				c0.1,0,0.1,0.1,0.1,0.1c0,0,0,0,0,0l-0.6,5.5C80.3,125,80.3,125,80.2,125C80.2,125,80.2,125,80.2,125z"/>
			<path class="st1" d="M80.2,125.1L80.2,125.1c-0.1,0-0.2-0.1-0.2-0.3c0,0,0,0,0,0l0.7-5.5c0-0.1,0.1-0.2,0.3-0.2
				c0.1,0,0.2,0.1,0.2,0.2c0,0,0,0,0,0l-0.7,5.5C80.4,125,80.3,125.1,80.2,125.1C80.2,125.1,80.2,125.1,80.2,125.1z M80.8,119.3
				L80.8,119.3l-0.7,5.5l0,0l0,0l0,0L80.8,119.3L80.8,119.3L80.8,119.3z"/>
			<path class="st3" d="M86.7,31.5c0,0,6.5,18.2-4.6,20.6l0.2,6.9l-13,0.8l-0.7-24C68.6,35.8,75.7,21,86.7,31.5z"/>
			<path class="st2" d="M62.7,23.4c0,0-1.4-12.2-16.8-7.6c0,0,0.7,11.8,14,11L62.7,23.4z"/>
			<path class="st1" d="M82.1,52.1c0,0-4.7,0.3-7.3-2c1.7,2.4,4.4,3.8,7.3,3.9L82.1,52.1z"/>
			<path class="st1" d="M81.2,39.8c0.1,0.6-0.2,1.1-0.5,1.2s-0.7-0.4-0.8-1s0.1-1.1,0.5-1.2S81.1,39.2,81.2,39.8z"/>
			<path class="st1" d="M86.4,39.1c0.1,0.6-0.2,1.1-0.5,1.1s-0.7-0.4-0.8-1s0.2-1.1,0.5-1.1S86.3,38.5,86.4,39.1z"/>
			<path class="st1" d="M85.4,36.8c-0.8-0.1-1.4,0.2-1.6,0.1s0.4-1,1.6-0.9s1.8,1.2,1.6,1.3S86.2,36.9,85.4,36.8z"/>
			<path class="st1" d="M79.7,36.7c-0.7,0.3-1.1,0.9-1.3,0.8s-0.2-1.1,0.9-1.6s2.2,0.1,2,0.3S80.4,36.3,79.7,36.7z"/>
			<path class="st1" d="M81,45.8c-0.3,0-0.5,0.2-0.5,0.4c0,0,0,0.1,0,0.1c0.3,1.2,1.6,1.9,2.8,1.6c0.7-0.2,1.3-0.8,1.5-1.5
				c0.1-0.2-0.1-0.5-0.3-0.6c0,0-0.1,0-0.1,0L81,45.8z"/>
			<path class="st1" d="M83.8,44.2L83.8,44.2c0.3-0.1,1.1-0.4,1.3-1c0-0.3-0.1-0.6-0.4-0.8c-0.6-0.9-1.1-1.9-1.2-3
				c0-0.2-0.2-0.3-0.4-0.3c-0.2,0-0.3,0.2-0.3,0.4c0,0,0,0,0,0c0.1,0.3,0.5,2.6,1.4,3.4c0.1,0.1,0.1,0.2,0.1,0.2s-0.4,0.4-0.7,0.5
				c-0.2,0.1-0.3,0.2-0.2,0.4C83.5,44.1,83.7,44.2,83.8,44.2z"/>
			<path class="st2" d="M87.1,33c0,0-1.9,2.4-4.8,0S78,32.5,78,32.5l1.8-6.3l5.8,1.6c0,0,5.6-1.1,6.3,6.7c0.6,6.2-3.4,6.7-3.4,6.7
				L87.1,33z"/>
			<path class="st2" d="M69.7,43.3c0,0,4.4-0.5,5.4-5.8c0.3-1.6,1.1-3.1,2.2-4.3c2-2.2,5.5-4.4,9.4-1.6c0,0-1.1-6.4-4.6-9.1
				c0,0-7.4-6.8-17.8-0.3c-6.5,4.1-6.8,11-6.2,15.6c0.5,3.6-0.2,7.2-2,10.3c-1.3,2.2-2.8,4.7-4.3,6.9c0,0,5,7.5,21.7,4.5
				c0,0,1.8-9.3-4.5-11.4L69.7,43.3z"/>
			<path class="st3" d="M62.3,45.8c0.4,2.2,2.5,3.8,4.7,3.4c2.2-0.4,3.8-2.5,3.4-4.7c-0.4-2.2-2.5-3.8-4.7-3.4c0,0,0,0,0,0
				C63.4,41.5,61.9,43.6,62.3,45.8z"/>
		</g>
	</g>
</g>
</svg>
