<svg xmlns="http://www.w3.org/2000/svg" viewBox="0 0 100.61483 100.61483"><defs><style>.cls-1,.cls-2{fill:#fff;}.cls-2,.cls-5{stroke:#03304f;stroke-linecap:round;}.cls-2{stroke-miterlimit:10;}.cls-3{fill:#03304f;}.cls-4{fill:#2bd88d;}.cls-5,.cls-6{fill:none;}.cls-5{stroke-linejoin:round;}</style></defs><g id="Conteudo"><polygon class="cls-1" points="61.87 84.889 23.198 83.645 24.891 30.982 56.817 32.009 63.346 38.971 61.87 84.889"/><line class="cls-2" x1="30.09921" y1="68.90536" x2="58.0773" y2="69.80478"/><line class="cls-2" x1="30.00603" y1="71.80406" x2="57.98412" y2="72.70348"/><line class="cls-2" x1="29.91284" y1="74.70276" x2="57.89093" y2="75.60217"/><line class="cls-2" x1="30.1924" y1="66.00667" x2="58.17049" y2="66.90608"/><line class="cls-2" x1="26.39263" y1="71.6879" x2="26.64506" y2="71.69602"/><line class="cls-2" x1="26.579" y1="65.89051" x2="26.83143" y2="65.89862"/><line class="cls-2" x1="27.13811" y1="48.49832" x2="58.7296" y2="49.51389"/><line class="cls-2" x1="27.23129" y1="45.59962" x2="58.82278" y2="46.6152"/><polygon class="cls-3" points="56.6 38.754 63.346 38.971 56.817 32.009 56.6 38.754"/><rect class="cls-4" x="27.515" y="34.61671" width="21.7132" height="4.66432" transform="translate(1.207 -1.21382) rotate(1.84126)"/><rect class="cls-4" x="27.13516" y="51.93169" width="9.18534" height="9.18534" transform="matrix(0.99948, 0.03213, -0.03213, 0.99948, 1.83254, -0.99025)"/><rect class="cls-4" x="38.21439" y="52.28785" width="9.18534" height="9.18534" transform="matrix(0.99948, 0.03213, -0.03213, 0.99948, 1.8497, -1.34604)"/><rect class="cls-4" x="49.29362" y="52.64402" width="9.18534" height="9.18534" transform="translate(1.86686 -1.70184) rotate(1.84126)"/><rect class="cls-1" x="6.39905" y="40.64846" width="38.69192" height="52.69039" transform="translate(-9.96295 4.73696) rotate(-8.81558)"/><line class="cls-2" x1="11.59326" y1="83.65046" x2="42.82768" y2="78.80642"/><line class="cls-2" x1="19.40464" y1="56.84469" x2="38.44127" y2="53.89236"/><line class="cls-2" x1="20.46217" y1="63.6636" x2="39.49879" y2="60.71127"/><line class="cls-2" x1="21.40989" y1="69.77454" x2="40.44652" y2="66.82222"/><line class="cls-2" x1="22.38121" y1="76.03763" x2="41.41784" y2="73.08531"/><line class="cls-2" x1="12.03773" y1="86.51639" x2="43.27215" y2="81.67235"/><line class="cls-2" x1="12.4822" y1="89.38233" x2="43.71662" y2="84.53828"/><line class="cls-2" x1="12.3716" y1="57.93542" x2="15.34817" y2="77.12837"/><rect class="cls-4" x="10.17242" y="62.87836" width="6.51342" height="3.75195" transform="translate(-9.76526 2.82304) rotate(-8.81558)"/><rect class="cls-4" x="9.17103" y="56.42145" width="6.51342" height="3.75195" transform="translate(-8.78754 2.59329) rotate(-8.81558)"/><rect class="cls-4" x="11.12014" y="68.9893" width="6.51342" height="3.75195" transform="translate(-10.69059 3.04047) rotate(-8.81558)"/><rect class="cls-4" x="12.09146" y="75.25239" width="6.51342" height="3.75195" transform="translate(-11.63897 3.26332) rotate(-8.81558)"/><rect class="cls-4" x="6.08486" y="44.9632" width="21.7132" height="4.66432" transform="translate(-7.0481 3.15507) rotate(-8.81558)"/><polyline class="cls-5" points="14.377 42.097 40.825 37.995 48.9 90.063"/><path class="cls-3" d="M68.3307,51.869q.492-3.60385,4.00129-3.12639a3.50394,3.50394,0,0,1,2.49783,1.30062,3.7078,3.7078,0,0,1,.54654,2.7856,3.83192,3.83192,0,0,1-1.28493,2.56136,4.00517,4.00517,0,0,1-5.22373-.6865A3.85285,3.85285,0,0,1,68.3307,51.869Zm2.01657-7.48283.20927-1.52867a9.07267,9.07267,0,0,1,1.55-4.23892,12.537,12.537,0,0,1,3.83369-3.15215,18.59893,18.59893,0,0,0,4.14109-2.98759,5.27446,5.27446,0,0,0,1.22732-2.848,3.76125,3.76125,0,0,0-.917-3.26311,6.06872,6.06872,0,0,0-3.70034-1.5979,13.37949,13.37949,0,0,0-4.2893.07035,30.47165,30.47165,0,0,0-3.98536,1.0393l-1.43319-4.47507a21.21024,21.21024,0,0,1,10.75575-1.28469,11.32364,11.32364,0,0,1,7.11411,3.30445,7.86423,7.86423,0,0,1,1.88444,6.70172,9.09228,9.09228,0,0,1-.9601,3.11632,9.20623,9.20623,0,0,1-1.94962,2.448,26.0913,26.0913,0,0,1-4.115,2.79635,14.17728,14.17728,0,0,0-3.36658,2.4828,5.60711,5.60711,0,0,0-1.17281,2.97941l-.14559,1.07446Z"/><circle class="cls-6" cx="50.30742" cy="50.30742" r="50.30742"/></g></svg>