<?xml version="1.0" encoding="utf-8"?>
<!-- Generator: Adobe Illustrator 24.2.3, SVG Export Plug-In . SVG Version: 6.00 Build 0)  -->
<svg version="1.1" id="Layer_1" xmlns="http://www.w3.org/2000/svg" xmlns:xlink="http://www.w3.org/1999/xlink" x="0px" y="0px"
	 viewBox="0 0 100.6 100.6" style="enable-background:new 0 0 100.6 100.6;" xml:space="preserve">
<style type="text/css">
	.st0{fill:#03304F;}
	.st1{fill:#FFFFFF;}
	.st2{fill:#FFFFFF;stroke:#03304F;stroke-width:0.5;stroke-miterlimit:10;}
	.st3{fill:#2BD88D;}
	.st4{enable-background:new    ;}
	.st5{fill:none;stroke:#03304F;stroke-linecap:round;stroke-miterlimit:10;}
	.st6{fill:none;stroke:#FFFFFF;stroke-linecap:round;stroke-miterlimit:10;}
	.st7{fill:none;}
</style>
<g id="Conteudo">
	<path class="st0" d="M66.1,106.4l-42.4,5.5c-1.3,0.2-2.5-0.7-2.7-2L10.6,29.8c-0.1-1.3,0.8-2.5,2.1-2.6l42.4-5.5
		c1.3-0.2,2.5,0.7,2.7,2l10.4,80.1C68.3,105.1,67.4,106.2,66.1,106.4z"/>
	<polygon class="st1" points="65.4,99.9 60.9,65.3 60.9,65.3 56.1,28.1 13.3,33.7 18.6,74.3 18.6,74.3 22.7,105.5 	"/>
	<path class="st1" d="M35.8,28.3L30.3,29c-0.2,0-0.4-0.1-0.5-0.4s0.1-0.4,0.4-0.5l0,0l5.5-0.7c0.2,0,0.4,0.1,0.5,0.4
		C36.2,28.1,36,28.3,35.8,28.3L35.8,28.3z"/>
	<circle class="st2" cx="38.4" cy="27.6" r="0.7"/>
	
		<rect x="16.8" y="34.3" transform="matrix(0.9916 -0.1292 0.1292 0.9916 -5.0721 5.0374)" class="st3" width="38.9" height="14.7"/>
	<g class="st4">
		<path class="st0" d="M51.9,44.3l-1.1-2.1l-3,0.4l-0.5,2.3L46,45l1.9-8.3l1.4-0.2l4,7.5L51.9,44.3z M50.4,41.1l-1-2
			c-0.1-0.1-0.2-0.4-0.3-0.6s-0.2-0.5-0.3-0.7c0,0.5-0.1,1-0.2,1.5l-0.4,2.1L50.4,41.1z"/>
	</g>
	<line class="st5" x1="20.4" y1="41.6" x2="38.8" y2="39.2"/>
	<line class="st5" x1="20.9" y1="45.1" x2="34" y2="43.4"/>
	<rect x="19" y="51" transform="matrix(0.9916 -0.1292 0.1292 0.9916 -7.2174 5.4597)" class="st3" width="38.9" height="14.7"/>
	<g class="st4">
		<path class="st0" d="M54.1,61l-1.1-2.1l-3,0.4l-0.5,2.3l-1.4,0.2l1.9-8.3l1.4-0.2l4,7.5L54.1,61z M52.6,57.9l-1-2
			c-0.1-0.1-0.2-0.4-0.3-0.6S51,54.7,51,54.5c0,0.5-0.1,1-0.2,1.5l-0.4,2.1L52.6,57.9z"/>
	</g>
	<line class="st5" x1="22.6" y1="58.4" x2="41" y2="56"/>
	<line class="st5" x1="23.1" y1="61.8" x2="36.1" y2="60.1"/>
	
		<rect x="21.2" y="67.7" transform="matrix(0.9916 -0.1292 0.1292 0.9916 -9.3628 5.8821)" class="st0" width="38.9" height="14.7"/>
	<g class="st4">
		<path class="st1" d="M57.3,73.6c0.2,1.3-0.1,2.3-0.7,3.1c-0.6,0.8-1.6,1.3-3,1.4l-2.2,0.3l-1-7.9l2.4-0.3c1.3-0.2,2.3,0,3,0.6
			C56.7,71.4,57.1,72.4,57.3,73.6z M56,73.8c-0.2-1.9-1.2-2.7-3-2.5l-1.1,0.1l0.7,5.7l0.9-0.1C55.4,76.8,56.2,75.7,56,73.8z"/>
	</g>
	<line class="st6" x1="24.8" y1="75.1" x2="43.2" y2="72.7"/>
	<line class="st6" x1="25.2" y1="78.6" x2="38.3" y2="76.9"/>
	
		<rect x="23.5" y="84.5" transform="matrix(0.9916 -0.1292 0.1292 0.9916 -11.5082 6.3215)" class="st3" width="38.9" height="14.7"/>
	<g class="st4">
		<path class="st0" d="M52.3,87.4l2.3-0.3c1.1-0.1,1.9-0.1,2.4,0.2c0.5,0.3,0.8,0.7,0.9,1.4c0.1,0.5,0,0.9-0.2,1.2
			c-0.2,0.3-0.5,0.6-0.9,0.7l0,0.1c0.6,0,1,0.2,1.3,0.5c0.3,0.3,0.5,0.7,0.6,1.2c0.1,0.7-0.1,1.3-0.5,1.8c-0.4,0.5-1.1,0.8-2,0.9
			l-2.8,0.4L52.3,87.4z M54.1,90.4l1.2-0.2c0.5-0.1,0.9-0.2,1.1-0.4c0.2-0.2,0.3-0.5,0.3-0.9c0-0.4-0.2-0.6-0.5-0.7
			c-0.3-0.1-0.7-0.2-1.3-0.1l-1.1,0.1L54.1,90.4z M54.2,91.5l0.3,2.5l1.4-0.2c0.5-0.1,0.9-0.2,1.2-0.5c0.2-0.2,0.3-0.6,0.3-1
			c-0.1-0.4-0.2-0.7-0.5-0.9c-0.3-0.2-0.7-0.2-1.3-0.1L54.2,91.5z"/>
	</g>
	<line class="st5" x1="26.7" y1="91.9" x2="45.1" y2="89.5"/>
	<line class="st5" x1="27.2" y1="95.4" x2="40.3" y2="93.7"/>
	<path class="st0" d="M73.4,67.6c0.3-2.1,1.4-3,3.4-2.7c0.8,0.1,1.6,0.5,2.1,1.1c0.5,0.7,0.6,1.6,0.5,2.4c-0.1,0.8-0.5,1.6-1.1,2.2
		c-1.4,1-3.4,0.7-4.5-0.6C73.4,69.4,73.2,68.5,73.4,67.6z M75.1,61.2l0.2-1.3c0.1-1.3,0.6-2.6,1.3-3.6c0.9-1.1,2-2,3.3-2.7
		c1.3-0.7,2.5-1.6,3.6-2.6c0.6-0.7,1-1.5,1.1-2.4c0.2-1-0.1-2-0.8-2.8c-0.9-0.8-2-1.3-3.2-1.4c-1.2-0.2-2.5-0.2-3.7,0.1
		c-1.2,0.2-2.3,0.5-3.4,0.9l-1.2-3.8c2.9-1.2,6.1-1.5,9.2-1.1c2.3,0.2,4.5,1.2,6.1,2.8c1.4,1.6,2,3.7,1.6,5.8
		c-0.1,0.9-0.4,1.8-0.8,2.7c-0.4,0.8-1,1.5-1.7,2.1c-1.1,0.9-2.3,1.7-3.5,2.4c-1.1,0.6-2,1.3-2.9,2.1c-0.6,0.7-0.9,1.6-1,2.6
		l-0.1,0.9L75.1,61.2z"/>
	<circle class="st7" cx="50.3" cy="50.3" r="50.3"/>
</g>
</svg>
