<?xml version="1.0" encoding="utf-8"?>
<!-- Generator: Adobe Illustrator 23.0.6, SVG Export Plug-In . SVG Version: 6.00 Build 0)  -->
<svg version="1.1" id="Layer_1" xmlns="http://www.w3.org/2000/svg" xmlns:xlink="http://www.w3.org/1999/xlink" x="0px" y="0px"
	 viewBox="0 0 50 50" style="enable-background:new 0 0 50 50;" xml:space="preserve">
<style type="text/css">
	.st0{fill:#FFFFFF;}
</style>
<title>ilustras</title>
<g>
	<path class="st0" d="M10.8,39.4c-0.2,0-0.4-0.2-0.4-0.4l0,0c0-0.2,0.2-0.4,0.4-0.4c0,0,0,0,0,0h28.4c0.2,0,0.4,0.2,0.4,0.4
		s-0.2,0.4-0.4,0.4H10.8z"/>
	<path class="st0" d="M35.8,37.2c-0.2,0-0.4-0.2-0.4-0.4l0,0v-5.1c0-2.4-1.9-4.4-4.3-4.4c0,0,0,0,0,0H19.6c-0.1,0-0.2,0-0.2-0.1
		c-1-0.7-1.9-1.5-2.6-2.4c-2.1-2.9-3.1-6.4-3-10c0-1.1-0.9-2-2-2s-2,0.9-2,2c0,10.4,5.7,14.8,7.5,15.9c0.1,0.1,0.2,0.2,0.2,0.4v5.7
		c0,0.2-0.2,0.4-0.4,0.4s-0.4-0.2-0.4-0.4v-5.4c-1.8-1.2-3.2-2.7-4.4-4.5c-2.3-3.6-3.4-7.8-3.3-12C9,13.2,10.4,11.9,12,12
		c1.5,0.1,2.6,1.3,2.7,2.7c-0.1,3.4,0.8,6.7,2.8,9.5c0.6,0.8,1.4,1.6,2.2,2.2H31c2.9,0,5.2,2.3,5.2,5.2v5.1
		C36.3,37,36.1,37.2,35.8,37.2z"/>
	<path class="st0" d="M26.1,24.6c-2.7,0-4.9-2.2-4.8-4.9s2.2-4.9,4.9-4.8c2.7,0,4.8,2.2,4.8,4.9C31,22.5,28.8,24.6,26.1,24.6
		C26.1,24.6,26.1,24.6,26.1,24.6z M26.1,15.7c-2.2,0-4,1.8-4,4s1.8,4,4,4s4-1.8,4-4l0,0C30.1,17.5,28.3,15.7,26.1,15.7z"/>
	<path class="st0" d="M19,17.3c-0.1,0-0.1,0-0.2,0l-1.5-0.6c-0.2-0.1-0.3-0.3-0.2-0.6c0,0,0,0,0,0c0.1-0.2,0.3-0.3,0.5-0.2
		c0,0,0,0,0,0l1.5,0.6c0.2,0.1,0.3,0.3,0.2,0.6C19.3,17.2,19.2,17.4,19,17.3L19,17.3z"/>
	<path class="st0" d="M21.8,13.8c-0.1,0-0.3-0.1-0.4-0.2l-0.9-1.3c-0.1-0.2-0.1-0.5,0.1-0.6c0.2-0.1,0.5-0.1,0.6,0.1l0.9,1.3
		c0.1,0.2,0.1,0.5-0.1,0.6C22,13.8,21.9,13.8,21.8,13.8z"/>
	<path class="st0" d="M26.1,12.4c-0.2,0-0.4-0.2-0.4-0.4v-1.6c0-0.2,0.2-0.4,0.4-0.4c0,0,0,0,0,0l0,0c0.2,0,0.4,0.2,0.4,0.4
		c0,0,0,0,0,0V12C26.5,12.2,26.3,12.4,26.1,12.4L26.1,12.4z"/>
	<path class="st0" d="M30.5,13.6c-0.1,0-0.2,0-0.2-0.1C30,13.5,30,13.2,30.1,13l0.8-1.3c0.1-0.2,0.4-0.3,0.6-0.1
		c0.2,0.1,0.3,0.4,0.1,0.6c0,0,0,0,0,0l-0.8,1.3C30.7,13.6,30.6,13.7,30.5,13.6z"/>
	<path class="st0" d="M33.4,17c-0.2,0-0.3-0.1-0.4-0.3c-0.1-0.2,0-0.5,0.2-0.6l1.4-0.7c0.2-0.1,0.5,0,0.6,0.2s0,0.5-0.2,0.6L33.6,17
		C33.5,17,33.5,17,33.4,17z"/>
</g>
</svg>
