<svg xmlns="http://www.w3.org/2000/svg" width="60" height="60" viewBox="0 0 60 60"><path d="M40.87406,9.16938h7.60826A2.24752,2.24752,0,0,1,50.72988,11.417V52.99683a2.24751,2.24751,0,0,1-2.24756,2.24756h-35.961a2.24751,2.24751,0,0,1-2.24756-2.24756V11.417a2.24752,2.24752,0,0,1,2.24756-2.24757h7.61257" fill="none" stroke="#03304f" stroke-linecap="round" stroke-linejoin="round" stroke-width="2"/><polyline points="41.74 13.665 46.235 13.665 46.235 50.749 14.769 50.749 14.769 13.665 19.264 13.665" fill="none" stroke="#03304f" stroke-linecap="round" stroke-linejoin="round" stroke-width="2"/><path d="M38.36829,8.0456H34.997a4.49512,4.49512,0,1,0-8.99024,0H22.63536A3.37128,3.37128,0,0,0,19.264,11.417v3.37134H41.73964V11.41683A3.37125,3.37125,0,0,0,38.36829,8.0456Z" fill="none" stroke="#03304f" stroke-linecap="round" stroke-linejoin="round" stroke-width="2"/><line x1="30.50183" y1="7.53473" x2="30.50183" y2="9.16938" fill="none" stroke="#03304f" stroke-linecap="round" stroke-linejoin="round" stroke-width="2"/><polyline points="37.245 32.769 37.245 39.511 23.759 39.511 23.759 26.026 33.873 26.026" fill="none" stroke="#03304f" stroke-linecap="round" stroke-linejoin="round" stroke-width="2"/><polyline points="27.13 32.769 30.502 36.14 38.368 26.026" fill="none" stroke="#03304f" stroke-linecap="round" stroke-linejoin="round" stroke-width="2"/></svg>