<?xml version="1.0" encoding="utf-8"?>
<!-- Generator: Adobe Illustrator 23.0.6, SVG Export Plug-In . SVG Version: 6.00 Build 0)  -->
<svg version="1.1" id="Layer_1" xmlns="http://www.w3.org/2000/svg" xmlns:xlink="http://www.w3.org/1999/xlink" x="0px" y="0px"
	 viewBox="0 0 50 50" style="enable-background:new 0 0 50 50;" xml:space="preserve">
<style type="text/css">
	.st0{fill:#FFFFFF;}
</style>
<title>ilustras</title>
<g>
	<path class="st0" d="M39,12H25.8c-0.2,0-0.4,0.2-0.4,0.4v2.9h-1.2c-1.7,0-3,1.3-3,3s1.3,3,3,3h1.2v4H21c-0.2,0-0.4,0.2-0.4,0.4l0,0
		v1.6c0,1.2-1,2.1-2.1,2.1c-1.2,0-2.1-1-2.1-2.1v-1.6c0-0.2-0.2-0.4-0.4-0.4c0,0,0,0,0,0h-3.4c-0.2,0-0.4,0.2-0.4,0.4l0,0V39
		c0,0.2,0.2,0.4,0.4,0.4c0,0,0,0,0,0H39c0.2,0,0.4-0.2,0.4-0.4V12.4C39.4,12.2,39.3,12,39,12C39,12,39,12,39,12z M24.2,20.5
		c-1.2,0-2.1-1-2.1-2.1c0-1.2,1-2.1,2.1-2.1h1.6c0.2,0,0.4-0.2,0.4-0.4c0,0,0,0,0,0v-2.9h12.4v12.4h-2.5v-1.2c0-1.7-1.3-3-3-3
		c-1.7,0-3,1.3-3,3v1.2h-3.9v-4.4c0-0.2-0.2-0.4-0.4-0.4l0,0H24.2z M25.3,35.6v2.9H12.9V26.1h2.5v1.2c0,1.7,1.3,3,3,3s3-1.3,3-3
		v-1.2h3.9v4.4c0,0.2,0.2,0.4,0.4,0.4l0,0h1.6c1.2,0,2.1,1,2.1,2.1c0,1.2-1,2.1-2.1,2.1c0,0,0,0,0,0h-1.6
		C25.5,35.2,25.3,35.4,25.3,35.6L25.3,35.6z M38.6,38.5H26.2v-2.5h1.2c1.7,0,3-1.3,3-3c0-1.7-1.3-3-3-3h-1.2v-3.9h4.4
		c0.2,0,0.4-0.2,0.4-0.4l0,0v-1.6c0-1.2,1-2.1,2.1-2.1c1.2,0,2.1,1,2.1,2.1v1.6c0,0.2,0.2,0.4,0.4,0.4l0,0h2.9L38.6,38.5z"/>
	<path class="st0" d="M13.7,23.5l0.4-1.1l4.1,1.6c0.2,0.1,0.5,0,0.6-0.2c0,0,0,0,0,0l1.8-4.5c0.1-0.2,0-0.5-0.2-0.6c0,0,0,0,0,0
		l-1.5-0.6c-1.1-0.4-1.6-1.7-1.2-2.8c0.2-0.5,0.6-1,1.1-1.2c0.5-0.2,1.1-0.2,1.6,0l1.5,0.6c0.2,0.1,0.5,0,0.6-0.2c0,0,0,0,0,0
		l1.2-3.1c0.1-0.2,0-0.5-0.2-0.6c0,0,0,0,0,0L11.1,6c-0.1,0-0.2,0-0.3,0c-0.1,0-0.2,0.1-0.2,0.2L5.6,18.6c0,0.1,0,0.2,0,0.3
		c0.1,0.1,0.1,0.2,0.2,0.2l2.7,1.1l-0.4,1.1c-0.6,1.5,0.2,3.3,1.7,3.9c0.3,0.1,0.7,0.2,1.1,0.2c0.4,0,0.8-0.1,1.2-0.3
		C12.9,24.9,13.4,24.3,13.7,23.5z M10.2,24.4C9.1,24,8.6,22.7,9,21.7l0.6-1.5c0.1-0.2,0-0.5-0.2-0.6c0,0,0,0,0,0l-2.7-1.1L11.1,7
		l11.5,4.5l-0.9,2.3l-1.1-0.4c-1.5-0.6-3.3,0.2-3.9,1.7c-0.6,1.5,0.2,3.3,1.7,3.9l1.1,0.4l-1.4,3.7l-4.1-1.6c-0.1,0-0.2,0-0.3,0
		c-0.1,0-0.2,0.1-0.2,0.2l-0.6,1.5c-0.2,0.5-0.6,0.9-1.1,1.2C11.3,24.6,10.7,24.6,10.2,24.4z"/>
</g>
</svg>
