<svg xmlns="http://www.w3.org/2000/svg" width="60" height="60" viewBox="0 0 60 60"><path d="M46.95724,18.24848h-5.005a2.90128,2.90128,0,1,1-3.9888,0h-5.005v5.005a2.90129,2.90129,0,1,0,0,3.9888v5.005" fill="none" stroke="#03304f" stroke-linecap="round" stroke-linejoin="round" stroke-width="2"/><path d="M18.9598,18.24847l5.005,0a2.90128,2.90128,0,1,1,3.9888,0h5.005v-5.005a2.90129,2.90129,0,1,0,0-3.9888v-5.005" fill="none" stroke="#03304f" stroke-linecap="round" stroke-linejoin="round" stroke-width="2"/><rect x="18.9598" y="4.24976" width="27.99744" height="27.99744" fill="none" stroke="#03304f" stroke-linecap="round" stroke-linejoin="round" stroke-width="2"/><path d="M45.65213,40.88628l5.71034-5.71035a3.132,3.132,0,0,1,4.41634,0h0a3.132,3.132,0,0,1,0,4.41634L46.94613,48.425a6.2283,6.2283,0,0,1-4.41688,1.82933H26.9088a4.1505,4.1505,0,0,0-2.94419,1.21958" fill="none" stroke="#03304f" stroke-linecap="round" stroke-linejoin="round" stroke-width="2"/><rect x="12.23083" y="39.67907" width="7.71054" height="18.73691" transform="translate(-29.97033 25.74028) rotate(-45)" fill="none" stroke="#03304f" stroke-linecap="round" stroke-linejoin="round" stroke-width="2"/><path d="M42.52934,44.00906H34.3821" fill="none" stroke="#03304f" stroke-linecap="round" stroke-linejoin="round" stroke-width="2"/><path d="M45.65213,40.88619a3.13195,3.13195,0,0,1-3.12279,3.12287" fill="none" stroke="#03304f" stroke-linecap="round" stroke-linejoin="round" stroke-width="2"/><path d="M42.52934,37.7634a3.13194,3.13194,0,0,1,3.12279,3.12279" fill="none" stroke="#03304f" stroke-linecap="round" stroke-linejoin="round" stroke-width="2"/><path d="M29.90627,37.7634H42.52934" fill="none" stroke="#03304f" stroke-linecap="round" stroke-linejoin="round" stroke-width="2"/><path d="M23.96461,36.38005a12.39454,12.39454,0,0,1,5.94166,1.38335" fill="none" stroke="#03304f" stroke-linecap="round" stroke-linejoin="round" stroke-width="2"/><path d="M13.65979,41.169c2.63729-2.63729,6.28058-4.789,10.30482-4.789" fill="none" stroke="#03304f" stroke-linecap="round" stroke-linejoin="round" stroke-width="2"/></svg>