<svg xmlns="http://www.w3.org/2000/svg" width="60" height="60" viewBox="0 0 60 60"><circle cx="15.44587" cy="33.57573" r="5.31755" fill="none" stroke="#03304f" stroke-linecap="round" stroke-linejoin="round" stroke-width="2"/><path d="M24.87244,52.50117,24.0688,47.2066a5.87086,5.87086,0,0,0-5.80438-4.98985H12.84889A5.87087,5.87087,0,0,0,7.0445,47.2066l-.82888,5.46088" fill="none" stroke="#03304f" stroke-linecap="round" stroke-linejoin="round" stroke-width="2"/><circle cx="44.33257" cy="33.57573" r="5.31755" fill="none" stroke="#03304f" stroke-linecap="round" stroke-linejoin="round" stroke-width="2"/><path d="M53.78438,52.66748,52.9555,47.2066a5.87087,5.87087,0,0,0-5.80439-4.98985H41.73558A5.87086,5.87086,0,0,0,35.9312,47.2066l-.83454,5.4981" fill="none" stroke="#03304f" stroke-linecap="round" stroke-linejoin="round" stroke-width="2"/><path d="M36.81577,6.34164h-14.921A3.90933,3.90933,0,0,0,17.9854,10.251v8.04446a3.90934,3.90934,0,0,0,3.90939,3.90939h.83357v5.15253l5.76121-5.15253h8.3262a3.90929,3.90929,0,0,0,3.90916-3.90939V10.251A3.90929,3.90929,0,0,0,36.81577,6.34164Z" fill="none" stroke="#03304f" stroke-linecap="round" stroke-linejoin="round" stroke-width="2"/><line x1="50.80489" y1="20.70655" x2="50.80489" y2="12.99244" fill="none" stroke="#03304f" stroke-linecap="round" stroke-linejoin="round" stroke-width="2"/><line x1="50.80489" y1="24.17886" x2="50.80489" y2="24.39148" fill="none" stroke="#03304f" stroke-linecap="round" stroke-linejoin="round" stroke-width="2"/></svg>