<?xml version="1.0" encoding="utf-8"?>
<!-- Generator: Adobe Illustrator 23.0.6, SVG Export Plug-In . SVG Version: 6.00 Build 0)  -->
<svg version="1.1" id="Layer_1" xmlns="http://www.w3.org/2000/svg" xmlns:xlink="http://www.w3.org/1999/xlink" x="0px" y="0px"
	 viewBox="0 0 50 50" style="enable-background:new 0 0 50 50;" xml:space="preserve">
<style type="text/css">
	.st0{fill:#FFFFFF;}
</style>
<title>ilustras</title>
<g>
	<path class="st0" d="M25.5,36.3c-0.2,0-0.4-0.2-0.4-0.4c0-0.2,0.1-0.4,0.3-0.4c0.9-0.3,1.4-1.3,1.1-2.2s-1.3-1.4-2.2-1.1
		c-0.7,0.2-1.2,0.9-1.2,1.6c0,0.2,0,0.3,0.1,0.5c0.1,0.2-0.1,0.5-0.3,0.5c0,0,0,0,0,0c-0.2,0.1-0.5-0.1-0.5-0.3c0,0,0,0,0,0
		c-0.1-0.2-0.1-0.5-0.1-0.8c0-1.4,1.1-2.6,2.6-2.6c1.4,0,2.6,1.1,2.6,2.6c0,1.1-0.7,2.1-1.8,2.5L25.5,36.3z"/>
	<path class="st0" d="M21.5,36c-2-0.3-4-0.6-6-0.7l-1.2-2.8l4.2-2.6c1.4-0.8,1.8-2.1,1.1-3.3c-0.1-0.2-0.4-0.3-0.6-0.2c0,0,0,0,0,0
		c-0.2,0.1-0.3,0.4-0.2,0.6c0.5,0.8,0.2,1.6-0.8,2.1L14,31.7l-0.9-2c-0.2-0.4-0.4-0.8-0.6-1.2l2.7-1.3c0.2-0.1,0.3-0.4,0.2-0.6
		c-0.1-0.2-0.3-0.3-0.5-0.2L12,27.8c-1-1.3-2.5-2-4.1-2c-3.1,0-5.2,2-5.7,5.5l0,0l-1.1,8.1c0,0.2,0.1,0.4,0.3,0.5c0,0,0,0,0,0
		c0.2,0,0.5-0.1,0.5-0.4c0,0,0,0,0,0l1.1-8.1c0.5-3.1,2.2-4.8,4.9-4.8c2,0,3.5,1.2,4.4,3.4l0,0l2.5,5.9c0.1,0.2,0.2,0.3,0.4,0.3
		c2.1,0.1,4.1,0.3,6.2,0.6c0.6,0.1,0.9,0.6,0.9,1.4c0,1-0.6,1.5-1.8,1.5h-7.2c-0.9,0-1.6-0.6-1.9-1.4l-2.5-5.2l-0.1-0.2
		c-0.1-0.2-0.4-0.3-0.6-0.2C8,32.8,7.9,33.1,8,33.3c0,0,0,0,0,0l0.1,0.2c0.7,1.5,1.9,3.8,2.5,5.2c0.5,1.1,1.5,1.8,2.7,1.9h7.1
		c1.6,0,2.6-0.9,2.6-2.4C23.2,37.2,22.5,36.2,21.5,36z"/>
	<path class="st0" d="M26.2,27.4c-1.4,0-2.6-1.2-2.6-2.6s1.2-2.6,2.6-2.6s2.6,1.2,2.6,2.6l0,0C28.8,26.2,27.6,27.3,26.2,27.4z
		 M26.2,23.1c-0.9,0-1.7,0.8-1.7,1.7c0,0.9,0.8,1.7,1.7,1.7s1.7-0.8,1.7-1.7c0,0,0,0,0,0C27.9,23.8,27.1,23.1,26.2,23.1z"/>
	<path class="st0" d="M17.1,26.3c-1.4,0-2.6-1.2-2.6-2.6s1.2-2.6,2.6-2.6s2.6,1.2,2.6,2.6l0,0C19.7,25.1,18.5,26.3,17.1,26.3z
		 M17.1,22c-0.9,0-1.7,0.8-1.7,1.7s0.8,1.7,1.7,1.7s1.7-0.8,1.7-1.7l0,0C18.8,22.8,18,22,17.1,22L17.1,22z"/>
	<path class="st0" d="M22.2,15.5c-1.4,0-2.6-1.1-2.6-2.6c0-1.4,1.1-2.6,2.6-2.6c1.4,0,2.6,1.1,2.6,2.6c0,0,0,0,0,0
		C24.8,14.3,23.6,15.5,22.2,15.5z M22.2,11.2c-0.9,0-1.7,0.8-1.7,1.7c0,0.9,0.8,1.7,1.7,1.7c0.9,0,1.7-0.8,1.7-1.7c0,0,0,0,0,0
		C23.9,12,23.2,11.2,22.2,11.2z"/>
	<path class="st0" d="M8.6,24.6c-2.7,0-4.9-2.2-4.9-4.8S6,15,8.6,15s4.9,2.2,4.9,4.8c0,0,0,0,0,0C13.5,22.5,11.3,24.6,8.6,24.6z
		 M8.6,15.8c-2.2,0-4,1.8-4,4s1.8,4,4,4s4-1.8,4-4S10.9,15.8,8.6,15.8z"/>
	<path class="st0" d="M48.9,39.4l-1.1-8.1l0,0c-0.6-3.6-2.6-5.5-5.7-5.5c-1.6,0-3.1,0.7-4.1,1.9l-4.2-1.8c-1.2-0.5-2.7-0.6-3.4,0.7
		c-0.7,1.1-0.3,2.6,0.8,3.2c0.1,0,0.1,0.1,0.2,0.1l4.2,2.5l-1.2,2.8c-2,0.1-4,0.3-6,0.7c-1,0.2-1.7,1.2-1.6,2.2c0,1.5,1,2.4,2.6,2.4
		h7.2c1.2,0,2.3-0.8,2.7-1.9c0.7-1.4,1.9-3.9,2.6-5.4c0.1-0.2,0-0.5-0.2-0.6c0,0,0,0,0,0c-0.2-0.1-0.5,0-0.6,0.2
		c-0.7,1.5-1.9,4-2.6,5.4c-0.3,0.8-1.1,1.4-2,1.4h-7.1c-1.2,0-1.8-0.5-1.8-1.5c0-0.8,0.3-1.3,0.9-1.4c2-0.3,4.1-0.5,6.2-0.6
		c0.2,0,0.3-0.1,0.4-0.3l2.5-5.9l0,0c0.9-2.2,2.4-3.4,4.4-3.4c2.7,0,4.4,1.7,4.9,4.8l1.1,8.1c0,0.2,0.2,0.4,0.5,0.4c0,0,0,0,0,0
		C48.8,39.9,49,39.7,48.9,39.4C48.9,39.4,48.9,39.4,48.9,39.4z M36,31.6l-4.1-2.5c-0.8-0.3-1.1-1.2-0.8-2c0-0.1,0.1-0.1,0.1-0.2
		c0.5-0.9,1.7-0.6,2.3-0.3l0,0l4,1.8c-0.2,0.4-0.4,0.8-0.6,1.2L36,31.6z"/>
	<path class="st0" d="M31.7,20.6c-1.4,0-2.6-1.2-2.6-2.6c0-1.4,1.2-2.6,2.6-2.6s2.6,1.2,2.6,2.6c0,0,0,0,0,0
		C34.3,19.4,33.1,20.6,31.7,20.6z M31.7,16.3C30.8,16.3,30,17,30,18c0,0.9,0.8,1.7,1.7,1.7c0.9,0,1.7-0.8,1.7-1.7
		C33.4,17.1,32.7,16.3,31.7,16.3C31.7,16.3,31.7,16.3,31.7,16.3z"/>
	<path class="st0" d="M41.3,24.6c-2.7,0-4.9-2.2-4.9-4.8c0-2.7,2.2-4.9,4.8-4.9c2.7,0,4.9,2.2,4.9,4.8c0,0,0,0,0,0
		C46.2,22.5,44,24.6,41.3,24.6z M41.3,15.8c-2.2,0-4,1.8-4,4s1.8,4,4,4s4-1.8,4-4S43.6,15.8,41.3,15.8z"/>
</g>
</svg>
