<svg xmlns="http://www.w3.org/2000/svg" width="60" height="60" viewBox="0 0 60 60"><path d="M48.20948,40.02334,52.36762,42.412m-44.62573.187,4.23662-2.374L7.83163,42.63234M50.93885,29.56662l2.39687-.00855m-44.20214.23007-2.39806.01951M48.07066,19.14832l4.14193-2.4172M11.88261,19.35,7.73078,16.95234m32.63353-5.37889,1.20058-2.093M19.49666,11.6596,18.22832,9.48042m11.69053-.67685-.0111-4.796" fill="none" stroke="#03304f" stroke-linecap="round" stroke-linejoin="round" stroke-width="2"/><path d="M28.29207,14.86036a15.22857,15.22857,0,0,0-7.58439,27.17571A4.429,4.429,0,0,1,22.49006,45.518v1.4433h15.089V45.658a4.46121,4.46121,0,0,1,1.69954-3.55809A15.23058,15.23058,0,0,0,28.29207,14.86036Z" fill="none" stroke="#03304f" stroke-linecap="round" stroke-linejoin="round" stroke-width="2"/><line x1="21.6492" y1="52.93553" x2="38.42078" y2="52.93553" fill="none" stroke="#03304f" stroke-linecap="round" stroke-linejoin="round" stroke-width="2"/><line x1="21.6492" y1="46.96122" x2="38.42078" y2="46.96122" fill="none" stroke="#03304f" stroke-linecap="round" stroke-linejoin="round" stroke-width="2"/><line x1="21.6492" y1="49.94837" x2="38.42078" y2="49.94837" fill="none" stroke="#03304f" stroke-linecap="round" stroke-linejoin="round" stroke-width="2"/><path d="M33.98356,52.93553a3.94857,3.94857,0,0,1-7.89714,0" fill="none" stroke="#03304f" stroke-linecap="round" stroke-linejoin="round" stroke-width="2"/><path d="M34.64054,29.43177a2.91327,2.91327,0,0,0-2.91336,2.91284v2.91284h2.91336a2.91284,2.91284,0,0,0,0-5.82568Z" fill="none" stroke="#03304f" stroke-linecap="round" stroke-linejoin="round" stroke-width="2"/><line x1="31.72737" y1="46.77001" x2="31.72737" y2="35.46595" fill="none" stroke="#03304f" stroke-linecap="round" stroke-linejoin="round" stroke-width="2"/><path d="M25.42965,29.43177a2.91284,2.91284,0,0,0,0,5.82568h2.91284V32.34461A2.91282,2.91282,0,0,0,25.42965,29.43177Z" fill="none" stroke="#03304f" stroke-linecap="round" stroke-linejoin="round" stroke-width="2"/><line x1="28.34261" y1="46.77001" x2="28.34261" y2="35.46595" fill="none" stroke="#03304f" stroke-linecap="round" stroke-linejoin="round" stroke-width="2"/><line x1="28.34261" y1="35.25764" x2="31.72737" y2="35.25764" fill="none" stroke="#03304f" stroke-linecap="round" stroke-linejoin="round" stroke-width="2"/></svg>