<svg xmlns="http://www.w3.org/2000/svg" width="350" height="330" viewBox="0 0 350 330"><rect x="-7.11711" y="-8.77186" width="365.65641" height="356.73383" fill="#03304f"/><circle cx="167.41058" cy="62.73291" r="6.46072" transform="translate(-11.32766 66.52253) rotate(-21.75683)" fill="#2bd88d"/><circle cx="167.41059" cy="62.73291" r="2.68649" fill="#03304f"/><rect x="87.31919" y="41.37809" width="186.25294" height="0.56441" fill="#fff"/><rect x="87.31919" y="62.56359" width="186.25294" height="0.56441" fill="#fff"/><rect x="87.31919" y="83.74909" width="186.25294" height="0.56441" fill="#fff"/><rect x="87.31919" y="104.93459" width="186.25294" height="0.56441" fill="#fff"/><rect x="87.31919" y="126.11981" width="186.25294" height="0.56441" fill="#fff"/><rect x="87.31919" y="147.30531" width="186.25294" height="0.56441" fill="#fff"/><polygon points="289.33 162.735 289.33 193.427 261.3 193.427 261.3 180.408 257.834 194.142 227.294 193.427 227.294 162.735 289.33 162.735" fill="#2bd88d"/><path d="M271.87656,162.7353c-2.17817,4.72107-9.573,17.41-10.576,19.13266v11.55858h28.029V162.7353Z" fill="#2bd88d"/><path d="M223.47758,232.20962a.84716.84716,0,0,1-.80279-.57792L166.48264,63.94154l-22.46948,11.7049a.84717.84717,0,0,1-.39106.09563H125.07676l-21.45971,35.93347a.84648.84648,0,0,1-.53437.39051l-30.76255,7.17914a.84671.84671,0,1,1-.38473-1.64913l30.41228-7.09729L123.8694,74.4614a.84662.84662,0,0,1,.72673-.41256h18.81873l23.16451-12.067a.84662.84662,0,0,1,1.19386.482l56.50715,168.62992a.8473.8473,0,0,1-.8028,1.11587Z" fill="#ffdb45"/><path d="M173.20721,96.16685a.543.543,0,0,0,.51217.56568l2.28171.12773-3.47369,2.25741a.72835.72835,0,0,0,.67645,1.28327l2.5563-1.06253,4.01515.18169-3.70507-.09412-3.21406,2.39508a.61835.61835,0,0,0,.59077,1.07322l3.19259-1.223,2.87154.11534a.13022.13022,0,0,1,.0061.25985l-2.56451.22354-3.14647,1.294a.6704.6704,0,0,0-.41388.57951l.46817.68a.66771.66771,0,0,0,.266.02822l3.36507-.32889,2.19344-.13638,4.83216,6.85493,7.07553-7.84452a24.70146,24.70146,0,0,0-2.2166-1.7456l-6.48894-4.63167-3.96933-1.808a2.306,2.306,0,0,0-1.315-.17922l-3.93783.62147A.54292.54292,0,0,0,173.20721,96.16685Z" fill="#fff"/><path d="M180.87935,97.68746l-.02306-.00223-3.72889-.806a1.22937,1.22937,0,0,0-.818.10659l-.20431.10425a.10987.10987,0,0,1-.14605-.04713.108.108,0,0,1,.04722-.146l.20431-.10436a1.423,1.423,0,0,1,.96292-.12626l3.72891.80595a.10883.10883,0,0,1-.02305.21521Z" fill="#03304f"/><path d="M179.61442,99.75173h-.00765l-3.27871-.22286-.22949.05825a.10849.10849,0,0,1-.13176-.07916.10688.10688,0,0,1,.079-.13167l.24589-.06262a.07585.07585,0,0,1,.03409-.00328l3.29624.224a.1088.1088,0,0,1-.00765.21735Z" fill="#03304f"/><path d="M262.95185,72.56475l-1.526-8.58793-25.78609-20.074-.10391,18.56946a5.85229,5.85229,0,0,0,2.369,4.75784c1.609,1.1797,4.26683,2.23876,8.61956,2.21661l-.2232,4.51127S252.41872,75.768,262.95185,72.56475Z" fill="#fff"/><path d="M261.79047,66.02905s-8.59693,3.03819-12.62157-5.23008c0,0,.02317-4.71288-4.46505-2.881,0,0-3.84371-.25836-3.15906-5.63866a1.98062,1.98062,0,0,0-.26784-1.307,1.49685,1.49685,0,0,0-1.93764-.55657,15.65679,15.65679,0,0,0-3.74667,1.91572l-.00991,1.76584s-5.31609-1.22186-4.15877-7.95626c0,0,.7937-8.34856,12.11165-7.7,0,0,7.8372.21024,10.26766,4.85271l.14878-3.00749s10.234,1.94843,9.60573,12.85667a33.05408,33.05408,0,0,1-1.89907,7.91916l2.2998.11378Z" fill="#2bd88d"/><path d="M235.57328,55.77823l-1.3,5.00646a.48722.48722,0,0,0,.30067.57883l.96607.362Z" fill="#fff"/><path d="M317.078,138.47837a88.49854,88.49854,0,0,0-6.2073-15.45827c-5.31869-10.35839-20.86-38.91757-20.86-38.91757s-4.5126-6.78006-10.75788-7.57117c-6.24517-.7983-11.26218-.33136-14.46388-7.6764a1.15547,1.15547,0,0,1-.15078.13572,11.63148,11.63148,0,0,1-2.33545,1.52915c-2.757,1.40874-7.95491,3.05857-16.21914,1.98128-.70083-.09028-1.41628-.19585-2.1622-.33134-.0677-.01507-.14313-.0226-.21084-.03779l-.889,4.42964-3.33741,1.57447a95.32135,95.32135,0,0,0-9.07018,4.64056c-3.14142,1.921-5.93633,4.1735-6.94569,6.6595a21.3384,21.3384,0,0,0-1.439,5.62745l-2.85515,24.89782L193.04859,98.52908l-3.0435,3.80412-6.41113,8.00811-2.94532,3.68382,32.6798,32.67982a17.23611,17.23611,0,0,0,11.78234,3.89474v12.1364c42.86622,11.64887,65.977,0,65.977,0v-3.812l.00776.00754a25.22643,25.22643,0,0,0,2.74958.67811c.015,0,.03011.00742.05294.00742a30.18985,30.18985,0,0,0,14.63713-.69307c4.96441-1.59708,7.38262-5.72537,8.54277-9.58235A19.17445,19.17445,0,0,0,317.078,138.47837Zm-27.00686.083-.41455-8.22633,4.7385,8.22633Z" fill="#03304f"/><path d="M225.40018,150.87394a.27242.27242,0,0,1-.01315-.54454c.13066-.00551,13.06547-.75772,16.16519-13.15993,3.14915-12.5912,7.26026-44.41546,7.30084-44.73613a.27242.27242,0,0,1,.54028.07027c-.04171.31954-4.15606,32.17575-7.31176,44.79754-3.19978,12.8009-16.53423,13.56627-16.66926,13.57279Z" fill="#fff"/><path d="M249.0902,159.03562l.00112.00339Zm.16257-.20417h0Z" fill="#fff"/><path d="M257.83409,189.25944c.56817,23.90368,10.82525,156.31243,10.82525,156.31243a6.862,6.862,0,0,1,5.64071-1.70492,21.33488,21.33488,0,0,1,3.91523,1.67681,11.308,11.308,0,0,0,9.00149-.25545l2.11282-151.86177Z" fill="#2bd88d"/><path d="M262.17974,179.70881l-.06039.74581-.23353,2.93036-.50475,6.34324-.08274.99429-1.98116,24.76234L250.322,339.54371l-.075.96427-.42971,5.37118a10.382,10.382,0,0,1-2.388.76842,9.87092,9.87092,0,0,1-1.62731.18831,10.82782,10.82782,0,0,1-3.77412-.49708,20.32541,20.32541,0,0,1-2.388-1.02465,7.11964,7.11964,0,0,0-2.43328-.52722,8.13089,8.13089,0,0,0-1.54456.04518,7.47589,7.47589,0,0,0-1.57437.30876,5.48231,5.48231,0,0,0-2.59138,1.35614h-.12064l-.15044-5.12281-.03026-1.00948-3.90238-146.93762Z" fill="#2bd88d"/><path d="M48.27659,322.52s-19.3308,8.8489-31.98019-4.49088C16.2964,318.02907,33.23314,301.73874,48.27659,322.52Z" fill="#ffdb45"/><path d="M116.78511,320.2547a38.83507,38.83507,0,0,1-33.69894,0S100.52574,304.86695,116.78511,320.2547Z" fill="#ffdb45"/><path d="M112.17574,304.29745l-5.1386,48.39238H96.40345l-9.27074-38.31642S99.82,294.22184,112.17574,304.29745Z" fill="#fff"/><path d="M44.62307,317.71126l-11.389,35.5138H23.19957l-2.2301-49.62845S37.06708,299.71155,44.62307,317.71126Z" fill="#fff"/><path d="M16.2964,318.02453a24.57012,24.57012,0,0,1,17.70075-3.81948,24.33435,24.33435,0,0,1,14.28309,8.3191L76.86582,207.69842c.68915,12.9522,1.41675,26.73762,2.14443,40.78162.12447,2.32635.23931,4.65236.36377,6.98828,1.25417,24.23933,2.5272,42.5483,3.71428,64.78693a30.46968,30.46968,0,0,1,33.6977,0c-.49794-7.43841-1.53166-24.02423-2.76684-50.89623v-.00964q-.1578-3.70461-.34457-7.49558v-.00963c-1.34011-29.47591-2.86242-62.17773-4.11652-83.74613q-.21519-3.748-.42129-7.00762c-.66025-10.51129-3.19315-17.0116-3.57626-17.0116H70.97827c-4.174,4.19323-6.48112,7.62032-9.69774,12.05258q-5.09739,7.02189-9.50618,14.5034c-.94772,1.59874-1.857,3.207-2.709,4.83462v.00957c-1.09152,2.06778-2.10625,4.15477-3.00621,6.32776-.22967.54575-.45941,1.1008-.69878,1.66576a59.765,59.765,0,0,0-3.74311,10.56874q-5.67195,26.982-11.3538,53.95461c-.02856.12447-.04782.24866-.07638.37313-.3542,1.71351-.718,3.4178-1.07225,5.12168l-.00956.02889c-.14373.66989-.27756,1.33048-.42129,2.00071C24.56734,285.15471,20.42227,298.39972,16.2964,318.02453Z" fill="#2bd88d"/><path d="M102.88209,74.04675s6.89926,17.207-4.45614,20.24075l-.0066,7.13325-14.12216.17015.90987-23.01914Z" fill="#fff"/><path d="M105.54671,67.78325a1.88507,1.88507,0,0,0,.67059-1.61828,1.8305,1.8305,0,0,0-.31133-.85313,2.39987,2.39987,0,0,0,.6252-1.85119,2.43034,2.43034,0,0,0-1.32067-1.91176,3.21827,3.21827,0,0,0-.00012-.59922,3.48016,3.48016,0,0,0-3.88165-3.02051,3.72039,3.72039,0,0,0-1.25961.3566,3.161,3.161,0,0,0-5.09976-1.62107c-.04976-.00776-.09965-.01529-.14965-.02184-.6462-2.08593-3.02536-3.27867-5.2221-3.2175-1.43585.03993-3.04673.694-3.452,2.072a1.95333,1.95333,0,0,0-3.6599.20646,2.18369,2.18369,0,0,0-2.08253-.76939,1.544,1.544,0,0,0-1.17453,1.74268c-.25088-1.05049-2.0903-1.60189-2.97778-1.76817a6.94691,6.94691,0,0,0-4.13193.4963c-2.15159.98155-4.77362,3.8706-3.20062,6.33085a2.48083,2.48083,0,0,0-2.2357-.20549,2.5069,2.5069,0,0,0-1.26787,1.8751,1.57136,1.57136,0,0,0,.94307,1.73565,5.11432,5.11432,0,0,0-5.06419,3.66936,6.49864,6.49864,0,0,0,1.72387,6.21858,3.84928,3.84928,0,0,0-2.426,1.5315,6.2672,6.2672,0,0,0-1.09564,2.7008,8.87713,8.87713,0,0,0,1.11421,6.09963c.65117,1.07113,1.76951,2.07549,3.00485,1.86285a1.70474,1.70474,0,0,0,1.84888,2.71925A7.54471,7.54471,0,0,0,67.039,94.44539a5.37563,5.37563,0,0,0,4.32758,2.039,2.54811,2.54811,0,0,0,1.74426-.69717,1.77539,1.77539,0,0,0,3.07124.89974,2.8931,2.8931,0,0,0,1.4509,1.74875c-.00838.06-.01384.12016-.02258.18.0886-.01711.176-.0392.26362-.06044a2.524,2.524,0,0,0,.36231.12865,4.89133,4.89133,0,0,0,3.40756-.37419,1.47234,1.47234,0,0,0,.70809.07343,1.78879,1.78879,0,0,0,1.45418-1.62434A3.33828,3.33828,0,0,0,89.211,94.125a2.91917,2.91917,0,0,0,3.803-3.4685c2.00922.47312,4.08265-.95145,5.01831-2.79147.60032-1.18048.78032-2.773-.157-3.70857a1.80076,1.80076,0,0,0,1.44544-3.05473,2.01272,2.01272,0,0,0,1.54047-1.34737,1.42347,1.42347,0,0,0-.89367-1.719c.96115.25962,2.21822-.987,2.74389-1.63247a6.41386,6.41386,0,0,0,.89161-1.4685,2.49629,2.49629,0,0,0,1.75652-2.5832,2.3446,2.3446,0,0,0-.23911-.81988,2.43306,2.43306,0,0,0,1.16786-2.27478A2.32018,2.32018,0,0,0,105.54671,67.78325Z" fill="#2bd88d"/><path d="M95.21457,85.54529a3.01006,3.01006,0,0,0,3.31816,2.68781,3.044,3.044,0,0,0,2.61289-3.40285,3.00975,3.00975,0,0,0-3.31816-2.68775A3.04451,3.04451,0,0,0,95.21457,85.54529Z" fill="#fff"/><path d="M126.68726,124.826l4.17941,4.9434,15.99721-27.99682,6.45457,2.37562-12.62414,36.562a10.9253,10.9253,0,0,1-6.15912,6.37069h0a10.92356,10.92356,0,0,1-12.05891-2.64354l-5.8433-6.21588Z" fill="#fff"/><path d="M48.44915,125.21945c3.5462,8.48031,14.4893,11.72218,14.4893,11.72218l6.16992-8.4896,1.43423,26.02638c1.79112,1.05663,6.77149,2.3783,14.81355,2.38762,6.59725.00764,17.46251-1.02762,20.20437-2.68388l5.03636-20.01665s3.34205,3.6463,5.70446,6.00871c5.714-3.1138,11.55931-8.48811,12.47442-16.76364-2.1823-2.1823-9.1763-10.32113-14.68621-16.2714s-7.547-6.42966-17.0614-6.96356a101.45987,101.45987,0,0,0-16.97668.5339,20.50379,20.50379,0,0,0-10.25333,2.74909,20.73406,20.73406,0,0,0-4.809,3.84178Z" fill="#03304f"/><path d="M60.9555,136.10587l-2.81129,5.5568a3.3163,3.3163,0,0,0-.215,2.45922l5.43322,18.82984-6.273,9.04223-12.17891-22.1586a17.27593,17.27593,0,0,1,.29889-16.73687l3.85884-6.684A24.22083,24.22083,0,0,0,60.9555,136.10587Z" fill="#fff"/><path d="M82.31948,306.69206a.7952.7952,0,0,0,.29944-.05745c19.36748-7.66931,32.85339-.12688,32.98846-.05078a.81372.81372,0,0,0,.81182-1.41049c-.57493-.329-14.30558-8.01272-34.39923-.05078a.81327.81327,0,0,0,.29951,1.5695Z" fill="#03304f"/><path d="M52.03807,308.42669a.813.813,0,0,0,.47414-1.47427c-.15963-.116-16.20556-11.3836-33.40934-4.46384a.81326.81326,0,1,0,.60679,1.50909c16.38507-6.58928,31.70332,4.16832,31.85573,4.27655A.806.806,0,0,0,52.03807,308.42669Z" fill="#03304f"/><path d="M149.29017,105.77858l4.02828-1.63041,2.42126-9.81021a.88367.88367,0,0,0-.57654-1.08291.855.855,0,0,0-.70452.2936q.2426-.60468.48526-1.2091a.9324.9324,0,0,0-1.59867-.8458q.253-.47846.5059-.9565a.91431.91431,0,0,0-1.54894-.93955l1.83909-4.20675a.53542.53542,0,1,0-.8746-.46273q-3.4858,5.54289-6.97149,11.08542l-.7622-2.997a1.94025,1.94025,0,0,0-1.64233-1.44772l-.11334-.01413.35336,6.51845,1.95545,5.06043.87009,4.88871c2.6426-.30066-.61325,3.51982,2.02932,3.2191Z" fill="#fff"/><path d="M150.22947,94.38756a.24165.24165,0,0,0,.10315-.11l2.189-4.57448a.243.243,0,0,0-.11382-.3251.239.239,0,0,0-.32512.11509l-2.18936,4.57431a.24416.24416,0,0,0,.3362.32015Z" fill="#03304f"/><path d="M151.88381,95.49428a.25214.25214,0,0,0,.10885-.12027l1.57787-3.78589a.24388.24388,0,0,0-.13139-.31909.24662.24662,0,0,0-.32.13016L151.54152,95.185a.24506.24506,0,0,0,.34229.30933Z" fill="#03304f"/><path d="M153.69348,96.45168a.24216.24216,0,0,0,.11538-.13852l.88192-2.68856a.24452.24452,0,0,0-.46447-.153l-.88173,2.68877a.24541.24541,0,0,0,.3489.29134Z" fill="#03304f"/><path d="M70.54225,154.76059a.282.282,0,0,1-.28138-.26677l-1.39063-25.23393-5.70363,7.84773a.28288.28288,0,0,1-.30838.10472c-.11079-.0328-11.11266-3.37847-14.66943-11.884a.28258.28258,0,0,1,.05319-.30039l16.53986-17.9192a20.80611,20.80611,0,0,1,15.25147-6.68142A102.915,102.915,0,0,1,97.04389,99.894c9.59994.5385,11.74844,1.10953,17.25254,7.0532,3.23572,3.49449,7.09454,7.8152,10.19494,11.2871,2.12976,2.38468,3.812,4.26835,4.4891,4.98185a.28259.28259,0,0,1,.07689.21138c-.3004,4.98544-2.00686,11.423-12.62482,16.99652a.28282.28282,0,0,1-.33071-.05044c-1.78307-1.78279-4.41331-4.612-5.35859-5.63363l-4.9091,19.511a.2822.2822,0,1,1-.54732-.13779l5.03642-20.01672a.28211.28211,0,0,1,.48146-.12209c.03389.03693,3.35642,3.64745,5.54929,5.85273,10.1186-5.37375,11.822-11.52025,12.13234-16.31195-.73059-.77827-2.36622-2.60985-4.41579-4.905-3.099-3.47-6.95591-7.78875-10.188-11.27938-5.39635-5.82737-7.32218-6.33777-16.87-6.87351a102.14364,102.14364,0,0,0-16.92376.53189.28189.28189,0,0,1-.03721.00248,20.2431,20.2431,0,0,0-14.85572,6.50063l-16.4153,17.78443c3.26686,7.53742,12.60167,10.85911,14.04935,11.33423l6.05032-8.32477a.28205.28205,0,0,1,.50984.15047L70.82418,154.463a.28186.28186,0,0,1-.26622.29709Z" fill="#fff"/><path d="M291.379,163.01839a.282.282,0,0,1-.28221-.2822v-3.812a.28232.28232,0,0,1,.412-.25052l.02094.00634a26.31454,26.31454,0,0,0,2.65587.65178l.02481.00385.03169.00414a29.65366,29.65366,0,0,0,14.49746-.684c4.06524-1.30823,6.87764-4.46926,8.35922-9.39544a18.84906,18.84906,0,0,0-.00055-10.70313,87.73515,87.73515,0,0,0-6.18757-15.40828c-5.25634-10.2371-20.70156-38.626-20.85671-38.91178-.0317-.0452-4.50344-6.66021-10.54549-7.4258-.77358-.09893-1.532-.17886-2.26536-.256-5.03284-.52941-9.39158-.98772-12.26379-7.23536a12.58866,12.58866,0,0,1-2.25571,1.45043c-2.95048,1.50776-8.18808,3.07973-16.38526,2.01044-.76311-.09839-1.45567-.20394-2.11433-.32217l-.83476,4.15867a.28231.28231,0,0,1-.15626.19952l-4.16556,1.96276a85.15134,85.15134,0,0,0-8.21564,4.238c-3.74335,2.28933-5.97784,4.42378-6.83079,6.52461a21.061,21.061,0,0,0-1.42012,5.55288l-2.8554,24.89854a.28217.28217,0,0,1-.45913.186L193.38164,98.92836l-12.06371,15.07592,32.50125,32.50126a17.09539,17.09539,0,0,0,11.5649,3.81252.29936.29936,0,0,1,.2111.07579.28277.28277,0,0,1,.089.20587v12.13647a.28221.28221,0,0,1-.56441,0V150.89763c-.23922.01047-.477.01571-.711.01571a17.77985,17.77985,0,0,1-10.97871-3.99937l-32.68976-32.68922a.28191.28191,0,0,1-.02095-.37563l12.39994-15.49647a.28248.28248,0,0,1,.191-.10418.27849.27849,0,0,1,.20835.06229l25.7253,21.1042,2.79615-24.38373a21.62517,21.62517,0,0,1,1.45787-5.70115c.90008-2.21685,3.20926-4.43922,7.05982-6.79442a86.979,86.979,0,0,1,8.27048-4.26725l4.03547-1.9013.86123-4.29067a.28185.28185,0,0,1,.33815-.21965c.02838.00634.05815.01075.08791.01543.04189.00662.08378.01351.12319.02233.65618.11878,1.35894.22626,2.13665.32657,8.05415,1.05028,13.17628-.48228,16.05455-1.95256a11.25067,11.25067,0,0,0,2.27528-1.48792,1.1435,1.1435,0,0,0,.1276-.11216.28412.28412,0,0,1,.47071.07386c2.73772,6.281,6.809,6.70953,11.9634,7.2519.73637.07744,1.49783.15763,2.27748.25712,6.30028.79839,10.76954,7.4134,10.95666,7.69478.16839.307,15.61691,28.702,20.87629,38.94512a88.32426,88.32426,0,0,1,6.22753,15.50888,19.41388,19.41388,0,0,1-.00083,11.02253c-1.51685,5.043-4.53457,8.42123-8.72659,9.77025a30.20366,30.20366,0,0,1-14.75871.70468.44151.44151,0,0,1-.05071-.00771l-.021-.00331c-.61374-.11878-1.50748-.31169-2.42134-.57791v3.42752A.282.282,0,0,1,291.379,163.01839Z" fill="#fff"/><path d="M294.68609,138.84356h-4.24521a.28221.28221,0,0,1,0-.56441h3.74859l-4.34662-7.29544a.28226.28226,0,1,1,.485-.28882l4.60072,7.72206a.28232.28232,0,0,1-.24252.42661Z" fill="#fff"/><path d="M291.37872,159.20642a.28211.28211,0,0,1-.28165-.26925l-3.06154-66.46894a.28223.28223,0,1,1,.56386-.0259l3.06154,66.46893a.28224.28224,0,0,1-.269.29489Z" fill="#fff"/><path d="M103.70752,79.06438c.3025-.07251,2.00848,2.04107,2.4079,3.00311s-1.54164,2.78524-1.54164,2.78524Z" fill="#fff"/></svg>