<svg xmlns="http://www.w3.org/2000/svg" width="350" height="330" viewBox="0 0 350 330"><rect x="-8.32603" y="-13.0163" width="366.39495" height="357.98439" transform="translate(349.74289 331.95179) rotate(-180)" fill="#03304f"/><rect x="39.06724" y="220.2371" width="288.80257" height="8.70419" fill="#fff"/><path d="M183.57851,28.4422a23.17307,23.17307,0,0,1,17.46175,27.70438A22.77428,22.77428,0,0,1,193.4799,68.6243s.4051-.181-1.33255,1.06246c-10.26424,7.95247-11.52,13.49023-11.52,13.49023a1.49531,1.49531,0,0,1-1.80452,1.13724l-15.05543-3.41412A1.49553,1.49553,0,0,1,162.63,79.09564s1.16929-5.55728-4.57383-17.13993c-1.01151-1.958-.74387-1.53331-.74387-1.53331A23.56257,23.56257,0,0,1,155.87392,45.904,23.17309,23.17309,0,0,1,183.57851,28.4422Z" fill="#ffdb45"/><path d="M173.30734,83.35858a.30389.30389,0,0,0,.45132-.1926L181.02,51.14576a.30242.30242,0,1,0-.58988-.13365l-7.26131,32.02018A.30214.30214,0,0,0,173.30734,83.35858Z" fill="#fff"/><path d="M182.84927,57.63065l.01728.00915a5.15459,5.15459,0,1,0-2.645-5.712.3029.3029,0,1,0,.59076.13416,4.54223,4.54223,0,1,1,2.33337,5.04112.30273.30273,0,0,0-.29638.52758Z" fill="#fff"/><path d="M169.08271,82.40056a.3039.3039,0,0,0,.45127-.19264l7.26165-32.02066a.30241.30241,0,0,0-.58988-.13364l-7.26162,32.02061A.30215.30215,0,0,0,169.08271,82.40056Z" fill="#fff"/><path d="M168.89569,54.37789a5.20056,5.20056,0,0,0,2.84256.7382.30258.30258,0,0,0-.02-.60482,4.58514,4.58514,0,0,1-1.16252-.11087,4.5488,4.5488,0,1,1,5.44236-3.43057.30241.30241,0,1,0,.58988.13364,5.15128,5.15128,0,1,0-7.69224,3.27442Z" fill="#fff"/><path d="M175.17259,56.05323a.29769.29769,0,0,0,.0895.03545l4.11516.93213a.30241.30241,0,1,0,.13369-.58985l-4.11517-.93213a.30273.30273,0,0,0-.22318.5544Z" fill="#fff"/><path d="M165.30166,96.66057l-6.53912-1.405a3.74993,3.74993,0,0,1-2.87856-4.454h0a3.74989,3.74989,0,0,1,4.454-2.87847,3.74991,3.74991,0,1,1,1.57544-7.33249l18.47227,3.969a3.7499,3.7499,0,0,1-1.57548,7.33246,3.74987,3.74987,0,0,1,2.8784,4.454l0,.00008a3.75,3.75,0,0,1-4.45393,2.87848l-6.78614-1.45814Z" fill="#03304f"/><path d="M157.45445,95.0599a4.05184,4.05184,0,0,0,1.24449.49121l6.53894,1.405a.30242.30242,0,0,0,.12718-.59132l-6.539-1.405a3.44734,3.44734,0,0,1,1.44842-6.74082l.12713-.59134a3.44767,3.44767,0,0,1,1.44829-6.74153l18.4724,3.9691a3.44757,3.44757,0,0,1-1.44867,6.74123l-.12718.59131a3.44743,3.44743,0,1,1-1.448,6.7411l-6.78626-1.45795a.30243.30243,0,0,0-.12712.59136l6.78625,1.45794a4.05229,4.05229,0,0,0,3.14369-7.30339,4.05381,4.05381,0,0,0,.13438-7.953l-18.4724-3.9691a4.05259,4.05259,0,0,0-3.144,7.30384,4.0565,4.0565,0,0,0-1.37862,7.46133Z" fill="#fff"/><path d="M170.92477,97.86877l7.438,1.59819c-1.30513,6.0744-4.74928,10.486-10.8237,9.1808l-3.80731-.818c-6.07438-1.30519-6.97948-6.65124-5.67427-12.72566l6.97968,1.49968Z" fill="#03304f"/><path d="M160.83746,107.0453a9.17,9.17,0,0,0,2.83068,1.07985l3.80743.81815a7.84576,7.84576,0,0,0,7.4725-1.89962,14.48816,14.48816,0,0,0,3.71027-7.51349l.06381-.29609-7.73355-1.661a.30243.30243,0,1,0-.12714.59134l7.13959,1.53409a13.66812,13.66812,0,0,1-3.47039,6.90685,7.27378,7.27378,0,0,1-6.928,1.74654l-3.80737-.81812a6.806,6.806,0,0,1-5.38389-4.38207,14.4398,14.4398,0,0,1-.12019-7.688l6.68266,1.43552a.30243.30243,0,0,0,.12713-.59135L157.825,94.74465l-.06313.29594c-.72622,3.37784-.6991,6.17632.08114,8.31826A6.94789,6.94789,0,0,0,160.83746,107.0453Z" fill="#fff"/><path d="M160.338,87.92307l10.36413,2.22687Z" fill="#ff7867"/><path d="M160.18173,88.18274a.28868.28868,0,0,0,.09276.03621l10.36411,2.22647a.30243.30243,0,0,0,.12713-.59135l-10.36411-2.22646a.30273.30273,0,0,0-.21989.55513Z" fill="#fff"/><path d="M178.81025,91.89206l-2.60873-.56048Z" fill="#ff7867"/><path d="M176.04525,91.59138a.28982.28982,0,0,0,.09276.03621l2.60845.56013a.30242.30242,0,0,0,.12718-.59131l-2.60849-.56016a.30274.30274,0,0,0-.2199.55513Z" fill="#fff"/><path d="M214.71326,138.00115a6.85643,6.85643,0,0,0,3.53789,2.06254l.32686-2.78582A4.61174,4.61174,0,0,0,214.71326,138.00115Z" fill="#464646"/><path d="M218.39672,128.971l-2.57532,16.64132-21.0898-19.97566-6.49517,4.25531,19.26751,30.52659a16.0426,16.0426,0,0,0,17.09441,6.4636l4.92808-1.23495,1.92117-32.84886Z" fill="#fff"/><path d="M214.70907,138.005a7.535,7.535,0,0,1,5.4979-.44785,40.86574,40.86574,0,0,1,6.18416,2.68658,6.22843,6.22843,0,0,0,2.67634.73,4.19569,4.19569,0,0,0,1.24664-.224l-8.52235,49.78916,69.27064,5.85016-.20282-24.25708-7.14073-23.86758h.00966l.116-1.42119a11.36451,11.36451,0,0,1,5.9423,1.19737c2.50268,1.09993,5.05353,2.49192,7.76872,2.27759,2.76356-.22382,3.17912-2.04394,5.95215-2.23873a6.86471,6.86471,0,0,1,5.06323,1.8203s-.6957-5.05194-1.53627-10.83386c-.37687-2.55032-.77308-5.2369-1.15961-7.68978-.65706-4.31208-1.26574-7.92347-1.55564-8.8481a24.29671,24.29671,0,0,0-8.71564-12.54706l-.85988-.6328a20.63646,20.63646,0,0,0-3.923-2.27781,36.35669,36.35669,0,0,0-6.92822-2.10247l-1.85514-.30171-7.29521-1.18749-2.715-.2824-17.25754-.72014-3.4881.068-9.84606.17529c-6.445.38928-9.247,1.79092-13.9914,6.00578l-.57974.51583c-1.7296,1.53812-3.952,6.22011-6.03912,11.43746-1.12093,2.80334-2.203,5.76242-3.15957,8.4782C216.34181,132.93355,215.26945,136.25271,214.70907,138.005Z" fill="#03304f"/><path d="M283.90437,146.42147a.37918.37918,0,0,0,.37851-.34931l1.90967-24.12152a.38018.38018,0,1,0-.75795-.06056l-1.90966,24.12152a.38132.38132,0,0,0,.34913.40987Z" fill="#fff"/><path d="M230.43868,140.31852a.3791.3791,0,0,0,.37542-.32253l3.38193-22.33661a.38016.38016,0,0,0-.75173-.114l-3.38193,22.3366a.3802.3802,0,0,0,.31883.43286A.30737.30737,0,0,0,230.43868,140.31852Z" fill="#fff"/><path d="M249.92947,103.86828a13.09425,13.09425,0,0,0,26.1266-.39509l-3.02861-.309-19.265-.80369-3.88649.07477A12.97717,12.97717,0,0,0,249.92947,103.86828Z" fill="#fff"/><path d="M262.9519,116.31265q.61044,0,1.22543-.05527a13.63826,13.63826,0,0,0,12.30228-12.75993l-.84713-.0498A12.78687,12.78687,0,0,1,264.10163,115.413a12.56971,12.56971,0,0,1-9.21859-2.89107,12.91179,12.91179,0,0,1-4.58291-10.07719l-.848-.01787a13.26287,13.26287,0,0,0,.05487,1.47844,13.54943,13.54943,0,0,0,4.832,9.26676A13.36652,13.36652,0,0,0,262.9519,116.31265Z" fill="#fff"/><path d="M180.44137,292.147s2.79514-.2344,4.503,3.22706a6.69585,6.69585,0,0,0,4.8219,3.921H194.451V277.56826l-14.00967.15889Z" fill="#fff"/><path d="M176.1494,292.29789a5.8469,5.8469,0,0,1-.69848,2.55l-.112.19973-.22236-.04835c-.09686-.02135-2.37392-.53192-3.1061-2.176a4.49682,4.49682,0,0,1-.403-2.332,1.87812,1.87812,0,0,1,.99852-1.58316c1.09138-.49284,2.54026.45425,3.29821,2.15615A3.0206,3.0206,0,0,1,176.1494,292.29789Zm-1.13058,2.02973a3.98347,3.98347,0,0,0,.31957-3.00818c-.59447-1.33619-1.73035-2.17966-2.47917-1.84125a1.29038,1.29038,0,0,0-.637,1.09137,3.84486,3.84486,0,0,0,.35407,1.99868A3.93579,3.93579,0,0,0,175.01882,294.32762Z" fill="#2bd88d"/><path d="M161.32856,302.642H194.451v-5.94812c-.32359,1.128-2.717,1.63022-4.2741,1.85933a4.72949,4.72949,0,0,1-4.66227-2.09722,7.79044,7.79044,0,0,1-.56858-1.08387c-1.59194-3.66578-4.50472-3.22508-4.50472-3.22508a4.48639,4.48639,0,0,1-.50744.34367c-.13119.07917-.28862.17622-.481.29077a17.39918,17.39918,0,0,1-1.58338.80188c-.16616.07918-.3411.15853-.53355.22911-.5598.23788-1.19843.48468-1.92426.7313-.17512.07062-.35006.12351-.54247.19391h-.00878a47.59476,47.59476,0,0,1-8.11733,1.79767,6.92045,6.92045,0,0,0-1.31211.36117c-.21874.07935-.45495.17622-.69976.29077A5.77628,5.77628,0,0,0,161.32856,302.642Z" fill="#2bd88d"/><path d="M175.21546,294.68019a.311.311,0,0,1-.30974.312h-6.02987a.31193.31193,0,0,1,0-.62385h6.02987A.311.311,0,0,1,175.21546,294.68019Z" fill="#2bd88d"/><path d="M176.9624,298.03389a.36718.36718,0,0,1-.13189.02845.29658.29658,0,0,1-.25408-.15178l-1.70375-3.17655c.18826-.06639.36722-.12329.53669-.1895l1.666,3.10064A.29472.29472,0,0,1,176.9624,298.03389Z" fill="#fff"/><path d="M179.44721,297.12363a.23363.23363,0,0,1-.13166.03794.296.296,0,0,1-.25412-.15179l-1.72251-3.19547c.18822-.07591.367-.15178.527-.22765l1.6944,3.15771A.27542.27542,0,0,1,179.44721,297.12363Z" fill="#fff"/><path d="M181.60279,296.17526a.37519.37519,0,0,1-.1412.02845.273.273,0,0,1-.24476-.14207l-1.76013-3.28088c.18826-.11384.34825-.20868.48014-.29408l1.77887,3.29988A.29183.29183,0,0,1,181.60279,296.17526Z" fill="#fff"/><path d="M198.30745,288.49974s2.74237.59394,3.37954,4.40564a6.73807,6.73807,0,0,0,3.485,5.163l4.48319,1.371,6.25892-20.78953-13.45255-3.948Z" fill="#fff"/><path d="M194.15681,287.38812a5.81752,5.81752,0,0,1-1.40311,2.23546l-.16474.15835-.19881-.11129c-.08645-.04887-2.11857-1.20372-2.34564-2.9912a4.4965,4.4965,0,0,1,.28618-2.34931,1.86686,1.86686,0,0,1,1.4117-1.22269c1.18622-.15213,2.3,1.178,2.53519,3.02861A3.02726,3.02726,0,0,1,194.15681,287.38812Zm-1.66689,1.61108a3.9679,3.9679,0,0,0,1.17255-2.78472c-.184-1.45273-1.0279-2.59209-1.84218-2.48738a1.28233,1.28233,0,0,0-.92393.85768,3.84787,3.84787,0,0,0-.237,2.01623A3.9614,3.9614,0,0,0,192.48992,288.9992Z" fill="#2bd88d"/><path d="M176.9938,292.94843l31.6971,9.69356,1.71341-5.69145c-.63461.9845-3.06967.7647-4.62561.52827a4.75573,4.75573,0,0,1-3.85748-3.37117,7.81285,7.81285,0,0,1-.23207-1.20354c-.4673-3.97349-3.3817-4.40436-3.3817-4.40436a4.45827,4.45827,0,0,1-.58464.18041c-.14831.0374-.3269.08407-.54414.13736a17.32491,17.32491,0,0,1-1.74606.30387c-.18187.02739-.37211.052-.57662.06312-.60434.06388-1.28655.1131-2.0523.13666-.18774.01623-.37031.01566-.5748.02682l-.00839-.00256a47.552,47.552,0,0,1-8.28609-.65561,6.90706,6.90706,0,0,0-1.3597-.03829c-.232.01187-.486.03555-.75336.07349A5.74119,5.74119,0,0,0,176.9938,292.94843Z" fill="#2bd88d"/><path d="M192.57656,289.39429a.30925.30925,0,0,1-.38615.20776l-5.77026-1.76467a.31174.31174,0,0,1,.17966-.597l5.77027,1.76467A.31269.31269,0,0,1,192.57656,289.39429Z" fill="#2bd88d"/><path d="M193.28233,293.11459a.36944.36944,0,0,1-.13445-.01147.29788.29788,0,0,1-.19938-.21945l-.71542-3.53825c.19937-.00843.38689-.01041.56822-.02444l.701,3.45449A.29354.29354,0,0,1,193.28233,293.11459Z" fill="#fff"/><path d="M195.92257,292.97066a.2339.2339,0,0,1-.137-.00216.298.298,0,0,1-.19957-.21963l-.72781-3.56181c.2019-.01751.39492-.03776.56982-.06347l.71181,3.5173A.27393.27393,0,0,1,195.92257,292.97066Z" fill="#fff"/><path d="M198.25835,292.69413a.37313.37313,0,0,1-.14318-.014.27473.27473,0,0,1-.19338-.2078l-.73911-3.65444c.21288-.05381.39329-.09757.54392-.1408l.752,3.67817A.29057.29057,0,0,1,198.25835,292.69413Z" fill="#fff"/><path d="M252.405,188.16586l-57.69966-11.99237a15.61325,15.61325,0,0,0-9.77058,1.13425h0a15.84476,15.84476,0,0,0-9.12155,14.66615l1.98482,94.35329h18.11725l11.31919-72.35955,26.12318,5.89806S251.40263,188.16586,252.405,188.16586Z" fill="#2bd88d"/><path d="M291.0624,196.38906a60.07243,60.07243,0,0,1,.398,15.12926c-.48615,4.97206-2.79223,8.71878-7.75144,8.71878H248.78882l-32.24507,68.78106-18.38588-6.74325,14.87956-66.20464a110.33037,110.33037,0,0,1,6.092-19.7491,20.79122,20.79122,0,0,1,24.17424-11.98249Z" fill="#2bd88d"/><path d="M213.57081,215.69543a.38057.38057,0,0,0,.36426-.27071l5.40654-18.20917a15.40791,15.40791,0,0,1,1.27359-3.17271c2.1386-3.83358,5.98554-6.86893,11.12482-8.77859l1.44376-.53793a.38017.38017,0,1,0-.26541-.71251l-1.44342.53792c-5.31073,1.97371-9.29555,5.12671-11.52316,9.12062a16.14589,16.14589,0,0,0-1.33875,3.32578l-5.40654,18.20913a.38175.38175,0,0,0,.25615.47392A.376.376,0,0,0,213.57081,215.69543Z" fill="#03304f"/><path d="M249.09327,220.08479a.3799.3799,0,0,0,.34732-.22452l5.09075-11.47377a.38038.38038,0,0,0-.69477-.30992l-5.0908,11.47377a.38107.38107,0,0,0,.19338.50237A.36221.36221,0,0,0,249.09327,220.08479Z" fill="#03304f"/><path d="M308.56709,149.89864a12.99633,12.99633,0,0,1-5.035,1.41642l.76977-3.23434A6.13523,6.13523,0,0,1,308.56709,149.89864Z" fill="#2bd88d"/><path d="M185.66185,126.722c-.05434-.044-4.08438-5.35639-4.08438-5.35639a1.562,1.562,0,0,1,.31463-1.08992,1.2063,1.2063,0,0,1,1.38489-.31464c-.2127-.29408-.08192-.11874-.29461-.41282a1.11129,1.11129,0,0,1,.34679-1.19588,1.08694,1.08694,0,0,1,1.10633-.14829c-.21892-.27728.45949.53518.24062.25791a1.18692,1.18692,0,0,1-.20194-1.11872,1.15554,1.15554,0,0,1,.23039-.39347,1.3192,1.3192,0,0,1,1.56618-.263c-.7362-1.04069-2.36974-3.17108-3.10611-4.21173a.895.895,0,0,1,.0277-1.01h0a.7675.7675,0,0,1,1.20593-.04049l7.48642,7.45537,1.50143-5.132a1.63591,1.63591,0,0,1,2.19333-1.0609l-.84785,12.94965,2.32284,2.31993-5.97693,5.43332Z" fill="#fff"/><path d="M186.6137,120.32791a1.351,1.351,0,0,0,.734-.21742,1.36784,1.36784,0,0,0,.30153-2.01641l-1.26172-1.50526a.15232.15232,0,0,0-.2333.1959l1.2612,1.50345a1.06378,1.06378,0,0,1-.23388,1.56768,1.04376,1.04376,0,0,1-1.37739-.21747l-1.251-1.53005a.15185.15185,0,0,0-.23511.19223l1.25044,1.53028A1.34462,1.34462,0,0,0,186.6137,120.32791Z" fill="#03304f"/><path d="M184.97487,121.66026a1.15582,1.15582,0,0,0,.74992-.276,1.18579,1.18579,0,0,0,.1554-1.64791l-.45367-.55927a.15227.15227,0,0,0-.236.19245l.45367.55927a.88092.88092,0,0,1-.1153,1.2238.86177.86177,0,0,1-1.23-.12113l-.55985-.6946a.15592.15592,0,0,0-.2138-.025.15233.15233,0,0,0-.02316.2138l.55985.69645a1.15837,1.15837,0,0,0,.79932.43286C184.89954,121.65863,184.93752,121.66026,184.97487,121.66026Z" fill="#03304f"/><path d="M183.321,122.89116a1.1551,1.1551,0,0,0,.74952-.27415,1.19057,1.19057,0,0,0,.15539-1.64954l-.4538-.5595a.1523.1523,0,0,0-.23609.19246l.45386.55927a.885.885,0,0,1-.11543,1.22564.806.806,0,0,1-.64031.19775.85154.85154,0,0,1-.58971-.31887l-.55984-.69646a.15782.15782,0,0,0-.21381-.025.15243.15243,0,0,0-.02315.21375l.55984.69646a1.15162,1.15162,0,0,0,.79712.43285C183.24342,122.88952,183.2821,122.89116,183.321,122.89116Z" fill="#03304f"/><path d="M253.39349,97.36437s-5.12817-2.7995-4.19568-11.27113L250.47,74.70964l7.46724-6.73651,12.2096,8.501-1.99174,8.27353,4.44084,6.88626-.96606,13.71064-18.70572-1.31793Z" fill="#fff"/><path d="M272.23012,96.65441a11.58567,11.58567,0,0,0,6.97674-2.69389,3.81969,3.81969,0,0,0,1.25665-3.29874,2.01451,2.01451,0,0,0-2.14719-1.87574s7.84464-4.5074,7.14766-12.50877c0,0-.34239-4.19166-5.97857-2.22615,0,0,4.83011-4.69624,1.80808-9.8866a3.52686,3.52686,0,0,0-5.03205-1.0361s.51623-2.91295-1.9569-3.69568-4.84268,1.87375-4.84268,1.87375-.02135-4.7628-3.99541-5.89158c-3.974-1.12895-6.46559,3.23108-6.46559,3.23108a3.64178,3.64178,0,0,0-3.48995-.71706c-1.84892.741-1.39746,3.09318-1.39746,3.09318s-3.79965-1.57058-5.904,1.2612c-2.10409,2.83179.7895,6.69981.7895,6.69981s-8.07887.30066-7.77932,8.14931c.29968,7.84849,7.93092,9.44422,7.93092,9.44422l.67674-6.11645c-.044.3557,1.7424.66341,1.93869.66707a2.67892,2.67892,0,0,0,2.564-1.45766,6.29451,6.29451,0,0,0,.25791-1.68113,3.91039,3.91039,0,0,1,2.28125-3.38263c1.6315-.56223,2.82085.76429,2.74789,2.32482a14.46761,14.46761,0,0,1-.51314,2.43648c-.27251,1.22344-.18768,2.857,1.22781,3.3046a2.09207,2.09207,0,0,0,2.28782-.855c.72747-1.01784,2.05381-2.50321,3.30862-1.972,1.85566.78547,1.875,5.10716,1.875,5.10716l4.79271,6.682Z" fill="#2bd88d"/><path d="M266.91263,87.46648a4.38242,4.38242,0,1,0,4.36278-4.402A4.38228,4.38228,0,0,0,266.91263,87.46648Z" fill="#fff"/><path d="M253.39349,97.36437s4.79142,2.42919,13.78108-2.04032c0,0-5.68435,6.27957-13.91187,4.54009Z" fill="#03304f"/><path d="M258.155,86.235c-.14212.64428.07663,1.24.48813,1.33068s.86046-.35809,1.00235-1.00219c.14191-.64427-.07661-1.2402-.48811-1.33085C258.74563,85.142,258.29691,85.5907,258.155,86.235Z" fill="#03304f"/><path d="M251.9495,85.29048c-.07773.65521.19884,1.22653.61727,1.27615.41865.04941.82085-.44145.8984-1.09649.07772-.65521-.19885-1.22652-.61728-1.276C252.42924,84.14454,252.027,84.6354,251.9495,85.29048Z" fill="#03304f"/><path d="M253.919,91.85077a.33306.33306,0,0,0,.15667-.627c-.147-.07843-.57277-.37595-.59814-.693-.01949-.25121.22766-.49527.43908-.65561,1.48519-1.133,1.97883-4.31076,1.99925-4.44446a.33347.33347,0,0,0-.27965-.37943.33871.33871,0,0,0-.3794.27966c-.00458.03025-.47356,3.04444-1.74443,4.01341a1.43865,1.43865,0,0,0-.69843,1.24351,1.77142,1.77142,0,0,0,.95,1.22383A.32572.32572,0,0,0,253.919,91.85077Z" fill="#03304f"/><path d="M258.29911,83.95174a4.87163,4.87163,0,0,1,2.53462.70977.64117.64117,0,0,0,.82323-.11093h0a.58734.58734,0,0,0-.2397-.848,5.99464,5.99464,0,0,0-3.11872-.87338.58764.58764,0,0,0-.6452.60012h0A.64117.64117,0,0,0,258.29911,83.95174Z" fill="#03304f"/><path d="M254.19991,83.19675a4.87415,4.87415,0,0,0-2.63073-.08191.64156.64156,0,0,1-.7523-.35245h0a.58728.58728,0,0,1,.48287-.73712,5.99508,5.99508,0,0,1,3.23707.1007.58773.58773,0,0,1,.43581.76593h0A.64116.64116,0,0,1,254.19991,83.19675Z" fill="#03304f"/><path d="M254.41908,94.32418c.51389-1.52356,3.57-.00657,3.9452.87549s-1.07479,1.416-2.72756,1.23844C254.7366,96.34142,253.90519,95.84774,254.41908,94.32418Z" fill="#03304f"/><path d="M223.31121,182.33956a.22059.22059,0,0,0,.2171-.18393l4.35717-25.73684a.22076.22076,0,0,0-.18092-.25415.225.225,0,0,0-.25415.18092l-4.35717,25.73684a.22077.22077,0,0,0,.18092.25415A.21182.21182,0,0,0,223.31121,182.33956Z" fill="#fff"/><path d="M291.06256,196.71974h.00259a.33064.33064,0,0,0,.32824-.33341l-.20289-24.25673a.33183.33183,0,0,0-.01378-.09218l-7.11536-23.78332.09089-1.11525a11.19587,11.19587,0,0,1,5.50086,1.20442c.34547.15163.69094.30886,1.03814.46652,2.19517.99721,4.46572,2.02631,6.89006,1.83849a6.17477,6.17477,0,0,0,3.111-1.17253,5.4706,5.4706,0,0,1,2.83874-1.06614A6.48288,6.48288,0,0,1,308.347,150.143a.33076.33076,0,0,0,.55181-.28861c-.00689-.0504-.70559-5.1192-1.53653-10.83586l-.03016-.20375c-.37045-2.50748-.75383-5.10067-1.12989-7.49012-.52768-3.46032-1.22811-7.81362-1.56712-8.8957a24.46607,24.46607,0,0,0-8.83754-12.71614l-.85765-.6315a21.03431,21.03431,0,0,0-3.98543-2.31363,36.61063,36.61063,0,0,0-6.98957-2.12237l-9.16966-1.493-2.73363-.28516-17.27793-.72153-13.3541.24295c-6.69751.40448-9.54227,1.94705-14.20486,6.08927l-.58024.51606c-1.546,1.375-3.60721,5.26479-6.12632,11.56169-.97955,2.44975-2.01468,5.22689-3.16438,8.49121-.97784,2.7892-1.94576,5.68608-2.95978,8.85736a.3307.3307,0,0,0,.47685.38941,7.17153,7.17153,0,0,1,5.2523-.41654.3309.3309,0,0,0,.168-.64012,8.26167,8.26167,0,0,0-5.03519.14517c.92872-2.88483,1.82127-5.54651,2.722-8.116,1.14669-3.25485,2.17837-6.0238,3.15448-8.46493,2.44545-6.113,4.50364-10.02516,5.95186-11.31272l.58024-.516c4.53594-4.02979,7.30145-5.53058,13.7909-5.92257l13.32093-.24295,17.237.71981,2.69485.28128,9.13133,1.48657a35.99341,35.99341,0,0,1,6.84742,2.07843,20.37066,20.37066,0,0,1,3.86136,2.2417l.85938.63279a23.81141,23.81141,0,0,1,8.59588,12.37971c.255.81285.80338,3.93761,1.54472,8.79878.37606,2.38815.759,4.97963,1.12946,7.48538l.02973.20289c.63236,4.349,1.18761,8.32321,1.42022,9.99587a7.09221,7.09221,0,0,0-4.64277-1.36035,6.098,6.098,0,0,0-3.14845,1.1678,5.547,5.547,0,0,1-2.80771,1.07131c-2.25419.17187-4.44462-.81846-6.564-1.78121-.34935-.159-.69784-.31747-1.045-.47a11.39274,11.39274,0,0,0-6.12244-1.22165.33032.33032,0,0,0-.28215.30024L283.404,148.174a.31919.31919,0,0,0-.00216.18523l7.12742,23.823.20246,24.20934A.3312.3312,0,0,0,291.06256,196.71974Z" fill="#fff"/><polygon points="226.871 121.928 251.827 115.733 252.183 117.408 227.47 122.865 226.871 121.928" fill="#fff"/><polygon points="226.871 121.928 208.346 114.697 208.244 116.497 224.193 123.18 226.871 121.928" fill="#fff"/><polygon points="253.117 117.2 259.996 160.318 232.745 165.43 229.381 165.319 211.368 155.43 206.867 116.017 226.032 122.582 253.117 117.2" fill="#ffdb45"/><polygon points="228.753 121.995 232.745 165.43 229.381 165.319 224.661 122.003 228.753 121.995" fill="#fff"/><path d="M234.45429,137.88258a.89144.89144,0,0,0,.30317,1.07223l6.25531,4.60224-8.93584-2.96311a.84118.84118,0,0,0-1.07166.5445.87278.87278,0,0,0,.5306,1.07241l.07481.03229a.70991.70991,0,0,0-.67056.421.75482.75482,0,0,0,.22055.87356c2.67145,1.40221,5.663,3.01074,8.326,4.41437l-6.7994-.30626c-.40369-.008-.64956.10053-.72857.50034a.63113.63113,0,0,0-.006.24772.8429.8429,0,0,0,.64847.63991l15.3626,5.18617,4.80167-5.86163a33.98119,33.98119,0,0,0-2.23493-3.41713c-1.50457-2.06749-3.99833-8.00463-3.99833-8.00463a1.80631,1.80631,0,0,0-1.12366,2.04173l.17512,3.92334-9.93018-5.41585A.85875.85875,0,0,0,234.45429,137.88258Z" fill="#fff"/><path d="M240.20414,145.609a.15167.15167,0,0,0,.05342-.29386l-8.59725-3.21723a.15226.15226,0,1,0-.10692.28513l8.59729,3.21722A.14068.14068,0,0,0,240.20414,145.609Z" fill="#03304f"/><path d="M244.95688,153.20156a21.38555,21.38555,0,0,1,1.71814,1.30994q7.32834,5.52679,14.64776,11.06478,3.87881,2.92332,7.78227,5.79506c2.454,1.80151,4.6508,3.93481,7.202,5.60809a16.34874,16.34874,0,0,0,14.17746,2.19113,3.521,3.521,0,0,0,.33458-.12987c4.49355-1.62969,7.08581-5.62872,8.50444-10.03978l4.97837-20.92019a7.06107,7.06107,0,0,0-.79094.00146c-2.77193.18954-3.194,2.01072-5.95245,2.23912-2.72015.21486-5.2668-1.17968-7.76732-2.27979a11.66159,11.66159,0,0,0-5.95069-1.1979l-1.41422,11.37452-30.50744-11.26164Z" fill="#fff"/><path d="M144.70377,278.16164s-7.62931,2.91458-13.52909-4.49227c0,0,3.74787-3.44377,10.56025-2.17582C141.73493,271.49355,146.40638,272.45577,144.70377,278.16164Z" fill="#ffdb45"/><path d="M124.98179,262.67452l-8.18994,31.83318H128.2893l15.04647-31.83318S134.488,257.18611,124.98179,262.67452Z" fill="#fff"/><path d="M123.70886,278.16164s-9.06479,2.91458-14.96457-4.49227c0,0,3.74787-3.44377,10.56025-2.17582C119.30454,271.49355,125.41147,272.45577,123.70886,278.16164Z" fill="#ffdb45"/><path d="M102.50195,265.08738,94.312,296.92056h11.49745l15.04648-31.83318S112.00818,259.599,102.50195,265.08738Z" fill="#fff"/><path d="M62.24937,162.85939v5.82753s.315,4.095-2.36263,13.38766c-2.4651,8.55548-6.26532,29.79436,6.05412,36.674a11.86525,11.86525,0,0,0,5.791,1.441h41.23253L99.84365,272.17651s.94488,3.78011,12.75737.63c11.81271-3.14991,11.10784,5.35511,11.10784,5.35511l18.39328-59.70453s.0629-.18751.16232-.53118a20.77347,20.77347,0,0,0-16.08822-26.09448L112.33459,189.162,98.94693,176.8769V162.85939Z" fill="#2bd88d"/><path d="M83.16925,182.07458c-2.46509,8.55548-6.26532,29.79436,6.05413,36.674a11.8652,11.8652,0,0,0,5.791,1.441H136.247l-13.1208,51.98684s.94489,3.78011,12.75738.63c11.81271-3.14991,8.82023,5.35511,8.82023,5.35511l20.68088-59.70453s.0629-.18751.16233-.53118a20.77347,20.77347,0,0,0-16.08823-26.09448L101.79,187.35116S85.84692,172.78193,83.16925,182.07458Z" fill="#2bd88d"/><path d="M123.49077,135.59986s-.60162,3.587-2.91608,4.41839l-2.63493-3.46239A5.20617,5.20617,0,0,1,123.49077,135.59986Z" fill="#2bd88d"/><path d="M125.65455,143.00689l14.46276-9.75232,5.21718,2.44706-14.39364,17.621c-2.767,2.25006-4.86712,2.95216-7.94773,2.827Z" fill="#fff"/><path d="M118.7918,135.70163l7.275,7.40614-.9792,12.99725c-.23533.03665-.4688.08063-.70722.10582a14.883,14.883,0,0,1-9.254-2.48191l-11.07175-8.6077Z" fill="#fff"/><path d="M100.6,142.05416l1.66926,1.852,3.8431,4.26664a9.8617,9.8617,0,0,0,8.36616-6.35945,9.30464,9.30464,0,0,1,1.91531-3.88285,6.79722,6.79722,0,0,1,7.097-2.33065l-10.70656-11.4765-1.44889-1.5525-3.05375-3.26887a20.25538,20.25538,0,0,0-3.73512-3.151c-.14428-.0989-.29695-.19722-.44908-.28751l-.89711-.55835c-.01677-.00728-.04213-.02245-.05872-.02955Z" fill="#03304f"/><path d="M62.15541,138.55622l.02356-.01769.11235,2.44159,1.30279,29.32119,36.68155,2.06378c-.59725-3.28431-.76906-9.62828-.89711-11.50769l.88414-14.64352a7.63384,7.63384,0,0,0,2.00653-2.30789,11.10243,11.10243,0,0,0,.62548-1.17893l.19082.20286,1.46093-26.77908.00349-.09011-1.34968-.75557c-.01659-.00728-.04213-.02245-.05872-.02955a18.70591,18.70591,0,0,0-6.03074-2.12946,18.032,18.032,0,0,0-3.04228-.257H88.94437l-18.14989.425c-.41737.00569-.834.01954-1.24293.02465a24.56183,24.56183,0,0,0-5.17836.52681c-.84895.20026-1.68859.42465-2.50908.69716-.0082.00036-.00768.00856-.01588.00913-.04049.01019-.08844.02916-.12893.0394l.00123.02443Z" fill="#03304f"/><path d="M54.32537,119.38064a4.96335,4.96335,0,0,0,4.77572,3.16975l-.07843-2.10776a2.83708,2.83708,0,0,1-2.88961-2.48336c-.46514.33546-.92151.687-1.35312,1.03721Z" fill="#ac9af0"/><path d="M82.75584,128.7612c-7.0114-.39439-12.49-6.38209-13.55894-15.07312a.39792.39792,0,1,1,.78988-.09722c1.08842,8.84829,6.91688,14.761,14.17816,14.37719a12.16952,12.16952,0,0,0,8.99094-4.67758,13.441,13.441,0,0,0,1.16217-1.68642,18.39375,18.39375,0,0,0,2.37264-8.14856.39792.39792,0,0,1,.41918-.36991l.00512.00035a.39779.39779,0,0,1,.36973.42448,19.17584,19.17584,0,0,1-2.48,8.49624,14.2065,14.2065,0,0,1-1.228,1.782,12.95218,12.95218,0,0,1-9.56953,4.9744A13.36991,13.36991,0,0,1,82.75584,128.7612Z" fill="#fff"/><path d="M48.64905,143.56908s1.35149,3.48153,4.12982,3.29913l-.50895-2.52531S51.02094,145.13636,48.64905,143.56908Z" fill="#2bd88d"/><path d="M67.81515,114.18715l2.71939,21.30213-.32725,3.59648-.44437,5.66516s-4.82389-6.90122-11.55709-3.15957c-7.36966,4.091-7.41016,3.25644-9.55731,1.98558q.45092-4.65123.90166-9.30249c.48777-5.03169.597-10.1239,3.86092-14.29607A16.28128,16.28128,0,0,1,62.26159,114.34a10.49955,10.49955,0,0,1,4.36241-.58393C66.66467,113.76378,67.89194,114.09923,67.81515,114.18715Z" fill="#03304f"/><path d="M69.75181,144.94959a.19855.19855,0,0,1-.15267-.0861,9.556,9.556,0,0,0-1.77014-1.88121.199.199,0,0,1,.24208-.31579,9.2894,9.2894,0,0,1,1.53591,1.54505l.06348-.79019.46805-14.15778a.19923.19923,0,0,1,.2056-.19245.21056.21056,0,0,1,.19245.20559l-.4688,14.167-.10635,1.323a.19856.19856,0,0,1-.147.17622A.19283.19283,0,0,1,69.75181,144.94959Z" fill="#fff"/><path d="M69.74478,145.11519l-.00388-.00043a.36221.36221,0,0,1-.27784-.15723,9.32043,9.32043,0,0,0-1.73469-1.8441.36453.36453,0,0,1,.44369-.57851,8.95149,8.95149,0,0,1,1.30263,1.257l.03015-.37606.46824-14.15834a.3854.3854,0,0,1,.38511-.3515.37562.37562,0,0,1,.34375.37649l-.46911,14.1747-.10639,1.32288a.36454.36454,0,0,1-.26665.32178.35137.35137,0,0,1-.09821.01335Zm.55913-15.84607-.46867,14.16566-.09692,1.20743-.261-.32781a9.07818,9.07818,0,0,0-1.50594-1.51628.0346.0346,0,0,0-.04782.00559.03331.03331,0,0,0,.00646.04739,9.67533,9.67533,0,0,1,1.80576,1.919.03507.03507,0,0,0,.02671.01465l-.01077.165.0448-.19643.106-1.31512.46867-14.16652c.00043-.01422-.02283-.03446-.03231-.03532h-.00129A.03375.03375,0,0,0,70.30391,129.26912Z" fill="#fff"/><path d="M144.319,124.164a1.2279,1.2279,0,0,1,.72217,1.54192l-.31922,3.1822,7.52564-5.30165a.535.535,0,0,1,.8575.20758.8678.8678,0,0,1-.274.89367l-4.79857,4.30035,6.67886-3.22922a.50824.50824,0,0,1,.75719.3389.86894.86894,0,0,1-.44035.915l-.05633.03321c.023-.00348-6.44044,3.4-6.44044,3.4l6.02709-2.32284a.43934.43934,0,0,1,.587.22911h0a.71894.71894,0,0,1-.33581.86557l-5.8753,3.17342,4.98714-.88507c.29549-.04451.47008.02007.50837.33528a.56567.56567,0,0,1-.00763.19938.83977.83977,0,0,1-.5055.57736l-11.48669,5.62577-3.22578-4.279s.59994-1.15794,1.8008-2.96712A63.13349,63.13349,0,0,0,144.319,124.164Z" fill="#fff"/><path d="M105.26276,293.844l10.54,3.261a5.32419,5.32419,0,0,1,3.75056,5.08639h0l-23.996.14248a2.04406,2.04406,0,0,1-1.97208-2.62473l1.51823-5.86512Z" fill="#2bd88d"/><path d="M109.30648,297.86694a.2709.2709,0,0,0,.20559-.09466l1.6791-1.98319a.26939.26939,0,0,0-.4108-.3486l-1.67927,1.98319a.26947.26947,0,0,0,.20538.44326Z" fill="#fff"/><path d="M106.87053,297.047a.27088.27088,0,0,0,.20543-.09466l1.67962-1.9832a.26937.26937,0,0,0-.41075-.3486l-1.67985,1.98319a.26925.26925,0,0,0,.03154.37926A.2665.2665,0,0,0,106.87053,297.047Z" fill="#fff"/><path d="M111.33365,294.54412l.1992.14371a6.3833,6.3833,0,0,0,2.66139,1.07259,3.18686,3.18686,0,0,0,1.36225-.11526c1.92793-.6078,3.1249-2.05836,2.73708-3.30752a2.04837,2.04837,0,0,0-1.5806-1.27452,4.79822,4.79822,0,0,0-2.56434.14248,3.80641,3.80641,0,0,0-1.85567,1.45819,6.58564,6.58564,0,0,0-.82928,1.50747,1.04027,1.04027,0,0,0-.05143.135Zm.82067-.25778a4.22745,4.22745,0,0,1,2.20154-2.43135,4.09092,4.09092,0,0,1,2.19444-.13683,1.39908,1.39908,0,0,1,1.09388.82689c.27036.84987-.77832,1.97587-2.29673,2.45927A4.27723,4.27723,0,0,1,112.15432,294.28634Z" fill="#2bd88d"/><path d="M111.74736,294.45237a.33825.33825,0,0,1-.29717-.37471l.755-6.5415a.33813.33813,0,1,1,.6718.07754l-.755,6.5415A.33853.33853,0,0,1,111.74736,294.45237Z" fill="#2bd88d"/><path d="M107.60038,294.82885l1.19424-1.77887a2.40159,2.40159,0,0,0-.78582-3.41422l-1.2455-.72491-1.89493,5.08785Z" fill="#2bd88d"/><path d="M127.15268,293.72431l10.54,3.261a5.32419,5.32419,0,0,1,3.75056,5.08639h0l-23.996.14248a2.04406,2.04406,0,0,1-1.97208-2.62473l1.51823-5.86511Z" fill="#2bd88d"/><path d="M131.1964,297.74724a.2709.2709,0,0,0,.20559-.09466l1.6791-1.98319a.26939.26939,0,0,0-.4108-.3486L130.991,297.304a.26947.26947,0,0,0,.20538.44326Z" fill="#fff"/><path d="M128.76045,296.92728a.27088.27088,0,0,0,.20543-.09466l1.67962-1.9832a.26937.26937,0,0,0-.41075-.3486l-1.67985,1.9832a.26924.26924,0,0,0,.03154.37925A.2665.2665,0,0,0,128.76045,296.92728Z" fill="#fff"/><path d="M133.22357,294.42442l.1992.14371a6.3833,6.3833,0,0,0,2.66139,1.07259,3.18686,3.18686,0,0,0,1.36225-.11526c1.92793-.6078,3.1249-2.05836,2.73708-3.30752a2.04837,2.04837,0,0,0-1.5806-1.27452,4.79822,4.79822,0,0,0-2.56434.14248,3.80637,3.80637,0,0,0-1.85567,1.45819,6.58564,6.58564,0,0,0-.82928,1.50747,1.04027,1.04027,0,0,0-.05143.135Zm.82067-.25778a4.22745,4.22745,0,0,1,2.20154-2.43135,4.09089,4.09089,0,0,1,2.19443-.13683,1.39908,1.39908,0,0,1,1.09389.82689c.27035.84987-.77832,1.97587-2.29673,2.45927A4.27723,4.27723,0,0,1,134.04424,294.16664Z" fill="#2bd88d"/><path d="M133.63728,294.33267a.33825.33825,0,0,1-.29717-.37471l.755-6.5415a.33813.33813,0,1,1,.6718.07755l-.755,6.54149A.33853.33853,0,0,1,133.63728,294.33267Z" fill="#2bd88d"/><path d="M129.4903,294.70915l1.19424-1.77887a2.40159,2.40159,0,0,0-.78582-3.41422l-1.2455-.72491-1.89493,5.08785Z" fill="#2bd88d"/><path d="M48.649,143.90776a.33045.33045,0,0,0,.32868-.29895l.90158-9.30234c.05213-.53414.09951-1.06872.14689-1.6033.40535-4.56049.78787-8.86813,3.64556-12.521a15.98557,15.98557,0,0,1,8.67385-5.522l.37735-.10037a16.45226,16.45226,0,0,1,2.31923-.50227,27.32925,27.32925,0,0,1,4.51742-.38812c.20461-.00258.41526-.00732.62719-.01249.20332-.00474.4075-.00948.61212-.01206l18.15324-.42517h5.11661a19.13994,19.13994,0,0,1,2.98777.25286,18.33025,18.33025,0,0,1,5.92386,2.09222l.08443.04222,1.17082.65648a.33079.33079,0,0,0,.13009.16412,19.98871,19.98871,0,0,1,3.67355,3.10021l15.2094,16.29794a.331.331,0,0,0,.48418-.45144L108.523,119.0764a20.63169,20.63169,0,0,0-3.65589-3.11012.33012.33012,0,0,0-.15551-.19427l-1.35-.75556c-.05471-.02843-.07711-.03963-.09434-.047a18.88456,18.88456,0,0,0-6.1022-2.14995,18.34115,18.34115,0,0,0-3.09762-.26147H88.94434l-18.15754.42516c-.20332.003-.41009.00776-.61557.0125-.20935.00473-.41741.00947-.62417.01206a27.78913,27.78913,0,0,0-4.60616.3963,17.12477,17.12477,0,0,0-2.389.51649l-.37434.0995a16.64506,16.64506,0,0,0-9.02708,5.75457c-2.9783,3.80666-3.38752,8.41411-3.78339,12.86993-.04739.53285-.09477,1.06571-.146,1.59813l-.90159,9.30234a.33061.33061,0,0,0,.29723.361A.271.271,0,0,0,48.649,143.90776Z" fill="#fff"/><path d="M100.27558,172.69612a.331.331,0,0,0,.32566-.38984,90.20161,90.20161,0,0,1-.793-9.56338c-.03877-.81027-.07021-1.47623-.09994-1.90785l.87488-14.44307a7.47583,7.47583,0,0,0,1.733-1.93973l3.55035,3.94191a.33094.33094,0,1,0,.49193-.44282l-3.84327-4.26671a.35113.35113,0,0,0-.277-.10813.33126.33126,0,0,0-.252.1581,7.18269,7.18269,0,0,1-1.91,2.20637.3314.3314,0,0,0-.14388.25329l-.88436,14.64337c.02973.47083.06117,1.13205.09951,1.93672.11975,2.51609.31618,6.63892.7323,9.23729l-35.983-2.02459-2.5303-27.01017.17359-1.35561a.33094.33094,0,1,0-.65648-.08443l-.17834,1.39223a.34754.34754,0,0,0-.00129.07323l2.56046,27.33022a.33163.33163,0,0,0,.311.29938l36.68168,2.06379Z" fill="#fff"/><path d="M67.10392,161.16353,67.748,142.5762c-5.4742-4.25513-9.5398-.98864-9.5398-.98864a40.30267,40.30267,0,0,1-6.53642,2.96509q.13385,3.64815.26744,7.29653c.14667,3.99735-.127,7.94936,1.22653,11.79387a12.11144,12.11144,0,0,0,3.17125,4.99354c1.6997,1.54064,3.72467,2.18839,5.82427,2.96495,2.31459.85587,23.239,5.3837,23.46424,5.47271l1.91407-5.00867Z" fill="#fff"/><path d="M69.55155,113.33877c1.14624,9.32036,7.40993,15.40509,14.63439,15.024,6.89773-.36373,12.31195-6.35195,12.92486-15.21687a18.07451,18.07451,0,0,0-3.04228-.257l-5.12415.00018-18.15006.425C70.37711,113.31981,69.96049,113.33366,69.55155,113.33877Z" fill="#fff"/><path d="M94.39168,82.59675s7.13334,19.99236-5.03242,22.58982l.24442,7.59974-14.2712.89473-.80216-26.349S82.30313,70.95642,94.39168,82.59675Z" fill="#fff"/><path d="M75.69935,95.46648s4.83133-.55543,5.88881-6.34928a9.39394,9.39394,0,0,1,2.44633-4.71288c2.25475-2.39553,6.0047-4.88536,10.35719-1.80757,0,0-1.17315-7.00346-5.00341-9.9863,0,0-8.12618-7.4306-19.49664-.30973-7.16448,4.48686-7.497,12.14636-6.76275,17.199a17.73028,17.73028,0,0,1-2.1753,11.3476c-1.3808,2.41713-3.05321,5.17845-4.76729,7.61831,0,0,5.54585,8.28192,23.86426,4.91961,0,0,1.97638-10.20272-4.90933-12.52628Z" fill="#2bd88d"/><path d="M67.60613,98.29737a4.51894,4.51894,0,1,0,3.71028-5.2034A4.519,4.519,0,0,0,67.60613,98.29737Z" fill="#fff"/><path d="M68.0535,73.64031S66.55437,60.272,49.56357,65.27314c0,0,.81132,12.916,15.39606,12.06Z" fill="#2bd88d"/><path d="M89.35926,105.18657s-5.16886.36645-7.98356-2.15978a10.38219,10.38219,0,0,0,8.05136,4.267Z" fill="#03304f"/><path d="M88.39543,91.68629c.09374.635-.15907,1.19835-.56477,1.25832-.4057.05985-.81067-.40637-.90446-1.04143-.09372-.635.15919-1.19835.56489-1.25822C87.89681,90.585,88.30165,91.05123,88.39543,91.68629Z" fill="#03304f"/><path d="M94.079,90.84709c.09376.635-.15905,1.19835-.56477,1.25821-.4057.06-.81066-.40626-.90442-1.04133-.09376-.635.15915-1.19835.56487-1.25822C93.58036,89.74581,93.98523,90.212,94.079,90.84709Z" fill="#03304f"/><path d="M92.9912,88.42763c-.84938-.10427-1.54919.24267-1.75472.06485-.23418-.14429.43572-1.121,1.77588-1.03716,1.34567.092,1.99331,1.27051,1.75028,1.41866C94.56272,89.04238,93.84926,88.47677,92.9912,88.42763Z" fill="#03304f"/><path d="M86.75516,89.622c-.78915.33108-1.2245.97971-1.49119.92724-.27489-.00894-.17819-1.18948,1.02691-1.78187,1.21389-.58805,2.36108.11361,2.22362.36292C88.42451,89.37567,87.52444,89.23877,86.75516,89.622Z" fill="#03304f"/><path d="M87.91139,96.73763a2.51449,2.51449,0,0,0,4.69331,1.79768Z" fill="#03304f"/><path d="M91.23417,96.45082a.35512.35512,0,0,0,.11269-.01894c.18852-.06225,1.13572-.41051,1.25569-1.0609a.91093.91093,0,0,0-.40678-.88577c-.692-.56561-1.20067-2.55921-1.33785-3.27908a.3554.3554,0,1,0-.69816.13349c.05588.29041.571,2.865,1.58671,3.69586.11731.0956.16328.1732.157.20746-.028.15242-.44295.4023-.78214.516a.3552.3552,0,0,0,.1128.69188Z" fill="#03304f"/><path d="M94.90184,84.22354s-2.117,2.675-5.23794.05533c-3.121-2.61953-4.79952-.68965-4.79952-.68965l1.93522-6.927,6.41293,1.75741s6.11758-1.21507,6.97387,7.31793c.67834,6.75969-3.74155,7.34127-3.74155,7.34127Z" fill="#2bd88d"/><path d="M100.26352,146.5449a.32653.32653,0,0,0,.1624-.04308c.10941-.062,2.68451-1.58176,3.14328-6.85646.45015-5.1752-1.93155-11.96015-2.03321-12.24661a.33094.33094,0,1,0-.62374.22141c.02455.06892,2.4351,6.93745,1.99788,11.96747-.426,4.89779-2.78833,6.32577-2.81246,6.33955a.33122.33122,0,0,0,.16585.61772Z" fill="#fff"/><path d="M81.711,148.14174l.02886-.00129,18.55127-1.59685a.33049.33049,0,0,0,.3011-.358.3358.3358,0,0,0-.358-.3011L81.683,147.48138a.33079.33079,0,0,0,.028.66036Z" fill="#fff"/><path d="M123.70886,278.16164l18.39328-59.70453s.0629-.18751.16232-.53118a20.77347,20.77347,0,0,0-16.08822-26.09448L112.33459,189.162" fill="none" stroke="#03304f" stroke-miterlimit="10"/><path d="M113.6699,189.91081l31.07325,5.54456a4.20865,4.20865,0,0,0,4.58727-2.34318l18.70131-30.02684a4.20877,4.20877,0,0,0-3.00672-5.92426l-27.45376-4.99774Z" fill="#ffdb45"/><path d="M114.77022,189.1612a1.007,1.007,0,0,1-.86366-1.551l22.525-35.06115a1.00644,1.00644,0,0,1,1.693,1.08876l-22.52494,35.061A1.00538,1.00538,0,0,1,114.77022,189.1612Z" fill="#fff"/><path d="M119.59458,190.98858a1.95228,1.95228,0,0,1-.32941-.02088l-27.97855-4.06154a2.01344,2.01344,0,1,1,.57926-3.985l27.97855,4.06151a2.01363,2.01363,0,0,1-.24985,4.0059Z" fill="#ffdb45"/><path d="M143.50026,172.10729c-1.77349.80176-2.689,2.60691-2.04475,4.03217.64421,1.42506,2.60424,1.93033,4.37773,1.12861,1.77349-.80159,2.68886-2.60691,2.04462-4.032S145.27375,171.30557,143.50026,172.10729Z" fill="#fff"/><path d="M147.35649,191.7389a.1838.1838,0,0,1-.0376-.00329L116.653,186.54723a.19968.19968,0,0,1-.164-.232.197.197,0,0,1,.232-.164l30.66593,5.18838a.20113.20113,0,0,1-.03033.39929Z" fill="#fff"/><path d="M85.9526,171.25894l1.75774.62972a8.55918,8.55918,0,0,1,3.68563,2.574l.00366.00419a8.4757,8.4757,0,0,1,1.84072,3.96547,17.21714,17.21714,0,0,1,.23806,3.83269l-.23422,4.6995a.42846.42846,0,1,1-.85353-.048q-.48427-3.82356-.9684-7.64707l-1.38435,8.3711a.7412.7412,0,1,1-1.47972-.08337q.04241-.49691.08464-.99415a.62914.62914,0,0,1-1.25206-.07063q-.06188-.67415-.12387-1.34836a.492.492,0,1,1-.91061-.05125q.11-3.47633.22-6.9523a2.21869,2.21869,0,0,0-.95075-1.06623Z" fill="#fff"/><path d="M88.63428,186.71387l-.0064-.00035a.15136.15136,0,0,1-.13573-.16546l.731-7.40888a.13819.13819,0,0,1,.16542-.13555.15092.15092,0,0,1,.13555.16528l-.73073,7.40888A.15151.15151,0,0,1,88.63428,186.71387Z" fill="#03304f"/><path d="M87.2587,185.29489l-.00948-.00057a.15151.15151,0,0,1-.13247-.16819l.71234-6.06829a.16.16,0,0,1,.16779-.13264.15154.15154,0,0,1,.13247.1682l-.71234,6.06832A.1511.1511,0,0,1,87.2587,185.29489Z" fill="#03304f"/></svg>