<svg xmlns="http://www.w3.org/2000/svg" viewBox="0 0 118.83118 106.31398"><defs><style>.cls-1,.cls-4{fill:#2bd88d;}.cls-1,.cls-3,.cls-5{stroke:#03304f;stroke-miterlimit:10;}.cls-2,.cls-3{fill:#fff;}.cls-3,.cls-5{stroke-linecap:round;}.cls-5{fill:none;}.cls-6{fill:#03304f;}</style></defs><g id="Conteudo"><rect class="cls-1" x="30.41499" y="16.17931" width="67.89172" height="92.45448"/><polygon class="cls-2" points="89.225 115.865 21.333 115.865 21.333 23.41 77.382 23.41 89.225 35.253 89.225 115.865"/><line class="cls-3" x1="26.26126" y1="89.62513" x2="81.72267" y2="89.62513"/><line class="cls-3" x1="26.26126" y1="94.71403" x2="81.72267" y2="94.71403"/><line class="cls-3" x1="26.26126" y1="99.80292" x2="81.72267" y2="99.80292"/><line class="cls-3" x1="55.27884" y1="44.73731" x2="55.27884" y2="67.81989"/><rect class="cls-4" x="49.56438" y="42.56762" width="11.42893" height="6.58345" rx="3.29172"/><rect class="cls-4" x="49.56438" y="53.5536" width="11.42893" height="6.58345"/><polyline class="cls-5" points="57.223 67.831 71.118 67.831 71.118 78.817 57.617 78.817"/><polyline class="cls-5" points="54.835 67.831 39.439 67.831 39.439 78.817 52.447 78.817"/><rect class="cls-4" x="49.56438" y="75.52556" width="11.42893" height="6.58345" rx="3.29172"/><polygon class="cls-4" points="49.564 67.831 55.279 64.54 60.993 67.831 55.279 71.123 49.564 67.831"/><rect class="cls-4" x="65.40377" y="64.4045" width="11.42893" height="6.58345"/><rect class="cls-4" x="33.72499" y="64.4045" width="11.42893" height="6.58345"/><polygon class="cls-6" points="77.382 35.253 89.225 35.253 77.382 23.41 77.382 35.253"/><rect class="cls-4" x="26.26126" y="29.02226" width="38.09959" height="8.18436"/></g></svg>