<svg xmlns="http://www.w3.org/2000/svg" width="90" height="90" viewBox="0 0 90 90"><rect width="90" height="90" fill="#03304f"/><path d="M23.87325,50.16027c2.46,9.77247,11.3584,15.99317,19.83106,13.85254a14.76663,14.76663,0,0,0,9.5459-7.8955A19.63788,19.63788,0,0,0,54.61349,42.423C52.48068,33.94934,45.507,28.14953,38.16622,28.14953a13.79982,13.79982,0,0,0-3.38379.41992C26.30685,30.70227,21.41329,40.38879,23.87325,50.16027ZM36.0588,33.63879c6.1084-1.544,12.50977,2.88672,14.2666,9.86328a13.9641,13.9641,0,0,1-.97754,9.7334,10.68956,10.68956,0,0,1-6.91992,5.709,10.07425,10.07425,0,0,1-2.46191.30469c-5.28125,0-10.28418-4.12793-11.80469-10.16894C26.40548,42.10363,29.94845,35.17688,36.0588,33.63879Z" fill="#2bd88d"/><path d="M36.90646,51.045a4.53513,4.53513,0,0,0,3.72265.752c2.6084-.65722,4.10938-3.66113,3.34571-6.69629a5.55739,5.55739,0,0,0-5.085-4.44238,4.19127,4.19127,0,0,0-1.03223.12793c-2.6084.65625-4.10938,3.66113-3.3457,6.69629A6.12716,6.12716,0,0,0,36.90646,51.045Z" fill="#2bd88d"/><path d="M42.1838,57.97375a9.7021,9.7021,0,0,0,6.27246-5.19043,12.96058,12.96058,0,0,0,.89844-9.03711c-1.40625-5.58789-5.999-9.41308-10.831-9.41308a9.0568,9.0568,0,0,0-2.22071.27539c-5.57519,1.40332-8.793,7.78613-7.1709,14.22754C30.75314,55.27746,36.60177,59.379,42.1838,57.97375ZM37.61349,39.81652c3.14551-.79589,6.43262,1.46973,7.332,5.04.89746,3.56934-.92871,7.11817-4.07227,7.90918a5.24459,5.24459,0,0,1-1.2871.16016,5.68488,5.68488,0,0,1-3.251-1.05957,7.12654,7.12654,0,0,1-2.793-4.13965C32.64376,44.15637,34.47091,40.60754,37.61349,39.81652Z" fill="#2bd88d"/><path d="M18.24435,51.57629c3.35742,13.335,15.50781,21.81934,27.08691,18.89941C56.90939,67.56164,63.59884,54.34192,60.2424,41.006c-2.91016-11.5625-12.43165-19.47364-22.459-19.47364a18.91658,18.91658,0,0,0-4.627.57422C21.57736,25.02063,14.8879,38.24035,18.24435,51.57629Zm37.33984-9.39746a20.64193,20.64193,0,0,1-1.44238,14.39062,15.75464,15.75464,0,0,1-10.19336,8.41407,14.86294,14.86294,0,0,1-3.624.44922c-7.791,0-15.17383-6.10157-17.42188-15.02832-2.59375-10.30665,2.626-20.53711,11.63574-22.80567C43.54513,25.337,52.98849,31.87121,55.58419,42.17883Z" fill="#2bd88d"/><polygon points="40.286 47.06 39.357 46.167 39.397 44.879 71.006 32.007 71.894 34.188 40.286 47.06" fill="#fff"/><polygon points="67.194 41.022 61.895 38.26 71.894 34.188 77.193 36.95 67.194 41.022" fill="#2bd88d"/><polygon points="62.869 30.401 61.007 36.079 71.006 32.007 72.867 26.329 62.869 30.401" fill="#2bd88d"/></svg>