<svg xmlns="http://www.w3.org/2000/svg" width="119.46584" height="119.46584" viewBox="0 0 119.46584 119.46584"><path d="M62.60145,116.74085a1.00013,1.00013,0,0,1-.04883-1.999c.98731-.04883,1.98731-.126,2.97168-.22852a.98769.98769,0,0,1,1.09766.89063.9985.9985,0,0,1-.89063,1.09766c-1.01953.10644-2.05566.18652-3.0791.23828C62.63563,116.74085,62.61805,116.74085,62.60145,116.74085Zm-9.09082-.26953a1.05723,1.05723,0,0,1-.11035-.00586c-1.01953-.1123-2.04883-.25488-3.06153-.42285a.99988.99988,0,0,1,.32813-1.97265c.97559.1621,1.96973.29882,2.95215.40722a1.00007,1.00007,0,0,1-.1084,1.99414Zm21.05762-1.64258a1.00009,1.00009,0,0,1-.2627-1.96484c.95508-.26074,1.915-.55176,2.85156-.86426a.99964.99964,0,0,1,.63282,1.89649c-.97071.32519-1.96582.62695-2.957.89746A1.02669,1.02669,0,0,1,74.56825,114.82874Zm-32.88965-.98632a.979.979,0,0,1-.32227-.05371c-.97656-.333-1.95117-.69336-2.89551-1.07325a.99975.99975,0,1,1,.74512-1.85547c.91113.36622,1.85254.71485,2.79492,1.03614a.99987.99987,0,0,1-.32226,1.94629Zm44.168-3.46778a1.0001,1.0001,0,0,1-.46778-1.88476c.87012-.459,1.7461-.95117,2.60352-1.46387a.99985.99985,0,0,1,1.02539,1.7168c-.88672.53027-1.79395,1.04-2.69531,1.5166A.99914.99914,0,0,1,85.84657,110.37464Zm-55.14844-1.65332a1.00032,1.00032,0,0,1-.51758-.14453c-.874-.53027-1.74707-1.0918-2.59473-1.6709a1,1,0,0,1,1.127-1.65234c.81933.55957,1.66113,1.10156,2.50488,1.6123a1.00009,1.00009,0,0,1-.51953,1.85547Zm65.20019-5.127a1,1,0,0,1-.64648-1.76367c.75977-.6416,1.50781-1.30957,2.22559-1.98535a1.00035,1.00035,0,1,1,1.37109,1.457c-.74316.70019-1.51953,1.3916-2.30566,2.05566A.99267.99267,0,0,1,95.89832,103.59437ZM21.07606,101.359a.9969.9969,0,0,1-.68848-.27442c-.73535-.69824-1.46972-1.43554-2.18164-2.19043a1.00031,1.00031,0,0,1,1.45508-1.373c.6875.72949,1.39453,1.43945,2.10352,2.1123a1,1,0,0,1-.68848,1.72559Zm83.18652-6.53516a1.00012,1.00012,0,0,1-.792-1.6084c.59961-.78222,1.18848-1.59375,1.748-2.41211a.99978.99978,0,0,1,1.65039,1.12891c-.58008.84863-1.18946,1.68945-1.8125,2.5A.99618.99618,0,0,1,104.26258,94.82386ZM13.245,92.10706a.99792.99792,0,0,1-.8291-.44042c-.57617-.85157-1.13574-1.72852-1.66211-2.60645a1,1,0,0,1,1.71485-1.0293c.50781.84668,1.04785,1.69336,1.60351,2.5166a1.0002,1.0002,0,0,1-.82715,1.55957Zm97.30957-7.63671a.99957.99957,0,0,1-.90527-1.42383c.417-.8916.81641-1.80957,1.18848-2.72852a.99975.99975,0,1,1,1.85351.75c-.38379.95117-.79785,1.90235-1.22949,2.82617A1,1,0,0,1,110.55457,84.47035ZM7.578,81.38539a1.00031,1.00031,0,0,1-.92969-.63086c-.37695-.94922-.73339-1.92774-1.06152-2.91016a.99964.99964,0,0,1,1.89649-.63281c.3164.94629.66113,1.89062,1.02441,2.80468A.99965.99965,0,0,1,7.578,81.38539ZM114.46668,73.0055a.98842.98842,0,0,1-.21875-.02441.99858.99858,0,0,1-.75781-1.19336c.21289-.95606.40527-1.94043.57031-2.92676a1,1,0,1,1,1.97266.33008c-.1709,1.02148-.37012,2.042-.5918,3.03223A.99927.99927,0,0,1,114.46668,73.0055ZM4.36512,69.693a1.00027,1.00027,0,0,1-.98633-.84082c-.16308-1.01269-.2998-2.043-.40722-3.0625a.99962.99962,0,0,1,1.98828-.209c.10351.98242.23633,1.97656.39355,2.95312A.99971.99971,0,0,1,4.36512,69.693Zm111.44727-8.73242a.99942.99942,0,0,1-1-1V59.733c0-.9834-.02637-1.98633-.0791-2.98144a1.0017,1.0017,0,0,1,.94628-1.05176.9823.9823,0,0,1,1.05176.94629c.05371,1.03027.08106,2.06836.08106,3.08691v.22754A.99943.99943,0,0,1,115.81239,60.96058ZM3.7411,57.59046a.53111.53111,0,0,1-.05567-.002.99884.99884,0,0,1-.94336-1.05273c.05567-1.02344.14063-2.0586.252-3.07813a.98893.98893,0,0,1,1.10254-.88574,1.00036,1.00036,0,0,1,.88574,1.10254c-.10742.98437-.18945,1.9834-.24414,2.9707A.99859.99859,0,0,1,3.7411,57.59046Zm110.77246-8.90625a.99964.99964,0,0,1-.97559-.78613c-.21289-.97168-.45312-1.94434-.71679-2.89258a1.00032,1.00032,0,0,1,1.92773-.53515c.27246.98437.52246,1.99316.74219,3a.99909.99909,0,0,1-.7627,1.19043A1.01916,1.01916,0,0,1,114.51356,48.68421ZM5.71082,45.63246A1.00082,1.00082,0,0,1,4.747,44.3639c.27246-.98047.5791-1.97363.91015-2.95215a1,1,0,0,1,1.89453.64063c-.31933.94433-.61523,1.90234-.8789,2.84863A.999.999,0,0,1,5.71082,45.63246ZM110.64832,37.193a1.00041,1.00041,0,0,1-.9082-.5791c-.41894-.90332-.86523-1.80273-1.32812-2.67285a1,1,0,1,1,1.76562-.93945c.48047.90332.94336,1.835,1.37695,2.7705a.99989.99989,0,0,1-.90625,1.4209ZM10.21668,34.38246a.98966.98966,0,0,1-.46875-.11719,1.00009,1.00009,0,0,1-.41308-1.35254c.47851-.89942.99219-1.80274,1.52539-2.68359a.99986.99986,0,1,1,1.71094,1.03515c-.51465.85059-1.00977,1.7207-1.47071,2.58789A1.0002,1.0002,0,0,1,10.21668,34.38246Zm94.17383-7.57618a.9976.9976,0,0,1-.79687-.39453c-.59961-.78808-1.22754-1.57031-1.86914-2.32422a.99971.99971,0,1,1,1.52343-1.29492c.665.78125,1.31641,1.5918,1.9375,2.4082a1,1,0,0,1-.79492,1.60547ZM17.039,24.36976a1,1,0,0,1-.76074-1.64941c.666-.78028,1.36035-1.55176,2.06543-2.29493a1.00024,1.00024,0,1,1,1.45117,1.377c-.68164.71679-1.35254,1.46289-1.99512,2.21679A.99745.99745,0,0,1,17.039,24.36976ZM96.0536,18.00355a.99339.99339,0,0,1-.64746-.23828c-.75489-.6416-1.53614-1.27051-2.32227-1.87012a.99984.99984,0,1,1,1.21289-1.58984c.81446.62011,1.623,1.27246,2.4043,1.93652a1,1,0,0,1-.64746,1.76172Zm-70.20508-1.958a1,1,0,0,1-.60645-1.7959c.81543-.61914,1.66016-1.22656,2.5127-1.80371a1,1,0,0,1,1.12109,1.65625c-.82129.55664-1.63672,1.1416-2.42285,1.73926A.99621.99621,0,0,1,25.84852,16.04554ZM86.03309,11.192a.98963.98963,0,0,1-.46875-.11719c-.875-.46582-1.77148-.91113-2.66406-1.3252a1.0001,1.0001,0,1,1,.84179-1.81445c.92481.42969,1.8545.8916,2.76172,1.374a1,1,0,0,1-.4707,1.88282Zm-49.793-1.39356a.9999.9999,0,0,1-.4209-1.90723c.9336-.43261,1.89063-.84375,2.84473-1.22265A1.00029,1.00029,0,1,1,39.40223,8.528c-.91992.36524-1.84277.76172-2.74316,1.17774A.98542.98542,0,0,1,36.24012,9.79847ZM74.785,6.69691a1.02156,1.02156,0,0,1-.26855-.03613c-.94727-.2627-1.9209-.50489-2.89356-.71973a1.00013,1.00013,0,0,1,.43164-1.95313c1.00684.22266,2.01465.47266,2.99707.74512a1.00013,1.00013,0,0,1-.2666,1.96387Zm-27.0459-.75684a.99978.99978,0,0,1-.21191-1.97656c.998-.21777,2.01953-.41211,3.03613-.57617A1.00005,1.00005,0,1,1,50.88172,5.362c-.98047.1582-1.96582.34472-2.92871.55566A1.001,1.001,0,0,1,47.73914,5.94007ZM62.82606,4.73792a.53111.53111,0,0,1-.05567-.00195c-.98828-.05371-1.99121-.08105-2.98144-.082a1,1,0,0,1,.001-2h.001c1.02539.001,2.06446.0293,3.08887.08594a.99978.99978,0,0,1-.05371,1.998Z" fill="#03304f"/></svg>