<svg xmlns="http://www.w3.org/2000/svg" width="90" height="90" viewBox="0 0 90 90"><rect width="90" height="90" fill="#03304f"/><path d="M57.92393,27.66191c-.00732-.03711-.01464-.07227-.02221-.10938A14.8259,14.8259,0,0,0,45.48326,15.74662,14.21191,14.21191,0,0,0,35.317,18.23027c-.17041.11865-.33887.24267-.50537.37036a14.76874,14.76874,0,0,0-5.665,9.97729A14.999,14.999,0,0,0,39.87364,44.90727l.00073.00024L37.94151,60.42118l3.83789.52149,1.9336-15.519h.001a14.16139,14.16139,0,0,0,7.00684-1.85645c.12207-.06836.24438-.13867.36475-.21265a14.74163,14.74163,0,0,0,1.33984-.918c.12769-.09815.25342-.198.37744-.30176.13526-.10913.26856-.22217.39795-.33863a14.50885,14.50885,0,0,0,2.36353-2.66162c.07959-.11279.15722-.22754.2312-.34228v-.00171A14.95476,14.95476,0,0,0,58.09044,32.461,15.14945,15.14945,0,0,0,57.92393,27.66191ZM53.682,31.91117a10.37292,10.37292,0,0,1-3.96606,7.00513,9.83517,9.83517,0,0,1-7.36426,1.97486A10.48252,10.48252,0,0,1,33.555,29.12773a10.60745,10.60745,0,0,1,1.28808-3.92359,10.22013,10.22013,0,0,1,.91431-1.35107c.03516-.04639.07227-.09253.11109-.13892.00927-.011.01855-.02221.02954-.0332.04077-.05.08154-.09814.124-.14819l.00732-.00928c.12793-.14624.261-.29053.39795-.4292l.002-.002.00732-.00733c.07031-.074.14453-.14624.21851-.21655.06665-.06494.135-.12964.20337-.19067.02612-.02588.05371-.05.07959-.07227.04833-.04248.09448-.0852.14453-.12768l.0166-.01294c.10742-.09253.2185-.18506.3313-.272.02954-.02588.061-.04809.09057-.07226.03516-.02588.07032-.05371.10547-.07764.0835-.0647.17041-.12768.25562-.187a9.81561,9.81561,0,0,1,5.66137-1.80078,9.95166,9.95166,0,0,1,1.3418.09253A10.48122,10.48122,0,0,1,53.682,31.91117Z" fill="#2bd88d"/><path d="M55.58629,65.30253a2.29664,2.29664,0,0,0-1.523-1.22876L47.108,66.27226a.49973.49973,0,1,1-.30078-.95313l6.95117-2.197a2.57734,2.57734,0,0,0,.0581-2.4187A2.45157,2.45157,0,0,0,52.26866,59.469L45.359,61.65312A.49973.49973,0,0,1,45.05821,60.7L51.682,58.60624a2.2478,2.2478,0,0,0,.17554-1.95166,2.14238,2.14238,0,0,0-1.355-1.1875l-6.833,2.15967a.49973.49973,0,1,1-.30078-.95312l6.41406-2.0271a1.8772,1.8772,0,0,0,.15259-1.88819c-1.42358-2.49218-7.54956-.59424-10.053.05567-.49609.1289-1.01245.27832-1.5415.44482l.01758-.00806a7.01923,7.01923,0,0,0,.93212-5.96093,1.93706,1.93706,0,0,0-3.81567.61548c.18457,3.07543-4.04175,8.4934-4.04175,8.4934l.10059-.04589A29.75328,29.75328,0,0,0,26.975,59.75175L6.04552,62.57426.0504,63.38237S-11.7748,94.61772.00011,95.875L15.2296,88.61113l21.69531-13.4856,17.74268-6.75342A2.37683,2.37683,0,0,0,55.58629,65.30253Z" fill="#fff"/></svg>