<svg xmlns="http://www.w3.org/2000/svg" width="90" height="90" viewBox="0 0 90 90"><rect width="90" height="90" fill="#03304f"/><rect x="24.01758" y="23.18392" width="38.43677" height="48.7515" transform="translate(-6.7978 7.21251) rotate(-8.84372)" fill="#2bd88d"/><rect x="26.93682" y="19.76216" width="38.43677" height="48.7515" transform="translate(-6.23703 7.62063) rotate(-8.84372)" fill="#fff"/><path d="M51.17823,55.44311a.93488.93488,0,0,1,.60893-.3619l7.93523-1.154-.963-6.66037a4.95516,4.95516,0,0,1-.757.16956,4.69024,4.69024,0,0,1-1.33581-9.28489,5.00206,5.00206,0,0,1,.7684-.04431l-.97051-6.666-7.92963,1.14654a.9315.9315,0,0,1-1.01924-1.22858,2.81348,2.81348,0,0,0-3.03678-3.70213l-.03592.00519a2.8888,2.8888,0,0,0-2.38975,3.19763,2.80448,2.80448,0,0,0,.49008,1.21826.93151.93151,0,0,1-.6295,1.467l-7.92963,1.14654.95742,6.66786a4.34635,4.34635,0,0,1,.74948-.17516,4.69025,4.69025,0,1,1,1.3489,9.283,4.95417,4.95417,0,0,1-.774.0518l.963,6.66036,7.93712-1.14094a.9315.9315,0,0,1,1.01924,1.22858,2.82276,2.82276,0,1,0,4.97237-.71895.8941.8941,0,0,1,.02057-1.10508Z" fill="#2bd88d"/><path d="M46.40574,62.16423a.5.5,0,0,1-.40723-.79l4.85937-6.80957a.5.5,0,0,1,.81446.58008L46.813,61.95427A.50063.50063,0,0,1,46.40574,62.16423Z" fill="#03304f"/><path d="M52.23972,61.18962a.49931.49931,0,0,1-.29-.09278l-6.80859-4.86035a.5.5,0,1,1,.58008-.81445l6.80859,4.86035a.5.5,0,0,1-.29.90723Z" fill="#03304f"/><path d="M35.89206,46.40153a.49746.49746,0,0,1-.31347-.11035l-2.58692-2.082a.5001.5001,0,0,1,.627-.7793l2.22461,1.79,5.3457-5.74023a.50027.50027,0,0,1,.73242.68164l-5.66308,6.08105A.50059.50059,0,0,1,35.89206,46.40153Z" fill="#03304f"/><path d="M45.8237,31.17009a.49749.49749,0,0,1-.31347-.11036l-2.58789-2.081a.50009.50009,0,0,1,.627-.7793l2.22559,1.79,5.34472-5.74023a.50027.50027,0,0,1,.73243.68164l-5.66211,6.08008A.50059.50059,0,0,1,45.8237,31.17009Z" fill="#03304f"/><path d="M57.26706,40.74919a.5.5,0,0,1-.49316-.42383l-.15332-.98828a.5.5,0,0,1,.98828-.15235l.15332.98829a.49984.49984,0,0,1-.418.57031A.51386.51386,0,0,1,57.26706,40.74919Z" fill="#03304f"/><path d="M57.75535,43.884a.49984.49984,0,0,1-.49317-.42285l-.16308-1.04492a.50133.50133,0,0,1,.417-.57129.50887.50887,0,0,1,.57129.417l.16308,1.04493a.50133.50133,0,0,1-.417.57128A.52549.52549,0,0,1,57.75535,43.884Z" fill="#03304f"/><path d="M58.23386,46.9611a.49983.49983,0,0,1-.49316-.42285L57.5864,45.55a.50134.50134,0,0,1,.417-.57129.50755.50755,0,0,1,.57129.417l.1543.98828a.50134.50134,0,0,1-.417.57129A.52552.52552,0,0,1,58.23386,46.9611Z" fill="#03304f"/></svg>