<svg xmlns="http://www.w3.org/2000/svg" width="90" height="90" viewBox="0 0 90 90"><rect width="90" height="90" fill="#03304f"/><path d="M44.62631,66.57829l-1.09765,3.80176,18.05468,5.21582,5.21485-18.05469L62.516,56.30388a.50034.50034,0,0,1-.3418-.61915l.70606-2.44433a3.382,3.382,0,1,0-6.498-1.87793l-.70605,2.44531a.4979.4979,0,0,1-.23926.29883.51018.51018,0,0,1-.37988.043L48.7435,52.32536l-1.68457,5.833,1.96387.56738a4.382,4.382,0,1,1-2.43164,8.41992Z" fill="#fff"/><path d="M24.513,64.88786,42.56772,70.1027,43.804,65.82048a.50063.50063,0,0,1,.23925-.29883.50806.50806,0,0,1,.37989-.043l2.44531.70605a3.38184,3.38184,0,1,0,1.877-6.498l-2.44433-.70606a.50032.50032,0,0,1-.3418-.61914L47.78256,52.048l-5.832-1.68457-.56836,1.96386a4.382,4.382,0,1,1-8.41992-2.43164l.56836-1.96484L29.72787,46.8322Z" fill="#fff"/><path d="M46.41928,31.22184l1.626,1.23926,2.39941-3.14648L35.50229,17.91813,24.1058,32.86052l3.54493,2.7041a.50184.50184,0,0,1,.09375.70117l-1.54395,2.02344a3.38184,3.38184,0,0,0,5.37891,4.10058l1.543-2.02246a.50684.50684,0,0,1,.39746-.19726.49272.49272,0,0,1,.30273.10254L39.04819,44.257l3.68164-4.82715-1.625-1.24023a4.38159,4.38159,0,1,1,5.31445-6.96778Z" fill="#2bd88d"/><path d="M72.29135,38.52556,54.23666,33.30973l-1.2373,4.28321a.4979.4979,0,0,1-.23926.29883.50965.50965,0,0,1-.37988.043l-2.44434-.707a3.382,3.382,0,1,0-1.87793,6.498l2.44531.70606a.50126.50126,0,0,1,.3418.61914l-1.82422,6.31347,5.833,1.68555.56738-1.96484a4.38215,4.38215,0,0,1,8.41993,2.43261l-.56739,1.96387,3.80176,1.09863Z" fill="#fff"/><path d="M51.69076,24.97184a1,1,0,0,1-.53125-1.84765l3.1543-1.97071a.99986.99986,0,0,1,1.06055,1.69532l-3.1543,1.9707A.9933.9933,0,0,1,51.69076,24.97184Z" fill="#fff"/><path d="M43.42807,17.14372a1.00014,1.00014,0,0,1-.84277-1.53613l2.20507-3.46973a.99968.99968,0,1,1,1.6875,1.07227L44.2728,16.67985A.99851.99851,0,0,1,43.42807,17.14372Z" fill="#fff"/><path d="M32.17416,16.13786a1,1,0,0,1-.93066-.63281L29.63315,11.424a1.00048,1.00048,0,1,1,1.86133-.73437l1.61035,4.08105a1.00152,1.00152,0,0,1-.56348,1.29785A1.01487,1.01487,0,0,1,32.17416,16.13786Z" fill="#fff"/><path d="M22.88022,22.56559a.99448.99448,0,0,1-.60059-.20117l-3.666-2.76367a1,1,0,1,1,1.20312-1.59766l3.666,2.76368a1,1,0,0,1-.60254,1.79882Z" fill="#fff"/><path d="M19.21518,32.9904h-5.041a1,1,0,0,1,0-2h5.041a1,1,0,0,1,0,2Z" fill="#fff"/><path d="M16.70151,45.05583a.99992.99992,0,0,1-.34473-1.93848L20.29037,41.672a.99979.99979,0,1,1,.68946,1.877l-3.9336,1.44532A.9923.9923,0,0,1,16.70151,45.05583Z" fill="#fff"/></svg>