<svg xmlns="http://www.w3.org/2000/svg" width="114.00326" height="114.00326" viewBox="0 0 114.00326 114.00326"><path d="M29.43286,66.12228a2.65454,2.65454,0,0,0-.78882.13159,3.77411,3.77411,0,1,0-.32837,4.97192,2.67461,2.67461,0,1,0,1.11719-5.10351Z" fill="#03304f"/><path d="M43.52712,69.19463c2.32977-3.98932,3.56249,1.48556,2.35828-10.72157,0,0-.9533-10.0234-2.17687-13.12894L23.94617,46.86583s-3.44194,13.6824.798,19.11954C32.88228,76.42134,41.16092,73.24635,43.52712,69.19463Z" fill="#fff"/><path d="M43.52712,69.19463s2.375,1.39289,4.33325.32469c2.453-1.33814,2.16756-3.1996,1.54168-4.72356a4.54687,4.54687,0,0,0,4.59242-.92888,4.65905,4.65905,0,0,0,1.26581-4.555,1.36131,1.36131,0,0,0,1.3927.01477.968.968,0,0,0,.35078-1.3064.82135.82135,0,0,0,.96141-.68876,1.416,1.416,0,0,0-.47363-1.20194,1.4234,1.4234,0,0,0,1.6206-.9819,2.26812,2.26812,0,0,0-.40588-1.98483,3.75106,3.75106,0,0,0,1.91158-.925,5.83388,5.83388,0,0,0,1.45439-1.38565,4.94274,4.94274,0,0,0,.61643-1.54353,9.74824,9.74824,0,0,0-.07924-5.34824,6.74808,6.74808,0,0,0-3.3758-4.02217,2.54932,2.54932,0,0,0,.70894-2.8432,2.22716,2.22716,0,0,0-2.49428-1.10818,4.34371,4.34371,0,0,0-.91943-4.384,4.23809,4.23809,0,0,0-4.308-1.06957,3.77256,3.77256,0,0,0-1.84877-3.29509,3.69449,3.69449,0,0,0-3.74833.09136c-.21806-2.59689-2.71551-4.52643-5.26477-4.92777-1.63539-.25744-3.59753.15107-4.34491,1.64284a2.24357,2.24357,0,0,0-4.19035-.53664,2.5121,2.5121,0,0,0-2.19892-1.32035,1.789,1.789,0,0,0-1.69533,1.74665c-.06458-1.2554-2.03371-2.275-3.00463-2.65276a7.92833,7.92833,0,0,0-4.786-.30441c-2.64315.6692-6.21825,3.42253-4.95026,6.57083a2.839,2.839,0,0,0-2.49035-.70742,2.90442,2.90442,0,0,0-1.82866,1.87879,1.83871,1.83871,0,0,0,.70573,2.18582A5.87441,5.87441,0,0,0,6.06974,34.036a7.6289,7.6289,0,0,0,.65342,7.48216,4.41147,4.41147,0,0,0-3.06932,1.24071,7.30476,7.30476,0,0,0-1.80609,2.86024,10.43158,10.43158,0,0,0-.01258,7.21729c.51409,1.3635,1.57138,2.74926,3.01564,2.7668a2.0567,2.0567,0,0,0-.55935,2.3397,2.01842,2.01842,0,0,0,2.086,1.16337,8.85927,8.85927,0,0,0,.84394,5.486,6.197,6.197,0,0,0,4.47745,3.24783,2.91137,2.91137,0,0,0,2.12239-.42973,2.11683,2.11683,0,0,0,1.12347,1.885,2.07522,2.07522,0,0,0,2.16853-.20651,3.50339,3.50339,0,0,0,1.91029,2.71972,6.121,6.121,0,0,0,5.8071-.50721l-.59689-12.79848s4.42728,1.78555,5.06154-2.40073c0,0-.483-5.70819,1.26682-6.60641a1.72179,1.72179,0,0,1,2.49.81252,1.92332,1.92332,0,0,0,2.71254-1.01269c.83286-1.95366,3.29633-1.75357,3.7442-.30923a3.255,3.255,0,0,0,5.05645,1.6026C45.59759,58.37384,46.91383,64.05581,43.52712,69.19463Z" fill="#03304f"/><path d="M27.37563,62.207c-.0849,2.17253-.75743,3.9096-2.9081,3.82387s-4.96512-1.96184-4.88025-4.13437a3.89747,3.89747,0,1,1,7.78835.3105Z" fill="#fff"/><path d="M35.28021,54.72778c-.20659.29842-1.18346-.01355-2.2166.18031-1.04262.13125-1.88282.72778-2.16759.5063-.31276-.1881.36182-1.57435,1.96866-1.82958C34.47252,53.33664,35.52329,54.45256,35.28021,54.72778Z" fill="#03304f"/><path d="M43.13373,54.08708c-.234.27628-1.17585-.13285-2.22205-.04409-1.04966.0255-1.94238.53469-2.20448.28543-.29315-.21883.51028-1.531,2.133-1.623C42.4632,52.62056,43.40185,53.8376,43.13373,54.08708Z" fill="#03304f"/><path d="M40.80591,61.83639c-1.77832-.97657-1.70118-4.78321-1.7002-4.82422a.51217.51217,0,0,0-.50488-.52246.50318.50318,0,0,0-.50391.49121c-.00586.18164-.12207,4.457,2.22656,5.74414.34571.19043.4336.332.4375.36523-.01464.18262-.6123.57813-1.18261.78418a.50685.50685,0,0,0,.168.98438.52728.52728,0,0,0,.16992-.0293c.2959-.10742,1.77539-.68848,1.85058-1.65918C41.80786,62.6567,41.48462,62.20846,40.80591,61.83639Zm-1.0354,2.76831v-.00025l.00024.00342Z" fill="#03304f"/><path d="M25.70923,63.27779a3.12648,3.12648,0,0,0-2.36035-1.28222.47921.47921,0,0,0-.33985.124.474.474,0,0,0-.15722.33789.48178.48178,0,0,0,.458.499,2.18838,2.18838,0,0,1,1.64551.91016,3.49563,3.49563,0,0,1-.167,4.28418,2.17064,2.17064,0,0,1-1.71192.77734,2.19375,2.19375,0,0,1-1.64453-.91113,3.34766,3.34766,0,0,1-.65136-2.17187,3.57258,3.57258,0,0,1,.22851-1.13575.47963.47963,0,0,0-.27246-.62011.47076.47076,0,0,0-.3623.00683.48283.48283,0,0,0-.25586.26856,4.55894,4.55894,0,0,0-.291,1.44336,4.31034,4.31034,0,0,0,.85059,2.79785,3.12459,3.12459,0,0,0,2.35937,1.28222c.041.002.08008.00293.12012.00293a3.14026,3.14026,0,0,0,2.33594-1.09375,4.45563,4.45563,0,0,0,.21582-5.51953Z" fill="#2bd88d"/><path d="M32.38692,58.36452c.09385.835.60241,1.46346,1.1359,1.40353.53351-.05979.89009-.7854.79622-1.62055-.09371-.83506-.60226-1.46349-1.13587-1.40354C32.64968,56.80386,32.29321,57.52946,32.38692,58.36452Z" fill="#03304f"/><path d="M39.94736,58.03815c.09386.835.60241,1.46346,1.1359,1.40353.53351-.05979.8901-.7854.79623-1.62055-.09371-.83506-.60226-1.46349-1.13587-1.40354C40.21013,56.47749,39.85365,57.20309,39.94736,58.03815Z" fill="#03304f"/><path d="M79.92062,81.67028s-7.15016-1.45351-7.51849-10.67562c-.43059-10.7808,2.41247-16.63177,2.41247-16.63177s9.50631-6.75043,9.36451-6.47239c-.09261.18163,9.37819,4.24024,12.008,9.27021,1.39757,2.67307-3.22541,7.93136-3.22541,7.93136a5.22756,5.22756,0,0,1,3.96584-.60116c1.5626.44762,3.035,1.3718,3.28139,2.97856.232,1.5127-1.41411,6.21958-4.5763,5.5009C88.67328,82.81861,79.92062,81.67028,79.92062,81.67028Z" fill="#fff"/><path d="M86.37364,65.82718c-.2753.79391-.08725,1.58021.42,1.756.50733.176,1.14171-.32511,1.417-1.11905.27532-.794.08724-1.58021-.41994-1.75616C87.28329,64.53215,86.64891,65.03324,86.37364,65.82718Z" fill="#03304f"/><path d="M77.27893,63.90174c-.1954.81726.06942,1.58108.59154,1.706.5221.125,1.104-.43632,1.2994-1.25369.19555-.81723-.06928-1.581-.59151-1.70594C78.05624,62.52316,77.47447,63.08451,77.27893,63.90174Z" fill="#03304f"/><path d="M81.93286,64.25143a.57959.57959,0,0,0-.34277-.27344.56839.56839,0,0,0-.44336.042.60357.60357,0,0,0-.30469.37207c-.01074.03711-1.0459,3.7207-2.72461,4.71484a1.98505,1.98505,0,0,0-1.15234,1.60743,2.48954,2.48954,0,0,0,1.09179,1.83593.59245.59245,0,0,0,.34082.10645.5951.5951,0,0,0,.33692-1.084c-.18653-.12988-.5918-.51464-.58008-.81738.00684-.19336.2041-.41015.56836-.62695,2.11719-1.25,3.22168-5.25586,3.26758-5.42578A.58878.58878,0,0,0,81.93286,64.25143Z" fill="#03304f"/><path d="M87.29018,61.32642a5.71335,5.71335,0,0,1,2.85373,1.17286.75161.75161,0,0,0,.97352-.01666h0a.68829.68829,0,0,0-.16314-1.01991,7.02724,7.02724,0,0,0-3.51144-1.44312.68881.68881,0,0,0-.83321.61048h0A.75153.75153,0,0,0,87.29018,61.32642Z" fill="#03304f"/><path d="M80.21721,60.56315a5.71321,5.71321,0,0,0-3.0516-.45488.75178.75178,0,0,1-.82758-.51313h0a.68825.68825,0,0,1,.6627-.7922,7.02622,7.02622,0,0,1,3.75485.55969.68875.68875,0,0,1,.40281.95109h0A.75147.75147,0,0,1,80.21721,60.56315Z" fill="#03304f"/><path d="M77.52312,74.79373c.966-.70777,5.28717-.13275,5.8364.71589.6599,1.01965-2.33353,2.34817-4.14467,1.93668C78.06565,77.18521,76.55715,75.5015,77.52312,74.79373Z" fill="#03304f"/><path d="M109.87622,61.88277a6.02735,6.02735,0,0,0-2.5044-3.94824s3.57447-3.50342,1.13111-7.8164c0,0-1.77759-3.76294-6.665-2.8042,0,0,3.33911-7.63648-4.0686-11.39747-7.27881-3.69555-11.26392,4.83765-11.26392,4.83765s-.40308-1.95776-2.1582-1.57422c-1.75513.38379-1.34766,2.64185-1.34766,2.64185S79.11523,36.143,71.64429,40.65523a12.33248,12.33248,0,0,0-5.207,14.63819s2.03321,6.83838,6.30323,7.98266a64.37079,64.37079,0,0,1,1.58667-7.3396,7.71282,7.71282,0,0,0,7.91992-2.16015,7.676,7.676,0,0,0,4.99634,3.29614,9.95064,9.95064,0,0,0,2.71411.2771A8.61946,8.61946,0,0,1,92.96167,65.092a5.6802,5.6802,0,0,1,1.1748-.47485,4.39747,4.39747,0,0,1,5.1919,5.99463c-.11743.26831-.25464.55-.41455.8457,0,0,6.57129,1.39648,9.80761-3.88184A8.09912,8.09912,0,0,0,109.87622,61.88277Z" fill="#03304f"/><path d="M38.79516,67.68893a.50043.50043,0,0,0-.667-.2334,4.40668,4.40668,0,0,1-3.64844-.28028.76618.76618,0,0,0-.3291-.09277.53409.53409,0,0,0-.5332.50586.47755.47755,0,0,0,.4668.50586,7.00393,7.00393,0,0,0,2.73535.64258,3.95805,3.95805,0,0,0,1.74219-.38086A.499.499,0,0,0,38.79516,67.68893Z" fill="#03304f"/></svg>