<svg xmlns="http://www.w3.org/2000/svg" width="90" height="90" viewBox="0 0 90 90"><rect width="90" height="90" fill="#2bd88d"/><rect x="22.72193" y="24.8828" width="38.43677" height="48.7515" transform="translate(-7.07439 7.03351) rotate(-8.84372)" fill="#03304f"/><rect x="25.64117" y="21.46104" width="38.43677" height="48.7515" transform="translate(-6.51362 7.44164) rotate(-8.84372)" fill="#fff"/><path d="M55.50216,53.37907a.49751.49751,0,0,1-.31348-.11035l-2.04394-1.64453a.50009.50009,0,0,1,.627-.7793l1.68164,1.35352,4.1543-4.46289a.50027.50027,0,0,1,.73242.68164l-4.47168,4.80273A.50055.50055,0,0,1,55.50216,53.37907Z" fill="#03304f"/><path d="M56.25411,58.18083a.49746.49746,0,0,1-.31347-.11035l-2.044-1.64356a.50009.50009,0,1,1,.627-.77929l1.68164,1.35253,4.15429-4.46191a.50027.50027,0,1,1,.73242.68164l-4.47168,4.80176A.50055.50055,0,0,1,56.25411,58.18083Z" fill="#03304f"/><path d="M56.57736,63.23259a.4975.4975,0,0,1-.31348-.11036l-2.044-1.64453a.50009.50009,0,1,1,.627-.77929l1.68164,1.35351L60.6838,57.589a.50027.50027,0,1,1,.73242.68164l-4.47265,4.80274A.50056.50056,0,0,1,56.57736,63.23259Z" fill="#03304f"/><path d="M49.54337,29.85728l-3.14588.45484h0l-.44968.065-.83431.12063a.76691.76691,0,0,1-.839-1.01163,2.31642,2.31642,0,0,0-2.50044-3.04808l-.0294.0043a2.37836,2.37836,0,0,0-1.96758,2.63272,2.30756,2.30756,0,0,0,.4034,1.003A.767.767,0,0,1,39.662,31.286l-.86621.12524v.00007l-3.64966.52771.61323,4.27023a2.78673,2.78673,0,0,1,.48-.11211,3.00377,3.00377,0,1,1,.86371,5.94512,3.16889,3.16889,0,0,1-.49564.03315l.61666,4.26554,14.40569-2.08289Z" fill="#2bd88d"/><path d="M32.49044,55.68181a.50006.50006,0,0,1-.07617-.99415L48.382,52.20329a.50013.50013,0,1,1,.1543.98828L32.56857,55.676A.52687.52687,0,0,1,32.49044,55.68181Z" fill="#03304f"/><path d="M33.467,60.48454a.50006.50006,0,0,1-.07617-.99414L49.35861,57.006a.50013.50013,0,1,1,.15429.98829L33.54513,60.47868A.52552.52552,0,0,1,33.467,60.48454Z" fill="#03304f"/><path d="M33.9172,65.50993a.50006.50006,0,0,1-.07617-.99414L49.8088,62.03141a.50013.50013,0,0,1,.1543.98829L33.99532,65.50407A.52529.52529,0,0,1,33.9172,65.50993Z" fill="#03304f"/><polygon points="64.867 20.304 60.163 22.469 59.616 27.619 55.389 24.627 50.655 26.728 51.133 21.571 46.947 18.523 51.651 16.358 52.198 11.208 56.425 14.2 61.158 12.099 60.681 17.256 64.867 20.304" fill="#fcdc56"/></svg>