<?xml version="1.0" encoding="utf-8"?>
<!-- Generator: Adobe Illustrator 25.1.0, SVG Export Plug-In . SVG Version: 6.00 Build 0)  -->
<svg version="1.1" id="Layer_1" xmlns="http://www.w3.org/2000/svg" xmlns:xlink="http://www.w3.org/1999/xlink" x="0px" y="0px"
	 viewBox="0 0 90 90" style="enable-background:new 0 0 90 90;" xml:space="preserve">
<style type="text/css">
	.st0{fill:#03304F;}
	.st1{fill:#2BD88D;}
	.st2{fill:#FFFFFF;}
</style>
<rect class="st0" width="90" height="90"/>
<g>
	<path class="st1" d="M38.2,56.2c0.3,0,0.5,0.1,0.7,0.3l6.2,6.1l5.2-5.2c-0.2-0.2-0.4-0.3-0.6-0.5c-2-2-2-5.2,0-7.2c2-2,5.2-2,7.2,0
		c0.2,0.2,0.4,0.4,0.5,0.6l5.2-5.2l-6.1-6.1c-0.4-0.4-0.4-1,0-1.4c0.1-0.1,0.3-0.2,0.4-0.3c1.6-0.5,2.5-2.2,2-3.8
		c-0.1-0.5-0.4-0.9-0.7-1.2l0,0c-1.2-1.2-3.1-1.2-4.3,0c-0.3,0.3-0.6,0.8-0.7,1.2c-0.2,0.5-0.7,0.8-1.3,0.7c-0.2,0-0.3-0.1-0.4-0.3
		L45,27.8L39.8,33c0.2,0.2,0.4,0.3,0.6,0.5c2,2,2,5.2,0,7.2s-5.2,2-7.2,0l0,0c-0.2-0.2-0.4-0.4-0.5-0.6l-5.2,5.2l6.1,6.2
		c0.4,0.4,0.4,1,0,1.4c-0.1,0.1-0.3,0.2-0.4,0.3c-1.6,0.5-2.5,2.2-2,3.9s2.2,2.5,3.9,2c0.9-0.3,1.7-1,2-2
		C37.3,56.5,37.7,56.2,38.2,56.2L38.2,56.2z"/>
	<path class="st2" d="M45,19.1c-0.6,0-1-0.5-1-1v-6.6c0-0.6,0.5-1,1-1c0.6,0,1,0.5,1,1v6.6C46,18.7,45.6,19.1,45,19.1z"/>
	<path class="st2" d="M45,79.5c-0.6,0-1-0.5-1-1v-6.6c0-0.6,0.5-1,1-1c0.6,0,1,0.5,1,1c0,0,0,0,0,0v6.6C46,79,45.6,79.5,45,79.5z"/>
	<path class="st2" d="M78.5,46h-6.6c-0.6,0-1-0.5-1-1c0-0.6,0.5-1,1-1h6.6c0.6,0,1,0.5,1,1C79.5,45.6,79,46,78.5,46z"/>
	<path class="st2" d="M18.1,46h-6.6c-0.6,0-1-0.5-1-1c0-0.6,0.5-1,1-1c0,0,0,0,0,0h6.6c0.6,0,1,0.5,1,1C19.1,45.6,18.7,46,18.1,46
		C18.1,46,18.1,46,18.1,46z"/>
	<path class="st2" d="M21.4,33.1c-0.2,0-0.3,0-0.5-0.1l-5.8-3.2c-0.5-0.3-0.7-0.9-0.4-1.4c0.3-0.5,0.9-0.7,1.4-0.4l5.7,3.2
		c0.5,0.3,0.7,0.9,0.4,1.4l0,0C22.2,32.9,21.8,33.1,21.4,33.1z"/>
	<path class="st2" d="M74.3,62.1c-0.2,0-0.3,0-0.5-0.1l-5.8-3.2c-0.5-0.3-0.7-0.9-0.4-1.4c0.3-0.5,0.9-0.7,1.4-0.4l0,0l5.8,3.2
		c0.5,0.3,0.7,0.9,0.4,1.4C75.1,61.9,74.7,62.1,74.3,62.1L74.3,62.1z"/>
	<path class="st2" d="M57.9,22.4c-0.6,0-1-0.5-1-1c0-0.2,0-0.3,0.1-0.5l3.2-5.8c0.3-0.5,0.9-0.7,1.4-0.4l0,0
		c0.5,0.3,0.7,0.9,0.4,1.4l-3.2,5.8C58.7,22.2,58.3,22.5,57.9,22.4z"/>
	<path class="st2" d="M28.9,75.3c-0.2,0-0.3,0-0.5-0.1c-0.5-0.3-0.7-0.9-0.4-1.4l0,0l3.2-5.8c0.3-0.5,0.9-0.7,1.4-0.4
		c0.5,0.3,0.7,0.9,0.4,1.4c0,0,0,0,0,0l-3.2,5.8C29.6,75.2,29.3,75.4,28.9,75.3z"/>
	<path class="st2" d="M30.9,23.2c-0.4,0-0.7-0.2-0.9-0.5l-3.5-5.6c-0.3-0.5-0.2-1.1,0.3-1.4c0.5-0.3,1.1-0.2,1.4,0.3l3.5,5.6
		c0.3,0.5,0.2,1.1-0.3,1.4c0,0,0,0,0,0l0,0C31.2,23.1,31.1,23.2,30.9,23.2z"/>
	<path class="st2" d="M62.6,74.5c-0.4,0-0.7-0.2-0.9-0.5l-3.5-5.6c-0.3-0.5-0.1-1.1,0.4-1.4c0.5-0.3,1-0.1,1.3,0.3l3.5,5.6
		c0.3,0.5,0.1,1.1-0.3,1.4c0,0,0,0,0,0l0,0C63,74.4,62.8,74.5,62.6,74.5z"/>
	<path class="st2" d="M67.9,31.9c-0.6,0-1-0.5-1-1c0-0.4,0.2-0.7,0.5-0.9l0,0l5.6-3.5c0.5-0.3,1.1-0.1,1.4,0.3s0.1,1.1-0.3,1.4l0,0
		l0,0l-5.6,3.5C68.2,31.8,68.1,31.9,67.9,31.9z"/>
	<path class="st2" d="M16.5,63.6c-0.6,0-1-0.5-1-1c0-0.4,0.2-0.7,0.5-0.9l5.6-3.5c0.5-0.3,1.1-0.2,1.4,0.3c0.3,0.5,0.2,1.1-0.3,1.4
		c0,0,0,0,0,0c0,0,0,0-0.1,0l-5.6,3.5C16.9,63.6,16.7,63.6,16.5,63.6z"/>
</g>
</svg>
