<svg xmlns="http://www.w3.org/2000/svg" width="90" height="90" viewBox="0 0 90 90"><rect width="90" height="90" fill="#03304f"/><path d="M28.17,17.02209c-8.619.73145-15.66223,7.199-15.66223,16.07935,0,5.189.66589,9.801,3.954,12.741l-3.954,7.613,9.44275-4.92261a26.68329,26.68329,0,0,0,6.21948.648c9.30957,0,15.66236-8.49951,15.66236-17.37988S38.82377,16.118,28.17,17.02209Z" fill="#fff"/><path d="M76.30326,66.32824,71.73881,59.9281a14.53292,14.53292,0,0,0,3.397-9.23853c0-8.1499-4.7185-13.35058-13.46289-13.35058S45.25273,43.95153,45.25273,50.95715c0,8.1499,5.30542,14.812,14.0498,14.812a16.16935,16.16935,0,0,0,8.82568-2.60669Z" fill="#fff"/><path d="M55.27032,52.72061l.60124-.07941a1.12335,1.12335,0,0,0-.96374,1.257l.04359.33a1.12334,1.12334,0,0,0,1.257.96374,34.92793,34.92793,0,0,0,4.71414-.21891c-.9981,2.24765-1.21347,6.72193.02249,6.89359,1.39686.194.96094-2.88582,2.4816-4.82056.55283-.70336,1.528-1.10434,2.48274-2.00336,1.68286-1.58456,1.99955-4.38854,1.86448-7.14851s-3.442-4.00752-4.69522-3.99083c-2.00959.02679-7.96986,1.05257-7.96986,1.05257h0a1.37411,1.37411,0,0,0-1.1789,1.53766l.01085.08214a1.12334,1.12334,0,0,0,1.257.96376h0a1.36563,1.36563,0,0,0-1.17163,1.52818l.012.09053a1.12331,1.12331,0,0,0,1.257.96373l-.03169.00419a1.45718,1.45718,0,0,0-1.25019,1.63065h0A1.12334,1.12334,0,0,0,55.27032,52.72061Z" fill="#2bd88d"/><path d="M33.56869,32.24241l-.66613.14579a1.26307,1.26307,0,0,0,.961-1.49949l-.08-.36567a1.26307,1.26307,0,0,0-1.49949-.961,39.27357,39.27357,0,0,0-5.26111.69083c.90584-2.61263.72425-7.646-.67677-7.72155-1.5834-.08533-.80389,3.32414-2.32479,5.63558-.55292.8403-1.60758,1.38174-2.59235,2.47926-1.73573,1.93443-1.82554,5.106-1.41334,8.18553s4.23524,4.16476,5.6378,4.02761c2.24905-.21995,8.83008-1.93261,8.83008-1.93261h0A1.545,1.545,0,0,0,35.659,39.09248l-.01992-.091a1.263,1.263,0,0,0-1.49948-.961h0a1.53554,1.53554,0,0,0,1.16828-1.823l-.022-.10029a1.26305,1.26305,0,0,0-1.4995-.961l.03511-.0077a1.63844,1.63844,0,0,0,1.24661-1.94516h0A1.26307,1.26307,0,0,0,33.56869,32.24241Z" fill="#2bd88d"/></svg>