<?xml version="1.0" encoding="utf-8"?>
<!-- Generator: Adobe Illustrator 23.0.6, SVG Export Plug-In . SVG Version: 6.00 Build 0)  -->
<svg version="1.1" id="Layer_1" xmlns="http://www.w3.org/2000/svg" xmlns:xlink="http://www.w3.org/1999/xlink" x="0px" y="0px"
	 viewBox="0 0 350 140" style="enable-background:new 0 0 350 140;" xml:space="preserve">
<style type="text/css">
	.st0{clip-path:url(#SVGID_2_);}
	.st1{fill:#03304F;}
	.st2{fill:#2BD88D;}
	.st3{fill:#FFFFFF;}
	.st4{fill:#464646;}
	.st5{fill:#FFDB45;}
</style>
<title>ilustras</title>
<g>
	<g>
		<defs>
			<rect id="SVGID_1_" width="350" height="140"/>
		</defs>
		<clipPath id="SVGID_2_">
			<use xlink:href="#SVGID_1_"  style="overflow:visible;"/>
		</clipPath>
		<g class="st0">
			<rect x="-33.7" y="-14.4" class="st1" width="417.4" height="225.4"/>
			<path class="st2" d="M261.3,46.3c0,0-4.7,3-9.8,2.8s-9.2,12.5,4.4,17.1c3.4-1.8,7.4-2.4,11.2-1.6l0.9-6.2L261.3,46.3z"/>
			<path class="st3" d="M262.6,41c0,0-5.7,14.4,5.4,17.5l-1,7.1l11.6,1.2l4.2-29.6l-19-2.7L262.6,41z"/>
			<path class="st2" d="M291.3,68.9c0,0,6.8-0.3,6.8-8.8c0,0,0.6-4.9-6.3-6.8s-6-5.6-6-5.6s7.4-13.3-7.7-19.1c0,0-5.9-3-9.9,0.9
				c0,0-5.6-2.9-8.4,4c-1.7,3.8-1,8.3,1.7,11.5c0,0,4-0.6,5-4.4c0,0,0.4,5.6,11.5,6.6l3.3,0.9l-2.6,18.3l7.7,1.1
				C286.4,67.4,289.8,67.7,291.3,68.9z"/>
			<path class="st3" d="M284.8,49.6c-0.3,2-2.1,3.4-4.1,3.1c-2-0.3-3.4-2.1-3.1-4.1c0.3-2,2.1-3.4,4.1-3.1
				C283.6,45.7,285,47.6,284.8,49.6C284.8,49.6,284.8,49.6,284.8,49.6z"/>
			<path class="st1" d="M268,58.5c0,0,5.4,1.2,8.7-1.3c-2.2,2.6-5.6,3.9-9,3.5L268,58.5z"/>
			<path class="st2" d="M229.3,85.9c0.5,1.5,1.3,2.8,2.3,4l4-4.8C233.5,84.6,231.3,84.9,229.3,85.9z"/>
			<path class="st2" d="M300,196.6c0.1-2.3,0.4-4.5,1-6.7c2.8-10.6,3.6-21.6,2.4-32.5c-2.5-23.1-14.4-30-14.4-30V125h-37.7
				l-4.5,162.8c2.1-1.4,7.3-1.7,9.6-0.7c1.5,0.8,3,1.7,4.4,2.8c2.8,1.7,6.1,2.2,9.3,1.5c0.8-0.2,1.7-0.5,2.4-0.8l2.5-52.7
				c1.2,2.4,2.7,4.6,4.5,6.7l34,40.1c0.3-2,1-5,2.6-6.2c1.2-0.7,2.4-1.2,3.8-1.5c1.8-0.5,3.6-1.2,5.2-2c0.9-0.4,1.7-1,2.5-1.8
				c0.7-0.8,1.3-1.8,1.5-2.9l-30.3-40.5L300,196.6z"/>
			<path class="st3" d="M234,85.5l-7.8,5.4L208,77.5l-6.3,2.2l16.7,20.4c2.1,2.4,5,4.1,8.2,4.6l0,0c3.2,0.5,6.4,0,9.3-1.5l12.6-7
				L234,85.5z"/>
			<path class="st1" d="M252.8,94l-1.9,1.8l-4.3,4.2c-5.4-0.9-7.9-5.2-8.3-7.2c-0.2-1.5-0.8-2.9-1.8-4.2c-1.6-2.3-4.5-3.5-7.2-2.9
				l11.9-11.2l1.6-1.5l3.4-3.2c1.2-1.2,2.6-2.2,4.1-3c0.1-0.1,0.3-0.2,0.5-0.3l1-0.5h0.1L252.8,94z"/>
			<path class="st1" d="M250.3,66.7L250.3,66.7v5l-0.1,16.6v2.5l0,0v4l0.2-0.2c0.2,0.4,0.4,0.9,0.6,1.3c0.5,1,1.1,1.8,1.9,2.5
				c0,0-1.6,26.3-1.6,26.6c0,0.1,37.7,2.4,37.7,2.4l3.2-27.2l0.2-1.6l0.3-3.1l0.3-2.5l0,0l1.1-25l-0.6-0.3l-0.2-0.1
				c-0.3-0.1-0.7-0.3-1-0.4c-1-0.3-2.1-0.5-3.2-0.6c-0.7-0.1-1.5-0.2-2.2-0.2l-1.4-0.1l-6.1-0.5l-9.4,6.1l-3.4-7.2h-0.5l-4.8-0.3
				c-1.1-0.1-2.1,0-3.2,0.1c-2.2,0.2-4.4,0.8-6.4,1.8h-0.1L250.3,66.7z"/>
			<path class="st3" d="M286.9,66.1c-1.8,9.6-8.7,15.6-16.2,14.7c-7.1-0.8-12.4-7.4-12.5-16.7c1.1-0.1,2.1-0.1,3.2-0.1l5.3,0.3
				l18.9,1.6L286.9,66.1z"/>
			<path class="st3" d="M272.2,81.2c7.2,0,13.3-5.8,14.9-14.7c0-0.2-0.1-0.3-0.3-0.4c-0.2,0-0.3,0.1-0.4,0.2
				c-1.7,9.2-8.2,15-15.8,14.1c-3.7-0.4-7-2.4-9.1-5.5c-0.4-0.6-0.8-1.2-1.1-1.8c-1.3-2.7-2-5.7-2-8.7c0-0.2-0.1-0.3-0.3-0.3l0,0
				c-0.2,0-0.3,0.1-0.3,0.3c0,0,0,0,0,0c0,3.1,0.6,6.2,2,9c0.3,0.7,0.7,1.3,1.1,1.9c2.2,3.2,5.7,5.3,9.6,5.7
				C271.1,81.2,271.7,81.2,272.2,81.2z"/>
			<path class="st1" d="M272.5,86.8c0.9,2.5,1,6.1,9.6,6.9c7.8,0.7,7.6,8.8,7.6,8.8l6.4-6.5l0,0c2.8-3.2,4.5-7.2,5.1-11.4
				c0.9-6.6-2-13.2-7.4-17l0,0c-2.2-0.7-3.2,3.3-5,4.7c-0.5,0.4-0.9,0.8-1.4,1.1l-0.5,0.4L272.5,86.8z"/>
			<path class="st2" d="M288.1,103.1c-0.7,0-1.4-0.4-1.8-1l1.7-1.7C288.1,101.3,288.2,102.2,288.1,103.1z"/>
			<path class="st3" d="M59.3,135.7c2.4,2.6,5.5,4.3,8.9,5.1l0.8-10.9C68.9,129.9,63.1,129.1,59.3,135.7z"/>
			<path class="st3" d="M67.6,137.4c0,0,50.8,24,65.4-3.7l-61.7-16.6L67.6,137.4z"/>
			<path class="st2" d="M101.4,168.7l-0.1-51.3C84.3,118.6,66.2,129,66.2,129l10.1,72.9c0.5,3.4,1.4,10.1,1.7,13.5l0.2,88.8
				c3.1,1.4,6.6,1.5,9.8,0.3c1.3-0.7,2.8-1.4,4.2-1.8c2.2-0.3,4.5,0.3,6.1,1.9c0,0,2.7-73.6,2.9-92l0,0c0-1,0-1.8,0-2.5v-2.6
				L101.4,168.7z"/>
			<path class="st2" d="M141.6,214.3c0-1.2-0.2-2.5-0.4-3.7l-13.3-80.8c-6.5-9.3-19.1-11.4-26.6-12.3v47.2l14,43.5
				c0.5,1.3,0.8,2.6,1,4h0.2c0.7,2.4,1.1,4.8,1.1,7.3l1.2,85.4c0.8,0.4,1.7,0.7,2.6,0.8c1.9,0.4,4,0.3,5.8-0.3
				c0.9-0.3,1.7-0.7,2.6-1.1c0.8-0.3,1.7-0.5,2.6-0.6c1.1-0.1,2.3,0,3.4,0.4c1.1,0.2,2,0.7,2.8,1.5h0.1l2.9-89.4
				C141.7,215.5,141.7,214.9,141.6,214.3z"/>
			<path class="st3" d="M82.8,298.3L82.8,298.3c-0.2,0-0.4-0.2-0.4-0.4l2.4-81.2c0.1-2.1-0.1-4.3-0.5-6.4l-6.2-38.5c0,0,0-0.1,0-0.1
				c0.1-0.7-0.5-1.2-1.3-1.9l-0.1-0.1c-0.3-0.2-0.6-0.5-0.7-0.9c0-0.5,0.2-0.9,0.5-1.2c0.8-0.8,1.7-1.4,2.7-1.9h0.1
				c0.3-0.1,0.5-0.3,0.7-0.5c0.1-0.1,0.1-0.3,0.1-0.5c-0.1-0.3-0.3-0.6-0.6-0.8c-0.5-0.2-1-0.4-1.5-0.4l-0.5-0.1
				c-0.9,0-1.7-0.5-2.2-1.3c-0.1-0.2-0.1-0.4,0.1-0.5l2.4-2.4c0.1-0.1,0.2-0.2,0.3-0.4c-0.1,0-0.1-0.1-0.2-0.1l-1.8-0.6
				c-0.2,0-0.3-0.2-0.3-0.3c0-0.2,0-0.3,0.2-0.4l1.3-1c0.1,0,0.1-0.1,0.2-0.2c-0.2-0.1-0.3-0.2-0.5-0.2l-2.3-0.2
				c-0.2,0-0.4-0.2-0.4-0.5c0-0.2,0.1-0.3,0.3-0.3c1.3-0.5,2.6-1.1,3.9-1.8c0.3-0.1,0.5-0.4,0.6-0.7c-0.1-0.1-0.2-0.2-0.4-0.2
				c-2.1-0.3-3.8-2-4.1-4.1L72,133.6c0-0.2,0.1-0.4,0.3-0.5c0,0,0,0,0,0c0.2,0,0.4,0.1,0.5,0.4l2.4,14.8c0.3,1.8,1.6,3.1,3.4,3.4
				c0.3,0,0.6,0.1,0.8,0.3c0.2,0.2,0.3,0.5,0.3,0.8c-0.1,0.6-0.5,1-1,1.3c-0.8,0.5-1.6,0.9-2.4,1.3l0.6,0.1c0.4,0,0.9,0.2,1.2,0.6
				c0.1,0.2,0.2,0.4,0.1,0.7c-0.1,0.2-0.2,0.5-0.5,0.6l-0.6,0.5l1.1,0.3c0.3,0.1,0.5,0.2,0.7,0.4c0.1,0.2,0.3,0.7-0.4,1.4l-2.1,2.1
				c0.4,0.3,0.9,0.5,1.4,0.6l0.5,0.1c0.6,0,1.2,0.2,1.8,0.5c0.5,0.3,0.9,0.8,1,1.3c0.1,0.4,0,0.8-0.2,1.1c-0.3,0.4-0.7,0.6-1.1,0.8
				c-1,0.4-1.8,1-2.6,1.7c-0.3,0.3-0.3,0.4-0.3,0.5s0.2,0.3,0.4,0.4l0.1,0.1c0.8,0.6,1.8,1.4,1.6,2.6l6.2,38.5
				c0.4,2.2,0.5,4.4,0.5,6.6l-2.4,81.2C83.2,298.1,83,298.3,82.8,298.3z"/>
			<path class="st4" d="M134.6,77.5c1-2.3,0.8-4.9-0.4-7.1l-5.4,1C128.8,71.4,128.8,75.6,134.6,77.5z"/>
			<path class="st3" d="M157.7,33.8l-11,21.2l-16.8-0.6c0,0-13.2,5.3-2.4,19.6l21.2-0.1c4.5,0,8.7-2.7,10.6-6.8l10.2-32.4
				L157.7,33.8z"/>
			<path class="st1" d="M134.4,52.1l-5.5-0.1l-4.9-0.2c0,0-18.3-0.6-27.4,0.4l22.1,26l15.9-0.7c0,0-7-6.2-2.2-14
				C135.1,59.1,135.6,59.3,134.4,52.1z"/>
			<path class="st1" d="M60.6,53.7L60.6,53.7l10-1.3l2.6-0.4h29.1c3.7,0,7.4,0.8,10.7,2.3L125.3,96l-1.7-1.3l8.7,38.8
				c0,0-7.6,6-19.9,6.3c-1.6,0-3.8,1.7-5.6,1.5c-4.8-0.5-15.3,15.2-21.1,12.4c-24.9-12.2-26.5-18-26.5-18l-5.5-73.8
				C53.6,57.8,56.6,54.3,60.6,53.7z"/>
			<path class="st3" d="M96.5,51.9c-0.8,6-6.2,10.2-12.2,9.5c-4.9-0.6-8.8-4.5-9.5-9.4l2.6-0.3L96.5,51.9z"/>
			<path class="st3" d="M85.7,62c-5.7,0-10.5-4.3-11.3-9.9c0-0.3,0.2-0.6,0.5-0.6c0,0,0,0,0,0c0.3,0,0.6,0.2,0.6,0.5
				c0.7,5.7,5.9,9.7,11.6,9c4.7-0.6,8.5-4.3,9-9.1c0-0.3,0.3-0.5,0.6-0.5c0.3,0,0.5,0.3,0.5,0.6l0,0c-0.7,5.4-5.1,9.6-10.5,10
				C86.3,62,86,62,85.7,62z"/>
			<path class="st3" d="M96.5,30.6c0,0,5.2,12.8-4,14.9l1.5,6.4l-16.5,1.9l-4.2-19.7l5.3-9.1l15.4-1.8L96.5,30.6z"/>
			<path class="st2" d="M76.5,35.8c0,0,0.4-8,5-9.5c2.9-1,5.1-0.7,7.3,1.5c1.5,1.3,3.5,1.9,5.5,1.8c4-0.1,6.1-1.4,5.9-5.2
				c-0.3-6.9-7.3-10.5-13.9-8c-1.9,0.7-2.6,0.6-4.2,2.7c-0.6,0.9-1.3,2.5-3.1,2.7c-1.1,0.2-1.9-1.1-2.7-1.9c-1.6-1.7-4.1-2-6-0.7
				c-0.9,0.8-1.6,1.9-1.7,3.1c-0.4,2.6,0.5,5.6,1,8.2c0.2,1.7,0.5,3.3,0.8,5L76.5,35.8z"/>
			<path class="st3" d="M77.7,37.2c0.3,2.2-1.3,4.2-3.5,4.5s-4.2-1.3-4.5-3.5C69.4,36,71,34,73.2,33.7c0,0,0,0,0.1,0
				C75.4,33.5,77.4,35,77.7,37.2z"/>
			<path class="st1" d="M92.5,45.5c-3.1,0.5-6.2-0.3-8.7-2.2c0,0,2,4.4,9.2,4.2L92.5,45.5z"/>
			<path class="st2" d="M81.1,84.4c-2,3.4-5,6.1-8.6,7.6L71,84.6l6.6-3.4L81.1,84.4z"/>
			<path class="st1" d="M53.3,93.1l-3-24.9c-0.8-6.4,3.2-12.5,9.4-14.4l0,0l18.9,17.7L81,84.4c0,0-5.5-2.3-12.4,6.2
				S53.3,93.1,53.3,93.1z"/>
			<path class="st1" d="M81.1,84.4C80,84,78.9,84,77.8,84.2l0,0L65,82.4l-8.2,12.3c-1.2-0.3-2.4-0.8-3.5-1.5l-3-24.9
				c-0.8-6.4,3.2-12.5,9.4-14.4l18.9,17.7L81.1,84.4z"/>
			<path class="st3" d="M125.7,95.3c-12.1,7.9-33.2,20.2-44.3,25.5c-1.6,0.8-3.3,1.2-5.1,1.4c-6.9,0.5-13.2-3.9-15.1-10.6l-4.5-16.8
				l0.1-0.2c3.1,0.8,7.7,0.9,11.8-4.1c3.7-4.4,6.9-5.9,9.2-6.3l2.8,17.2l40.9-13.3L125.7,95.3z"/>
			<path class="st5" d="M213.5,143l-6.5-2.1c-1.7-0.6-2.9-2-3.3-3.7v-0.1c-0.4-1.7,0.1-3.5,1.4-4.8l4.9-4.7c0.4-0.4,0.5-1.1,0.1-1.6
				l-6.1-8.6c-0.3-0.5-1-0.6-1.5-0.4l-6,3c-1.6,0.8-3.5,0.7-5-0.3l0,0c-1.5-0.9-2.4-2.6-2.4-4.4l0.1-6.7c0-0.6-0.4-1.1-1-1.2
				l-10.4-1.8c-0.6-0.1-1.2,0.3-1.4,0.8l-2.1,6.4c-0.6,1.7-2,3-3.7,3.3h-0.1c-1.7,0.4-3.6-0.1-4.8-1.4L161,110
				c-0.4-0.4-1.1-0.5-1.6-0.2l-8.6,6.2c-0.5,0.3-0.6,1-0.4,1.5l3.1,6.1c0.8,1.6,0.7,3.5-0.3,5v0.1c-0.9,1.5-2.6,2.4-4.4,2.4
				l-6.8-0.1c-0.6,0-1.1,0.4-1.2,1l-1.8,10.3c-0.1,0.6,0.3,1.2,0.8,1.4l6.6,2.2c1.7,0.6,2.9,1.9,3.3,3.6v0.1
				c0.4,1.7-0.1,3.5-1.4,4.7l-5,4.8c-0.4,0.4-0.5,1.1-0.1,1.6l6.1,8.6c0.3,0.5,1,0.6,1.5,0.4l6.2-3.1c1.6-0.8,3.4-0.7,4.9,0.3h0.1
				c1.5,0.9,2.4,2.5,2.3,4.3l-0.1,7c0,0.6,0.4,1.1,1,1.2l10.5,1.8c0.6,0.1,1.2-0.2,1.4-0.8l2.2-6.6c0.5-1.6,1.9-2.9,3.6-3.3h0.1
				c1.7-0.4,3.5,0.1,4.7,1.4l4.8,5c0.4,0.4,1.1,0.5,1.6,0.1l8.6-6.1c0.5-0.3,0.6-1,0.4-1.5l-3.1-6.2c-0.8-1.6-0.7-3.4,0.3-4.9V158
				c0.9-1.5,2.6-2.4,4.3-2.3l6.9,0.1c0.6,0,1.1-0.4,1.2-1l1.8-10.4C214.4,143.8,214.1,143.2,213.5,143z M174.5,156.8
				c-7.5-1.2-12.5-8.2-11.3-15.7s8.2-12.5,15.7-11.3s12.5,8.2,11.3,15.7c0,0.1,0,0.2,0,0.2C188.9,153.1,181.9,158,174.5,156.8
				L174.5,156.8z"/>
			<path class="st1" d="M89.8,34.1c0,0.6-0.3,1.1-0.6,1.1s-0.7-0.5-0.7-1s0.3-1.1,0.6-1.1S89.8,33.5,89.8,34.1z"/>
			<path class="st1" d="M95.9,33.8c0,0.6-0.4,1-0.7,1s-0.7-0.5-0.6-1.1s0.4-1,0.8-1S95.9,33.2,95.9,33.8z"/>
			<path class="st1" d="M92.9,39.1c-0.1,0-0.1,0-0.1-0.1c0-0.1,0-0.2,0.1-0.2c0,0,0.6-0.2,0.7-0.6c0-0.3-0.1-0.6-0.3-0.8
				c-1.1-1.2-1-4-1-4.1c0-0.1,0.1-0.2,0.2-0.2c0,0,0,0,0,0c0.1,0,0.2,0.1,0.2,0.2c0,0,0,0,0,0c0,0-0.1,2.8,0.9,3.9
				c0.3,0.3,0.5,0.7,0.4,1.1C93.8,38.9,93,39.1,92.9,39.1L92.9,39.1z"/>
			<path class="st1" d="M90.1,30.8c-0.8-0.1-1.6-0.1-2.3,0.2c-0.3,0.1-0.6,0-0.7-0.2l0,0c-0.1-0.3,0-0.6,0.3-0.7c0,0,0,0,0,0
				c0.9-0.4,1.9-0.4,2.9-0.3c0.3,0,0.5,0.3,0.5,0.6c0,0,0,0,0,0.1l0,0C90.6,30.7,90.4,30.9,90.1,30.8z"/>
			<path class="st1" d="M93.7,31.2c0.8-0.1,1.6,0,2.3,0.3c0.3,0.1,0.6,0,0.7-0.2l0,0c0.1-0.3,0-0.6-0.2-0.7c0,0,0,0-0.1,0
				c-0.9-0.4-1.9-0.5-2.8-0.4c-0.3,0-0.5,0.2-0.5,0.5c0,0,0,0.1,0,0.1l0,0C93.2,31,93.5,31.2,93.7,31.2z"/>
			<path class="st1" d="M268.7,47.2c-0.1,0.6,0.1,1.2,0.5,1.3s0.8-0.4,0.9-1s-0.1-1.2-0.5-1.3S268.8,46.5,268.7,47.2z"/>
			<path class="st1" d="M262.7,46.1c-0.1,0.6,0.1,1.2,0.5,1.3s0.8-0.4,0.9-1s-0.1-1.2-0.5-1.3S262.8,45.5,262.7,46.1z"/>
			<path class="st1" d="M265.5,52c0.2,0,0.3-0.1,0.4-0.3c0-0.2-0.1-0.3-0.2-0.3c-0.3-0.1-0.8-0.4-0.8-0.5s0.1-0.1,0.2-0.2
				c1-0.8,1.6-3.3,1.6-3.6c0-0.2-0.1-0.4-0.3-0.4c-0.2,0-0.3,0.1-0.4,0.3c-0.1,0.7-0.7,2.7-1.4,3.2c-0.3,0.2-0.4,0.5-0.4,0.8
				C264.3,51.6,265.2,51.9,265.5,52L265.5,52z"/>
			<path class="st1" d="M266.2,53.9c-0.3,0-0.5,0.3-0.5,0.6c0,0.1,0,0.1,0,0.2c0.7,1.3,2.3,1.8,3.6,1.1c0.6-0.3,1.1-0.9,1.3-1.7
				c0.1-0.3-0.2-0.6-0.5-0.7c-0.1,0-0.1,0-0.2,0L266.2,53.9z"/>
			<path class="st1" d="M271.8,46c0-0.3-0.2-0.7-0.4-0.9c-0.2-0.3-0.5-0.5-0.8-0.6c-0.3-0.1-0.7-0.2-1-0.2c-0.3,0-0.7,0.2-0.9,0.4
				c0.3,0.1,0.6,0.2,0.9,0.3c0.3,0.1,0.5,0.2,0.8,0.3C270.7,45.5,271.2,45.7,271.8,46z"/>
			<path class="st1" d="M262.1,43.7c0.2-0.3,0.4-0.6,0.7-0.7c0.3-0.2,0.7-0.3,1-0.2c0.3,0,0.7,0.1,1,0.2c0.3,0.2,0.6,0.4,0.7,0.7
				c-0.3,0-0.6,0-0.9,0h-0.8C263.3,43.7,262.8,43.7,262.1,43.7z"/>
			<path class="st3" d="M78.1,69.3c-0.3,0.1-0.5,0.3-0.4,0.6l2.7,13.8c0.1,0.2,0.3,0.4,0.5,0.4H81c0.3-0.1,0.5-0.3,0.4-0.6
				c0,0,0,0,0,0l-2.7-13.8C78.7,69.4,78.4,69.2,78.1,69.3z"/>
			<path class="st3" d="M134.9,77c-1.2-0.8-2.2-1.9-2.9-3.2c-1.5-2.7-1.4-5.6,0.5-8.6l0.1-0.1c2.7-4.3,3.6-5.8,2.3-13.1
				c0-0.3-0.3-0.5-0.5-0.5L124,51.2c-0.2,0-17-0.6-26.3,0.3H73.2l-12.6,1.6h-0.1c-0.8,0.1-1.6,0.4-2.4,0.7
				c-5.7,2.4-9.1,8.3-8.4,14.4l3,24.9c0,0.2,0.1,0.3,0.2,0.4c0.8,0.5,1.7,1,2.7,1.3l3,40.8c0,0.3,0.3,0.5,0.6,0.5l0,0
				c0.1,0,0.3-0.1,0.4-0.2c0.1-0.1,0.1-0.3,0.1-0.4l-3-41.2c0-0.2-0.2-0.4-0.4-0.5c-0.9-0.3-1.8-0.7-2.6-1.2l-3-24.7
				c-0.7-5.6,2.5-11.1,7.7-13.3c0.7-0.3,1.4-0.5,2.1-0.6l12.5-1.7h24.5h0.1c9.1-0.8,25.5-0.3,26.2-0.3l9.9,0.3
				c1.1,6.5,0.3,7.8-2.3,11.9l-0.1,0.1c-3.8,6-0.5,10.4,1.5,12.3l-12.7,0.5l-3.6-14.1c-0.1-0.3-0.4-0.5-0.7-0.4
				c-0.1,0-0.3,0.1-0.3,0.3c-0.1,0.1-0.1,0.3,0,0.4l3.8,14.9c0,0.1,0.1,0.2,0.2,0.3l3.9,13.2l0.1,2.6c0,0,0,0.1,0,0.1l8.1,38.8
				c0.1,0.3,0.4,0.5,0.7,0.4c0.3-0.1,0.5-0.3,0.4-0.6c0,0,0,0,0,0l-8.1-38.8l-0.2-2.6c0,0,0-0.1,0-0.1l-3.9-13.3l13.8-0.6
				c0.2,0,0.5-0.2,0.5-0.4C135.2,77.4,135.1,77.1,134.9,77z"/>
			<path class="st5" d="M119.3,54.1l-1.5,11c-0.1,0.6,0.3,1.2,0.9,1.4l7,2.1c1.8,0.5,3.1,1.9,3.6,3.7v0.1c0.5,1.8,0,3.7-1.3,5
				l-5.1,5.2c-0.4,0.5-0.5,1.2-0.1,1.7l6.7,8.9c0.4,0.5,1.1,0.7,1.6,0.4l6.4-3.5c1.6-0.9,3.6-0.8,5.1,0.1l0,0
				c1.6,0.9,2.6,2.6,2.6,4.4l0.1,7.3c0,0.6,0.5,1.2,1.1,1.3l11,1.5c0.6,0.1,1.2-0.3,1.4-0.9l2.1-7c0.5-1.8,1.9-3.1,3.7-3.6h0.1
				c1.8-0.5,3.7,0,5,1.3l5.3,5.1c0.5,0.4,1.2,0.5,1.7,0.1l8.9-6.7c0.5-0.4,0.7-1.1,0.4-1.6l-3.5-6.4c-0.9-1.6-0.8-3.6,0.1-5.2l0,0
				c0.9-1.6,2.6-2.6,4.4-2.6l7.3-0.2c0.6,0,1.2-0.5,1.3-1.1l1.5-11c0.1-0.6-0.3-1.2-0.9-1.4l-6.9-2c-1.8-0.5-3.2-2-3.6-3.8v-0.1
				c-0.5-1.8,0-3.7,1.3-5.1l5-5.1c0.4-0.5,0.5-1.2,0.1-1.7l-6.7-8.9c-0.4-0.5-1.1-0.7-1.6-0.4l-6.2,3.4c-1.7,0.9-3.7,0.8-5.3-0.1
				h-0.1c-1.6-0.9-2.6-2.7-2.7-4.5l-0.1-7.1c0-0.6-0.5-1.2-1.1-1.3l-11-1.5c-0.6-0.1-1.2,0.3-1.4,0.9l-2,6.8c-0.5,1.8-2,3.2-3.8,3.7
				h-0.1c-1.8,0.5-3.8,0-5.1-1.3l-5.1-5c-0.5-0.4-1.2-0.5-1.7-0.1l-8.9,6.6c-0.5,0.4-0.6,1.1-0.4,1.6l3.4,6.3
				c0.9,1.6,0.8,3.6-0.1,5.2v0c-0.9,1.6-2.7,2.6-4.5,2.7l-7.2,0.1C119.9,53,119.4,53.5,119.3,54.1z M143.2,63.1
				c1-7.9,8.3-13.5,16.2-12.5c7.9,1,13.5,8.3,12.5,16.2s-8.3,13.5-16.2,12.5c-0.1,0-0.2,0-0.2,0C147.6,78.1,142.2,70.9,143.2,63.1
				L143.2,63.1z"/>
			<path class="st3" d="M136.6,80.2c0.2,0.4,0.1,0.8-0.3,1l-5.7,4.5l8.3-3c0.4-0.1,0.9,0.1,1,0.5c0,0,0,0,0,0c0.1,0.4-0.1,0.8-0.5,1
				h-0.1c0.3,0,0.5,0.1,0.6,0.4c0.1,0.3,0.1,0.6-0.2,0.8c-2.5,1.4-5.2,3-7.7,4.3l6.4-0.5c0.4,0,0.6,0.1,0.7,0.4c0,0.1,0,0.2,0,0.2
				c-0.1,0.3-0.3,0.5-0.6,0.6l-14.3,5.3l-4.7,3.2c-0.5-0.5,0.2,0.2-0.2-0.4c-0.8-1.7-0.8-3.6-1.6-5.2c-0.3-0.6-0.6-1.1-1.1-1.6
				l2.9-1.4c0.6-1.1,1.3-2.2,2-3.2c1.1-1.9,2-3.8,2.8-5.8c0.8,0.3,1.2,1.1,1.1,1.9l-0.5,2.8l10.3-6.2c0.4-0.2,0.9-0.1,1.1,0.3
				C136.5,80.1,136.5,80.2,136.6,80.2z"/>
			<path class="st1" d="M131.6,87.7c-0.1,0-0.2-0.1-0.3-0.2c0-0.1,0.1-0.2,0.2-0.2l7.5-3.1c0.1,0,0.2,0,0.3,0.1c0,0,0,0,0,0
				c0,0.1,0,0.2-0.1,0.3L131.6,87.7L131.6,87.7z"/>
			<path class="st3" d="M157.5,24.8l1.3,7.8c0.1,0.6,0.7,1,1.3,0.9c0,0,0,0,0,0l0,0c0.6-0.1,1-0.6,0.9-1.1l-0.1-7.7
				c0-0.7-0.6-1.2-1.3-1.2c0,0,0,0,0,0h-1C158,23.4,157.5,24,157.5,24.8C157.5,24.7,157.5,24.7,157.5,24.8L157.5,24.8z"/>
			<path class="st3" d="M160.9,24.4V33c0,0.6,0.5,1.1,1.1,1.1c0.5-0.1,1-0.4,1.1-0.9l1.2-8.3c0.1-0.7-0.3-1.3-1-1.4l-1-0.1
				C161.7,23.2,161,23.7,160.9,24.4C160.9,24.4,160.9,24.4,160.9,24.4L160.9,24.4z"/>
			<path class="st3" d="M163.8,24.7l-0.4,7.4c0,0.6,0.4,1,1,1.1c0.5,0,1-0.3,1.2-0.7l1.6-7c0.1-0.6-0.3-1.2-0.9-1.3c0,0-0.1,0-0.1,0
				l-1-0.2C164.5,23.7,163.8,24.1,163.8,24.7c-0.1,0-0.1,0-0.1,0.1L163.8,24.7z"/>
			<path class="st3" d="M167,24.8l-1.1,5.3c-0.1,0.4,0.2,0.8,0.6,0.9c0.4,0,0.7-0.1,0.9-0.4l1.9-5c0.1-0.4-0.1-0.9-0.5-1.1
				c0,0,0,0,0,0l-0.7-0.3C167.7,24.1,167.2,24.3,167,24.8C167,24.7,167,24.7,167,24.8L167,24.8z"/>
			<path class="st1" d="M166,30.5L166,30.5c-0.1,0-0.2-0.1-0.2-0.3l1-5.3c0-0.1,0.1-0.2,0.2-0.2c0,0,0,0,0,0c0.1,0,0.2,0.1,0.2,0.3
				l-1,5.3C166.2,30.4,166.1,30.5,166,30.5C166,30.5,166,30.5,166,30.5z"/>
			<path class="st1" d="M163.3,32L163.3,32c-0.1,0-0.2-0.1-0.2-0.2c0,0,0,0,0,0l0.8-7.4c0-0.1,0.1-0.2,0.3-0.2
				c0.1,0,0.2,0.1,0.2,0.3l-0.8,7.4C163.5,31.9,163.4,32,163.3,32z"/>
			<path class="st1" d="M160.9,32.2L160.9,32.2c-0.1,0-0.2-0.1-0.2-0.2c0,0,0,0,0,0v-7.6c0-0.1,0.1-0.2,0.2-0.2l0,0l0,0
				c0.1,0,0.2,0.1,0.2,0.2l0,0V32C161.1,32.1,161,32.2,160.9,32.2L160.9,32.2z"/>
			<path class="st3" d="M246.6,100.4L246.6,100.4c-4.1-0.6-7.4-3.5-8.6-7.4c0-0.2,0.1-0.4,0.3-0.4s0.4,0.1,0.4,0.3
				c1.1,3.6,4.1,6.2,7.8,6.8l4.1-4.1c0.1-0.2,0.3-0.2,0.5-0.1c0.2,0.1,0.2,0.3,0.1,0.5c0,0,0,0-0.1,0.1l-4.3,4.2
				C246.8,100.4,246.7,100.4,246.6,100.4z"/>
			<path class="st3" d="M251.4,104.1c-0.4,13.3-0.7,20.7-0.7,20.9v0.2l1.1,0.1V125c0-0.2,0.1-3.8,0.7-20.7v-1h-1.1L251.4,104.1z"/>
			<path class="st3" d="M252,66.6l-0.1-0.2L252,66.6L252,66.6c0.3-0.2,0.4-0.4,0.3-0.7c-0.1-0.1-0.2-0.3-0.3-0.3
				c-0.1-0.1-0.3-0.1-0.4,0l-0.1,0.1l-1.4,0.7c-0.1,0-0.2,0.1-0.3,0.2c-1.4,0.8-2.8,1.9-4,3L229,85.4c-0.1,0.1-0.2,0.2-0.2,0.4
				c0,0.1,0,0.3,0.1,0.4c0.1,0.1,0.3,0.2,0.4,0.2c0.1,0,0.3-0.1,0.4-0.2l16.9-16c1.2-1.2,2.5-2.2,4-3c0.1,0,0.1-0.1,0.2-0.2
				L252,66.6z"/>
			<path class="st3" d="M294.2,67.2c-0.3-0.2-0.6-0.1-0.8,0.2c-0.2,0.2-0.1,0.6,0.1,0.7c5.3,3.7,8.1,10,7.2,16.4
				c-0.6,4.1-2.3,8-5,11.1l-4,4.1c0,0,0,0,0,0.1c-0.1,0-0.1,0-0.1,0.1l-3.4,2.8c-0.1,0.1-0.2,0.2-0.2,0.3c0,0.1,0,0.3,0.1,0.4
				c0.1,0.1,0.2,0.2,0.4,0.2c0.1,0,0.2,0,0.3-0.1l2.6-2.2l-3.1,26c0,0.3,0.2,0.6,0.5,0.6h0.1c0.3,0,0.5-0.2,0.5-0.5l3.2-27.1l3.9-4
				c2.8-3.3,4.7-7.4,5.3-11.7C302.8,77.8,299.8,71.1,294.2,67.2z"/>
			<path class="st5" d="M248.9,66.8l-5.9,2.8c-1.5,0.7-3.4,0.6-4.8-0.3l0,0c-1.5-0.9-2.3-2.6-2.2-4.3l0.2-6.5c0-0.6-0.4-1.1-1-1.2
				l-10-1.9c-0.6-0.1-1.1,0.2-1.3,0.8l-2.1,6.1c-0.6,1.6-2,2.8-3.6,3.2h-0.1c-1.7,0.3-3.4-0.2-4.5-1.4l-4.4-4.8
				c-0.4-0.4-1-0.5-1.5-0.2l-8.4,5.7c-0.5,0.3-0.7,0.9-0.4,1.5l2.8,5.8c0.7,1.5,0.6,3.4-0.3,4.8l0,0c-0.9,1.5-2.6,2.4-4.3,2.3
				l-6.5-0.2c-0.6,0-1.1,0.4-1.2,1l-1.9,10c-0.1,0.6,0.2,1.1,0.8,1.3l6.2,2.2c1.6,0.6,2.8,1.9,3.1,3.6v0.1c0.4,1.7-0.2,3.4-1.4,4.6
				l-4.8,4.5c-0.4,0.4-0.5,1-0.2,1.5l5.7,8.4c0.3,0.5,1,0.6,1.5,0.4l6-2.9c1.5-0.7,3.3-0.6,4.7,0.3l0,0c1.4,0.9,2.3,2.5,2.2,4.2
				l-0.2,6.6c0,0.6,0.4,1.1,1,1.2l10,1.9c0.6,0.1,1.1-0.2,1.3-0.8l2.2-6.3c0.6-1.6,1.9-2.7,3.5-3.1l0,0c1.6-0.4,3.3,0.2,4.5,1.4
				l4.6,4.9c0.4,0.4,1,0.5,1.5,0.2l8.4-5.7c0.5-0.3,0.6-1,0.4-1.5l-2.9-6c-0.7-1.5-0.6-3.3,0.3-4.7l0,0c0.9-1.4,2.5-2.3,4.1-2.3
				l6.7,0.2c0.6,0,1.1-0.4,1.2-1l1.9-10c0.1-0.6-0.2-1.1-0.8-1.3l-6.3-2.2c-1.6-0.6-2.8-1.9-3.1-3.6l0,0c-0.3-1.6,0.2-3.3,1.4-4.5
				l4.9-4.5c0.4-0.4,0.5-1,0.2-1.5l-5.7-8.4C250.1,66.7,249.5,66.5,248.9,66.8z M231.1,102.4c-6,4.2-14.2,2.7-18.3-3.3
				s-2.7-14.2,3.3-18.3c6-4.2,14.2-2.7,18.3,3.3c0,0.1,0.1,0.1,0.1,0.2C238.6,90.2,237,98.3,231.1,102.4z"/>
			<path class="st3" d="M236,118c-0.1,0-7.2-0.7-7.2-0.7c-0.2-0.1-0.4-0.4-0.5-0.6c0-0.4,0.2-0.8,0.5-0.9l-0.8-0.1
				c-0.4-0.2-0.6-0.7-0.4-1.1c0.1-0.2,0.2-0.3,0.4-0.4h-0.8c-0.3,0-0.6-0.2-0.7-0.4c-0.1-0.1-0.1-0.2-0.1-0.3c0-0.4,0.2-0.8,0.6-1
				l-2.8-0.3c-0.3,0-0.5-0.2-0.6-0.5l0,0c-0.1-0.3,0.1-0.6,0.4-0.7c0,0,0.1,0,0.1,0l10.5-0.2l-2.1-3.3c-0.4-0.6-0.2-1.3,0.4-1.7
				c0,0,0.1,0,0.1-0.1l6.8,6.7l2.4-0.2l0.1,6L236,118z"/>
			<path class="st1" d="M92.7,41c-0.1,0-0.2,0-0.2,0.1c-0.1,0-1.7,1.2-4-0.4c-0.1,0-0.2-0.1-0.2-0.1c-0.1,0-0.2,0.1-0.2,0.1
				c-0.1,0.1-0.1,0.3,0.1,0.5c0.8,0.6,1.8,1,2.8,1c0.7,0,1.4-0.2,2-0.6c0.1-0.1,0.1-0.1,0.1-0.2c0-0.1,0-0.2-0.1-0.2
				C92.9,41.1,92.8,41,92.7,41z"/>
			<path class="st1" d="M230.7,112.3c-0.1-0.1-0.1-0.1-0.2-0.1l-3.5-0.1c-0.2,0-0.3,0.1-0.3,0.3c0,0.2,0.1,0.3,0.3,0.3c0,0,0,0,0,0
				l3.5,0.1l0,0c0.2,0,0.3-0.1,0.3-0.3c0,0,0,0,0,0C230.8,112.4,230.7,112.3,230.7,112.3z"/>
			<path class="st1" d="M230.2,114.6c0.2,0,0.3-0.1,0.3-0.3c0-0.2-0.1-0.3-0.3-0.3l-2.2-0.1c-0.1,0-0.2,0-0.2,0.1
				c-0.1,0.1-0.1,0.1-0.1,0.2c0,0.2,0.1,0.3,0.3,0.3L230.2,114.6L230.2,114.6z"/>
			<path class="st1" d="M230.2,115.5h-1.4c-0.2,0-0.3,0.1-0.3,0.3c0,0,0,0,0,0c0,0.1,0,0.2,0.1,0.2c0.1,0.1,0.1,0.1,0.2,0.1h1.4l0,0
				c0.2,0,0.3-0.1,0.3-0.3C230.5,115.6,230.4,115.5,230.2,115.5z"/>
			<path class="st3" d="M260.3,109.8l14.6-18.5c2.1,1.2,4.4,1.9,6.7,2.1c0,0,5.1,0.3,6.3,7l-10.9,11.3l-5.2,4.8c-2.1,2-5,3-7.9,2.8
				l-22.2-1.1l-5.4-6.2L260.3,109.8z"/>
		</g>
	</g>
</g>
</svg>
