<svg xmlns="http://www.w3.org/2000/svg" xmlns:xlink="http://www.w3.org/1999/xlink" viewBox="0 0 616 365.39"><defs><style>.cls-1{fill:none;}.cls-2{fill:#ffdb45;}.cls-3{fill:#03304f;}.cls-4{fill:#fff;}.cls-5{fill:#2bd88d;}.cls-6{clip-path:url(#clip-path);}.cls-7{fill:#464646;}.cls-8{clip-path:url(#clip-path-2);}.cls-9{fill:#855756;}.cls-10{fill:#8ab35b;}.cls-11{fill:#4d3232;}.cls-12{clip-path:url(#clip-path-3);}.cls-13{clip-path:url(#clip-path-4);}.cls-14{fill:#ffcec8;}.cls-15{fill:#545ed7;}.cls-16{fill:#ff9e70;}.cls-17{fill:#3944c7;}.cls-18{fill:#ac9af0;}.cls-19{fill:#ff9c91;}.cls-20{fill:#ff7867;}</style><clipPath id="clip-path"><rect class="cls-1" x="371.36" y="6.69" width="105.04" height="105.04" transform="translate(845.35 133.67) rotate(-177.94)"/></clipPath><clipPath id="clip-path-2"><rect class="cls-1" x="373.48" y="129.95" width="106.8" height="106.8" transform="translate(-4.5 10.86) rotate(-1.45)"/></clipPath><clipPath id="clip-path-3"><rect class="cls-1" x="499.71" y="142.9" width="103.12" height="103.12"/></clipPath><clipPath id="clip-path-4"><rect class="cls-1" x="499.19" y="24.9" width="103.99" height="103.99" transform="translate(5.54 -32.59) rotate(3.4)"/></clipPath></defs><title>ilustras</title><g id="Layer_1" data-name="Layer 1"><polygon class="cls-2" points="42.94 76.72 319.56 114.89 351.07 359.3 6.18 359.36 42.94 76.72"/><path class="cls-3" d="M229.79,292s24.45-3.31,31-32.66L234.91,250S221.32,270.71,229.79,292Z"/><path class="cls-4" d="M335.14,161.21l-15.37-11-31.91,65.46-38.18-9.28-28.3,46.31,43.53,9.16L275,263.61A36,36,0,0,0,308.3,252,35.64,35.64,0,0,0,316,236.12Z"/><path class="cls-5" d="M230.4,292.23l-84.61-43.09c-4.89-2.95-9.86-5.93-14-9.92-18-17.33-14.91-36.66,1.4-49.72,11-8.83,28.64-10.82,41.73-5.55l81.95,23.6A43.68,43.68,0,0,1,258.27,233c-2.17,8.92-7.7,16.59-14.66,22.58C237.28,261,227.05,273.08,230.4,292.23Z"/><polygon class="cls-3" points="204.14 288.44 191.07 228.95 111.51 226.87 99.99 288.76 120.31 359.24 197 359.36 198.42 325.45 197.71 296.97 204.14 288.44"/><path class="cls-5" d="M203.26,359.36l-.68-4.82-1-30.55,3.87-41.06c19.58-14.49,17.18-42,17.18-42a168.61,168.61,0,0,1-28.7-33.65l-12.06,2.53,4.24,149.55Z"/><path class="cls-3" d="M167.23,298.72s-7.43,9.35-18.32,6.7l-2.24-14.24A28.41,28.41,0,0,1,167.23,298.72Z"/><path class="cls-5" d="M149.1,359.6c-1.93-15-7.52-35.93-17.34-48.66a94.09,94.09,0,0,1-13.06-3.42l-21.47-84-6.5,75.85-5.21,60Z"/><polygon class="cls-4" points="117.28 226.85 182.55 229.02 175.06 183.63 167.67 182.06 121.89 179.76 121.87 179.9 117.28 226.85"/><path class="cls-4" d="M219.61,331.25l4.17-2s7.39,4,17.87-1.4l5.42,2.77,1.62,3.64a1.91,1.91,0,0,0,2.26,1.06h0a1.9,1.9,0,0,0,1.35-2.3l-1.38-5.69-6.85-5.82,9,3.68,6.23,7.92a2,2,0,0,0,2.64.5h0a2,2,0,0,0,.67-2.88l-6.31-9.66A2.9,2.9,0,0,0,255,320l-4.38-1.89,8.43,1.55,7.52,5.32a1.82,1.82,0,0,0,2.52-.42h0a1.81,1.81,0,0,0-.27-2.44l-8.75-7.68a3,3,0,0,0-1.35-.69L250.85,312l6-2.34,9.6-.78a1.79,1.79,0,0,0,1.63-2h0a1.78,1.78,0,0,0-1.69-1.56l-13-.61a3.08,3.08,0,0,0-1.34.25l-9.31,3.94-23.11,2.54Z"/><path class="cls-4" d="M250.6,318.3h-.08l-4-1.59a.21.21,0,0,1-.12-.27.2.2,0,0,1,.27-.12l4,1.59a.2.2,0,0,1,.11.27A.21.21,0,0,1,250.6,318.3Z"/><path class="cls-4" d="M250.85,312.17h-.07l-4.58-1.44a.21.21,0,0,1-.14-.26.22.22,0,0,1,.26-.14l4.59,1.44a.21.21,0,0,1,.14.26A.22.22,0,0,1,250.85,312.17Z"/><path class="cls-4" d="M101.14,319.37l.22,1c5.48,16.56,12.53,32.86,29.08,38.34,0,0,3.68,1.94,11.08,2.56a50.37,50.37,0,0,0,25.92-5l52.17-25,0-19.87-62.79,6.2-4-25.24a32.38,32.38,0,0,0-32.55,10.75C112.92,311.91,106.48,316.78,101.14,319.37Z"/><path class="cls-4" d="M318,159.13l2.26-6.41-14.51-14.35.26-.26a4,4,0,0,1,4.91-.49l9.92,5.81,3.08-8.84,2.66-16.37a1.42,1.42,0,0,1,1.61-1.18h0a1.42,1.42,0,0,1,1.2,1.48l-.83,15.31.58.19,4.94-18a1.47,1.47,0,0,1,1.69-1h0a1.47,1.47,0,0,1,1.16,1.73l-3.69,18.44.58.27,5.8-14.7a1.38,1.38,0,0,1,1.84-.74h0a1.36,1.36,0,0,1,.75,1.64L337.38,138l.78.42L345,129a1.33,1.33,0,0,1,1.76-.35h0a1.32,1.32,0,0,1,.48,1.75l-6.29,11.83-5.78,19Z"/><path class="cls-3" d="M192.58,117.37a15.65,15.65,0,0,1,16.64-1.78,35.64,35.64,0,0,0-16.64,1.78Z"/><path class="cls-3" d="M193,118.12a28,28,0,0,0,5.71-19.46A16,16,0,0,1,193,118.12Z"/><path class="cls-3" d="M193.41,114.49s-21.83,28.78-20.66,59.68l-28.65,4.35,89.37,4.67s1.66-8.32-4-8.66a8.17,8.17,0,0,1-2.45-.17,2.54,2.54,0,0,1-1.33-2.36s0-.13,0-.17a20.44,20.44,0,0,0,.07-3c-.18-1-1-2-2-1.94a9.41,9.41,0,0,0-1,.23,1.73,1.73,0,0,1-1.7-2.18c-.73.27-1.48-.51-1.73-1.29-.48-1.54-.48-2.65-2-3.49-1.76-.94-3.82-1.13-5.56-2.12a14.31,14.31,0,0,1-5.08-5.2c-2.83-6.26-5.87-14-5.64-21.87C201.26,119.12,199.46,116.19,193.41,114.49Z"/><path class="cls-4" d="M194.4,125.06s11.29,44.69-18,48.75c0,0-23.45,3.46-31.65-13.7l3.29-58.67,37.73-.41Z"/><path class="cls-4" d="M144.79,160.11l-2,30.91,29.47.36,1.34-17.47S154.87,176.25,144.79,160.11Z"/><path class="cls-3" d="M69.66,174.05l49,2.52,4.77-7.08-1.83,7.36,1.62.12,3.76-7.48,1.27,7.82,15.42,1.08,1.62-26.2,3-17.44c11.61-6.67,9.66-22.8,9.66-22.8,13.8,21.09,36.47,13.11,36.47,13.11a46.69,46.69,0,0,0,1-11.16,31.12,31.12,0,0,0-2.71-12.26c-9.75-21.29-34.4-16.43-34.4-16.43-29.06,3-36.58,19-40.56,33.52-1.8,6.61-6.77,15.12-14.28,16.25a23.18,23.18,0,0,0-3,.41,6.27,6.27,0,0,0-3.83,3.69c-1,2.51-.39,9.78-5,9.76-8,0-7.26,8-7.26,8,.74,6.28-11.77,5.25-11.77,5.25C64.75,165.21,69.66,174.05,69.66,174.05Z"/><path class="cls-4" d="M135.61,146a9.6,9.6,0,1,0,6.71-11.8A9.6,9.6,0,0,0,135.61,146Z"/><path class="cls-3" d="M170.62,130.08c-.38.76-2.78.38-5.13,1.18s-4.16,2.34-4.91,1.92.3-3.78,4-4.92S171.09,129.36,170.62,130.08Z"/><path class="cls-3" d="M192,131.43c-.57.64-2.78-.38-5.26-.24s-4.64,1.13-5.24.53,1.3-3.56,5.15-3.67S192.63,130.86,192,131.43Z"/><path class="cls-3" d="M174.89,164.81a5.75,5.75,0,0,1-5.53-4.19.6.6,0,0,1,.44-.72.58.58,0,0,1,.71.43,4.52,4.52,0,0,0,5.14,3.25.58.58,0,0,1,.65.52.59.59,0,0,1-.52.66C175.47,164.79,175.17,164.81,174.89,164.81Z"/><path class="cls-3" d="M189.2,142.76c.26,1.7-.41,3.21-1.48,3.38s-2.16-1.08-2.42-2.79.4-3.21,1.48-3.37S188.94,141.06,189.2,142.76Z"/><path class="cls-3" d="M169.05,145.45c.26,1.7-.4,3.21-1.48,3.38s-2.16-1.08-2.42-2.78.4-3.22,1.48-3.38S168.79,143.75,169.05,145.45Z"/><path class="cls-3" d="M179.9,158.68a.59.59,0,0,1-.56-.41.6.6,0,0,1,.38-.75c1.3-.42,3.18-1.4,3.27-2.27.06-.57-.8-1.16-1.31-1.46-5.13-3-4.64-12.65-4.62-13.06a.66.66,0,0,1,.63-.56.6.6,0,0,1,.56.63c0,.09-.48,9.36,4,12,1.36.78,2,1.66,1.9,2.61-.21,2-3.69,3.14-4.08,3.27A.58.58,0,0,1,179.9,158.68Z"/><path class="cls-3" d="M165,156.2a10.84,10.84,0,0,1-2.62-21.35A10.83,10.83,0,1,1,165,156.2Zm0-20.49a10,10,0,0,0-2.34.28,9.65,9.65,0,0,0,4.67,18.73,9.64,9.64,0,0,0,7-11.7A9.66,9.66,0,0,0,165,135.71Z"/><path class="cls-3" d="M190.09,154.17a10.84,10.84,0,0,1-2.62-21.35,10.84,10.84,0,1,1,2.62,21.35Zm0-20.49a9.43,9.43,0,0,0-2.34.29,9.64,9.64,0,1,0,2.34-.29Z"/><path class="cls-3" d="M175.23,146.33a.59.59,0,0,1-.58-.53.58.58,0,0,1,.52-.65l4.78-.54a.59.59,0,0,1,.13,1.17l-4.78.54Z"/><path class="cls-3" d="M173.65,174.05s-13.6.87-19.13-8.93c0,0,.82,8.95,19,10.7Z"/><path class="cls-5" d="M166.92,299.19l-14-85.68c-2.29-13.92-5.06-26-18.32-30.88-19.63-7.17-45.89-3-49.87,24.76a119.77,119.77,0,0,0-1.23,17.11l.13,95.27s13.55,10.81,36.76-16.7c9.33-11.06,24.95-14.92,38.07-8.81A59.86,59.86,0,0,1,166.92,299.19Z"/><path class="cls-3" d="M277.13,348.7H430.75l21.92-83.11a5.33,5.33,0,0,0-5.29-6.59H305a5.42,5.42,0,0,0-5.29,4Z"/><rect class="cls-3" x="221.72" y="347.17" width="210.5" height="12.47" rx="6.24" transform="translate(653.94 706.81) rotate(180)"/><path class="cls-4" d="M425.78,348.39H319.46a1.23,1.23,0,0,1,0-2.45H425.78a1.23,1.23,0,0,1,0,2.45Z"/><g class="cls-6"><rect class="cls-2" x="275.61" y="-17.86" width="240.18" height="206.14" transform="translate(-8.4 61.99) rotate(-8.86)"/><path class="cls-7" d="M394.25,191.6l0,0,79.63-34.45,17.45,19.34Z"/><polygon class="cls-5" points="405.57 189.84 438.25 175.48 485.83 169.19 488.02 176.98 405.57 189.84"/><rect class="cls-4" x="476.91" y="169.39" width="0.63" height="4.3" transform="matrix(0.94, -0.33, 0.33, 0.94, -29.87, 166.56)"/><path class="cls-7" d="M361.5,125.87s.79,5,5.21,7.2l5.83-10.44Z"/><path class="cls-4" d="M388.46,146.36l-25.11,25.29a13.86,13.86,0,0,1-8.87,4h0a13.84,13.84,0,0,1-12.1-5.64l-34-51.8,10-7.38L353,141.05l14.13-15S384.69,122.16,388.46,146.36Z"/><path class="cls-3" d="M478.61,69.76a37.27,37.27,0,0,0-4.73-.22l-13.54.32-3.61.08L417.67,76a36,36,0,0,0-16.05,6.75A34.7,34.7,0,0,0,396.87,87l-.34.35L371,115.47l-4.47,4.91-5,5.49s12.7-2.68,15.17,8.53c2.75,12.47,12,13.11,12,13.11l9.2-9.82-3.62,53.89,0,0L453,182.44c16-9.93,27.94-8.59,35.29-5.51l6.83-1.06Z"/><path class="cls-4" d="M397.89,138a.31.31,0,0,0,.26-.28l2.14-24.22a.32.32,0,0,0-.63-.06l-2.13,24.22a.31.31,0,0,0,.28.34Z"/><path class="cls-5" d="M427.78,118.83,440.85,120a3.09,3.09,0,0,0,3.36-2.8h0a3.09,3.09,0,0,0-2.8-3.35l-13.07-1.18a3.1,3.1,0,0,0-3.36,2.8h0A3.1,3.1,0,0,0,427.78,118.83Z"/><path class="cls-5" d="M371,115.47l5.43,2.1a3.07,3.07,0,0,1,1.94,2.4,3.15,3.15,0,0,1-.17,1.6,3.08,3.08,0,0,1-4,1.76l-7.67-3Z"/><path class="cls-5" d="M396.87,87l2.76,5.36a3.07,3.07,0,0,0,4.16,1.33,3.12,3.12,0,0,0,1.65-3.23,3.18,3.18,0,0,0-.31-.93l-3.51-6.78A34.7,34.7,0,0,0,396.87,87Z"/><path class="cls-5" d="M460.86,86.53l-7.63-10.67a3.08,3.08,0,0,0-4.31-.71h0a3.09,3.09,0,0,0-.72,4.31l7.64,10.67a3.1,3.1,0,0,0,4.31.71h0A3.08,3.08,0,0,0,460.86,86.53Z"/><path class="cls-5" d="M457.1,146.55l3.84,12.54a3.1,3.1,0,0,0,3.86,2.06h0a3.09,3.09,0,0,0,2.05-3.86L463,144.74a3.09,3.09,0,0,0-3.86-2.05h0A3.09,3.09,0,0,0,457.1,146.55Z"/><path class="cls-5" d="M487.24,125.11a3.06,3.06,0,0,0-2.8,2.44,3,3,0,0,0,0,1.11,3.11,3.11,0,0,0,2.42,2.55l1.4.28Z"/><path class="cls-5" d="M425,186.8l.64-2.07a3.12,3.12,0,0,1,3.86-2,3.11,3.11,0,0,1,2.17,3.08Z"/><path class="cls-5" d="M409.25,159.91l9.63-8.91a3.07,3.07,0,0,0,.17-4.36h0a3.07,3.07,0,0,0-4.36-.17l-9.63,8.91a3.07,3.07,0,0,0-.17,4.36h0A3.07,3.07,0,0,0,409.25,159.91Z"/><path class="cls-4" d="M425.43,74.67a14.82,14.82,0,0,0,29.05-4.37l-3.49.12Z"/><path class="cls-4" d="M442.07,85.82a15.44,15.44,0,0,0,13-15.53.62.62,0,0,0-.63-.62.63.63,0,0,0-.62.64A14.19,14.19,0,0,1,426,74.5a.63.63,0,0,0-1.21.34,15.49,15.49,0,0,0,16,11.12C441.27,85.93,441.67,85.88,442.07,85.82Z"/><path class="cls-4" d="M300.75,95.43a1.13,1.13,0,0,0,0,1.43l6.09,8-10-6.91a1.11,1.11,0,0,0-1.53.28,1.13,1.13,0,0,0,.27,1.52l.08.06a.92.92,0,0,0-1,.28.94.94,0,0,0,0,1.15c2.8,2.71,5.93,5.78,8.73,8.48L295,106.81c-.49-.16-.84-.11-1.08.35a.71.71,0,0,0-.1.3,1.11,1.11,0,0,0,.57,1l17.18,12,8.08-5.47a43.64,43.64,0,0,0-1.54-5c-1.11-3.1-2.06-11.32-2.06-11.32a2.33,2.33,0,0,0-2.13,2.11l-1.2,4.89L302.38,95.38A1.12,1.12,0,0,0,300.75,95.43Z"/><path class="cls-3" d="M305.16,107a.1.1,0,0,0,.08,0,.12.12,0,0,0,0-.17l-9.49-7.1a.14.14,0,0,0-.18,0,.13.13,0,0,0,0,.18l9.49,7.1A.12.12,0,0,0,305.16,107Z"/><path class="cls-4" d="M428.14,68.26s-7.27-2.41-8.06-13.56l-1-15,8-10.45,17.75,8.1-.62,11.14,7.35,7.84-.16,16.15L428.35,75Z"/><path class="cls-3" d="M451.51,62.45s6.14-.6,9.13-4.66a5,5,0,0,0,.85-4.55,2.63,2.63,0,0,0-3.21-1.91s9.06-7.66,6.27-17.82c0,0-1.42-5.33-8.23-1.47,0,0,5.12-7.19,0-13.18,0,0-2.86-3.34-6.73-.15,0,0,0-3.88-3.39-4.31S440.39,18,440.39,18s-1.15-6.14-6.54-6.66S426.27,17,426.27,17s-2.46-1.5-4.67-.11-1.08,4.32-1.08,4.32-5.27-1.13-7.32,3,2.6,8.46,2.6,8.46S405.44,35,407.68,45s12.45,10.32,12.45,10.32l-.57-8.05c0,.47,2.41.44,2.66.4a3.51,3.51,0,0,0,3-2.48,8,8,0,0,0-.07-2.23c-.12-1.81.47-4,2.15-4.9,2-1.11,3.82.32,4.09,2.35a18.84,18.84,0,0,1-.08,3.27c-.07,1.64.43,3.73,2.36,4A2.74,2.74,0,0,0,436.39,46c.7-1.49,2.06-3.71,3.8-3.32,2.58.57,3.62,6.14,3.62,6.14l7.76,7.5Z"/><path class="cls-4" d="M443.25,52.31a5.75,5.75,0,1,0,4.6-6.71A5.76,5.76,0,0,0,443.25,52.31Z"/><path class="cls-3" d="M428.14,68.26s9.49.69,14.52-5c0,0-1.57,5.69-14.47,6.46Z"/><path class="cls-3" d="M431.67,52.78c0,.86.39,1.58.94,1.6s1-.66,1.06-1.53-.39-1.58-.95-1.6S431.7,51.91,431.67,52.78Z"/><path class="cls-3" d="M423.44,53c.05.86.54,1.54,1.1,1.5s.95-.76.9-1.63-.55-1.53-1.1-1.5S423.38,52.16,423.44,53Z"/><path class="cls-3" d="M427.48,60.84a.26.26,0,0,0,.2-.18.24.24,0,0,0-.16-.31s-.9-.29-1.06-.88a1.28,1.28,0,0,1,.46-1.12c1.6-1.76,1.49-5.9,1.48-6.08a.25.25,0,0,0-.5,0S428,56.4,426.55,58A1.72,1.72,0,0,0,426,59.6c.23.85,1.34,1.21,1.39,1.23Z"/><path class="cls-3" d="M428.73,63.7a6.48,6.48,0,0,0,5.24-4,.25.25,0,0,0-.17-.31.25.25,0,0,0-.31.16c-.05.16-1.26,3.79-6.21,3.78a.25.25,0,0,0-.25.25.25.25,0,0,0,.25.25A9.29,9.29,0,0,0,428.73,63.7Z"/><path class="cls-3" d="M431.32,49.8a6.37,6.37,0,0,1,3.43.32.85.85,0,0,0,1-.34h0a.77.77,0,0,0-.51-1,7.92,7.92,0,0,0-4.23-.39.78.78,0,0,0-.69.93h0A.85.85,0,0,0,431.32,49.8Z"/><path class="cls-3" d="M425.85,49.79a6.35,6.35,0,0,0-3.41.51.84.84,0,0,1-1.06-.28h0a.77.77,0,0,1,.45-1.06,7.88,7.88,0,0,1,4.2-.63.76.76,0,0,1,.74.88h0A.82.82,0,0,1,425.85,49.79Z"/></g><g class="cls-8"><polygon class="cls-2" points="503.36 260.26 346.14 282.92 323.32 124.59 482.69 116.87 503.36 260.26"/><path class="cls-3" d="M409.81,257.33a8.72,8.72,0,0,1-6.63-1l4.7-6S410,252.64,409.81,257.33Z"/><path class="cls-4" d="M415.21,274.05l6.33,20.73,51.12-9.86.06-31.86S423.93,254,415.21,274.05Z"/><line class="cls-9" x1="407.95" y1="250.54" x2="389.77" y2="273.05"/><path class="cls-4" d="M410.91,246.89l-20.79,25.76a14.55,14.55,0,0,1-10,5.36h0a14.56,14.56,0,0,1-11.78-4.33h0a23.58,23.58,0,0,1-3.54-4.66l-23-39.71,7-4.19,27,27.38,29.21-42.33c13.16,13.1,8.06,24.44,8.06,24.44l-2.22,12.28Z"/><path class="cls-5" d="M469.82,223.31l-10.94-8.14c-9.42-5.51-9.68-13.39-9.68-13.39l-36.88,5.32a14.71,14.71,0,0,0-3,.77l-.76,45.35,4,30.28c8.82-10.35,18.77-7.57,22.7-5.86a31,31,0,0,0,9,2.4c5,.54,9.33-.16,12.32-1.9,4.67-2.71,7-9.95,10.18-13.51,7.69-8.66,18.18,2.89,18.18,2.89Z"/><path class="cls-5" d="M401.23,212.84l-15.8,24.86s1.47,9.29,12.42,8.74,12,10.89,12,10.89l3-3.74-3.47-45.72C406.91,208.52,403.21,209.34,401.23,212.84Z"/><path class="cls-10" d="M486.44,298.84c-5.12-7.29-9.95-9.95-12.25-10.85a7.62,7.62,0,0,0-1.39-.45l-51.54,7.53-.87,1.33h0l-6,12.82Z"/><path class="cls-7" d="M484.9,267.52s-4.58,6.5-12.2,7.5l0-13.54S478.32,260.46,484.9,267.52Z"/><path class="cls-7" d="M412.56,283.5a8.37,8.37,0,0,0,5.76.74l-1.43-4.86A23,23,0,0,0,412.56,283.5Z"/><polygon class="cls-10" points="474.19 287.99 474.2 288.05 420.45 296.92 420.39 296.41 419.41 287.81 426.84 286.75 437.81 285.15 472.71 280.11 474.19 287.99"/><path class="cls-11" d="M418.32,284.24s3.82-7.3,10.81-8.22c0,0-5.8-.91-12.24,3.36Z"/><path class="cls-11" d="M463.54,269.3s5.07-5.51,9.16-4.51l0-3.31S467.46,261,463.54,269.3Z"/><path class="cls-4" d="M421.63,201.25s-9.62-.33-10.3-15.91c0,0-.61-12.79.38-16.92l25.39-1.7,3.46,36.3-9.72,8.64L422,206Z"/><path class="cls-3" d="M415.91,198.39s-2.77,2.19-5.45,1.2c-3.36-1.23-3.34-3.63-2.82-5.66a5.76,5.76,0,0,1-8.44-5.82,1.78,1.78,0,0,1-1.76.27,1.23,1.23,0,0,1-.69-1.58,1.05,1.05,0,0,1-1.34-.69,1.78,1.78,0,0,1,.38-1.6,1.83,1.83,0,0,1-2.24-.94,2.88,2.88,0,0,1,.16-2.57,4.82,4.82,0,0,1-2.6-.81,7.6,7.6,0,0,1-2.1-1.48,6.3,6.3,0,0,1-1.06-1.83,12.29,12.29,0,0,1-.87-6.74,8.64,8.64,0,0,1,3.56-5.68,3.21,3.21,0,0,1-1.41-3.45,2.87,2.87,0,0,1,3-1.85,5.36,5.36,0,0,1,5.65-7.82,4.68,4.68,0,0,1,6.53-5.05c-.19-3.31,2.63-6.2,5.8-7.17,2-.62,4.6-.47,5.82,1.27a2.89,2.89,0,0,1,5.23-1.44,3.21,3.21,0,0,1,2.55-2.06,2.27,2.27,0,0,1,2.47,1.88c-.14-1.59,2.18-3.23,3.34-3.88a10.22,10.22,0,0,1,6-1.26c3.48.36,8.52,3.16,7.48,7.36a3.27,3.27,0,0,1,5.7.68,2.32,2.32,0,0,1-.5,2.88,7.58,7.58,0,0,1,8.84,2.75,9.59,9.59,0,0,1,.52,9.53,5.71,5.71,0,0,1,4.13,1,9.15,9.15,0,0,1,2.81,3.27,13.14,13.14,0,0,1,1.33,9.07c-.41,1.81-1.5,3.75-3.33,4a2.52,2.52,0,0,1-1.31,4.68,11.14,11.14,0,0,1-.08,7.06,8,8,0,0,1-5.1,4.91,3.78,3.78,0,0,1-2.77-.15,2.63,2.63,0,0,1-3.88,2.71,4.48,4.48,0,0,1-1.94,3.77,7.93,7.93,0,0,1-7.47.43l-1.56-16.21s-5.3,3.05-6.87-2.1c0,0-.42-7.27-2.81-8.08a2.21,2.21,0,0,0-3,1.48,2.48,2.48,0,0,1-3.63-.78c-1.42-2.3-4.51-1.6-4.82.3a4.2,4.2,0,0,1-6.14,2.94C411.31,185.16,410.67,192.55,415.91,198.39Z"/><path class="cls-4" d="M435.17,186.64c.5,2.72,1.67,4.78,4.39,4.28s5.95-3.38,5.45-6.1a5,5,0,1,0-9.84,1.82Z"/><polygon class="cls-5" points="440.26 200.08 446.71 202.14 436.38 215.06 430.69 211.33 440.56 203.02 440.26 200.08"/><polygon class="cls-5" points="421.73 202.64 416.26 206.84 425.33 216.05 430.69 211.33 421.98 205.77 421.73 202.64"/><path class="cls-4" d="M436.44,215.51a.45.45,0,0,1-.31-.07l-5.69-3.73a.45.45,0,0,1-.13-.63.46.46,0,0,1,.63-.13l5.34,3.51,10.08-12.6a.46.46,0,1,1,.71.57l-10.34,12.92A.47.47,0,0,1,436.44,215.51Z"/><path class="cls-4" d="M425.4,216.5a.47.47,0,0,1-.39-.13l-9.07-9.21a.45.45,0,1,1,.64-.63l8.77,8.9,5-4.44a.45.45,0,1,1,.6.68l-5.36,4.72A.54.54,0,0,1,425.4,216.5Z"/><path class="cls-3" d="M421.63,201.25s8,0,11.71-4.31c0,0-1.89,5.44-11.53,6.7Z"/><path class="cls-3" d="M423.31,179c.25.39,1.52,0,2.83.32s2.39,1,2.76.72-.39-2-2.45-2.4S423,178.68,423.31,179Z"/><path class="cls-3" d="M412,180.09c.35.3,1.47-.38,2.82-.46s2.56.31,2.85,0-.93-1.83-3-1.65S411.57,179.82,412,180.09Z"/><path class="cls-3" d="M419.88,191.93h-.11c-.22-.05-2.17-.47-2.4-1.51-.12-.51.17-1,.85-1.53,2.26-1.68,1.42-6.64,1.41-6.69a.33.33,0,0,1,.27-.38h0a.32.32,0,0,1,.37.27c0,.22.91,5.4-1.67,7.32-.44.33-.66.64-.61.86.12.5,1.33.9,1.9,1a.34.34,0,0,1,.26.39A.34.34,0,0,1,419.88,191.93Z"/><path class="cls-3" d="M422.48,195.39a4.71,4.71,0,0,1-.57-.14.33.33,0,0,1-.21-.41.34.34,0,0,1,.41-.22,2.45,2.45,0,0,0,3.06-1.19.32.32,0,1,1,.59.27A3.13,3.13,0,0,1,422.48,195.39Z"/><ellipse class="cls-3" cx="415.34" cy="183.83" rx="1.07" ry="1.6" transform="translate(-21.97 61.11) rotate(-8.2)"/><ellipse class="cls-3" cx="425.64" cy="183.13" rx="1.07" ry="1.6" transform="translate(-2.84 6.74) rotate(-0.9)"/><path class="cls-5" d="M441.9,195.38a3.9,3.9,0,0,1-3-.91,5.45,5.45,0,0,1-1.24-6.71,3.89,3.89,0,0,1,2.66-2,.45.45,0,0,1,.52.37.44.44,0,0,1-.36.52,3,3,0,0,0-2,1.53,4.56,4.56,0,0,0,1,5.56,3,3,0,0,0,2.45.7,3,3,0,0,0,2-1.53,4.38,4.38,0,0,0,.46-3,4.71,4.71,0,0,0-.52-1.43.45.45,0,1,1,.79-.45,5.43,5.43,0,0,1,.61,1.72,5.25,5.25,0,0,1-.55,3.57,3.86,3.86,0,0,1-2.66,2Z"/><path class="cls-4" d="M449.2,201.78l11-1.22s13.61-.76,15.88,10.82c1.28,6.56-13.17,37.55-20.89,52.06a18.62,18.62,0,0,1-13.62,9.66h0c-6.07.93-.68,15.17-4.87,10.7l-7.65-12.24,6.31-11.31,2.18-13,16-36.24S449.75,206.68,449.2,201.78Z"/><path class="cls-5" d="M477.45,219.64c-.06-6.18-1.73-13.6-7.51-16.85a18.82,18.82,0,0,0-9.65-2.23h-.08l-11.66,1.3c.54,4.89,5,9.13,5,9.13l-10.08,22.29s6.74,3.94,17.3-.32c11.06-4.47,15.09,4.74,15.09,4.74Z"/><path class="cls-3" d="M443,233.58a.49.49,0,0,1-.29,0,.53.53,0,0,1-.26-.7l6.5-13.72a.53.53,0,0,1,.7-.26.53.53,0,0,1,.25.7l-6.49,13.72A.53.53,0,0,1,443,233.58Z"/><path class="cls-3" d="M469.91,232.31s4.5,1.19,5.93,5.39a15,15,0,0,1-9.18,2Z"/><path class="cls-4" d="M455.77,291.77l-35.31,5.09a.45.45,0,1,1-.13-.89l35.31-5.09a.45.45,0,0,1,.13.89Z"/></g><g class="cls-12"><rect class="cls-2" x="443.37" y="111.75" width="254.21" height="204.4"/><path class="cls-7" d="M498.31,257.14a9.26,9.26,0,0,0,4.75,2.77l.44-3.74A6.19,6.19,0,0,0,498.31,257.14Z"/><path class="cls-4" d="M503.26,245l-3.46,22.35-28.32-26.82-8.72,5.71,25.87,41a21.55,21.55,0,0,0,23,8.68l6.61-1.66,2.58-44.11Z"/><path class="cls-5" d="M505.69,256.54c2.92.77,5.55,2.37,8.3,3.61a8.36,8.36,0,0,0,3.6,1,5.59,5.59,0,0,0,1.67-.3L509,320.52h91.67L600.56,303,591,270.92h0l.15-1.91c2.63-.38,5.49.51,8,1.61,3.36,1.48,6.79,3.35,10.44,3.06s4.27-2.74,8-3a9.21,9.21,0,0,1,6.8,2.45s-.94-6.79-2.06-14.55c-.51-3.43-1-7-1.56-10.33-.88-5.79-1.7-10.64-2.09-11.88a32.67,32.67,0,0,0-11.7-16.85l-1.16-.85a28,28,0,0,0-5.27-3.06,49.65,49.65,0,0,0-9.3-2.82l-2.49-.4-9.8-1.6-3.64-.38-23.18-1-4.68.1-13.22.23c-8.66.52-12.42,2.41-18.79,8.07l-.78.69c-2.32,2.06-5.31,8.35-8.11,15.36-1.51,3.76-3,7.74-4.24,11.38-1.78,5.07-3.22,9.53-4,11.88A10.14,10.14,0,0,1,505.69,256.54Z"/><path class="cls-3" d="M591.22,268.5h0a.58.58,0,0,1-.52-.61l2.57-32.39a.56.56,0,0,1,.6-.52.58.58,0,0,1,.52.61L591.78,268A.56.56,0,0,1,591.22,268.5Z"/><path class="cls-3" d="M519.43,260.3h-.09a.57.57,0,0,1-.47-.64l4.54-30a.56.56,0,0,1,.64-.47.57.57,0,0,1,.48.64l-4.55,30A.56.56,0,0,1,519.43,260.3Z"/><path class="cls-4" d="M547.49,211.25a15.75,15.75,0,0,0,31.43-.47l-3.64-.37-23.18-1-4.68.09A16.6,16.6,0,0,0,547.49,211.25Z"/><path class="cls-4" d="M563.16,226.28a16.13,16.13,0,0,1-10.4-3.79,16.37,16.37,0,0,1-5.83-11.19,15.83,15.83,0,0,1-.07-1.78l1.13,0a16.1,16.1,0,0,0,.06,1.66,15.2,15.2,0,0,0,5.43,10.42,15,15,0,0,0,11,3.47,15.34,15.34,0,0,0,13.83-14.34l1.12.06a16.46,16.46,0,0,1-14.85,15.4C564.14,226.25,563.65,226.28,563.16,226.28Z"/><path class="cls-4" d="M553.11,326.26c.13,0,2.81,17.72,2.94,17.83C562.61,349,569,332,575.53,336.92c3.48,2.61,13.42-12.87,16.92-10.3,3.29,2.42,4.84-8.31,8.27-6.06,5.61,3.72-7.15-6-.66-8.14a3,3,0,0,0,.45-.17c6-2.19,9.52-7.56,11.42-13.48l6.69-28.09a7.64,7.64,0,0,0-1.07,0c-3.72.25-4.29,2.7-8,3s-7.07-1.58-10.43-3.06c-2.47-1.09-5.39-2-8-1.61l-1.9,15.28L566.9,307Z"/><path class="cls-4" d="M475.77,246.25,473,243.12l5-11.42-.21-.09a2.41,2.41,0,0,0-2.9.83L470.6,238l-3.74-4.33L461.65,225a.87.87,0,0,0-1.18-.3h0a.86.86,0,0,0-.35,1.11l3.93,8.5-.29.24-6.86-9.07a.9.9,0,0,0-1.2-.22h0a.9.9,0,0,0-.27,1.25l6.27,9.63-.27.28-6.62-7a.84.84,0,0,0-1.21,0h0a.84.84,0,0,0-.05,1.1l6.42,8.17-.35.41-6-3.78a.83.83,0,0,0-1.09.2h0a.81.81,0,0,0,.13,1.1l6.24,5.3,7.57,9.46Z"/><path class="cls-4" d="M572.69,186.38a6,6,0,1,0,6.1-5.65A5.87,5.87,0,0,0,572.69,186.38Z"/><polygon class="cls-4" points="576.14 206.41 576.78 170.91 544.81 169.34 544.07 211.34 576.04 211.85 576.14 206.41"/><path class="cls-3" d="M567.47,174.09s2.15,14.77-4.52,17.08c0,0-13.35,5.13-18.46-2.82,0,0-1.86,13-7.91,20.12a6,6,0,0,0-.59,7.25c1.8,2.76,5.63,5.53,13.8,5.2,15.79-.66,22.09-21.5,25-30.1l1.84-9.72s5-1.23,7.25,2.47c0,0,4.13-3.5,2.52-7.56s-5.69-5-9.59-5.09l-9.67-.16Z"/><path class="cls-3" d="M576.62,173c2.9-2.17,6.48-2.63,9.88-2.85a37,37,0,0,1,10.14.48A18.21,18.21,0,0,0,586.13,168a14.12,14.12,0,0,0-5.38,1.45A10.23,10.23,0,0,0,576.62,173Z"/><path class="cls-3" d="M577.38,172.61a15.72,15.72,0,0,0,3.75-5.55,9.31,9.31,0,0,0,.25-6.73,31.78,31.78,0,0,1-1.75,6.15A57.86,57.86,0,0,0,577.38,172.61Z"/><path class="cls-3" d="M559.39,182.5c0,.89-.49,1.64-1.15,1.66s-1.23-.69-1.25-1.59.48-1.64,1.15-1.66S559.37,181.6,559.39,182.5Z"/><path class="cls-3" d="M550,182.87c0,.9-.49,1.64-1.16,1.66s-1.22-.69-1.25-1.59.49-1.64,1.15-1.66S550,182,550,182.87Z"/><polygon class="cls-4" points="554.25 179.64 550.57 190.08 555.44 191.19 554.25 179.64"/><path class="cls-3" d="M555.39,191.54h0l-4.87-1.11a.33.33,0,0,1-.23-.17.33.33,0,0,1,0-.29l3.67-10.44a.37.37,0,0,1,.46-.22.36.36,0,0,1,.21.46L551,189.82l4.48,1a.36.36,0,0,1-.13.7Z"/><path class="cls-3" d="M562.89,176.22a.75.75,0,0,1-.78.67l-4.14-.21a1.09,1.09,0,0,1-1-1.23h0a1.11,1.11,0,0,1,1.33-.94l4,.88a.76.76,0,0,1,.58.83Z"/><path class="cls-3" d="M545.4,177.3a.76.76,0,0,0,.79.67l4.13-.2a1.12,1.12,0,0,0,1-1.23h0a1.1,1.1,0,0,0-1.33-.94l-4,.87a.76.76,0,0,0-.59.83Z"/><path class="cls-3" d="M568.36,175.14s-12.23,1.78-16.54-5.49c0,0-2.78,4.06-7.12,5.29a34.34,34.34,0,0,1,.42-9,11.22,11.22,0,0,1,8.5-9.27,11.55,11.55,0,0,1,7.94,1.28s7.81-5.58,14.07.19,2.1,14,2.1,14Z"/></g><g class="cls-13"><rect class="cls-2" x="290.34" y="-23.79" width="436.17" height="320.85" transform="translate(9.01 -29.94) rotate(3.4)"/><path class="cls-7" d="M367.77,339.47a17.21,17.21,0,0,0,5.39,13.46L383.86,340S374.16,334.76,367.77,339.47Z"/><path class="cls-7" d="M488.45,359.78s10.08,5.07,19.76-5.7c0,0-5.41-5.6-15.92-4.28C492.29,349.8,486.37,350.92,488.45,359.78Z"/><path class="cls-14" d="M413.25,349.85l-42.81,32.41L357.9,371.54l44-53.67S415.52,333.22,413.25,349.85Z"/><path class="cls-14" d="M518.52,341.54l9.61,49.34-17.55-1-20.08-50S504.5,332.3,518.52,341.54Z"/><path class="cls-15" d="M389.65,368.52,525.07,263.75l-21-48.78L367.77,339.47s12.22-5.39,10.61,10.13S389.65,368.52,389.65,368.52Z"/><path class="cls-16" d="M565.11,400.44l-72.94-4.34a.62.62,0,0,1-.58-.66.62.62,0,0,1,.65-.58l73,4.34a28.76,28.76,0,0,0,30.14-33l-15-99.08a.62.62,0,0,1,.51-.71.63.63,0,0,1,.71.52l15,99.09a30,30,0,0,1-31.44,34.45Z"/><path class="cls-16" d="M587.47,267.38S637.79,211.05,600.59,155L580,175.44l-24.24,55.18,9.55,35.44Z"/><path class="cls-7" d="M578.87,275.08l-76.67-4.56-1.89-8.24,87.16,5.1h0A8.17,8.17,0,0,1,578.87,275.08Z"/><path class="cls-15" d="M582.94,179.37l-.53,8.89s-.86,6.23,2.39,20.65c3,13.29,6.86,46.06-12.57,55.44a18.23,18.23,0,0,1-9,1.68l-62.94-3.75,21.62,90.33s-1.78,5.68-19.53-.2-13.95,7.37-13.95,7.37L456,257s-.08-.29-.2-.82a31.77,31.77,0,0,1,26.93-38.38L504.09,215l21.55-17.54,1.27-21.4Z"/><path class="cls-17" d="M504.05,215.59a.62.62,0,0,1,0-1.23l45.77-2.83a.62.62,0,1,1,.08,1.23l-45.77,2.83Z"/><path class="cls-17" d="M469.81,301.4a.63.63,0,0,1-.55-.44L455.4,257.18a.61.61,0,0,1,.4-.78.63.63,0,0,1,.78.41l13.86,43.78a.63.63,0,0,1-.4.78A.91.91,0,0,1,469.81,301.4Z"/><path class="cls-7" d="M488.46,133.69s.62,5.77,4.23,7.32l4.53-5.27A8.32,8.32,0,0,0,488.46,133.69Z"/><path class="cls-4" d="M484.31,145.29l-22.12-16.92-8.55,3.41,21.27,29.45c4.2,3.84,7.48,5.16,12.4,5.25Z"/><path class="cls-4" d="M495.94,134.3l-12.29,11.11.33,20.8c.37.09.74.18,1.11.24,5.15.86,10.48-.63,15-3.08l18.46-12.67Z"/><path class="cls-3" d="M524.33,146.14l-2.83,2.8L515,155.37c-8.24-1.41-12.15-7.93-12.73-10.93a14.94,14.94,0,0,0-2.69-6.37c-4.72-6-10.73-4.47-11.09-4.38l18.15-17.28,2.46-2.33,5.18-4.92a32,32,0,0,1,6.25-4.67c.24-.15.49-.29.74-.42l1.48-.8.1,0Z"/><path class="cls-3" d="M585.93,144.21l0,0-.41,3.88-4.85,46.61-54.76-.18-1.39-41.69a12,12,0,0,1-3-3.86,17,17,0,0,1-.89-1.94l-.32.3.21-42.81v-.15l2.22-1.07.1,0a29.78,29.78,0,0,1,9.81-2.83,29.48,29.48,0,0,1,4.88-.12l8.16.49,28.89,2.4,2,.15a39.85,39.85,0,0,1,8.21,1.33c1.33.4,2.65.84,3.93,1.35,0,0,0,0,0,0l.21.07v0Z"/><path class="cls-3" d="M521.8,148.3a.25.25,0,0,0,.12,0,.32.32,0,0,0,.18-.41c-4.51-11.5,2.54-24.83,2.62-25a.34.34,0,0,0-.13-.44.32.32,0,0,0-.43.13c-.08.14-7.27,13.73-2.65,25.5A.3.3,0,0,0,521.8,148.3Z"/><path class="cls-4" d="M576.53,103.32c-2.71,14.75-13.26,23.85-24.74,22.56-11-1.23-19-11.29-19.16-25.48a29.48,29.48,0,0,1,4.88-.12l8.16.49,28.89,2.4Z"/><path class="cls-4" d="M520.29,151.22a.64.64,0,0,0,.13-1.26c-9.77-2-12.38-9.45-13-12.55a13.85,13.85,0,0,0-1.55-4.17c-4.56-7.58-13.19-5.08-13.27-5.06a.65.65,0,0,0-.43.8.64.64,0,0,0,.79.42c.32-.09,7.78-2.22,11.82,4.5a12.44,12.44,0,0,1,1.4,3.78c.72,3.34,3.53,11.36,14,13.53Z"/><path class="cls-18" d="M600.23,114.4a7.92,7.92,0,0,1-7.91,4.59l.32-3.35a4.53,4.53,0,0,0,4.84-3.68c.71.58,1.4,1.18,2.06,1.78Z"/><path class="cls-3" d="M556.29,156.28a.32.32,0,0,0,0-.63L525,152.12a.32.32,0,1,0-.07.63l31.36,3.53Z"/><path class="cls-4" d="M554,126.65c11.21,0,20.51-9,23-22.74a.65.65,0,0,0-.51-.74.64.64,0,0,0-.74.51c-2.58,14-12.43,22.87-24,21.57A19.41,19.41,0,0,1,538,117a23.36,23.36,0,0,1-1.69-2.8,29.44,29.44,0,0,1-3-13.21.63.63,0,0,0-.63-.63h0a.64.64,0,0,0-.63.64,30.63,30.63,0,0,0,3.15,13.77,22.15,22.15,0,0,0,1.79,3,20.66,20.66,0,0,0,14.78,8.84A22.51,22.51,0,0,0,554,126.65Z"/><path class="cls-7" d="M607,153.48s-2.48,5.42-6.89,4.87l1-4S603.05,155.75,607,153.48Z"/><path class="cls-3" d="M579.22,104.84l-6.35,33.69.18,5.76.17,9.07s8.34-10.54,18.72-3.94c11.35,7.22,11.5,5.9,15,4.07q-.27-7.45-.56-14.91c-.3-8.06,0-16.19-4.79-23.15a26,26,0,0,0-13.57-9.82c-2.12-.69-4.62-1.63-6.9-1.34C581.09,104.27,579.11,104.69,579.22,104.84Z"/><path class="cls-4" d="M603.05,147.6a13.06,13.06,0,0,0,3.86-.58.63.63,0,1,0-.38-1.21c-3.21,1-8.32,1-14.4-4.37a11.69,11.69,0,0,0-8.87-3.35c-5.73.44-9.81,5.31-10,5.52a.63.63,0,0,0,.09.89.63.63,0,0,0,.89-.08s3.92-4.67,9.11-5.07a10.53,10.53,0,0,1,7.92,3C595.78,146.38,599.82,147.59,603.05,147.6Z"/><path class="cls-3" d="M573.22,153.68a.3.3,0,0,0,.25-.12,15,15,0,0,1,3-2.83.32.32,0,0,0,.08-.44.31.31,0,0,0-.44-.09,15.14,15.14,0,0,0-2.59,2.32l0-1.27.6-22.6a.32.32,0,0,0-.31-.33.34.34,0,0,0-.33.31l-.59,22.62,0,2.12a.31.31,0,0,0,.22.29A.18.18,0,0,0,573.22,153.68Z"/><path class="cls-4" d="M575.9,179.77l.74-29.68c9.12-6.26,15.29-.67,15.29-.67a64.75,64.75,0,0,0,10.14,5.34q-.55,5.81-1.12,11.61c-.61,6.35-.55,12.68-3.07,18.67a19.25,19.25,0,0,1-5.53,7.66c-2.85,2.3-6.14,3.14-9.56,4.17-3.77,1.15-37.55,6.38-37.91,6.5l-2.58-8.16Z"/><path class="cls-4" d="M544.91,194.07l-2.86.84a13.66,13.66,0,0,0-6.12,3.75h0a13.55,13.55,0,0,0-3.31,6.14,27.79,27.79,0,0,0-.74,6.09l-.07,7.51a.68.68,0,1,0,1.36,0q1.14-6.06,2.27-12.1l1.41,13.47a1.19,1.19,0,1,0,2.37,0c0-.53,0-1.06,0-1.59a1,1,0,0,0,2,0l.33-2.13a.78.78,0,1,0,1.45,0c.1-3.7.21-7.4.31-11.1a3.56,3.56,0,0,1,1.62-1.61Z"/><path class="cls-19" d="M539.17,218.45h0a.24.24,0,0,0,.23-.25L539,206.32a.23.23,0,0,0-.25-.23.24.24,0,0,0-.23.25l.46,11.88A.23.23,0,0,0,539.17,218.45Z"/><path class="cls-19" d="M541.5,216.32h0a.25.25,0,0,0,.23-.26l-.56-9.74a.26.26,0,0,0-.26-.22.24.24,0,0,0-.22.25l.56,9.74A.23.23,0,0,0,541.5,216.32Z"/><path class="cls-14" d="M438.93,109.07l-.06,0a2.23,2.23,0,0,0-.83,2.65l.09.25,1-.5Z"/><path class="cls-14" d="M439.08,113.58l-1,.93a2.2,2.2,0,0,0-.43,2.81l.22.37,1-.62Z"/><path class="cls-14" d="M438.81,118.5l-.43.26,0,0a2.05,2.05,0,0,0,.19,3.48l.37.22-.14-1.28Z"/><path class="cls-14" d="M438.74,123.31l-.64-.34a1.91,1.91,0,0,0,.1,2.38l.51.65Z"/><path class="cls-16" d="M439,106.41l-.29,21.76c5.3,1.49,11.59,1.28,18.36.25l.29-21.51A48.28,48.28,0,0,0,439,106.41Z"/><path class="cls-4" d="M463,130.5l-2-7.45-1.53-6.74-3.87-5.86a3.89,3.89,0,0,0,.05,4.11l1.53,3.31L457,128.42c-1,.17-2.7.39-5.42.64l2.31,3.12Z"/><path class="cls-16" d="M457.21,125.42,457.1,124l0-1.39a5.08,5.08,0,0,0,5.25-5,5.23,5.23,0,0,0-5.17-5.15l.08-1.37,0-1.39h.12a7.84,7.84,0,0,1-.21,15.68Z"/><path class="cls-4" d="M533.63,64s-6.48,28.86,10.78,30.39l1,10.55,23-1.56L565,66.81S548.38,45.86,533.63,64Z"/><path class="cls-3" d="M561.66,78.64s-6.78,0-9.22-7.78a13.13,13.13,0,0,0-4.18-6.11c-3.52-2.93-9.13-5.74-14.63-.74,0,0,.44-9.89,5.23-14.66,0,0,10-11.65,26.91-3.73,10.67,5,12.42,15.53,12.27,22.64A24.63,24.63,0,0,0,583,83.59c2.31,3.11,5.09,6.64,7.88,9.73,0,0-7.77,8.86-33.67,7.31,0,0-3-10.25,6.17-14.62Z"/><path class="cls-4" d="M573.33,81.19a6.3,6.3,0,1,1-6-6.57A6.3,6.3,0,0,1,573.33,81.19Z"/><path class="cls-3" d="M568.54,47.16s-.19-18.74,24.15-14.7c0,0,1.07,18-19.25,19.28Z"/><path class="cls-3" d="M544.41,94.4s7.22-.37,10.68-4.34c0,0-2,4.82-10.54,5.86Z"/><path class="cls-3" d="M543.46,76.26c0,.9.42,1.63,1,1.65s1-.7,1.07-1.59-.42-1.64-1-1.65S543.48,75.37,543.46,76.26Z"/><path class="cls-3" d="M535.46,76.07c0,.89.42,1.63,1,1.64s1.06-.7,1.08-1.59-.43-1.63-1-1.65S535.48,75.17,535.46,76.07Z"/><path class="cls-3" d="M536.55,71.84c1.16-.29,2.19.07,2.44-.21s-.79-1.48-2.63-1.14-2.54,2.1-2.18,2.26S535.38,72.05,536.55,71.84Z"/><path class="cls-3" d="M545.38,72.43c1.15.33,1.86,1.15,2.22,1s0-1.67-1.72-2.29-3.25.56-3,.88S544.25,72,545.38,72.43Z"/><path class="cls-3" d="M545.55,84.47a3.5,3.5,0,0,1-6.93,1Z"/><path class="cls-3" d="M540.25,82.64h-.07c-.27-.06-1.64-.38-1.91-1.26a1.24,1.24,0,0,1,.41-1.29c.86-.9,1.23-3.74,1.3-4.76a.5.5,0,0,1,.52-.47h0a.49.49,0,0,1,.46.52c0,.41-.3,4.06-1.57,5.38-.14.15-.19.27-.18.32.07.2.68.48,1.17.58a.49.49,0,0,1,.39.58A.5.5,0,0,1,540.25,82.64Z"/><path class="cls-3" d="M533.2,66.34s3.38,3.35,7.25-.81S547,63.77,547,63.77l-3.85-9.25L534.55,58s-8.66-.64-8.4,11.3c.2,9.47,6.42,9.52,6.42,9.52Z"/><path class="cls-17" d="M503.55,277.16a.61.61,0,0,1-.57-.48l-3.27-14.26a.62.62,0,0,1,1.2-.28l3.28,14.27a.62.62,0,0,1-.46.74A.55.55,0,0,1,503.55,277.16Z"/><path class="cls-20" d="M359.26,370.8l-14.83-8.05a8.13,8.13,0,0,0-9.57,1.33h0l23.28,23.09a5,5,0,0,0,6.29.7l6-5.61Z"/><path class="cls-20" d="M354,365.56a1.19,1.19,0,0,0,.13-.18,10.21,10.21,0,0,0,1.2-2.34,5.86,5.86,0,0,0,.25-3.6,7.3,7.3,0,0,0-2-3.37,3.15,3.15,0,0,0-3-.91c-1.91.58-2.72,3.34-1.84,6.3a4.94,4.94,0,0,0,1,1.83,9.84,9.84,0,0,0,3.64,2.45l.35.13Zm-4.26-4.38c-.69-2.34-.16-4.63,1.15-5a2.15,2.15,0,0,1,2,.68,6.24,6.24,0,0,1,1.71,2.89c.57,1.89-.65,4.07-1.19,4.88C352.49,364.21,350.27,363.06,349.71,361.18Z"/><path class="cls-20" d="M353.5,365.26a.52.52,0,0,0,.73.06l7.64-6.57a.52.52,0,0,0-.68-.78l-7.63,6.56A.51.51,0,0,0,353.5,365.26Z"/><path class="cls-20" d="M357,369.73l1.43-2.62a3.35,3.35,0,0,1,4.73-1.21l1.7,1.07-5.08,5.61Z"/></g></g></svg>