<?xml version="1.0" encoding="utf-8"?>
<!-- Generator: Adobe Illustrator 24.2.3, SVG Export Plug-In . SVG Version: 6.00 Build 0)  -->
<svg version="1.1" id="Layer_1" xmlns="http://www.w3.org/2000/svg" xmlns:xlink="http://www.w3.org/1999/xlink" x="0px" y="0px"
	 viewBox="0 0 100.6 100.6" style="enable-background:new 0 0 100.6 100.6;" xml:space="preserve">
<style type="text/css">
	.st0{fill:#03304F;}
	.st1{fill:#2BD88D;}
	.st2{fill:#FFFFFF;}
	.st3{enable-background:new    ;}
</style>
<g id="Conteudo">
	<path class="st0" d="M37.5,82.4c2.1-2.3,3.5-5.2,4-8.3h17.5c0.5,3.1,1.9,6,4,8.3H37.5z"/>
	<path class="st1" d="M58.6,74.6c0.5,2.7,1.7,5.2,3.4,7.3H38.6c1.7-2.1,2.9-4.6,3.4-7.3H58.6 M59.5,73.6H41.1
		c-0.3,3.1-1.9,6.2-4.7,9.3h27.8C61.4,79.8,59.8,76.7,59.5,73.6z"/>
	<path class="st0" d="M20.2,24.9h60.2c1.5,0,2.6,1.2,2.6,2.6v43.4c0,1.5-1.2,2.6-2.6,2.6H20.2c-1.5,0-2.6-1.2-2.6-2.6V27.6
		C17.6,26.1,18.7,24.9,20.2,24.9z"/>
	<path class="st0" d="M65.3,82.9H35.3c-1.9,0-3.4,1.5-3.4,3.4h36.7C68.7,84.4,67.1,82.9,65.3,82.9z"/>
	<circle class="st1" cx="50.3" cy="69.7" r="1.5"/>
	<rect x="20.8" y="28.2" class="st2" width="59" height="37.9"/>
	<rect x="30" y="33.6" class="st1" width="40.7" height="27"/>
	<rect x="30" y="33.6" class="st0" width="40.7" height="5.1"/>
	<path class="st0" d="M49.2,42.4l-7.6,13.2c-0.3,0.6-0.1,1.3,0.4,1.7c0.2,0.1,0.4,0.2,0.6,0.2h15.3c0.7,0,1.2-0.5,1.2-1.2
		c0-0.2-0.1-0.4-0.2-0.6l-7.6-13.2c-0.3-0.6-1.1-0.8-1.7-0.4C49.5,42,49.4,42.2,49.2,42.4z"/>
	<g class="st3">
		<path class="st1" d="M49.5,54.8c-0.2-0.2-0.3-0.4-0.3-0.7c0-0.3,0.1-0.5,0.3-0.7c0.2-0.2,0.5-0.3,0.8-0.3c0.3,0,0.6,0.1,0.8,0.3
			c0.2,0.2,0.3,0.4,0.3,0.7c0,0.2,0,0.4-0.1,0.5c-0.1,0.1-0.2,0.3-0.4,0.3C50.7,55,50.5,55,50.3,55C50,55,49.7,54.9,49.5,54.8z
			 M49.8,52.5L49.4,50v-2.7h1.7V50l-0.4,2.6H49.8z"/>
	</g>
</g>
</svg>
