<svg xmlns="http://www.w3.org/2000/svg" viewBox="0 0 100.61483 100.61483"><defs><style>.cls-1,.cls-4{fill:#03304f;}.cls-2{fill:#fff;}.cls-3{fill:#fcdc56;}.cls-4{stroke:#03304f;stroke-miterlimit:10;stroke-width:0.5px;}</style></defs><g id="Conteudo"><path class="cls-1" d="M97.54629,98.9233s9.03115,14.97849-9.839,24.74213C87.70724,123.66543,81.73918,105.4004,97.54629,98.9233Z"/><path class="cls-2" d="M156.844,80.38955l-5.38151,3.7047.12548.26022,3.24532-1.10535a.83933.83933,0,0,1,.58186,1.574l-8.35755,4.19508S123.78439,128.583,111.37218,130.845c0,0-9.86665-.15011-21.346-7.16649q-1.80027-1.10063-3.64259-2.43384a177.08437,177.08437,0,0,0,9.25978-19.56837l4.63057,2.66532,9.211,5.30217,32.442-30.003.94719-7.02547a1.93265,1.93265,0,0,1,1.87194,1.53005l.76161,3.5779,6.41382-2.90167a.91876.91876,0,0,1,.884,1.60427l-4.33133,2.85954.17986.37423,5.87681-3.313a.99891.99891,0,0,1,1.33931.34523.99829.99829,0,0,1-.2992,1.35466l-5.35544,3.55163.17843.3713,5.52756-3.0689a.87682.87682,0,0,1,.9224,1.48907Z"/><path class="cls-2" d="M16.13919,121.43213c-1.44093.903-2.82482,1.70281-4.15058,2.41242C-1.4064,131.012-8.8735,128.8918-8.8735,128.8918c-12.25578-2.99072-33.14838-43.864-33.14838-43.864l-8.094-4.68152a.83835.83835,0,0,1-.44771-1.00214.83964.83964,0,0,1,1.12112-.53526L-46.2697,80.104l.141-.25232-5.15288-4.01653a.87723.87723,0,0,1-.22675-1.11823.87827.87827,0,0,1,.78346-.45033.87472.87472,0,0,1,.45232.13739l5.33692,3.38982.20084-.35984-5.13687-3.86268a.99662.99662,0,0,1-.21768-1.36867.99691.99691,0,0,1,.83655-.42616.99586.99586,0,0,1,.52.159l5.67088,3.65684.20237-.36272-4.1557-3.11273a.91834.91834,0,0,1-.25166-1.18244.919.919,0,0,1,.82005-.46992.90744.90744,0,0,1,.40943.10472l6.23,3.27473.97285-3.5251a1.93224,1.93224,0,0,1,1.95907-1.41771l.52955,7.06906,30.61064,31.8682,7.76176-3.94549L6.06461,101.839A35.14532,35.14532,0,0,0,16.13919,121.43213Z"/><path class="cls-2" d="M36.84026,64.44157a15.1067,15.1067,0,0,0,13.78342,9.32367c10.92541.2047,12.97833-9.81749,12.97833-9.81749s4.25309.68841,5.42743-1.3343c0,0,2.00422-5.78469-4.92511-4.05169L62.04422,44.16925,35.1685,45.61766l-.3763,12.71318s-3.58625-.71806-3.2568,2.8675C31.89373,65.09844,36.84026,64.44157,36.84026,64.44157Z"/><path class="cls-1" d="M90.90027,77.10852c-3.77978-.37068-3.98071-2.94286-8.23385-3.02254-4.51957-.08469-4.57383,2.81154-9.092,2.72689s-4.46382-2.98089-8.982-3.06555c-3.14534-.05893-4.12736,1.32783-5.95926,2.1453a8.562,8.562,0,0,1-.54088-4.22563,13.03564,13.03564,0,0,0,5.36554-7.722c4.45355.13125,5.14062-1.981,5.14062-1.981,1.525-4.92571-4.49363-3.40153-4.49363-3.40153s-1.564-2.19066-8.57038-2.997c-7.00638-.80777-9.52328-8.42689-9.52328-8.42689C45.19829,57.20134,34.792,58.3304,34.792,58.3304a2.861,2.861,0,0,0-2.6255,1.03873,2.77348,2.77348,0,0,0-.08744,3.1187c1.5348,2.51314,4.76126,1.95357,4.76126,1.95357a15.99671,15.99671,0,0,0,6.81721,7.57689,11.208,11.208,0,0,1,.14879,1.80022c-2.11651.77882-3.00127,2.38037-6.37826,2.31709-4.51814-.08466-4.46388-2.98089-8.982-3.06554s-4.57242,2.81158-9.09057,2.72692c-4.18794-.07847-4.44683-2.57351-8.06324-3.00344,1.02282-3.64,3.76072-8.27651,7.60956-10.512,5.05857-2.93577,9.87633-6.39463,13.02946-15.64585,3.15459-9.24975,7.63335-13.40452,15.78092-13.50537,8.14605-.10232,17.3889,3.3433,19.67639,12.92681,2.2889,9.58352,14.07078,14.13278,18.87917,19.67549A18.70151,18.70151,0,0,1,90.90027,77.10852Z"/><path class="cls-1" d="M42.95468,35.47354s-5.71272-6.6539,1.51765-10.75585,12.82,2.48413,12.834,5.44181A7.57112,7.57112,0,0,1,54.872,35.266Z"/><path class="cls-2" d="M43.60247,71.7452s2.03994,8.01241-6.70481,10.92551c0,0,3.11531,10.34972,14.34853,10.25357s14.761-11.75975,14.761-11.75975-8.81777-1.07462-7.9087-9.78723a16.891,16.891,0,0,1-9.15214,1.948A13.83645,13.83645,0,0,1,43.60247,71.7452Z"/><path class="cls-3" d="M98.1055,104.79783a12.53759,12.53759,0,0,1-3.61311,7.89974c-1.05034,1.00882-2.29788,1.79814-3.33115,2.82468a13.06369,13.06369,0,0,0-3.454,8.14318l-8.55651-4.82053-3.49162,9.8417A130.29534,130.29534,0,0,1,86.11469,153.922c.413,1.38538.62119,2.18167.62119,2.18167-12.92545,15.73471-36.641,6.00324-45.63116.82109-8.99164-5.18074-17.94457,4.89329-17.94457,4.89329a54.352,54.352,0,0,1,1.08223-9.7478,189.16835,189.16835,0,0,1,5.8856-22.10294l-2.44587-10.01669-13.34986,6.92056c-.01992-.02064-.04121-.04279-.05965-.0634a11.95759,11.95759,0,0,0-2.52936-9.43016c-2.16-2.62336-5.54683-4.47877-6.40662-7.76587-.36764-1.40626-.2062-2.90981-.57974-4.31473a5.92023,5.92023,0,0,0-2.28721-3.25592c13.223-8.034,26.27863-16.18853,34.42742-19.37058a14.8705,14.8705,0,0,0,14.743,8.87094A16.07945,16.07945,0,0,0,66.00787,81.16471c11.24371,3.5092,25.33774,13.2299,31.53842,17.75859A16.85264,16.85264,0,0,1,98.1055,104.79783Z"/><path class="cls-4" d="M49.88923,66.32562a.177.177,0,0,1-.077-.01764l-1.72283-.829a.178.178,0,0,1-.05514-.27945c.91091-1.01209,1.28262-5.18924,1.28627-5.23131a.178.178,0,0,1,.35471.03077c-.01456.16793-.35041,3.93726-1.23416,5.25417l1.52552.73412a.178.178,0,0,1-.07732.33837Z"/><path class="cls-1" d="M66.36843,62.0712a.1781.1781,0,0,1-.15589-.0917c-.85324-1.53986.04433-2.2931.083-2.32439a.178.178,0,0,1,.22512.27579c-.03164.02669-.6977.61087.00335,1.876a.17809.17809,0,0,1-.15554.26433Z"/><path class="cls-1" d="M34.31117,62.50023a.17831.17831,0,0,1-.16593-.2425c.52978-1.36594-.24224-1.85364-.2501-1.85842a.178.178,0,1,1,.18461-.30439c.0425.02572,1.03394.65024.39743,2.29162A.1781.1781,0,0,1,34.31117,62.50023Z"/><path class="cls-1" d="M54.35889,58.61886c-.01465.78186-.44466,1.40784-.96046,1.39817s-.92206-.65132-.90742-1.43317.44466-1.40783.96047-1.39816S54.37355,57.837,54.35889,58.61886Z"/><path class="cls-1" d="M45.54316,58.61886c-.01465.78186-.44466,1.40784-.96046,1.39817s-.92206-.65132-.90742-1.43317.44466-1.40783.96047-1.39816S45.55782,57.837,45.54316,58.61886Z"/><path class="cls-1" d="M46.5495,54.69828c-.13068.21118-1.12174-.15589-2.25443.01622-1.13868.12857-1.99993.741-2.181.57108-.20471-.14141.56522-1.26148,2.06361-1.45738C45.67566,53.62734,46.71,54.50853,46.5495,54.69828Z"/><path class="cls-1" d="M51.44084,54.80619c.09991.22736,1.13251.00221,2.23009.33075,1.10958.28626,1.87692,1.01294,2.0799.86992.22245-.11146-.3836-1.328-1.84-1.73116C52.4556,53.86771,51.30836,54.59588,51.44084,54.80619Z"/><path class="cls-2" d="M50.80666,91.78672l-.02355-.00008a15.37528,15.37528,0,0,1-11.01225-4.57177,14.82189,14.82189,0,0,1-3.08011-4.46224.22252.22252,0,0,1,.41378-.16385A14.67246,14.67246,0,0,0,40.10119,86.916a14.93867,14.93867,0,0,0,10.68714,4.42558,19.42809,19.42809,0,0,0,6.29393-1.2532,14.02728,14.02728,0,0,0,8.7128-8.99117.2225.2225,0,0,1,.42418.13455,14.04357,14.04357,0,0,1-3.84409,6.15048,15.72579,15.72579,0,0,1-5.14877,3.12752A19.56137,19.56137,0,0,1,50.80666,91.78672Z"/><path class="cls-1" d="M56.65493,72.30641a14.38551,14.38551,0,0,1-12.99742-.28813,10.685,10.685,0,0,1,.13654,1.10137C47.90057,75.235,53.38088,75.35588,56.65493,72.30641Z"/><path class="cls-1" d="M47.45744,68.71994c.27058-.75062,4.14892-.8262,4.5353.01987.32211.70535-1.04913,1.85049-2.385,1.88662C48.26692,70.66269,47.196,69.44516,47.45744,68.71994Z"/></g></svg>