<?xml version="1.0" encoding="utf-8"?>
<!-- Generator: Adobe Illustrator 23.0.6, SVG Export Plug-In . SVG Version: 6.00 Build 0)  -->
<svg version="1.1" id="Layer_1" xmlns="http://www.w3.org/2000/svg" xmlns:xlink="http://www.w3.org/1999/xlink" x="0px" y="0px"
	 viewBox="0 0 1080 600" style="enable-background:new 0 0 1080 600;" xml:space="preserve">
<style type="text/css">
	.st0{fill:#2BD88D;}
	.st1{fill:#464646;}
	.st2{fill:#FFFFFF;}
	.st3{fill:#03304F;}
	.st4{fill:#FFDB45;}
	.st5{fill:#9983E7;}
	.st6{fill:#FF7867;}
	.st7{fill:none;stroke:#03304F;stroke-width:4;stroke-linecap:round;stroke-linejoin:round;stroke-miterlimit:10;}
</style>
<g>
	<g>
		<rect x="7.8" y="49.1" class="st0" width="1063.5" height="368.6"/>
	</g>
	<g>
		<g>
			<g>
				<g>
					<g>
						<path class="st1" d="M623.9,423.6c0,0,20.9-21.1,11.8-42.7l-22.9,13.7C612.7,394.6,603.1,402.6,623.9,423.6z"/>
					</g>
				</g>
			</g>
			<g>
				<g>
					<g>
						<path class="st1" d="M311.4,440c0,0-6.6-6.9-6.3-23.4l26.5,3.4C331.6,420,326.1,437.9,311.4,440z"/>
					</g>
				</g>
			</g>
			<g>
				<g>
					<g>
						<g>
							<g>
								<path class="st2" d="M295.4,445.5c0.6,0.2,1.3,0.2,1.9-0.1c0.5-0.3,0.8-0.7,0.9-1.3c0.2-0.7,0-1.5-0.4-2.2
									c-0.7-1-1.8-1.5-2.9-1.9c-4.1-1.6-7.2-2.5-10.3-2.7c-0.2,0-0.4,0.1-0.4,0.3c0,0.2,0.1,0.4,0.3,0.4c3,0.2,6.1,1.1,10.1,2.7
									c1,0.4,2,0.9,2.6,1.7c0.3,0.4,0.4,1.1,0.3,1.6c-0.1,0.3-0.2,0.6-0.6,0.8c-0.6,0.3-1.3,0.1-2-0.1c-3.6-1.2-6.8-3.2-9.4-6
									c-0.1-0.1-0.4-0.2-0.5,0c-0.1,0.1-0.2,0.4,0,0.5c2.6,2.8,6,5,9.7,6.2C295,445.3,295.2,445.4,295.4,445.5z"/>
							</g>
						</g>
					</g>
					<g>
						<g>
							<g>
								<path class="st2" d="M287.2,446.5c0.6,0.1,1.3,0.1,1.7-0.4c0.2-0.2,0.2-0.5,0.3-0.8c0.2-1.3,0-2.8-0.7-3.9
									c-0.2-0.4-0.5-0.7-0.9-1.2c-0.4-0.5-0.9-1-1.4-1.5c-0.1-0.1-0.4-0.1-0.5,0c-0.1,0.1-0.1,0.4,0,0.5c0.5,0.5,1,0.9,1.4,1.4
									c0.4,0.4,0.6,0.8,0.8,1.1c0.6,1,0.8,2.3,0.6,3.4c0,0.2-0.1,0.3-0.2,0.5c-0.2,0.3-0.7,0.3-1.1,0.1c-1.3-0.5-2-1.9-2.2-3
									c-0.3-1.4,0-2.9,0.3-4.1c0-0.2-0.1-0.4-0.3-0.4c0,0,0,0,0,0c-0.2,0-0.4,0.1-0.4,0.3c-0.3,1.3-0.6,2.9-0.3,4.4
									c0.3,1.7,1.4,3.1,2.7,3.6C287,446.4,287.1,446.5,287.2,446.5z"/>
							</g>
						</g>
					</g>
				</g>
				<g>
					<g>
						<g>
							<polygon class="st2" points="357.4,400.4 282.8,404.7 281.9,427.6 355,438.7 							"/>
							<path class="st3" d="M355,439.3C355,439.3,354.9,439.3,355,439.3l-73.2-11.1c-0.3,0-0.6-0.3-0.5-0.7l0.9-22.9
								c0-0.3,0.3-0.6,0.6-0.6l74.6-4.4c0.2,0,0.4,0.1,0.5,0.2c0.1,0.1,0.2,0.3,0.2,0.5l-2.4,38.3c0,0.2-0.1,0.3-0.2,0.5
								C355.3,439.3,355.2,439.3,355,439.3z M282.5,427.1l71.9,10.9l2.3-36.9l-73.3,4.3L282.5,427.1z"/>
						</g>
					</g>
				</g>
				<g>
					<g>
						<g>
							<g>
								<path class="st3" d="M289.4,419.8c-7.6-1.2-7.7-7.3-6.1-11.4c0.9-2.2,2.9-3.7,2.9-3.7l-15.9-0.1c-1.6,0.1-3,0.8-4.1,1.9l0,0
									c-1.3,1.3-1.9,3-1.8,4.8l2.1,47.8c0,0.4,0.1,0.8,0.2,1.1c0.5,1.2,1.6,2,2.8,2.4c1.4,0.4,3.3,0.4,4.1-1.3l11.9-30l13.1,3.4
									l1.5-6.6c0.8-3.5-1.7-7-5.4-7.5L289.4,419.8z"/>
							</g>
						</g>
					</g>
					<g>
						<g>
							<g>
								<g>
									<path class="st2" d="M282.5,439.5c0.3,0.1,0.5-0.1,0.7-0.3c0.2-0.3,0-0.7-0.2-0.8l-6.6-3.5c-0.3-0.2-0.7,0-0.8,0.2
										c-0.2,0.3,0,0.7,0.2,0.8l6.6,3.5C282.4,439.5,282.5,439.5,282.5,439.5z"/>
								</g>
							</g>
						</g>
						<g>
							<g>
								<g>
									<path class="st2" d="M283.8,436.5c0.3,0.1,0.5-0.1,0.7-0.3c0.2-0.3,0-0.7-0.2-0.8l-6.6-3.5c-0.3-0.2-0.7,0-0.8,0.2
										c-0.2,0.3,0,0.7,0.2,0.8l6.6,3.5C283.7,436.5,283.7,436.5,283.8,436.5z"/>
								</g>
							</g>
						</g>
					</g>
				</g>
			</g>
			<g>
				<g>
					<g>
						<path class="st2" d="M393.9,283.1c0,0,2.7,6.9,10.7,11.8l6.3-15.7C410.9,279.1,402.7,275.1,393.9,283.1z"/>
					</g>
				</g>
			</g>
			<g>
				<g>
					<g>
						<polygon class="st3" points="406.7,283 412.1,266.7 439.6,282 436.4,302.1 415.9,298.9 						"/>
					</g>
				</g>
			</g>
			<g>
				<g>
					<g>
						<path class="st3" d="M434.7,162.7c0,0,0.1,0,0.1,0l15.2,2.8l4.1,0.7l43,13.8c5.5,1.8,16.7,6.1,20.1,14.3l-7,61.5l-1.8-2.7
							l-5.5,61.4c0,0-14,5.3-32.4-0.2c-2.4-0.7-4.9-1.6-7.5-2.8c-6.8-3-14-7.6-21.2-14.6c-30.9-29.8-47.8-13.9-47.8-13.9l26.8-111.5
							C422.5,165.5,428.5,161.6,434.7,162.7z"/>
					</g>
				</g>
			</g>
			<g>
				<g>
					<g>
						<g>
							<path class="st2" d="M491.5,178.4c-3.9,8.4-13.4,13.2-22.8,11c-10.3-2.5-16.9-12.6-15.1-22.9l4.6,0.9L491.5,178.4z"/>
						</g>
					</g>
				</g>
			</g>
			<g>
				<g>
					<g>
						<g>
							<path class="st2" d="M466.9,189.9c-9.9-3.2-16-13.2-14.2-23.6c0.1-0.5,0.6-0.9,1.2-0.8c0.5,0.1,0.9,0.6,0.8,1.2
								c-1.7,9.9,4.6,19.5,14.3,21.8c8.7,2.1,17.8-2.3,21.6-10.4c0.2-0.5,0.8-0.7,1.3-0.5c0.5,0.2,0.7,0.8,0.5,1.3
								c-4.2,9-14.3,13.8-23.9,11.5C468,190.2,467.4,190,466.9,189.9z"/>
						</g>
					</g>
				</g>
			</g>
			<g>
				<g>
					<g>
						<path class="st3" d="M405.3,217.5l7.4-38.2c1.9-9.9,10.6-16.9,20.7-16.7l0,0l19.5,35.1l-2.5,20.1c0,0-7.1-5.9-21.3,3.2
							C414.9,230,405.3,217.5,405.3,217.5z"/>
					</g>
				</g>
			</g>
			<g>
				<g>
					<g>
						<g>
							<path class="st2" d="M660,401.2c0.1,0,0.3,0,0.4-0.1c0.1-0.2,0.1-0.4-0.1-0.5c-2.5-2-4.7-4.7-7.3-8.5c-0.6-1-1.3-2-1.3-3
								c0-0.6,0.3-1.2,0.7-1.6c0.2-0.2,0.6-0.4,1-0.4c0.7,0.1,1.2,0.7,1.7,1.3c2.4,3.2,4,7,4.6,11c0,0.2,0.2,0.4,0.4,0.3
								c0.2,0,0.4-0.2,0.3-0.4c-0.6-4.1-2.3-8.1-4.8-11.4c-0.5-0.7-1.2-1.5-2.2-1.6c-0.6-0.1-1.1,0.1-1.6,0.6c-0.6,0.5-1,1.4-1,2.2
								c0,1.3,0.7,2.4,1.4,3.5c2.6,3.9,4.9,6.6,7.4,8.7C659.9,401.2,659.9,401.2,660,401.2z"/>
						</g>
					</g>
				</g>
				<g>
					<g>
						<g>
							<path class="st2" d="M660.4,400.3c0.1,0,0.3,0,0.4-0.1c1.1-1,2.3-2.2,2.9-3.7c0.7-1.7,0.7-3.5-0.2-4.8
								c-0.4-0.6-1.2-1.2-2-0.9c-0.3,0.1-0.5,0.3-0.7,0.5c-1,1-1.7,2.5-1.8,3.9c0,0.6,0,1.1,0,1.6c0.1,0.7,0.2,1.5,0.4,2.2
								c0,0.2,0.3,0.3,0.5,0.3c0.2,0,0.3-0.3,0.3-0.5c-0.2-0.7-0.3-1.4-0.3-2.1c0-0.4-0.1-0.9,0-1.4c0.1-1.3,0.6-2.5,1.5-3.4
								c0.1-0.1,0.3-0.3,0.4-0.3c0.4-0.1,0.8,0.2,1.1,0.6c0.9,1.3,0.6,2.9,0.1,4.1c-0.6,1.4-1.7,2.5-2.8,3.5c-0.2,0.1-0.2,0.4,0,0.5
								C660.3,400.3,660.3,400.3,660.4,400.3z"/>
						</g>
					</g>
				</g>
			</g>
			<g>
				<path class="st0" d="M462.5,385.4l4-26.1l-65.1-33l-2.1,57.4c0,0,0,0,0.1,0l-0.5,11.6l-86.4,5.7c-1.3,2.2-2.3,4.6-2.7,7.1
					c-0.5,3.6,0.3,7.4,1.6,10.8c1.6,4.3,4.1,8.6,3.6,13.2c-0.3,2.9-1.8,5.5-3.6,7.8l98.2,6.3c0,0,41,3.7,46-19.3
					C459.6,409.2,461.7,392.1,462.5,385.4z"/>
				<path class="st3" d="M415.7,447.2c-3.7,0-6.1-0.2-6.1-0.2l-98.2-6.3c-0.2,0-0.4-0.2-0.5-0.4c-0.1-0.2-0.1-0.5,0.1-0.6
					c2.1-2.7,3.2-5.1,3.5-7.5c0.4-3.4-1.1-6.8-2.5-10.1c-0.4-0.9-0.8-1.9-1.1-2.8c-1.6-4.2-2.1-7.8-1.6-11.1
					c0.3-2.4,1.2-4.8,2.8-7.4c0.1-0.2,0.3-0.3,0.5-0.3l85.8-5.7l0.5-10.8c0-0.1-0.1-0.2-0.1-0.3l2.1-57.4c0-0.2,0.1-0.4,0.3-0.5
					c0.2-0.1,0.4-0.1,0.6,0l65.1,33c0.2,0.1,0.4,0.4,0.3,0.7l-4,26.1c-0.7,6.6-2.9,23.8-6.8,41.7c-2.1,9.7-10.9,16.1-25.4,18.8
					C425.2,446.9,419.7,447.2,415.7,447.2z M312.6,439.5l97,6.2c0.1,0,10.3,0.9,21-1c14.2-2.5,22.4-8.5,24.4-17.8
					c3.9-17.9,6.1-35,6.8-41.6c0,0,0,0,0,0l3.9-25.6L402,327.3l-2,56.1c0,0.1,0.1,0.2,0.1,0.3l-0.5,11.6c0,0.3-0.3,0.6-0.6,0.6
					l-86,5.7c-1.3,2.3-2.1,4.5-2.4,6.6c-0.4,3.1,0.1,6.6,1.6,10.5c0.3,0.9,0.7,1.9,1.1,2.8c1.4,3.4,2.9,7,2.5,10.7
					C315.4,434.6,314.4,436.9,312.6,439.5z"/>
			</g>
			<g>
				<g>
					<g>
						<polygon class="st2" points="579,335.2 576,384.5 637.6,424.7 657.7,408.6 						"/>
					</g>
				</g>
			</g>
			<g>
				<path class="st0" d="M625.6,396.4c1.8-2,4.2-3.4,6-5.3c2.6-2.8,3.7-6.4,4-10.1l-61.6-52.5c-6.3-5.9-14-10.2-22.3-12.5l-20.7-5.7
					l-36.7-8.1c0-0.1-0.1-0.3-0.1-0.4l-5.9-1.3l-1.7-0.4L406.7,283c0,0-5.4,12.2-6.3,25.4c-0.2,3,0,6,0,8.7
					c0,9.8,3.6,19.3,10.1,26.6c3.5,3.9,7.6,7,12.2,9.2c3.8,1.9,8,3.1,12.3,3.7l43.8,5.8l2,0.3l0,0l9.2,1.2c0,0,0,0,0,0l49.2,2.1
					c4.9,0.4,9.6,2.1,13.6,5l71.1,52.8c-1.4-4-2.6-8-2.9-12.2C620.6,406,621.9,400.3,625.6,396.4z"/>
				<path class="st3" d="M623.9,424.3c-0.1,0-0.3,0-0.4-0.1l-71.1-52.8c-3.9-2.8-8.5-4.5-13.2-4.8l-49.2-2.1c0,0-0.1,0-0.1,0l-9-1.2
					c0,0-0.1,0-0.1,0l-2-0.3l-43.8-5.8c-4.4-0.6-8.6-1.8-12.5-3.8c-4.7-2.3-8.9-5.5-12.4-9.4c-6.6-7.4-10.3-17-10.3-27
					c0-0.9,0-1.8,0-2.7c0-1.9-0.1-4,0.1-6c1-13.2,6.3-25.5,6.4-25.6c0.1-0.3,0.4-0.4,0.7-0.4l79.9,17.1l1.7,0.4l5.9,1.3
					c0.2,0,0.4,0.2,0.5,0.4c0,0,0,0.1,0,0.1l36.3,8c0,0,0,0,0,0l20.7,5.7c8.4,2.3,16.2,6.7,22.6,12.6l61.5,52.5
					c0.2,0.1,0.2,0.3,0.2,0.5c-0.3,4.3-1.8,7.8-4.2,10.5c-1,1-2.1,1.9-3.1,2.8c-1,0.8-2,1.6-2.9,2.5c0,0,0,0,0,0
					c-3.2,3.4-4.8,8.7-4.4,14.6c0.3,4.3,1.6,8.5,2.8,12.1c0.1,0.3,0,0.6-0.2,0.7C624.1,424.2,624,424.3,623.9,424.3z M490.1,363.2
					l49.2,2.1c5,0.4,9.8,2.1,13.9,5.1l69.4,51.6c-1-3.2-2-6.8-2.2-10.5c-0.4-6.2,1.3-11.9,4.8-15.5l0,0c0.9-1,2-1.8,3-2.7
					c1.1-0.9,2.1-1.7,3-2.7c2.2-2.4,3.5-5.6,3.8-9.4l-61.3-52.3c-6.3-5.8-13.9-10.1-22.1-12.3l-20.7-5.7l-36.6-8.1
					c-0.2,0-0.4-0.2-0.5-0.4l0-0.1l-7.3-1.6l-79.4-17c-1,2.4-5.2,13.2-6.1,24.7c-0.1,2-0.1,4-0.1,5.9c0,1,0,1.9,0,2.8
					c0,9.7,3.6,18.9,10,26.1c3.4,3.8,7.4,6.9,12,9.1c3.8,1.9,7.9,3.1,12.1,3.7l45.7,6c0,0,0.1,0,0.1,0L490.1,363.2
					C490.1,363.2,490.1,363.2,490.1,363.2z M625.6,396.4L625.6,396.4L625.6,396.4z"/>
			</g>
			<g>
				<g>
					<g>
						<g>
							<path class="st3" d="M641.9,409.2c5,5.8,1.1,10.4-2.7,12.5c-2.1,1.1-4.5,1-4.5,1l11.9,10.2c1.3,0.9,2.8,1.3,4.3,1.2l0,0
								c1.8-0.2,3.4-1,4.4-2.4l29-37.2c0.2-0.3,0.4-0.6,0.5-1c0.4-1.2,0.1-2.5-0.6-3.6c-0.8-1.2-2.2-2.4-3.9-1.6l-28.2,14.9
								l-7.7-10.9l-5.4,4c-2.9,2.1-3.2,6.4-0.7,9.1L641.9,409.2z"/>
						</g>
					</g>
				</g>
				<g>
					<g>
						<g>
							<g>
								<path class="st2" d="M661.8,406.5c0.1,0,0.2,0,0.4,0c0.3-0.1,0.5-0.5,0.3-0.8l-2.7-6.8c-0.1-0.3-0.5-0.5-0.8-0.3
									c-0.3,0.1-0.5,0.5-0.3,0.8l2.7,6.8C661.4,406.3,661.6,406.5,661.8,406.5z"/>
							</g>
						</g>
					</g>
					<g>
						<g>
							<g>
								<path class="st2" d="M658.9,408c0.1,0,0.2,0,0.4,0c0.3-0.1,0.5-0.5,0.3-0.8l-2.7-6.8c-0.1-0.3-0.5-0.5-0.8-0.3
									c-0.3,0.1-0.5,0.5-0.3,0.8l2.7,6.8C658.6,407.8,658.8,407.9,658.9,408z"/>
							</g>
						</g>
					</g>
				</g>
			</g>
			<g>
				<g>
					<g>
						<path class="st2" d="M483.9,169c0,0,9.6,1.9,11.2-10.1c1.8-13.3,0.8-21.1,0.8-21.1s-9.7-10.8-9.6-10.4
							c0.1,0.2-12.8-4.4-17.2,0.9c-2.9,3.4-1.6,13.8-1.6,13.8s1.6,1.9-1.2,2c-2,0.1-4.1,0.8-4.8,2.7c-0.7,1.8-0.5,5,2.8,8l-5.1,19.7
							l24.4,2L483.9,169z"/>
					</g>
				</g>
			</g>
			<g>
				<g>
					<g>
						<path class="st3" d="M483.9,169c0,0-6.4-0.1-12.4-6.6c0,0,1.8,7.4,12.2,9.3L483.9,169z"/>
					</g>
				</g>
			</g>
			<g>
				<g>
					<g>
						<g>
							<g>
								
									<rect x="536.7" y="190.2" transform="matrix(-0.8582 -0.5134 0.5134 -0.8582 908.2793 639.103)" class="st3" width="11.4" height="7.8"/>
							</g>
						</g>
					</g>
				</g>
				<g>
					<g>
						<g>
							<g>
								<path class="st4" d="M537.9,188.6l11.5,6.9c1.8,1.1,4,0.5,5.1-1.3l0.2-0.3c1.1-1.8,0.5-4-1.3-5.1l-11.5-6.9
									c-1.8-1.1-4-0.5-5.1,1.3l-0.2,0.3C535.6,185.3,536.1,187.6,537.9,188.6z"/>
							</g>
						</g>
					</g>
				</g>
				<g>
					<g>
						<g>
							<g>
								
									<ellipse transform="matrix(0.9994 -3.487432e-02 3.487432e-02 0.9994 -8.0661 18.0992)" class="st4" cx="514.8" cy="240.3" rx="52.9" ry="52.9"/>
							</g>
						</g>
					</g>
				</g>
				<g>
					<g>
						<g>
							<g>
								<g>
									<g>
										<path class="st3" d="M529.5,215.7c0.2,0.1,0.6,0.1,0.7-0.2l6.4-10.7c0.1-0.2,0.1-0.6-0.2-0.7c-0.2-0.1-0.6-0.1-0.7,0.2
											l-6.4,10.7C529.2,215.2,529.3,215.5,529.5,215.7z"/>
									</g>
								</g>
							</g>
						</g>
						<g>
							<g>
								<g>
									<g>
										<path class="st3" d="M493.1,276.5c0.2,0.1,0.6,0.1,0.7-0.2l6.4-10.7c0.1-0.2,0.1-0.6-0.2-0.7c-0.2-0.1-0.6-0.1-0.7,0.2
											l-6.4,10.7C492.8,276,492.9,276.3,493.1,276.5z"/>
									</g>
								</g>
							</g>
						</g>
						<g>
							<g>
								<g>
									<g>
										<path class="st3" d="M539.6,255.7l10.7,6.4c0.2,0.1,0.6,0.1,0.7-0.2c0.1-0.2,0.1-0.6-0.2-0.7l-10.7-6.4
											c-0.2-0.1-0.6-0.1-0.7,0.2C539.2,255.2,539.3,255.5,539.6,255.7z"/>
									</g>
								</g>
							</g>
						</g>
						<g>
							<g>
								<g>
									<g>
										<path class="st3" d="M478.8,219.3l10.7,6.4c0.2,0.1,0.6,0.1,0.7-0.2c0.1-0.2,0.1-0.6-0.2-0.7l-10.7-6.4
											c-0.2-0.1-0.6-0.1-0.7,0.2C478.5,218.9,478.5,219.2,478.8,219.3z"/>
									</g>
								</g>
							</g>
						</g>
						<g>
							<g>
								<g>
									<g>
										<path class="st3" d="M524.7,281.1c0.1,0.1,0.3,0.1,0.4,0.1c0.3-0.1,0.4-0.4,0.4-0.6l-3-12.1c-0.1-0.3-0.4-0.4-0.6-0.4
											c-0.3,0.1-0.4,0.4-0.4,0.6l3,12.1C524.5,280.9,524.6,281,524.7,281.1z"/>
									</g>
								</g>
							</g>
						</g>
						<g>
							<g>
								<g>
									<g>
										<path class="st3" d="M507.4,212.4c0.1,0.1,0.3,0.1,0.4,0.1c0.3-0.1,0.4-0.4,0.4-0.6l-3-12.1c-0.1-0.3-0.4-0.4-0.6-0.4
											c-0.3,0.1-0.4,0.4-0.4,0.6l3,12.1C507.2,212.2,507.3,212.4,507.4,212.4z"/>
									</g>
								</g>
							</g>
						</g>
						<g>
							<g>
								<g>
									<g>
										<path class="st3" d="M474.1,250.9c0.1,0.1,0.3,0.1,0.4,0.1l12.1-3c0.3-0.1,0.4-0.4,0.4-0.6c-0.1-0.3-0.4-0.4-0.6-0.4
											l-12.1,3c-0.3,0.1-0.4,0.4-0.4,0.6C473.9,250.7,474,250.8,474.1,250.9z"/>
									</g>
								</g>
							</g>
						</g>
						<g>
							<g>
								<g>
									<g>
										<path class="st3" d="M542.8,233.6c0.1,0.1,0.3,0.1,0.4,0.1l12.1-3c0.3-0.1,0.4-0.4,0.4-0.6c-0.1-0.3-0.4-0.4-0.6-0.4
											l-12.1,3c-0.3,0.1-0.4,0.4-0.4,0.6C542.6,233.4,542.7,233.5,542.8,233.6z"/>
									</g>
								</g>
							</g>
						</g>
					</g>
					<g>
						<g>
							<g>
								<g>
									<path class="st3" d="M512.6,239c-0.7,1.2-0.3,2.8,0.9,3.5c1.2,0.7,2.8,0.3,3.5-0.9c0.7-1.2,0.3-2.8-0.9-3.5
										C514.9,237.3,513.3,237.7,512.6,239z"/>
								</g>
							</g>
						</g>
					</g>
					<g>
						<g>
							<g>
								<g>
									<path class="st3" d="M514.5,240.7c0.1,0,0.1,0.1,0.2,0.1c0.3,0,0.5-0.1,0.6-0.4l5-31.3c0-0.3-0.1-0.6-0.4-0.6
										c-0.3,0-0.5,0.1-0.6,0.4l-5,31.3C514.2,240.4,514.3,240.6,514.5,240.7z"/>
								</g>
							</g>
						</g>
					</g>
				</g>
			</g>
			<g>
				<g>
					<g>
						<g>
							<g>
								<path class="st0" d="M448.9,221.9c0,0-7.1,5.7-17,5.2l2.8-11.4l11.5-0.6L448.9,221.9z"/>
							</g>
						</g>
					</g>
				</g>
				<g>
					<g>
						<g>
							<path class="st3" d="M448.9,221.9c0,0-1.4-1.5-4.5-2.3l0,0l-10.6,0.7l-24.9,1.1l-0.7-0.5c-2.6-2.2-3.9-4.4-3.9-4.4l11.8-37.1
								c3-9.6,12.5-15.6,22.5-14.2l15.3,37.1L448.9,221.9z"/>
						</g>
					</g>
				</g>
				<g>
					<g>
						<g>
							<path class="st2" d="M449.1,221.2c0.3,0.1,0.5-0.1,0.6-0.4l5.1-21.1c0.1-0.3-0.1-0.6-0.4-0.6l0,0c-0.3-0.1-0.5,0.1-0.6,0.4
								l-5.1,21.1C448.6,220.9,448.8,221.2,449.1,221.2L449.1,221.2z"/>
						</g>
					</g>
				</g>
				<g>
					<g>
						<g>
							<g>
								<path class="st2" d="M504.9,266.1c-22.2,3.4-59.9,7.2-79,7.5c-2.8,0.1-5.5-0.4-8.1-1.4c-3.6-1.3-6.9-3.6-9.5-6.6
									c-4.2-5-6-11.6-5-18l4.3-27l0.3,0.3c3.8,3.2,10.3,6.2,19.3,1.8c8-3.9,13.5-3.9,17-3l-7.1,26.1l66.2,7.6L504.9,266.1z"/>
							</g>
						</g>
					</g>
				</g>
				<g>
					<g>
						<g>
							<g>
								<path class="st2" d="M529.9,251.8c0,0.6-0.4,1.1-1,1.3l-11,2.6l13.6,1.1c0.7,0,1.2,0.6,1.1,1.3c-0.1,0.7-0.6,1.2-1.3,1.1
									l-0.1,0c0.4,0.2,0.7,0.5,0.7,0.9c0,0.5-0.3,0.9-0.8,1c-4.4,0.4-9.3,0.8-13.6,1.2l9.3,3.4c0.5,0.2,0.8,0.5,0.7,1.1
									c0,0.1-0.1,0.2-0.1,0.3c-0.2,0.4-0.7,0.5-1.2,0.5l-23.5-1.8l-8.7,1.5c-0.4-1.1,0.1,0.4,0.1-0.7c0-2.8,1.1-5.5,1.1-8.4
									c0-1-0.2-2-0.5-2.9l4.9-0.1c0,0,1.7-1.4,4.9-3.3c3.2-1.9,7.7-6.5,7.7-6.5c0.9,0.9,1.1,2.3,0.4,3.3l-2.5,3.6l18.6-2.1
									C529.2,250.6,529.8,251.1,529.9,251.8z"/>
							</g>
						</g>
					</g>
					<g>
						<g>
							<g>
								<path class="st3" d="M517.3,259.4C517.3,259.4,517.3,259.4,517.3,259.4l13.4,0.3c0.2,0,0.3-0.1,0.3-0.3
									c0-0.2-0.1-0.4-0.3-0.3l-13.3-0.3c-0.2,0-0.3,0.1-0.3,0.3C517,259.2,517.1,259.4,517.3,259.4z"/>
							</g>
						</g>
					</g>
				</g>
			</g>
			<g>
				<g>
					<g>
						<g>
							<path class="st2" d="M560.4,266.9L560.4,266.9c1.3,2.2,1.1,5-0.3,7.1l-1.9,2.8l-3.5-3.2L560.4,266.9z"/>
						</g>
					</g>
				</g>
				<g>
					<g>
						<g>
							<path class="st2" d="M559,277.1l-10.3-8.8c-0.8-0.7-2-0.6-2.7,0.2l0,0c-0.6,0.7-0.6,1.8,0,2.5l8.6,10.1c0.8,0.9,2.1,1,3,0.2
								l1.3-1.1C559.8,279.4,559.8,278,559,277.1L559,277.1z"/>
						</g>
					</g>
				</g>
				<g>
					<g>
						<g>
							<path class="st2" d="M554.9,281.2l-9.3-11.2c-0.7-0.8-1.9-0.9-2.7-0.3c0,0-1.1,1.1-0.4,2.5l7.4,12.2c0.6,1,1.9,1.4,2.9,0.7
								l1.5-0.9C555.3,283.6,555.6,282.2,554.9,281.2L554.9,281.2z"/>
						</g>
					</g>
				</g>
				<g>
					<g>
						<g>
							<path class="st2" d="M550.8,284l-7.5-10.2c-0.5-0.7-1.7-0.9-2.6-0.3c0,0-1.2,0.9-0.7,2.2l5.6,11c0.4,0.9,1.7,1.2,2.7,0.7
								l1.5-0.8C550.9,286.2,551.4,284.9,550.8,284L550.8,284z"/>
						</g>
					</g>
				</g>
				<g>
					<g>
						<g>
							<path class="st2" d="M546.5,287.5l-4.4-8.2c-0.3-0.6-1.1-0.8-1.8-0.5c0,0-1,0.6-0.8,1.5l2.9,8.6c0.2,0.7,1.1,1.1,1.9,0.8
								l1.2-0.4C546.3,289,546.8,288.2,546.5,287.5L546.5,287.5z"/>
						</g>
					</g>
				</g>
				<g>
					<g>
						<g>
							<path class="st3" d="M546,287.6c0.1,0,0.2,0,0.2,0c0.2-0.1,0.2-0.3,0.1-0.5l-4.4-8c-0.1-0.2-0.3-0.2-0.5-0.1
								c-0.2,0.1-0.2,0.3-0.1,0.5l4.4,8C545.9,287.5,546,287.5,546,287.6z"/>
						</g>
					</g>
				</g>
				<g>
					<g>
						<g>
							<path class="st3" d="M550.6,285.1c0.1,0,0.2,0,0.3,0c0.2-0.1,0.2-0.3,0.1-0.5l-7-10.6c-0.1-0.2-0.3-0.2-0.5-0.1
								c-0.2,0.1-0.2,0.3-0.1,0.5l7,10.6C550.4,285.1,550.5,285.1,550.6,285.1z"/>
						</g>
					</g>
				</g>
				<g>
					<g>
						<g>
							<path class="st3" d="M554.8,281.6c0.1,0,0.2,0,0.3-0.1c0.1-0.1,0.2-0.3,0-0.5l-8.3-10c-0.1-0.1-0.3-0.2-0.5,0
								c-0.1,0.1-0.2,0.3,0,0.5l8.3,10C554.7,281.5,554.8,281.6,554.8,281.6z"/>
						</g>
					</g>
				</g>
				<g>
					<g>
						<g>
							<path class="st3" d="M558,276.6c0.1,0,0.3,0,0.3-0.1c0.1-0.1,0.1-0.4,0-0.5l-2.9-2.5c-0.1-0.1-0.4-0.1-0.5,0
								c-0.1,0.1-0.1,0.4,0,0.5l2.9,2.5C557.9,276.5,557.9,276.6,558,276.6z"/>
						</g>
					</g>
				</g>
			</g>
			<g>
				<path class="st3" d="M463.7,157.3c0,0-5.9-2.8-9.2-6.7c-1-1.3-1.5-2.9-1.1-4.5c0.3-1.2,1.1-2.3,3.1-2.1c0,0-9.5-7.2-7.3-17.5
					c0,0,1.1-5.4,8.2-1.9c0,0-5.5-6.9-0.7-13.2c0,0,2.7-3.5,6.7-0.5c0,0-0.2-3.9,3.2-4.5c3.4-0.6,6,3.2,6,3.2s0.8-6.2,6.2-7
					c5.4-0.8,7.9,5.3,7.9,5.3s2.4-1.6,4.7-0.4c2.3,1.3,1.3,4.3,1.3,4.3s5.2-1.4,7.5,2.6c2.3,4-2.1,8.6-2.1,8.6s10.5,1.7,8.8,11.9
					c-1.7,10.2-10.7,10.8-10.7,10.8l-1.1-7.9c0,0.5-2.4,0.6-2.6,0.6c-1.3-0.1-2.8-1-3.1-2.3c-0.2-0.7-0.1-1.5-0.1-2.2
					c0-1.8-0.7-3.9-2.4-4.8c-2-1-3.8,0.5-4,2.6c-0.1,1.1,0.2,2.2,0.3,3.3c0.2,1.6-0.2,3.8-2.1,4.1c-1.2,0.2-2.3-0.5-2.8-1.5
					c-0.8-1.4-2.3-3.6-4-3.1c-2.5,0.7-3.3,6.4-3.3,6.4l-6.6,14.1L463.7,157.3z"/>
			</g>
			<g>
				<path class="st2" d="M467.4,143.1c-1.1-3.7-6.8-4.3-6.9,1.6c-0.1,6,3.8,9.4,6.2,6.1c0.4-0.6,4.9,1.4,5.1,0.9
					C472.9,149.7,479,141.8,467.4,143.1z"/>
			</g>
			<g>
				<g>
					<g>
						<g>
							<path class="st3" d="M484.2,146.7c0,0.9-0.4,1.7-1,1.7c-0.6,0-1.1-0.7-1.1-1.7c0-0.9,0.4-1.7,1-1.7
								C483.6,145,484.1,145.8,484.2,146.7z"/>
						</g>
					</g>
				</g>
				<g>
					<g>
						<g>
							<path class="st3" d="M493.1,147c-0.1,0.9-0.6,1.7-1.2,1.6c-0.6,0-1-0.8-1-1.8c0.1-0.9,0.6-1.7,1.2-1.6
								C492.7,145.3,493.1,146.1,493.1,147z"/>
						</g>
					</g>
				</g>
				<g>
					<g>
						<g>
							<path class="st3" d="M488,157.2c-0.1,0-0.2-0.1-0.2-0.2c0-0.1,0-0.3,0.2-0.3c0,0,1-0.3,1.2-0.9c0.1-0.3-0.1-0.8-0.5-1.2
								c-1.7-1.9-1.6-6.4-1.6-6.6c0-0.2,0.1-0.3,0.3-0.3c0.2,0,0.3,0.1,0.3,0.3c0,0-0.1,4.5,1.4,6.2c0.5,0.6,0.8,1.2,0.6,1.7
								c-0.3,0.9-1.5,1.3-1.5,1.3C488.1,157.2,488,157.2,488,157.2z"/>
						</g>
					</g>
				</g>
				<g>
					<g>
						<g>
							<path class="st3" d="M483.2,142c-1.2-0.2-2.5-0.1-3.7,0.3c-0.4,0.2-0.9,0-1.1-0.4l0,0c-0.2-0.4,0-0.9,0.6-1.1
								c1.5-0.6,3.1-0.7,4.6-0.4c0.6,0.1,0.9,0.6,0.7,1l0,0C484.1,141.8,483.6,142.1,483.2,142z"/>
						</g>
					</g>
				</g>
				<g>
					<g>
						<g>
							<path class="st3" d="M490.3,142.8c1.3-0.2,2.5,0,3.7,0.6c0.4,0.2,0.9,0.1,1.1-0.3l0,0c0.2-0.4,0-0.9-0.5-1.2
								c-1.4-0.6-3-0.9-4.5-0.7c-0.6,0.1-0.9,0.5-0.8,1l0,0C489.5,142.6,489.9,142.9,490.3,142.8z"/>
						</g>
					</g>
				</g>
				<g>
					<path class="st3" d="M487.9,159.8c-2.3-0.3-5.2-1.5-7.5-1.7c-1.6-0.1-0.8,3.8,3.8,4.6C488.8,163.5,489.8,160,487.9,159.8z"/>
				</g>
			</g>
		</g>
		<g>
			<path class="st3" d="M466.2,361.3C466.2,361.3,466.2,361.3,466.2,361.3l-31.4-4.1c-4.4-0.6-8.6-1.8-12.5-3.8
				c-4.7-2.3-8.9-5.5-12.4-9.4c-4.5-5-7.6-11.1-9.2-17.6c-0.1-0.3,0.1-0.7,0.5-0.8c0.3-0.1,0.7,0.1,0.8,0.5c1.5,6.3,4.6,12.2,8.9,17
				c3.4,3.8,7.4,6.9,12,9.1c3.8,1.9,7.9,3.1,12.1,3.7l31.3,4.1c0.3,0,0.6,0.4,0.5,0.7C466.8,361.1,466.6,361.3,466.2,361.3z"/>
		</g>
	</g>
	<g>
		<g>
			<path class="st3" d="M203.1,204.8l-8.3-52.2c-1.2-0.2-2.4-0.4-3.6-0.4h-43c0,0,1,9.1-8.9,17.1l-16.4,12.1l8.3,44.8
				c0-0.2,0-0.4,0-0.6l0.5,3.7l-0.6-3.1c0,1.4,0.6,3.1,0.6,3.1l3.3,22.9L195,255l1-6.3c0.3,0.2,0.5,0.5,0.8,0.7L203.1,204.8z"/>
		</g>
		<g>
			<path class="st4" d="M202.3,209.8c0,0,5.3-0.7,9.2-3.6l-8.1-5.4C203.4,200.8,201.3,204.4,202.3,209.8z"/>
		</g>
		<g>
			<path class="st2" d="M199.3,197.9c0,0,34.9,25.1,46.4,24.4l0.5,2.8c0,0,3.1,0.8,6.1-3.3v0c1.3-1.8,2.4-3.9,3.3-6l19.7-49.7
				l-8.7-3.7l-31.3,30.7l-35.4-38.6c2.1,21.1,1.8,31.2,1.8,31.2L199.3,197.9L199.3,197.9z"/>
		</g>
		<g>
			<path class="st3" d="M204.8,157l22.2,26.1c0,0-0.1,11-12.8,12.2c-12.6,1.2-11.9,14.6-11.9,14.6l-4-3.8l-3.6-53.4
				C197.6,153,201.9,153.3,204.8,157z"/>
		</g>
		<g>
			<path class="st3" d="M118.8,177.5c-0.9-7.1-0.3-16,5.8-20.7c3-2.3,6.9-3.8,10.7-4.2c0,0,0.1,0,0.1,0l13.5-0.4
				c0.2,5.7-4.2,11.4-4.2,11.4l16.8,27.1c0,0-0.6,5-17.2,7.5c-13.6,2.1-17.4,7.2-17.4,7.2L118.8,177.5z"/>
		</g>
		<g>
			<path class="st2" d="M161.9,190.3c0.1,0,0.2,0,0.3-0.1c0.3-0.2,0.4-0.6,0.2-0.8l-20.7-32c-0.2-0.3-0.6-0.4-0.8-0.2
				c-0.3,0.2-0.4,0.6-0.2,0.8l20.7,32C161.5,190.2,161.7,190.3,161.9,190.3z"/>
		</g>
		<g>
			<path class="st4" d="M135.9,208.1c0,0-0.7,3.7,0,6.9c0,0,2.7,0.4,5.6-0.9L135.9,208.1z"/>
		</g>
		<g>
			<path class="st4" d="M142.5,346L352.4,26.2c1-1.6,3.1-2,4.7-1l19.6,12.9c1.6,1,2,3.1,1,4.7L167.8,362.6c-2.1,3.1-6.3,4-9.4,1.9
				l-14-9.2C141.3,353.3,140.4,349.1,142.5,346z"/>
		</g>
		<g>
			<path class="st5" d="M176.1,350l-25.3-16.6l-8.3,12.6c-2.1,3.1-1.2,7.3,1.9,9.4l14,9.2c3.1,2.1,7.3,1.2,9.4-1.9L176.1,350z"/>
		</g>
		<g>
			<polygon class="st3" points="173.7,338.8 171.5,338.7 366.8,41.2 369,41.3 			"/>
		</g>
		<g>
			<polygon class="st3" points="160.3,331.3 159.7,329.6 355.9,30.6 356.5,32.4 			"/>
		</g>
		<g>
			<path class="st0" d="M360.5,39c3,2-0.7,7.6,2.3,9.6c3,2,6.7-3.7,9.7-1.7c0.8,0.5,1.1,1.2,1.2,2.1l5.3-8.1
				c0.4-0.6,0.6-1.2,0.6-1.9l-0.1-23.8c0-1.2-1.2-2-2.4-1.6L355.2,23c-0.6,0.3-1.1,0.7-1.5,1.3l-4.8,7.3c2.2,2.2-1,7.4,1.8,9.2
				C353.7,42.7,357.5,37,360.5,39z"/>
		</g>
		<g>
			<path class="st3" d="M379.5,24.2l0-9c0-1.2-1.2-2-2.4-1.6l-8.3,3.5L379.5,24.2z"/>
		</g>
		<g>
			
				<rect x="166.4" y="320.7" transform="matrix(0.5488 -0.836 0.836 0.5488 -205.3109 291.3608)" class="st2" width="1.7" height="30.3"/>
		</g>
		<g>
			<path class="st2" d="M221.9,237.9c0.1,0,11.8-1.1,11.8-1.1c0.1,0,0.7-0.4,0.8-1c0.1-0.6-0.2-1.2-0.8-1.5c0.4,0,0.9-0.1,1.3-0.1
				c0.5-0.2,0.8-0.7,0.8-1.3c0-0.5-0.3-0.9-0.7-1.1c0.4,0,0.9,0,1.3-0.1c0.5,0,0.9-0.3,1.2-0.7c0.1-0.1,0.1-0.3,0.2-0.5
				c0.1-0.7-0.3-1.4-1-1.6c1.5-0.2,3.1-0.3,4.6-0.5c0.4,0,0.8-0.4,0.9-0.8l0,0c0.1-0.6-0.3-1.1-0.9-1.1l-17.2-0.4l3.5-5.4
				c0.6-1,0.3-2.3-0.8-2.8l-11.1,11l-4-0.3l-0.2,9.8L221.9,237.9z"/>
		</g>
		<g>
			<path class="st3" d="M230.9,229.2c-0.2,0-0.3-0.1-0.3-0.3c0-0.2,0.1-0.3,0.3-0.4l5.7-0.1c0,0,0,0,0,0c0.2,0,0.3,0.1,0.3,0.3
				c0,0.2-0.1,0.3-0.3,0.4L230.9,229.2C230.9,229.2,230.9,229.2,230.9,229.2z"/>
		</g>
		<g>
			<path class="st3" d="M231.3,232.1c-0.2,0-0.3-0.1-0.3-0.3c0-0.2,0.1-0.4,0.3-0.4l3.7-0.1c0,0,0,0,0,0c0.2,0,0.3,0.1,0.3,0.3
				c0,0.2-0.1,0.4-0.3,0.4L231.3,232.1C231.3,232.1,231.3,232.1,231.3,232.1z"/>
		</g>
		<g>
			<path class="st3" d="M231.3,234.6c-0.2,0-0.3-0.1-0.3-0.3c0-0.2,0.1-0.4,0.3-0.4l2.3-0.1c0,0,0,0,0,0c0.2,0,0.3,0.1,0.3,0.3
				c0,0.2-0.1,0.4-0.3,0.4L231.3,234.6C231.3,234.6,231.3,234.6,231.3,234.6z"/>
		</g>
		<g>
			<path class="st3" d="M94.6,511c0,0-6.4-2.3-13-7.4l6.5-8C88.1,495.6,95,503.5,94.6,511z"/>
		</g>
		<g>
			<path class="st3" d="M204.2,516.3c0,0-11.9,6.6-28.1,6.1l-0.9-10.7C175.1,511.6,194.9,505.3,204.2,516.3z"/>
		</g>
		<g>
			<path class="st1" d="M191.3,538.7c0,0-0.3-0.2-1.6-0.8l0.2,2.4C190.4,539.9,190.9,539.4,191.3,538.7z"/>
		</g>
		<g>
			<g>
				<path class="st2" d="M163.8,500.2c3.8,21.6,4.4,31.9,6.7,44.4c4.4,7.4,13.3,2.6,19.4-3.7v-49.6L163.8,500.2z"/>
				<path class="st3" d="M176.7,549c-0.3,0-0.6,0-0.9,0c-2.4-0.3-4.4-1.6-5.8-4c0-0.1-0.1-0.1-0.1-0.2c-1.1-5.8-1.8-11.1-2.6-17.3
					c-1-7.3-2.1-15.5-4.1-27.2c-0.1-0.3,0.1-0.6,0.4-0.7l26.1-8.9c0.2-0.1,0.4,0,0.6,0.1c0.2,0.1,0.3,0.3,0.3,0.5v49.6
					c0,0.2-0.1,0.3-0.2,0.4C185.7,546.2,180.7,549,176.7,549z M171.1,544.4c1.2,2,2.8,3.1,4.8,3.3c3.7,0.4,8.7-2.2,13.4-7v-48.5
					l-24.8,8.4c2,11.4,3.1,19.5,4,26.7C169.3,533.4,170,538.7,171.1,544.4z"/>
			</g>
		</g>
		<g>
			<g>
				<g>
					<path class="st3" d="M170.5,544.6l1,16.2c0.4,1.3,2.8,2.2,4.1,2.3l40.3,0.3c0.1,0-1.1-3.9-1.2-4.2c-2.2-4.7-8-5.5-12.1-7.9
						c-5-3-8.3-7.6-11.5-12.5c-2.3,2.6-4.7,5.2-7.8,6.8c-1.9,1-4.1,1.5-6.2,1.2C174.9,546.5,172.6,545.7,170.5,544.6z"/>
				</g>
			</g>
		</g>
		<g>
			<path class="st2" d="M189.2,548.5c-0.2,0-0.3-0.1-0.4-0.2c-0.2-0.2-0.1-0.6,0.2-0.7c3.1-2,4.4-5,4.4-5.1c0.1-0.3,0.4-0.4,0.7-0.3
				c0.3,0.1,0.4,0.4,0.3,0.7c-0.1,0.1-1.4,3.4-4.8,5.5C189.4,548.5,189.3,548.5,189.2,548.5z"/>
		</g>
		<g>
			<path class="st2" d="M192.5,552.1c-0.2,0-0.3-0.1-0.4-0.2c-0.2-0.2-0.1-0.6,0.2-0.7c3.1-2,4.4-5,4.4-5.1c0.1-0.3,0.4-0.4,0.7-0.3
				c0.3,0.1,0.4,0.4,0.3,0.7c-0.1,0.1-1.4,3.4-4.8,5.5C192.7,552,192.6,552.1,192.5,552.1z"/>
		</g>
		<g>
			<path class="st1" d="M74.6,525.1c0,0,0-0.3-0.4-1.8l-1.7,1.6C73.2,525.1,73.9,525.2,74.6,525.1z"/>
		</g>
		<g>
			<g>
				<path class="st2" d="M83.4,473.1c-11.6,16.4-19.2,29.8-25.7,38.7c-3.2,8,5.7,12.5,14.3,13.5l36.6-36.4L83.4,473.1z"/>
				<path class="st3" d="M72.1,525.9C72,525.9,72,525.9,72.1,525.9c-7-0.8-12.4-3.4-14.5-7.1c-1.3-2.2-1.4-4.6-0.4-7.3
					c0,0,0-0.1,0.1-0.1c3-4.1,6.2-9.1,9.9-15c4.5-7,9.5-14.9,15.8-23.8c0.2-0.3,0.6-0.4,0.9-0.2l25.3,15.8c0.2,0.1,0.3,0.3,0.3,0.5
					c0,0.2,0,0.4-0.2,0.5l-36.6,36.4C72.4,525.9,72.2,525.9,72.1,525.9z M58.3,512.1c-0.9,2.3-0.8,4.3,0.3,6.1
					c2.3,3.8,8.3,5.8,13.2,6.4l35.8-35.6l-24.1-15.1c-6.1,8.7-11,16.4-15.4,23.2C64.5,503,61.3,508,58.3,512.1z"/>
			</g>
		</g>
		<g>
			<g>
				<g>
					<path class="st3" d="M57.7,511.8l-10.3,14.1c-0.8,1.1-0.9,2.6-0.1,3.6c0,0,23.4,31.2,23.4,31.2c0.1,0.1,2.5-3.2,2.6-3.5
						c2.4-4.6-1.3-10.7-1.8-15.4c-0.7-5.7,1-11.2,3-16.7c-3.5-0.2-7-0.6-10.1-2.1c-1.9-0.9-3.6-2.3-4.7-4.2
						C58.5,516.8,58.1,514.1,57.7,511.8z"/>
				</g>
			</g>
		</g>
		<g>
			<path class="st2" d="M70.2,530.3c-1.3,0-2.8-0.2-4.5-0.8c-0.3-0.1-0.4-0.4-0.3-0.7c0.1-0.3,0.4-0.4,0.7-0.3
				c3.4,1.2,6.7,0.4,6.7,0.4c0.3-0.1,0.6,0.1,0.6,0.4c0.1,0.3-0.1,0.6-0.4,0.6C73,530,71.9,530.3,70.2,530.3z"/>
		</g>
		<g>
			<path class="st2" d="M69.4,535.1c-1.3,0-2.8-0.2-4.5-0.8c-0.3-0.1-0.4-0.4-0.3-0.7c0.1-0.3,0.4-0.4,0.7-0.3
				c3.4,1.2,6.7,0.4,6.7,0.4c0.3-0.1,0.6,0.1,0.6,0.4c0.1,0.3-0.1,0.6-0.4,0.6C72.2,534.8,71.1,535.1,69.4,535.1z"/>
		</g>
		<g>
			<path class="st0" d="M116.9,366.7c-0.1-3.7-0.7-7.4-1.7-11.1c-2.4-8.7-6.6-28.4-3.9-53.2c4.1-37.8,23.7-49.3,23.7-49.3v-3.9h61.8
				l7.4,266.9c-3.5-2.2-12-2.7-15.8-1.1c-2.6,1.1-4.7,3.1-7.1,4.5c-4.5,2.7-10.1,3.6-15.3,2.4c-1.4-0.3-2.7-0.8-4-1.4l-4.2-86.4
				c-2,3.9-4.5,7.6-7.4,11L94.6,511c-0.5-3.3-1.7-8.3-4.3-10.2c-1.8-1.3-4.1-1.9-6.2-2.5c-3-0.9-5.9-1.9-8.6-3.3
				c-1.5-0.8-2.9-1.7-4-2.9c-1.2-1.4-2-3-2.5-4.8l49.7-66.3L116.9,366.7z"/>
		</g>
		<g>
			<path class="st3" d="M158.1,434.4c-0.1,0-0.3-0.1-0.4-0.2c-0.2-0.2-0.2-0.5,0-0.7c7.2-6.8,6.7-34.4,6.7-34.6l5.2-105.7
				c0-0.1,0-0.2,0.1-0.3l12.1-16.2c0.2-0.2,0.5-0.3,0.7-0.1c0.2,0.2,0.3,0.5,0.1,0.7l-12,16.1l-5.2,105.5c0,1.1,0.5,28.2-7,35.4
				C158.3,434.3,158.2,434.4,158.1,434.4z"/>
		</g>
		<g>
			<path class="st2" d="M171.7,507.4c-1.6,0-3.2-0.2-4.7-0.5c-0.9-0.2-1.6-0.4-2.4-0.7c-1.2-0.4-2.5-1-3.6-1.7
				c-0.2-0.1-0.3-0.5-0.2-0.7c0.1-0.2,0.5-0.3,0.7-0.2c1.1,0.7,2.3,1.2,3.4,1.6c0.7,0.3,1.5,0.5,2.3,0.7c5.1,1.2,10.5,0.3,14.9-2.4
				c0.9-0.5,1.8-1.2,2.6-1.8c1.4-1,2.9-2.1,4.6-2.8l0.1-0.1c0.1,0,0.2-0.1,0.3-0.1c4.7-1.8,10.5-0.6,14.1,3c0.2,0.2,0.2,0.5,0,0.7
				c-0.2,0.2-0.5,0.2-0.7,0c-3.3-3.4-8.6-4.5-13-2.8c-0.1,0-0.2,0.1-0.2,0.1l-0.2,0.1c-1.5,0.7-2.9,1.6-4.4,2.7
				c-0.9,0.6-1.8,1.3-2.7,1.8C179.4,506.3,175.5,507.4,171.7,507.4z"/>
		</g>
		<g>
			<path class="st2" d="M105.7,498.5c-0.3,0-0.5-0.2-0.5-0.4c-0.3-1.7-0.8-3.2-1.4-4.5c-0.7-1.3-1.6-2.4-2.7-3.2
				c-1.5-1.1-3.5-1.7-5.3-2.2l-0.7-0.2c-3.4-1-6.2-2.1-8.7-3.4c-1.3-0.7-2.9-1.6-4.2-3c-1-1.1-1.8-2.5-2.3-4.1
				c-0.4-1.2-0.7-2.5-0.9-4.2c0-0.3,0.2-0.5,0.5-0.6c0.3,0,0.5,0.2,0.6,0.5c0.2,1.6,0.4,2.9,0.8,4c0.5,1.5,1.2,2.7,2.1,3.7
				c1.2,1.3,2.7,2.2,3.9,2.8c2.4,1.3,5.2,2.3,8.5,3.3l0.7,0.2c2,0.6,4,1.1,5.7,2.4c1.2,0.9,2.2,2.1,3,3.5c0.7,1.4,1.2,3,1.5,4.8
				C106.3,498.2,106.1,498.4,105.7,498.5C105.8,498.5,105.7,498.5,105.7,498.5z"/>
		</g>
		<g>
			<path class="st2" d="M202.4,204.7c-0.1,0-0.1,0-0.2,0c-0.3-0.1-0.4-0.4-0.3-0.7c4.8-12.2-2.8-26.4-2.8-26.6
				c-0.1-0.3,0-0.6,0.2-0.7c0.3-0.1,0.6,0,0.7,0.2c0.1,0.1,7.8,14.7,2.9,27.4C202.8,204.6,202.6,204.7,202.4,204.7z"/>
		</g>
		<g>
			<path class="st2" d="M165.5,213.3c-0.3,0-0.5-0.2-0.5-0.5c0-0.3,0.2-0.5,0.5-0.6l33.5-3.8c0.3,0,0.5,0.2,0.6,0.5
				c0,0.3-0.2,0.5-0.5,0.6L165.5,213.3C165.5,213.3,165.5,213.3,165.5,213.3z"/>
		</g>
		<g>
			<path class="st2" d="M181.9,224.4L158,194.1c0,0-3.7,2.5-11,3.5c0,0-9.1-0.5-11.1,10.5l18.5,19.6l8.6,7.8
				c3.5,3.2,8.2,4.9,12.9,4.6l36.4-1.9l8.8-10.2L181.9,224.4z"/>
		</g>
		<g>
			<path class="st2" d="M178,147.1c0,0,10.2-1.8,8.5-18.7c0,0-1.3-13.8-3-18.1l-27.2,2.1l1.9,39.5l11.6,7.8l8.5-7.4L178,147.1z"/>
		</g>
		<g>
			<path class="st3" d="M183.7,143.1c0,0,3.3,1.9,6,0.4c3.4-1.8,3-4.4,2.1-6.5c2.1,0.8,4.7,0.3,6.3-1.3c1.7-1.6,2.4-4.1,1.7-6.3
				c0.6,0.3,1.3,0.4,1.9,0c0.6-0.4,0.9-1.2,0.5-1.8c0.6,0.2,1.2-0.3,1.3-0.9c0.1-0.6-0.2-1.2-0.7-1.7c0.9,0.3,1.9-0.4,2.2-1.4
				c0.3-0.9,0-2-0.6-2.7c0.9,0,1.9-0.7,2.6-1.3c0.7-0.6,1.5-1.1,2-1.9c0.4-0.6,0.7-1.4,0.8-2.1c0.6-2.4,0.7-5-0.1-7.4
				c-0.8-2.4-2.4-4.5-4.7-5.5c1-0.9,1.6-2.7,1-3.9c-0.6-1.2-2.1-1.9-3.4-1.5c0.7-2,0.2-4.5-1.3-6c-1.5-1.6-3.9-2.2-5.9-1.5
				c0-1.8-1-3.6-2.5-4.5c-1.6-0.9-3.6-0.9-5.2,0.1c-0.3-3.6-3.7-6.2-7.3-6.8c-2.3-0.4-5,0.2-6,2.3c-0.3-1.2-1.4-2.2-2.6-2.4
				c-1.2-0.2-2.6,0.5-3.1,1.7c-0.6-1.1-1.8-1.9-3-1.8c-1.2,0.1-2.4,1.2-2.3,2.4c-0.1-1.7-2.8-3.1-4.1-3.7c-2.1-0.8-4.4-1-6.6-0.4
				c-3.6,0.9-8.6,4.7-6.8,9.1c-1-0.7-2.2-1.4-3.4-1c-1.2,0.4-2.2,1.4-2.5,2.6c-0.3,1.1-0.1,2.5,1,3c-3.5-0.9-7.3,1.1-9,4.3
				c-1.6,3.2-1.1,7.3,0.9,10.3c-1.6,0-3.1,0.6-4.2,1.7c-1.1,1.1-1.9,2.5-2.5,3.9c-1.2,3.2-1.2,6.8,0,9.9c0.7,1.9,2.2,3.8,4.2,3.8
				c-0.9,0.7-1.2,2.1-0.8,3.2c0.5,1.1,1.7,1.8,2.9,1.6c-0.3,2.6-0.1,5.2,1.2,7.6c1.3,2.3,3.6,4.1,6.2,4.5c1,0.1,2.1,0,2.9-0.6
				c0,1.1,0.6,2.1,1.5,2.6c0.9,0.5,2.2,0.4,3-0.3c0,1.5,1.3,3.1,2.6,3.7c2.6,1.2,5.5,0.8,8-0.7l-0.8-17.6c0,0,6.1,2.5,7-3.3
				c0,0-0.7-7.9,1.7-9.1c2.4-1.2,3.4,1.1,3.4,1.1s2.6,1.3,3.7-1.4c1.1-2.7,4.5-2.4,5.2-0.4c0.6,2,3.7,4.6,7,2.2
				C186.5,128.2,188.3,136.1,183.7,143.1z"/>
		</g>
		<g>
			<path class="st2" d="M161.4,133.5c-0.1,3-1,5.4-4,5.3c-3-0.1-6.8-2.7-6.7-5.7c0.1-3,2.6-5.3,5.6-5.2
				C159.2,128,161.5,130.5,161.4,133.5z"/>
		</g>
		<g>
			<polygon class="st3" points="158.1,148.7 151.5,151.9 164.5,164.2 169.9,159.3 158.2,151.9 			"/>
		</g>
		<g>
			<polygon class="st3" points="178.1,148.6 184.6,152.3 176.4,163.5 169.9,159.3 178.3,152 			"/>
		</g>
		<g>
			<path class="st2" d="M164.5,164.7c0.1,0,0.2,0,0.3-0.1l5.5-4.9c0.2-0.2,0.2-0.5,0-0.7c-0.2-0.2-0.5-0.2-0.7,0l-5.1,4.6l-12.6-12
				c-0.2-0.2-0.5-0.2-0.7,0c-0.2,0.2-0.2,0.5,0,0.7l13,12.3C164.2,164.6,164.4,164.7,164.5,164.7z"/>
		</g>
		<g>
			<path class="st2" d="M176.4,164c0.1,0,0.3-0.1,0.4-0.2l8.2-11.3c0.2-0.2,0.1-0.5-0.1-0.7c-0.2-0.2-0.5-0.1-0.7,0.1l-8,10.9l-6-4
				c-0.2-0.1-0.5-0.1-0.7,0.1c-0.1,0.2-0.1,0.5,0.1,0.7l6.4,4.2C176.2,164,176.3,164,176.4,164z"/>
		</g>
		<g>
			<path class="st3" d="M178,147.1c0,0-8.5,1.2-13.1-2.8c0,0,2.8,5.6,13.3,5.4L178,147.1z"/>
		</g>
		<g>
			<path class="st3" d="M172.8,123.5c-0.2,0.5-1.6,0.3-3,0.8c-1.4,0.4-2.4,1.4-2.8,1.2c-0.5-0.2,0.1-2.2,2.2-3
				C171.4,121.8,173.1,123.1,172.8,123.5z"/>
		</g>
		<g>
			<path class="st3" d="M185.1,122.9c-0.3,0.4-1.6-0.2-3.1-0.1c-1.4,0-2.7,0.7-3,0.4c-0.4-0.3,0.7-2.1,2.9-2.2
				C184.1,120.9,185.4,122.5,185.1,122.9z"/>
		</g>
		<g>
			<path class="st3" d="M178.5,136.8c0,0,0.1,0,0.1,0c0.2-0.1,2.2-0.8,2.3-2c0-0.6-0.3-1.1-1.1-1.5c-2.7-1.5-2.5-6.9-2.5-7
				c0-0.2-0.1-0.4-0.3-0.4c0,0,0,0,0,0c-0.2,0-0.3,0.2-0.4,0.3c0,0.2-0.1,5.9,2.9,7.6c0.5,0.3,0.8,0.6,0.8,0.8
				c0,0.6-1.3,1.2-1.9,1.4c-0.2,0.1-0.3,0.3-0.2,0.5C178.2,136.7,178.3,136.8,178.5,136.8z"/>
		</g>
		<g>
			<path class="st3" d="M175.5,140.5c0.2,0,0.4,0,0.6,0c0.2,0,0.3-0.2,0.3-0.4c0-0.2-0.2-0.3-0.4-0.3c-2.4,0.3-3-1.7-3-1.8
				c-0.1-0.2-0.2-0.3-0.4-0.2c-0.2,0.1-0.3,0.2-0.2,0.4C172.4,138.1,173,140.5,175.5,140.5z"/>
		</g>
		<g>
			<path class="st3" d="M170.1,130c1.1,0,2.3-0.4,3.3-1.8c0.1-0.2,0.1-0.4-0.1-0.5c-0.2-0.1-0.4-0.1-0.5,0.1c-2,2.8-5,0.9-5.1,0.8
				c-0.2-0.1-0.4-0.1-0.5,0.1c-0.1,0.2-0.1,0.4,0.1,0.5C167.4,129.1,168.6,130,170.1,130z"/>
		</g>
		<g>
			<path class="st3" d="M182.6,128.9c1.1,0,2.3-0.4,3.3-1.8c0.1-0.2,0.1-0.4-0.1-0.5c-0.2-0.1-0.4-0.1-0.5,0.1c-2,2.8-5,0.9-5.1,0.8
				c-0.2-0.1-0.4-0.1-0.5,0.1c-0.1,0.2-0.1,0.4,0.1,0.5C179.9,128.1,181.1,128.9,182.6,128.9z"/>
		</g>
		<g>
			<path class="st0" d="M155.6,143.9c1.2,0,2.2-0.5,3.1-1.4c0.9-1,1.4-2.3,1.4-3.6c0.1-1.4-0.3-2.7-1.1-3.7c-0.8-1-1.9-1.7-3.1-1.7
				c-0.3,0-0.5,0.2-0.5,0.5c0,0.3,0.2,0.5,0.5,0.5c0.9,0,1.8,0.5,2.4,1.3c0.6,0.8,1,1.9,0.9,3.1c0,1.2-0.5,2.2-1.2,3
				c-0.7,0.8-1.6,1.2-2.5,1.1c-0.9,0-1.8-0.5-2.4-1.3c-0.6-0.8-1-1.9-0.9-3.1c0-0.6,0.1-1.1,0.3-1.6c0.1-0.3,0-0.5-0.3-0.6
				c-0.2-0.1-0.5,0-0.6,0.3c-0.2,0.6-0.4,1.3-0.4,1.9c-0.1,1.4,0.3,2.7,1.1,3.7c0.8,1,1.9,1.7,3.1,1.7
				C155.5,143.9,155.5,143.9,155.6,143.9z"/>
		</g>
		<g>
			<path class="st3" d="M75.5,495.6c-0.1,0-0.2,0-0.3-0.1c-1.9-1-3.2-1.9-4.2-3c-0.2-0.3-0.2-0.7,0-0.9c0.3-0.2,0.7-0.2,0.9,0
				c0.9,1,2.1,1.9,3.9,2.8c0.3,0.2,0.4,0.5,0.3,0.9C76,495.5,75.8,495.6,75.5,495.6z"/>
		</g>
		<g>
			<path class="st3" d="M150.5,445.9c-0.1,0-0.3-0.1-0.4-0.2c-0.3-0.2-0.3-0.6-0.1-0.9c2.8-3.3,5.3-6.9,7.3-10.8
				c0.2-0.3,0.5-0.4,0.9-0.3c0.3,0.2,0.4,0.5,0.3,0.9c-2.1,4-4.6,7.7-7.5,11.1C150.8,445.8,150.7,445.9,150.5,445.9z"/>
		</g>
		<g>
			<path class="st3" d="M201.7,427.8c-0.3,0-0.6-0.3-0.6-0.6L196.2,250h-60.6v3.2c0,0.2-0.1,0.4-0.3,0.5c0,0-4.9,2.9-10.1,10.3
				c-4.9,6.9-11.1,19.1-13.2,38.4c-2.7,24.3,1.3,43.6,3.9,53c1,3.6,1.6,7.4,1.7,11.2l1.8,54.3c0,0.3-0.3,0.6-0.6,0.7
				c-0.4,0-0.6-0.3-0.7-0.6l-1.8-54.3c-0.1-3.7-0.7-7.4-1.7-10.9c-2.6-9.4-6.6-28.9-3.9-53.4c2.1-19.7,8.5-32.1,13.5-39.1
				c4.7-6.6,9-9.7,10.2-10.4v-3.5c0-0.3,0.3-0.6,0.6-0.6h61.8c0.3,0,0.6,0.3,0.6,0.6l5,177.8C202.4,427.5,202.1,427.8,201.7,427.8
				C201.8,427.8,201.8,427.8,201.7,427.8z"/>
		</g>
	</g>
	<g>
		<g>
			<g>
				<path class="st4" d="M769.6,504.9c0,0,6.7,1,19.2-9.2l-5.1-7.1l-12.5,4.2l-3.6,5.5L769.6,504.9z"/>
			</g>
		</g>
		<g>
			<g>
				<g>
					<g>
						<path class="st3" d="M782.6,510.2c1.3,1.6,1.6,3.8,1.6,3.9l0.1,0.4l-0.3,0.2c-0.1,0.1-3.6,1.7-6.2,0.3
							c-1.2-0.7-2.2-1.6-2.8-2.6c-0.6-1.1-0.7-2.2-0.3-3c0.9-1.7,3.7-2,6.4-0.5C781.7,509.2,782.2,509.7,782.6,510.2z M783.1,513.9
							c-0.2-0.9-0.9-3.3-2.6-4.2c-2.1-1.1-4.4-1-5,0.1c-0.3,0.5-0.2,1.3,0.3,2c0.5,0.9,1.4,1.6,2.4,2.2
							C779.9,515,782.3,514.3,783.1,513.9z"/>
					</g>
				</g>
			</g>
		</g>
		<g>
			<g>
				<g>
					<g>
						<path class="st3" d="M783.7,514.2c0.2,0.2,0.1,0.5-0.1,0.7l-7.7,6c-0.2,0.2-0.5,0.1-0.7-0.1c-0.2-0.2-0.1-0.5,0.1-0.7l7.7-6
							C783.2,513.9,783.6,514,783.7,514.2z"/>
					</g>
				</g>
			</g>
		</g>
		<g>
			<g>
				<g>
					<g>
						<path class="st3" d="M790.5,480.2l21.8,28l-38.5,30c-3.1-4-2.3-7.9-1-10.4c0.2-0.4,0.4-0.8,0.6-1.1c0.7-1.1,1.3-1.8,1.3-1.8
							c3.9-4,6.7-7.5,8.6-10.4l0,0c0.2-0.3,0.3-0.5,0.5-0.8c0.7-1,1.3-2,1.8-2.9c0.2-0.3,0.3-0.6,0.5-0.8c0.6-1.1,1-1.9,1.2-2.6
							c0.1-0.3,0.2-0.6,0.3-0.9c0.2-0.6,0.3-0.9,0.3-0.9l-0.1-17L790.5,480.2z"/>
					</g>
				</g>
			</g>
		</g>
		<g>
			<g>
				<g>
					<g>
						<g>
							<g>
								<path class="st2" d="M810.8,506.3l0.6,0.7L782,529.9c-0.1,0.1-0.2,0.1-0.4,0.1c-0.1,0-0.3-0.1-0.3-0.2
									c-0.1-0.2-2.9-4.5-8.1-1.9c-0.1,0.1-0.3,0.1-0.4,0c0.2-0.4,0.4-0.8,0.6-1.1c4.6-1.9,7.5,1,8.4,2.1L810.8,506.3z"/>
							</g>
						</g>
					</g>
				</g>
			</g>
			<g>
				<g>
					<g>
						<g>
							<g>
								<path class="st2" d="M789.3,516.7c0,0.1-0.1,0.1-0.1,0.2c-0.1,0.1-0.3,0.1-0.5,0.1l-5.3-2.3c0.2-0.3,0.3-0.5,0.5-0.8
									l5.2,2.3C789.3,516.2,789.4,516.5,789.3,516.7z"/>
							</g>
						</g>
					</g>
				</g>
			</g>
			<g>
				<g>
					<g>
						<g>
							<g>
								<path class="st2" d="M791.6,513.1c0,0.1-0.1,0.1-0.1,0.2c-0.1,0.1-0.3,0.1-0.5,0.1l-5.4-2.4c0.2-0.3,0.3-0.6,0.5-0.8
									l5.3,2.3C791.6,512.6,791.7,512.8,791.6,513.1z"/>
							</g>
						</g>
					</g>
				</g>
			</g>
			<g>
				<g>
					<g>
						<g>
							<g>
								<path class="st2" d="M793.4,509.7c0,0.1-0.1,0.1-0.2,0.2c-0.1,0.1-0.3,0.1-0.5,0.1l-5.5-2.4c0.1-0.3,0.2-0.6,0.3-0.9
									l5.6,2.4C793.4,509.2,793.5,509.5,793.4,509.7z"/>
							</g>
						</g>
					</g>
				</g>
			</g>
		</g>
		<g>
			<g>
				<path class="st4" d="M619.8,538.1c0,0,14.4,8.9,31.8-1.1C651.6,537,626.6,524.9,619.8,538.1z"/>
			</g>
		</g>
		<g>
			<g>
				<g>
					<g>
						<path class="st3" d="M625.6,548.9c0,2.1-1.1,4-1.1,4.1l-0.2,0.3l-0.4-0.1c-0.2,0-3.9-0.9-5.1-3.5c-0.6-1.3-0.8-2.6-0.7-3.8
							c0.2-1.3,0.7-2.2,1.6-2.6c1.8-0.8,4.1,0.7,5.4,3.5C625.5,547.6,625.6,548.2,625.6,548.9z M623.7,552.2
							c0.4-0.9,1.3-3.1,0.5-4.9c-1-2.2-2.8-3.5-4-3c-0.6,0.2-0.9,0.9-1,1.8c-0.1,1,0.1,2.1,0.6,3.2
							C620.5,551.1,622.8,551.9,623.7,552.2z"/>
					</g>
				</g>
			</g>
		</g>
		<g>
			<g>
				<g>
					<g>
						<path class="st3" d="M624,552.8c0,0.3-0.2,0.5-0.5,0.5h-9.8c-0.3,0-0.5-0.2-0.5-0.5c0-0.3,0.2-0.5,0.5-0.5h9.8
							C623.8,552.3,624,552.5,624,552.8z"/>
					</g>
				</g>
			</g>
		</g>
		<g>
			<g>
				<g>
					<g>
						<path class="st3" d="M650.2,530.1v35.5h-48.8c0-5.1,3-7.6,5.5-8.8c0.4-0.2,0.8-0.4,1.1-0.5c1.2-0.5,2.1-0.6,2.1-0.6
							c5.5-0.8,9.9-1.8,13.2-2.9h0c0.3-0.1,0.6-0.2,0.9-0.3c1.2-0.4,2.2-0.8,3.1-1.2c0.3-0.1,0.6-0.2,0.9-0.4
							c1.1-0.5,1.9-0.9,2.6-1.3c0.3-0.2,0.6-0.3,0.8-0.5c0.6-0.3,0.8-0.6,0.8-0.6l10.3-13.5L650.2,530.1z"/>
					</g>
				</g>
			</g>
		</g>
		<g>
			<g>
				<g>
					<g>
						<g>
							<g>
								<path class="st2" d="M650.2,563.2v0.9H613c-0.1,0-0.3,0-0.3-0.1c-0.1-0.1-0.1-0.2-0.1-0.4c0-0.2,0.4-5.3-5.2-6.5
									c-0.2,0-0.3-0.1-0.3-0.3c0.4-0.2,0.8-0.4,1.1-0.5c4.8,1.3,5.3,5.4,5.3,6.8H650.2z"/>
							</g>
						</g>
					</g>
				</g>
			</g>
			<g>
				<g>
					<g>
						<g>
							<g>
								<path class="st2" d="M626.9,558.2c-0.1,0-0.2,0-0.2,0c-0.2,0-0.3-0.1-0.4-0.2l-2.8-5.1c0.3-0.1,0.6-0.2,0.9-0.3l2.7,5
									C627.2,557.8,627.1,558.1,626.9,558.2z"/>
							</g>
						</g>
					</g>
				</g>
			</g>
			<g>
				<g>
					<g>
						<g>
							<g>
								<path class="st2" d="M630.9,556.7c-0.1,0-0.1,0.1-0.2,0.1c-0.2,0-0.3-0.1-0.4-0.2l-2.8-5.2c0.3-0.1,0.6-0.2,0.9-0.4l2.8,5.1
									C631.2,556.3,631.2,556.6,630.9,556.7z"/>
							</g>
						</g>
					</g>
				</g>
			</g>
			<g>
				<g>
					<g>
						<g>
							<g>
								<path class="st2" d="M634.4,555.2c-0.1,0-0.2,0-0.2,0c-0.2,0-0.3-0.1-0.4-0.2l-2.9-5.3c0.3-0.2,0.6-0.3,0.8-0.5l2.9,5.3
									C634.8,554.8,634.7,555,634.4,555.2z"/>
							</g>
						</g>
					</g>
				</g>
			</g>
		</g>
		<g>
			<g>
				<path class="st0" d="M794.9,485.9l-7.2,4.7l-2.9-3.3l-7.2,5l5.8,7.5v0l4.4,6c0,0,3.3-3.5,9-0.4c5.7,3.1,10.1,0.2,10.1,0.2
					l2.3-1.2L794.9,485.9z"/>
			</g>
			<g>
				<path class="st0" d="M642.4,534.1l-9.9-0.5l0.2,5.9l-0.2,9.2c0,0,4.7-0.7,7.3,5.2c2.6,5.9,7.8,6.3,7.8,6.3l2.5,0.5v-23.4
					l-7.4-0.6L642.4,534.1z"/>
			</g>
		</g>
		<g>
			<path class="st3" d="M725,369.1l9-102.6c0,0-31.2-25.9-58.4-27.8l4,80.8l2.8,56.6c-0.8,9.9,2.4,19.8,8.8,27.4
				c24.5,29.2,78.4,101.5,78.4,101.5c0.8-3.4,3-6.7,6.1-8.1c2.2-1,4.8-1.1,7.2-1.7c5.1-1.2,9.8-4.9,12.3-9.5L725,369.1z"/>
		</g>
		<g>
			<path class="st3" d="M679.3,238.7c-11.9,1.3-32,4.6-42.3,19.5l-22.6,128.7c-0.3,2-0.5,3.9-0.6,5.9c-0.1,1.2-0.1,2.3,0,3l6,142.3
				h0.2c1-1.2,3-1.9,4.5-2.3c1.7-0.5,3.6-0.7,5.4-0.6c1.4,0.1,2.9,0.3,4.2,0.9c1.4,0.6,2.7,1.3,4.1,1.8c3,0.9,6.2,1.1,9.3,0.5
				c1.4-0.3,2.8-0.7,4.1-1.3l1.9-135.9c-0.1-3.9,2.8-16,3.5-18l22.3-69.2V238.7z"/>
		</g>
		<g>
			<g>
				<path class="st2" d="M642.3,530.4c-2.1,0-4.3-0.4-6.3-1.1c-0.8-0.3-1.6-0.6-2.3-1c-1.5-0.7-2.9-1.3-4.4-1.5
					c-4.6-0.7-8.6,0.6-10.6,3.4l-1.1-0.8c2.3-3.3,6.8-4.7,11.9-3.9c1.7,0.3,3.3,1,4.8,1.6c0.7,0.3,1.5,0.7,2.3,1
					c6.5,2.4,14.4,0.4,19.3-4.7l1,0.9C653,528.2,647.6,530.4,642.3,530.4z"/>
			</g>
		</g>
		<g>
			<g>
				<path class="st2" d="M761.8,499.9l-1.3,0c0-0.9,0.1-1.8,0.4-2.7c0.9-3.9,3.4-7.2,6.5-8.6c1.6-0.7,3.3-1,4.9-1.3
					c0.8-0.1,1.6-0.3,2.4-0.4c4.7-1.1,9.1-4.5,11.6-9.1c0.9-1.7,1.6-3.5,1.9-5.5l1.3,0.2c-0.4,2.1-1,4-2.1,5.9
					c-2.7,4.9-7.3,8.6-12.4,9.8c-0.8,0.2-1.7,0.3-2.5,0.5c-1.6,0.3-3.1,0.5-4.5,1.1c-2.7,1.2-4.9,4.2-5.7,7.7
					C761.9,498.3,761.8,499.1,761.8,499.9z"/>
			</g>
		</g>
		<g>
			<path class="st3" d="M621.4,176.2c0,0,1.9,2.3,5.4,3.2l0.5-4.3C627.3,175.1,624.4,174.1,621.4,176.2z"/>
		</g>
		<g>
			<path class="st2" d="M627.1,162.4l-3.9,25.5l-32.3-30.6l-9.9,6.5l29.5,46.7c5.8,8.4,16.3,12.4,26.2,9.9l7.5-1.9l2.9-50.3
				L627.1,162.4z"/>
		</g>
		<g>
			<path class="st0" d="M643.4,180.8c0.7,0,1.3-0.1,1.9-0.3l-16.3,87c15.4,7.5,33.2,10.3,50.1,7.4c4.7-0.8,9.2-2,13.9-3
				c4.3-0.9,8.6-1.7,12.9-2.3c6.3-0.8,12.9-1.1,19.1,0.5c3.9,1,7.7,2.9,10.7,5.6l2.5-47.1l-10.9-36.5h0l0.2-2.2
				c3-0.4,6.3,0.6,9.1,1.8c3.8,1.7,7.7,3.8,11.9,3.5c4.2-0.3,4.9-3.1,9.1-3.4c2.8-0.2,5.7,0.9,7.8,2.8c0,0-1.1-7.7-2.4-16.6
				c-0.6-3.9-1.2-8-1.8-11.8c-1-6.6-1.9-12.1-2.4-13.5c-2.4-7.6-6.8-14.5-13.3-19.2l-1.3-1c-2-1.5-4-2.6-6-3.5
				c-3.2-1.4-6.6-2.3-10.6-3.2l-2.8-0.5l-11.2-1.8l-4.2-0.4l-26.4-1.1l-5.3,0.1l-15.1,0.3c-9.9,0.6-14.2,2.7-21.4,9.2l-0.9,0.8
				c-2.7,2.4-6.1,9.5-9.3,17.5c-1.7,4.3-3.4,8.8-4.8,13c-2,5.8-3.7,10.9-4.5,13.5c2.5-1.4,5.6-1.4,8.4-0.7c3.3,0.9,6.3,2.7,9.5,4.1
				C640.6,180.3,642,180.8,643.4,180.8z"/>
		</g>
		<g>
			<path class="st3" d="M727.4,189.2C727.3,189.2,727.3,189.2,727.4,189.2c-0.4,0-0.7-0.4-0.7-0.7l2.9-36.9c0-0.4,0.3-0.6,0.7-0.6
				c0.4,0,0.6,0.4,0.6,0.7l-2.9,36.9C728,188.9,727.7,189.2,727.4,189.2z"/>
		</g>
		<g>
			<path class="st3" d="M645.5,179.9c0,0-0.1,0-0.1,0c-0.4-0.1-0.6-0.4-0.6-0.8l5.2-34.2c0.1-0.4,0.4-0.6,0.8-0.6
				c0.4,0.1,0.6,0.4,0.6,0.8l-5.2,34.2C646.1,179.6,645.8,179.9,645.5,179.9z"/>
		</g>
		<g>
			<path class="st2" d="M677.5,123.9c0.9,10,9.6,17.3,19.5,16.4c9-0.8,15.8-8.2,16.3-17l-4.2-0.4l-26.4-1.1l-5.3,0.1
				C677.4,122.6,677.4,123.3,677.5,123.9z"/>
		</g>
		<g>
			<path class="st2" d="M695.4,141.1c-4.3,0-8.5-1.5-11.9-4.3c-3.8-3.2-6.2-7.8-6.7-12.8c-0.1-0.7-0.1-1.4-0.1-2l1.3,0
				c0,0.6,0,1.2,0.1,1.9c0.4,4.7,2.6,8.9,6.2,11.9c3.5,3,8,4.4,12.6,3.9c8.5-0.8,15.3-7.8,15.7-16.3l1.3,0.1
				c-0.5,9.2-7.8,16.8-17,17.6C696.5,141,695.9,141.1,695.4,141.1z"/>
		</g>
		<g>
			<path class="st1" d="M765.1,194.5c0,0-3.4,1.9-7.7,2.2l1.2-5C758.6,191.7,762.2,191.5,765.1,194.5z"/>
		</g>
		<g>
			<path class="st2" d="M679.7,311.1c-0.2,0-0.4-0.2-0.4-0.4v-21.3l-10.3-5.9c-0.2-0.1-0.3-0.4-0.1-0.5c0.1-0.2,0.4-0.3,0.5-0.1
				l10.5,6.1c0.1,0.1,0.2,0.2,0.2,0.3v21.6C680.1,310.9,679.9,311.1,679.7,311.1z"/>
		</g>
		<g>
			<g>
				<g>
					<path class="st2" d="M707.7,99.3c-0.3,3.3,2.2,6.2,5.6,6.6c3.4,0.3,6.5-2,6.8-5.3c0.3-3.3-2.2-6.2-5.6-6.6
						C711.1,93.7,708.1,96,707.7,99.3z"/>
				</g>
			</g>
			<g>
				<g>
					<polygon class="st2" points="709.5,120.4 713.3,83.6 680.3,79.2 675.8,122.7 708.9,126.1 					"/>
				</g>
			</g>
			<g>
				<g>
					<path class="st3" d="M703.4,86.1c0,0,0.9,15.5-6.2,17.3c0,0-14.3,4.1-18.9-4.6c0,0-3.1,13.4-10,20.2c-2,2-2.6,5-1.3,7.5
						c1.6,3,5.4,6.2,13.9,6.6c16.4,0.7,24.8-20.3,28.6-29l2.8-9.9c0,0,5.3-0.8,7.3,3.2c0,0,4.6-3.3,3.3-7.6
						c-1.3-4.4-5.5-5.7-9.5-6.1l-10-1L703.4,86.1z"/>
				</g>
			</g>
			<g>
				<g>
					<g>
						<g>
							<g>
								<path class="st3" d="M713,85.8c3.2-2,7-2.1,10.5-2.1c3.6,0,6.9,0.4,10.5,1.4c-3-2.2-6.8-3.6-10.7-3.7c-1.9,0-3.9,0.3-5.7,1
									C715.8,83.2,714.1,84.3,713,85.8z"/>
							</g>
						</g>
					</g>
				</g>
				<g>
					<g>
						<g>
							<g>
								<path class="st3" d="M713.8,85.5c1.8-1.5,3.3-3.3,4.4-5.4c1-2.1,1.6-4.7,0.9-7c-0.6,2.3-1.4,4.2-2.4,6.2
									C715.8,81.3,714.6,83.2,713.8,85.5z"/>
							</g>
						</g>
					</g>
				</g>
			</g>
			<g>
				<g>
					<g>
						<g>
							<path class="st3" d="M694.3,94.1c-0.1,0.9-0.7,1.7-1.3,1.6c-0.7,0-1.2-0.8-1.2-1.8c0.1-0.9,0.7-1.7,1.3-1.6
								C693.8,92.4,694.3,93.2,694.3,94.1z"/>
						</g>
					</g>
				</g>
			</g>
			<g>
				<g>
					<g>
						<g>
							<path class="st3" d="M684.5,93.7c-0.1,0.9-0.7,1.7-1.3,1.6c-0.7,0-1.2-0.8-1.2-1.8c0.1-0.9,0.7-1.7,1.3-1.6
								C684,92,684.5,92.7,684.5,93.7z"/>
						</g>
					</g>
				</g>
			</g>
			<g>
				<g>
					<g>
						<g>
							<polygon class="st2" points="689.2,90.7 684.4,101.2 689.4,102.8 							"/>
						</g>
					</g>
				</g>
				<g>
					<g>
						<g>
							<path class="st3" d="M689.3,103.2C689.3,103.1,689.3,103.1,689.3,103.2l-5-1.6c-0.1,0-0.2-0.1-0.2-0.2c0-0.1,0-0.2,0-0.3
								l4.7-10.5c0.1-0.2,0.3-0.3,0.5-0.2c0.2,0.1,0.3,0.3,0.2,0.5l-4.6,10.1l4.6,1.5c0.2,0.1,0.3,0.3,0.2,0.5
								C689.7,103.1,689.5,103.2,689.3,103.2z"/>
						</g>
					</g>
				</g>
			</g>
			<g>
				<g>
					<g>
						<g>
							<path class="st3" d="M698.5,87.9c-0.1,0.4-0.5,0.7-0.9,0.6l-4.3-0.6c-0.6-0.1-1-0.7-0.9-1.4l0,0c0.1-0.7,0.8-1.1,1.5-0.9
								l4,1.3C698.3,87.1,698.5,87.5,698.5,87.9L698.5,87.9z"/>
						</g>
					</g>
				</g>
			</g>
			<g>
				<g>
					<g>
						<g>
							<path class="st3" d="M680.2,87.5c0,0.4,0.3,0.7,0.8,0.8l4.3,0.2c0.6,0,1.1-0.6,1.1-1.2l0,0c0-0.7-0.6-1.2-1.3-1.1l-4.2,0.6
								C680.5,86.7,680.2,87.1,680.2,87.5L680.2,87.5z"/>
						</g>
					</g>
				</g>
			</g>
			<g>
				<g>
					<path class="st3" d="M704.2,87.3c0,0-12.9,0.8-16.7-7.2c0,0-3.3,4-7.9,4.9c0,0-0.1-4.1,1.2-9.3c1.2-4.6,4.9-8.3,9.6-8.9
						c2.4-0.3,5.2,0.1,8.1,2c0,0,8.6-5.1,14.6,1.4c6,6.6,0.9,14.7,0.9,14.7L704.2,87.3z"/>
				</g>
			</g>
		</g>
		<g>
			<path class="st3" d="M665.7,276.6c-12.6,0-25.4-2.9-37-8.6c-0.3-0.1-0.4-0.4-0.3-0.7l2.8-15.1c0.1-0.3,0.4-0.6,0.7-0.5
				c0.3,0.1,0.6,0.4,0.5,0.7l-2.7,14.6c15.4,7.4,32.8,9.9,49.2,7.1c3.3-0.6,6.6-1.3,9.8-2.1c1.3-0.3,2.7-0.6,4-0.9
				c4.7-1,8.9-1.8,13-2.3c5.4-0.7,12.5-1.3,19.3,0.5c3.8,1,7.2,2.7,9.9,4.9l2.4-45.8c0-0.3,0.3-0.6,0.7-0.6c0.3,0,0.6,0.3,0.6,0.7
				l-2.5,47.1c0,0.2-0.2,0.5-0.4,0.6c-0.2,0.1-0.5,0-0.7-0.1c-2.8-2.5-6.4-4.4-10.4-5.5c-6.6-1.7-13.5-1.2-18.8-0.5
				c-4,0.5-8.2,1.3-12.8,2.3c-1.3,0.3-2.7,0.6-4,0.9c-3.2,0.8-6.6,1.5-9.9,2.1C674.7,276.2,670.2,276.6,665.7,276.6z"/>
		</g>
		<g>
			<path class="st3" d="M621.9,175.2c-0.1,0-0.1,0-0.2,0c-0.3-0.1-0.5-0.5-0.4-0.8c0.9-2.8,2-6.2,4-11.9c1.7-4.8,3.3-9.1,4.9-13
				c3.9-9.7,7-15.6,9.4-17.7l0.9-0.8c3.6-3.2,6.8-5.7,10.6-7.2c3-1.2,6.4-1.9,11.2-2.2l15.1-0.3l5.3-0.1c0.4,0,0.6,0.3,0.6,0.6
				c0,0.3-0.3,0.6-0.6,0.6l-5.3,0.1l-15.1,0.3c-4.6,0.3-7.9,0.9-10.8,2.1c-3.2,1.3-6,3.2-10.2,7l-0.9,0.8c-2.2,2-5.3,7.8-9.1,17.3
				c-1.5,3.8-3.2,8.2-4.8,13c-2,5.7-3.1,9.1-4,11.9C622.5,175.1,622.2,175.2,621.9,175.2z"/>
		</g>
		<g>
			<path class="st3" d="M764.7,192.3c-0.3,0-0.6-0.2-0.6-0.5c0,0-0.7-5-2-13.8c-0.6-4.1-1.2-8.1-1.8-11.8c-1.1-7.5-2-12.2-2.4-13.5
				c-2.5-7.9-7-14.5-13.1-18.9l-1.3-1c-1.9-1.4-3.8-2.5-5.9-3.4c-3.2-1.4-6.5-2.3-10.5-3.2l-11.8-1.9c-0.3-0.1-0.6-0.4-0.5-0.7
				c0.1-0.3,0.4-0.6,0.7-0.5l11.8,1.9c0,0,0,0,0,0c4.1,0.9,7.5,1.8,10.7,3.3c2.2,1,4.2,2.1,6.1,3.6l1.3,1c6.3,4.6,11,11.3,13.6,19.5
				c0.5,1.6,1.6,8.3,2.4,13.6c0.6,3.7,1.2,7.7,1.8,11.8c1.3,8.8,2,13.8,2,13.8C765.4,191.9,765.2,192.2,764.7,192.3
				C764.8,192.3,764.8,192.3,764.7,192.3z"/>
		</g>
		<g>
			<g>
				<path class="st2" d="M589.3,146.3L589.3,146.3c-2.4-0.7-4.9,0-6.6,1.7l-2.2,2.3l3.7,2.7L589.3,146.3z"/>
			</g>
		</g>
		<g>
			<path class="st4" d="M561.3,169.8v20.8c0,1.2,0.9,2.2,2,2.4l13.4,2c3.4,0.5,6.3,2.8,7.6,6c0,0,0,0.1,0,0.1
				c1.3,3.2,0.9,6.9-1.1,9.6l-8.1,10.9c-0.7,1-0.6,2.3,0.2,3.1l14.7,14.7c0.8,0.8,2.2,0.9,3.1,0.2l11.1-8.1c2.8-2,6.4-2.4,9.5-1.1
				c0,0,0.1,0,0.1,0c3.2,1.3,5.4,4.1,6,7.5l2.1,13.6c0.2,1.2,1.2,2,2.4,2h20.8c1.2,0,2.2-0.9,2.4-2l2.1-13.6c0.5-3.4,2.8-6.2,6-7.5
				c0,0,0.1,0,0.1,0c3.2-1.3,6.8-0.9,9.5,1.1l11.1,8.1c1,0.7,2.3,0.6,3.1-0.2l14.7-14.7c0.8-0.8,0.9-2.2,0.2-3.1l-8.1-10.9
				c-2.1-2.8-2.5-6.4-1.1-9.6c0,0,0-0.1,0-0.1c1.3-3.2,4.2-5.5,7.6-6l13.5-2c1.2-0.2,2-1.2,2-2.4v-20.8c0-1.2-0.9-2.2-2-2.4l-13.3-2
				c-3.5-0.5-6.4-2.8-7.7-6.1c0,0,0-0.1,0-0.1c-1.3-3.2-0.9-6.9,1.1-9.7l8-10.8c0.7-1,0.6-2.3-0.2-3.1l-14.7-14.7
				c-0.8-0.8-2.2-0.9-3.1-0.2l-10.7,7.9c-2.8,2.1-6.6,2.5-9.8,1.1c0,0-0.1,0-0.1,0c-3.2-1.3-5.6-4.3-6.1-7.7l-2-13.1
				c-0.2-1.2-1.2-2-2.4-2h-20.8c-1.2,0-2.2,0.9-2.4,2l-2,13.1c-0.5,3.5-2.9,6.4-6.1,7.7c0,0-0.1,0-0.1,0c-3.3,1.4-7,0.9-9.8-1.1
				l-10.7-7.9c-1-0.7-2.3-0.6-3.1,0.2l-14.7,14.7c-0.8,0.8-0.9,2.2-0.2,3.1l8,10.8c2.1,2.8,2.5,6.5,1.1,9.7c0,0,0,0.1,0,0.1
				c-1.3,3.2-4.2,5.6-7.7,6.1l-13.3,2C562.1,167.6,561.3,168.6,561.3,169.8z M607.8,180.5c-0.1-15.1,12.1-27.3,27.2-27.2
				c14.6,0.1,26.6,12.1,26.7,26.7c0.1,15.1-12.1,27.3-27.2,27.2C619.8,207.1,607.9,195.1,607.8,180.5z"/>
		</g>
		<g>
			<path class="st2" d="M667.7,199.5c0.2,0,2.5,1.9,2.6,2c7.5,5.6,14.9,11.3,22.4,16.9c4,3,7.9,5.9,11.9,8.9c3.8,2.8,7.1,6,11,8.6
				c6.4,4.2,14.3,5.8,21.7,3.4c0.2-0.1,0.4-0.1,0.5-0.2c6.9-2.5,10.8-8.6,13-15.4l7.6-32c-0.4,0-0.8,0-1.2,0
				c-4.2,0.3-4.9,3.1-9.1,3.4c-4.2,0.3-8.1-1.8-11.9-3.5c-2.8-1.2-6.1-2.2-9.1-1.8l-2.2,17.4l-46.7-17.2L667.7,199.5z"/>
		</g>
		<g>
			<g>
				<path class="st2" d="M651.6,176.1c-0.3,0.6,0,1.3,0.5,1.6l9.6,7l-13.7-4.5c-0.7-0.2-1.4,0.1-1.6,0.8c-0.2,0.7,0.2,1.4,0.8,1.6
					l0.1,0c-0.5,0-0.9,0.3-1,0.6c-0.2,0.4-0.1,1,0.3,1.3c4.1,2.1,8.7,4.6,12.7,6.8l-10.4-0.5c-0.6,0-1,0.2-1.1,0.8
					c0,0.1,0,0.3,0,0.4c0.1,0.5,0.5,0.8,1,1l23.5,7.9l7.4-9c0,0-1.1-2.1-3.4-5.2c-2.3-3.2-6.1-12.3-6.1-12.3c-1.3,0.5-2,1.8-1.7,3.1
					l0.3,6l-15.2-8.3C652.8,175.1,652,175.3,651.6,176.1z"/>
			</g>
		</g>
		<g>
			<g>
				<path class="st3" d="M660.5,187.9C660.4,187.9,660.4,187.9,660.5,187.9l-13.3-4.9c-0.1-0.1-0.2-0.2-0.2-0.3
					c0.1-0.1,0.2-0.2,0.3-0.2l13.2,4.9c0.1,0.1,0.2,0.2,0.2,0.3C660.7,187.9,660.6,187.9,660.5,187.9z"/>
			</g>
		</g>
		<g>
			<g>
				<path class="st2" d="M580,149.7l10.4,7.9c0.8,0.6,1,1.8,0.4,2.6l0,0c-0.6,0.7-1.6,1-2.4,0.5l-11.2-6c-1-0.5-1.4-1.8-0.8-2.8
					l0.8-1.4C577.7,149.4,579,149.1,580,149.7L580,149.7z"/>
			</g>
		</g>
		<g>
			<g>
				<path class="st2" d="M576.9,154.4l12.5,6.5c0.9,0.5,1.3,1.6,0.8,2.5c0,0-0.8,1.2-2.2,0.9l-13-4.5c-1.1-0.4-1.7-1.5-1.3-2.6
					l0.5-1.6C574.6,154.5,575.8,153.9,576.9,154.4L576.9,154.4z"/>
			</g>
		</g>
		<g>
			<g>
				<path class="st2" d="M575.1,158.8l11.1,5c0.8,0.4,1.2,1.4,0.8,2.4c0,0-0.6,1.3-1.9,1.2l-11.5-3c-1-0.2-1.5-1.3-1.2-2.4l0.4-1.6
					C573.1,159.2,574.1,158.5,575.1,158.8L575.1,158.8z"/>
			</g>
		</g>
		<g>
			<g>
				<path class="st2" d="M572.7,163.6l8.6,2.5c0.6,0.2,1,0.9,0.8,1.6c0,0-0.3,1-1.3,1l-8.7-1c-0.7-0.1-1.2-0.8-1.1-1.6l0.2-1.2
					C571.3,164.1,572,163.4,572.7,163.6L572.7,163.6z"/>
			</g>
		</g>
		<g>
			<g>
				<path class="st3" d="M581.5,166.7C581.5,166.7,581.5,166.7,581.5,166.7l-8.6-2.5c-0.2-0.1-0.3-0.2-0.2-0.4
					c0.1-0.2,0.2-0.3,0.4-0.2l8.5,2.5c0.2,0.1,0.3,0.2,0.2,0.4C581.8,166.6,581.7,166.7,581.5,166.7z"/>
			</g>
		</g>
		<g>
			<g>
				<path class="st3" d="M585.8,163.9c0,0-0.1,0-0.1,0l-11.4-4.4c-0.2-0.1-0.3-0.3-0.2-0.4c0.1-0.2,0.3-0.3,0.4-0.2l11.4,4.4
					c0.2,0.1,0.3,0.3,0.2,0.4C586.1,163.8,586,163.9,585.8,163.9z"/>
			</g>
		</g>
		<g>
			<g>
				<path class="st3" d="M588,160.5c-0.1,0-0.1,0-0.2,0l-11.1-5.8c-0.2-0.1-0.2-0.3-0.1-0.4c0.1-0.2,0.3-0.2,0.4-0.1l11.1,5.8
					c0.2,0.1,0.2,0.3,0.1,0.4C588.2,160.4,588.1,160.5,588,160.5z"/>
			</g>
		</g>
		<g>
			<g>
				<path class="st3" d="M583.9,153c-0.1,0-0.1,0-0.2-0.1l-2.9-2.2c-0.1-0.1-0.2-0.3-0.1-0.5c0.1-0.1,0.3-0.2,0.5-0.1l2.9,2.2
					c0.1,0.1,0.2,0.3,0.1,0.5C584.1,152.9,584,153,583.9,153z"/>
			</g>
		</g>
		<g>
			<g>
				<g>
					<g>
						<path class="st3" d="M804.2,506.6c0,0,3.4-2.8,2.2-5.9l3,3.8l-3.1,3.3L804.2,506.6z"/>
					</g>
				</g>
			</g>
		</g>
		<g>
			<g>
				<g>
					<g>
						<path class="st3" d="M644.9,559.3c0,0,4.4-0.1,5.4-3.3v4.9l-4.5,0.7L644.9,559.3z"/>
					</g>
				</g>
			</g>
		</g>
	</g>
	<g>
		<g>
			<g>
				<g>
					<g>
						<path class="st3" d="M842.8,147.8c-1.4-1.2-3.1-1.8-4.9-2c-1.8-0.2-3.6,0.1-5.2,0.9c1.8-0.2,3.4-0.2,5.1-0.1
							C839.5,146.8,841.1,147.2,842.8,147.8z"/>
					</g>
				</g>
				<g>
					<g>
						<path class="st3" d="M842.6,148.2c-1.3-1.8-2.3-3.6-2.8-5.6c-0.6-2-0.8-4.1-0.6-6.2c-1,2-1,4.4-0.4,6.5
							C839.4,145.1,840.7,147.1,842.6,148.2z"/>
					</g>
				</g>
			</g>
			<g>
				<g>
					<path class="st3" d="M842.3,146c0,0,13.3,17.5,12.5,36.2l17.4,2.6l-54.3,2.8c0,0-1-5.1,2.4-5.3c0,0,1.1,0.1,1.5-0.1
						c0.5-0.2,0.8-0.8,0.8-1.4c0,0,0-0.1,0-0.1c0-0.6-0.1-1.2,0-1.8c0.1-0.6,0.6-1.2,1.2-1.2c0.2,0,0.4,0.1,0.6,0.1
						c0.7,0.1,1.3-0.7,1-1.3c0.4,0.2,0.9-0.3,1-0.8c0.3-0.9,0.3-1.6,1.2-2.1c1.1-0.6,2.3-0.7,3.4-1.3c1.1-0.6,2.6-2,3.1-3.2
						c1.7-3.8,3.6-8.5,3.4-13.3C837.6,148.8,838.6,147.1,842.3,146z"/>
				</g>
			</g>
			<g>
				<g>
					<path class="st2" d="M841.7,152.4c0,0-6.9,27.1,10.9,29.6c0,0,14.2,2.1,19.2-8.3l-2-35.6l-22.9-0.3L841.7,152.4z"/>
				</g>
			</g>
			<g>
				<g>
					<path class="st2" d="M871.8,173.7l1.2,18.8l-17.9,0.2l-0.8-10.6C854.3,182.1,865.7,183.5,871.8,173.7z"/>
				</g>
			</g>
			<g>
				<g>
					<path class="st3" d="M917.4,182.2l-29.7,1.5l-2.9-4.3l1.1,4.5l-1,0.1l-2.3-4.5l-0.8,4.7l-9.4,0.7l-1-15.9l-1.8-10.6
						c-7-4-5.9-13.8-5.9-13.8c-8.4,12.8-22.1,8-22.1,8c-0.5-2.5-0.7-4.9-0.6-6.8c0.1-2.5,0.6-5.1,1.6-7.4c5.9-12.9,20.9-10,20.9-10
						c17.6,1.8,22.2,11.5,24.6,20.4c1.1,4,4.1,9.2,8.7,9.9c0.6,0.1,1.2,0.1,1.8,0.2c1.1,0.3,1.9,1.2,2.3,2.2c0.6,1.5,0.2,5.9,3,5.9
						c4.8,0,4.4,4.8,4.4,4.8c-0.5,3.8,7.1,3.2,7.1,3.2C920.4,176.8,917.4,182.2,917.4,182.2z"/>
				</g>
			</g>
			<g>
				<g>
					<path class="st2" d="M877.4,165.2c-0.9,3.1-4.1,4.9-7.2,4.1c-3.1-0.9-4.9-4.1-4.1-7.2c0.9-3.1,4.1-4.9,7.2-4.1
						C876.4,158.9,878.3,162.1,877.4,165.2z"/>
				</g>
			</g>
			<g>
				<g>
					<g>
						<path class="st3" d="M856.2,155.5c0.2,0.5,1.7,0.2,3.1,0.7c1.5,0.4,2.5,1.4,3,1.2c0.5-0.2-0.2-2.3-2.4-3
							C857.6,153.7,855.9,155,856.2,155.5z"/>
					</g>
				</g>
				<g>
					<g>
						<path class="st3" d="M843.2,156.3c0.3,0.4,1.7-0.2,3.2-0.1c1.5,0,2.8,0.7,3.2,0.3c0.4-0.3-0.8-2.2-3.1-2.2
							C844.1,154.2,842.8,156,843.2,156.3z"/>
					</g>
				</g>
				<g>
					<g>
						<path class="st3" d="M853.6,176.6c2.7,0,3.3-2.5,3.4-2.5c0-0.2-0.1-0.4-0.3-0.4c-0.2,0-0.4,0.1-0.4,0.3c0,0.1-0.6,2.3-3.1,2
							c-0.2,0-0.4,0.1-0.4,0.3c0,0.2,0.1,0.4,0.3,0.4C853.2,176.6,853.4,176.6,853.6,176.6z"/>
					</g>
				</g>
				<g>
					<g>
						<g>
							<path class="st3" d="M844.9,163.2c-0.2,1,0.2,2,0.9,2.1c0.7,0.1,1.3-0.7,1.5-1.7c0.2-1-0.2-2-0.9-2.1
								C845.7,161.4,845,162.1,844.9,163.2z"/>
						</g>
					</g>
					<g>
						<g>
							<path class="st3" d="M857.1,164.8c-0.2,1,0.2,2,0.9,2.1c0.7,0.1,1.3-0.7,1.5-1.7c0.2-1-0.2-2-0.9-2.1
								C857.9,163,857.3,163.8,857.1,164.8z"/>
						</g>
					</g>
					<g>
						<g>
							<path class="st3" d="M850.5,172.8c0.2,0,0.3-0.1,0.3-0.2c0.1-0.2,0-0.4-0.2-0.5c-0.8-0.3-1.9-0.9-2-1.4
								c0-0.4,0.5-0.7,0.8-0.9c3.1-1.8,2.8-7.7,2.8-7.9c0-0.2-0.2-0.3-0.4-0.3c-0.2,0-0.3,0.2-0.3,0.4c0,0.1,0.3,5.7-2.4,7.3
								c-0.8,0.5-1.2,1-1.2,1.6c0.1,1.2,2.2,1.9,2.5,2C850.4,172.8,850.5,172.8,850.5,172.8z"/>
						</g>
					</g>
					<g>
						<g>
							<g>
								<path class="st3" d="M858,171.1c-1.7-0.4-3.1-1.5-4-3c-0.9-1.5-1.2-3.3-0.7-5c0.4-1.7,1.5-3.1,3-4c1.5-0.9,3.3-1.2,5-0.7
									c3.5,0.9,5.7,4.5,4.8,8c-0.7,3-3.4,5-6.4,5C859,171.3,858.5,171.3,858,171.1z M853.9,163.3c-0.4,1.5-0.1,3.1,0.7,4.4
									c0.8,1.3,2.1,2.3,3.6,2.7c3.1,0.8,6.3-1.1,7.1-4.3c0.8-3.1-1.1-6.3-4.3-7.1c-0.5-0.1-0.9-0.2-1.4-0.2
									C856.9,158.9,854.5,160.7,853.9,163.3z"/>
							</g>
						</g>
						<g>
							<g>
								<path class="st3" d="M842.7,169.9c-1.7-0.4-3.1-1.5-4-3c-0.9-1.5-1.2-3.3-0.7-5c0.4-1.7,1.5-3.1,3-4c1.5-0.9,3.3-1.2,5-0.7
									c3.5,0.9,5.7,4.5,4.8,8c-0.7,3-3.4,5-6.4,5C843.8,170.1,843.3,170,842.7,169.9z M838.7,162.1c-0.8,3.1,1.1,6.3,4.3,7.1
									c3.1,0.8,6.3-1.1,7.1-4.3c0.8-3.1-1.1-6.3-4.3-7.1c-0.5-0.1-0.9-0.2-1.4-0.2C841.7,157.7,839.3,159.5,838.7,162.1z"/>
							</g>
						</g>
						<g>
							<g>
								<path class="st3" d="M853.4,165.3c0.2,0,0.3-0.1,0.4-0.3c0-0.2-0.1-0.4-0.3-0.4l-2.9-0.3c-0.2,0-0.4,0.1-0.4,0.3
									c0,0.2,0.1,0.4,0.3,0.4L853.4,165.3C853.3,165.3,853.3,165.3,853.4,165.3z"/>
							</g>
						</g>
					</g>
				</g>
			</g>
			<g>
				<g>
					<path class="st3" d="M854.3,182.2c0,0,8.3,0.5,11.6-5.4c0,0-0.5,5.4-11.6,6.5L854.3,182.2z"/>
				</g>
			</g>
		</g>
		<g>
			<g>
				<g>
					<path class="st4" d="M830.5,354.9c0,0-1.3,8.4,8,14.2l7.6-13.3C846,355.8,838.9,350,830.5,354.9z"/>
				</g>
			</g>
		</g>
		<g>
			<g>
				<g>
					<path class="st3" d="M839.8,357.1l-49.7,217l20.1-4.5c0,0,38.6-45.7,36.5-102.6c0,0,26.8-31.5,39.6-91.8
						C886.2,375.2,877.6,344.1,839.8,357.1z"/>
				</g>
			</g>
		</g>
		<g>
			<g>
				<g>
					<path class="st3" d="M904.1,373l25.2,59.4c0.6,1.3,1.2,2.6,2,3.8l0,0c6.1,9.4,17.5,13.4,28,9.7l0.7-0.2
						c1.9-0.7,3.7-1.6,5.4-2.7l87.6-58.3l-5.2-15.3c0,0-64.1,1.7-82.3,37.3l-16.7-54.2C948.8,352.5,924.1,336.6,904.1,373z"/>
				</g>
			</g>
		</g>
		<g>
			<g>
				<g>
					<path class="st0" d="M955.9,347.5c-0.2,0.6-0.4,1.2-0.6,1.7c-2.1,5.7-5.2,10-9.1,12.9l-9.1-6.5c0,0,0.3,8.7-2.8,11.4
						c-34.7,31-63.9-6.8-76.7-5.8c-18.2,1.5-27.1-6.3-27.1-6.3l30.3-64.6l51.7-8.2l41,61.5L955.9,347.5z"/>
					<path class="st3" d="M905.6,380c-1.9,0-3.9-0.1-5.9-0.4c-10.6-1.6-20-7-27.5-11.4c-5.9-3.5-11.1-6.4-14.6-6.2
						c-1.6,0.1-3.1,0.2-4.5,0.2c-15.2,0-22.7-6.4-23-6.7c-0.2-0.2-0.3-0.5-0.2-0.7l30.3-64.6c0.1-0.2,0.3-0.3,0.5-0.4l51.7-8.2
						c0.2,0,0.5,0.1,0.6,0.3l41,61.5l2.4,3.8c0.1,0.2,0.1,0.4,0.1,0.5c-0.2,0.6-0.4,1.2-0.6,1.8c-2.1,5.7-5.3,10.1-9.3,13.2
						c-0.2,0.2-0.5,0.2-0.8,0l-8.1-5.8c-0.1,2.6-0.5,8.4-3,10.7C925.4,375.9,915.8,380,905.6,380z M858.1,360.6
						c3.8,0,8.7,2.8,14.7,6.4c15.5,9,36.7,21.4,61-0.4c2.3-2.1,2.6-8.6,2.6-11c0-0.2,0.1-0.5,0.3-0.6c0.2-0.1,0.5-0.1,0.7,0l8.8,6.2
						c3.7-2.9,6.5-7.1,8.5-12.4c0.2-0.5,0.3-0.9,0.5-1.4l-2.3-3.5l-40.7-61.2l-50.9,8.1l-30,63.8c1.9,1.4,10.6,7.1,26.3,5.9
						C857.7,360.6,857.9,360.6,858.1,360.6z"/>
				</g>
			</g>
		</g>
		<g>
			<g>
				<g>
					<g>
						<path class="st0" d="M799.7,556.3c-1,3.8-0.1,7.9,2.6,10.6c0.2,0.2,0.4,0.4,0.7,0.6c4.3,3.5,10.9-2.9,10.9-2.9l-5.2,16
							c-0.7,1.5-1.8,2.8-3.3,3.5l0,0c-1.7,0.9-3.7,0.9-5.4,0.2l-37.7-15.1c-1.1-0.4-1.8-1.4-1.9-2.6l0,0c-0.2-1.6,0.8-3,2.3-3.5
							l24.4-6.8l1-14.3l7.2,0.6c3.8,0.3,6.5,4,5.7,7.9L799.7,556.3z"/>
					</g>
				</g>
			</g>
			<g>
				<g>
					<g>
						<g>
							<path class="st2" d="M779.9,567.2c0.1,0,0.2,0,0.2,0c0.3-0.1,0.5-0.5,0.4-0.9l-2.8-7.4c-0.1-0.3-0.5-0.5-0.8-0.4
								c-0.3,0.1-0.5,0.5-0.4,0.9l2.8,7.4C779.4,567.1,779.7,567.2,779.9,567.2z"/>
						</g>
					</g>
				</g>
				<g>
					<g>
						<g>
							<path class="st2" d="M783.1,566.5c0.1,0,0.2,0,0.2,0c0.3-0.1,0.5-0.5,0.4-0.9l-2.8-7.4c-0.1-0.3-0.5-0.5-0.8-0.4
								c-0.3,0.1-0.5,0.5-0.4,0.9l2.8,7.4C782.6,566.3,782.9,566.5,783.1,566.5z"/>
						</g>
					</g>
				</g>
				<g>
					<g>
						<g>
							<path class="st2" d="M786.4,565.6c0.1,0,0.2,0,0.2,0c0.3-0.1,0.5-0.5,0.4-0.9l-2.8-7.4c-0.1-0.3-0.5-0.5-0.8-0.4
								c-0.3,0.1-0.5,0.5-0.4,0.9l2.8,7.4C785.9,565.4,786.2,565.6,786.4,565.6z"/>
						</g>
					</g>
				</g>
			</g>
		</g>
		<g>
			<g>
				<g>
					<path class="st3" d="M838.1,364.6c0,0,9-2.3,20.4-3.4c0,0-9.3,1.5-19.3-1.8L838.1,364.6z"/>
				</g>
			</g>
		</g>
		<g>
			<g>
				<g>
					<g>
						<path class="st0" d="M1042.3,387c3.5-1.7,6.2-5.1,6.5-9.1c0-0.3,0-0.6,0-1c-0.1-5.8-9.2-6.9-9.2-6.9l15.7-6.3
							c1.6-0.5,3.3-0.3,4.8,0.4l0,0c1.7,0.8,3.1,2.4,3.7,4.3l12.6,40.6c0.4,1.1,0.1,2.4-0.7,3.3l0,0c-1.1,1.2-2.9,1.3-4.1,0.4
							l-20.8-15.4l-11.7,8.6l-4.1-6.3c-2.2-3.3-1.1-7.9,2.4-9.8L1042.3,387z"/>
						<path class="st3" d="M1073.2,413.9c-0.8,0-1.5-0.2-2.2-0.7l-20.5-15.1l-11.3,8.3c-0.1,0.1-0.3,0.1-0.5,0.1
							c-0.2,0-0.3-0.1-0.4-0.3l-4.1-6.3c-1.1-1.7-1.5-3.9-1-6c0.5-2,1.8-3.8,3.7-4.8l5.1-2.8c0,0,0,0,0,0c3.5-1.7,5.8-5,6.1-8.5
							c0-0.3,0-0.6,0-0.9c0-5.2-8.6-6.3-8.7-6.3c-0.3,0-0.5-0.3-0.6-0.5c0-0.3,0.1-0.6,0.4-0.7l15.7-6.3c0,0,0,0,0.1,0
							c1.8-0.5,3.6-0.4,5.3,0.4c1.9,0.9,3.4,2.6,4,4.7l12.6,40.6c0.4,1.4,0.1,2.8-0.9,3.9C1075.2,413.5,1074.2,413.9,1073.2,413.9z
							 M1050.6,396.7c0.1,0,0.3,0,0.4,0.1l20.8,15.4c1,0.7,2.4,0.6,3.3-0.3c0.7-0.7,0.9-1.7,0.6-2.6l-12.6-40.6
							c-0.5-1.7-1.7-3.1-3.3-3.9c-1.4-0.6-2.9-0.8-4.3-0.4l-13.7,5.5c2.9,0.7,7.6,2.6,7.6,7.1c0,0.3,0,0.7,0,1
							c-0.3,4-2.9,7.7-6.8,9.6l-5,2.8c-1.5,0.8-2.6,2.3-3,4c-0.4,1.7-0.1,3.5,0.8,5l3.8,5.7l11.1-8.2
							C1050.3,396.7,1050.4,396.7,1050.6,396.7z"/>
					</g>
				</g>
			</g>
			<g>
				<g>
					<g>
						<g>
							<path class="st2" d="M1059,404.2c0.2,0,0.5-0.1,0.6-0.3l3.8-7.1c0.2-0.3,0.1-0.7-0.3-0.9c-0.3-0.2-0.7-0.1-0.9,0.3l-3.8,7.1
								c-0.2,0.3-0.1,0.7,0.3,0.9C1058.8,404.2,1058.9,404.2,1059,404.2z"/>
						</g>
					</g>
				</g>
				<g>
					<g>
						<g>
							<path class="st2" d="M1056.4,402.1c0.2,0,0.5-0.1,0.6-0.3l3.8-7.1c0.2-0.3,0.1-0.7-0.3-0.9c-0.3-0.2-0.7-0.1-0.9,0.3
								l-3.8,7.1c-0.2,0.3-0.1,0.7,0.3,0.9C1056.2,402.1,1056.3,402.1,1056.4,402.1z"/>
						</g>
					</g>
				</g>
				<g>
					<g>
						<g>
							<path class="st2" d="M1053.6,400c0.2,0,0.5-0.1,0.6-0.3l3.8-7.1c0.2-0.3,0.1-0.7-0.3-0.9c-0.3-0.2-0.7-0.1-0.9,0.3l-3.8,7.1
								c-0.2,0.3-0.1,0.7,0.3,0.9C1053.4,400,1053.5,400,1053.6,400z"/>
						</g>
					</g>
				</g>
			</g>
		</g>
		<g>
			<g>
				<g>
					<g>
						<path class="st3" d="M906.3,246.8c0.5,11.7,2.3,25.9,7.7,36.3l-56.8,10.8l-2.9-34.4l-8.4-11.3l-3.8,10c0,0-10.4,3.6-15-8.5
							c-4.5-12-13-7.9-13-7.9l22.2-38.6c2.4-4.1,5.7-7.6,9.8-10.1l5.2-3l4.3,3.5l15.8-4.4c0.4-0.1,1.5-4.3,2.7-4.4
							c4-0.3,11.7-0.1,19.5,3.8c6.6,3.3,10.7,10.1,11,17.4L906.3,246.8z"/>
					</g>
				</g>
			</g>
		</g>
		<g>
			<g>
				<g>
					<g>
						<path class="st2" d="M845.9,249c-0.3,0-0.6-0.1-0.7-0.3l-8.9-13.4c-1.4-2.1-1.7-4.8-0.8-7.1c2-5.2,5.3-14.9,4.6-21.1
							c0-0.4,0.3-0.8,0.7-0.8c0.4,0,0.8,0.2,0.8,0.7c0.7,6.4-2.7,16.4-4.7,21.7c-0.7,1.9-0.5,4.1,0.6,5.8l8.9,13.4
							c0.2,0.3,0.1,0.8-0.2,1C846.1,248.9,846,249,845.9,249z"/>
					</g>
				</g>
			</g>
		</g>
		<g>
			<g>
				<g>
					<g>
						<path class="st2" d="M874.1,185c0.7,6.2-3.6,11.9-9.9,12.9c-5.7,0.9-11.1-2.5-12.9-7.7l4.2-2.4l16.2-2.5
							C872.1,185.1,873,185,874.1,185z"/>
					</g>
				</g>
			</g>
		</g>
		<g>
			<g>
				<g>
					<g>
						<path class="st2" d="M864.3,198.6c-6,0.9-11.7-2.5-13.7-8.2c-0.1-0.4,0.1-0.8,0.4-0.9c0.4-0.1,0.8,0.1,0.9,0.4
							c1.8,5,6.9,8.1,12.1,7.2c5.9-0.9,9.9-6.2,9.3-12.1c0-0.4,0.2-0.8,0.6-0.8c0.4,0,0.8,0.2,0.8,0.6
							C875.6,191.5,871,197.6,864.3,198.6z"/>
					</g>
				</g>
			</g>
		</g>
		<g>
			<g>
				<g>
					<g>
						<path class="st4" d="M749.7,209.3c26.5,17.2,30.6,30.3,30.6,30.3c0.6,1.8,2.5,3,4.6,2.4l35.8-11.3c1.8-0.6,3-2.5,2.4-4.6
							c0,0-4-13.2,7.6-42.4c2.1-4.9,1.5-3.9,1.5-3.9c3.7-11.1,4.3-23.5,0.5-35.4c-9.4-29.6-41-46-70.6-36.7
							c-29.6,9.4-46,41-36.7,70.6c3.8,12.1,11.2,21.8,20.8,28.7C746.2,207,745.2,206.7,749.7,209.3z"/>
					</g>
				</g>
			</g>
			<g>
				<g>
					<g>
						<g>
							<path class="st3" d="M797.6,238.7c0.1,0,0.1,0,0.2,0c0.4-0.1,0.6-0.5,0.5-0.9l-24.1-76.1c-0.1-0.4-0.5-0.6-0.9-0.5
								c-0.4,0.1-0.6,0.5-0.5,0.9l24.1,76.1C797,238.5,797.3,238.7,797.6,238.7z"/>
						</g>
					</g>
				</g>
				<g>
					<g>
						<g>
							<path class="st3" d="M763,180.2c1.2,0,2.5-0.2,3.8-0.6c1-0.3,2-0.8,2.9-1.3c0.3-0.2,0.4-0.7,0.2-1c-0.2-0.3-0.7-0.4-1-0.2
								c-0.8,0.5-1.7,0.9-2.6,1.2c-5.8,1.8-12-1.4-13.9-7.2c-0.9-2.8-0.6-5.8,0.7-8.4c1.4-2.6,3.7-4.6,6.5-5.4
								c5.8-1.8,12,1.4,13.9,7.2c0.1,0.4,0.5,0.6,0.9,0.5c0.4-0.1,0.6-0.5,0.5-0.9c-2.1-6.6-9.1-10.2-15.7-8.2
								c-3.2,1-5.8,3.2-7.3,6.2c-1.5,3-1.8,6.4-0.8,9.6C752.7,176.8,757.7,180.2,763,180.2z"/>
						</g>
					</g>
				</g>
				<g>
					<g>
						<g>
							<path class="st3" d="M807.7,235.6c0.1,0,0.1,0,0.2,0c0.4-0.1,0.6-0.5,0.5-0.9l-24.1-76.1c-0.1-0.4-0.5-0.6-0.9-0.5
								c-0.4,0.1-0.6,0.5-0.5,0.9L807,235C807.1,235.4,807.3,235.6,807.7,235.6z"/>
						</g>
					</g>
				</g>
				<g>
					<g>
						<g>
							<path class="st3" d="M796.1,169.9C796.1,169.9,796.1,169.9,796.1,169.9c1.1-0.1,2.2-0.2,3.2-0.6c3.2-1,5.8-3.2,7.3-6.2
								c1.5-3,1.8-6.4,0.8-9.6c-2.1-6.6-9.1-10.2-15.7-8.2c-6.6,2.1-10.2,9.1-8.2,15.7c0.1,0.4,0.5,0.6,0.9,0.5
								c0.4-0.1,0.6-0.5,0.5-0.9c-1.8-5.8,1.4-12,7.2-13.9c5.8-1.8,12,1.4,13.9,7.2c0.9,2.8,0.6,5.8-0.7,8.4
								c-1.4,2.6-3.7,4.6-6.5,5.4c-0.9,0.3-1.8,0.5-2.8,0.5c-0.4,0-0.7,0.4-0.7,0.8C795.4,169.6,795.7,169.9,796.1,169.9z"/>
						</g>
					</g>
				</g>
				<g>
					<g>
						<g>
							<path class="st3" d="M777.8,176.1c0.1,0,0.1,0,0.2,0l9.8-3.1c0.4-0.1,0.6-0.5,0.5-0.9c-0.1-0.4-0.5-0.6-0.9-0.5l-9.8,3.1
								c-0.4,0.1-0.6,0.5-0.5,0.9C777.2,175.9,777.5,176.1,777.8,176.1z"/>
						</g>
					</g>
				</g>
			</g>
			<g>
				<g>
					<g>
						<g>
							<path class="st3" d="M820.1,269.2l15.5-4.7c4.8-1.5,7.5-6.6,6.1-11.4l0,0c-1.5-4.8-6.6-7.5-11.4-6.1
								c4.8-1.5,7.5-6.6,6.1-11.4c-1.5-4.8-6.6-7.5-11.4-6.1l-43.9,13.4c-4.8,1.5-7.5,6.6-6.1,11.4c1.5,4.8,6.6,7.5,11.4,6.1
								c-4.8,1.5-7.5,6.6-6.1,11.4v0c1.5,4.8,6.6,7.5,11.4,6.1l16.1-4.9L820.1,269.2z"/>
						</g>
					</g>
					<g>
						<g>
							<path class="st2" d="M789.1,278.9c1,0,1.9-0.1,2.9-0.4l16.1-4.9c0.4-0.1,0.6-0.5,0.5-0.9c-0.1-0.4-0.5-0.6-0.9-0.5l-16.1,4.9
								c-2.1,0.7-4.4,0.4-6.4-0.6c-2-1.1-3.4-2.8-4.1-5c-1.3-4.4,1.2-9.1,5.6-10.5l-0.4-1.4c-2.1,0.6-4.4,0.4-6.4-0.6
								c-2-1.1-3.4-2.8-4.1-5c-0.7-2.1-0.4-4.4,0.6-6.4c1.1-2,2.8-3.4,5-4.1l43.9-13.4c4.4-1.3,9.1,1.2,10.5,5.6
								c1.3,4.4-1.2,9.1-5.6,10.5l0.4,1.4c2.1-0.7,4.4-0.4,6.4,0.6c2,1.1,3.4,2.8,4.1,5c1.3,4.4-1.2,9.1-5.6,10.5l-15.5,4.7
								c-0.4,0.1-0.6,0.5-0.5,0.9c0.1,0.4,0.5,0.6,0.9,0.5l15.5-4.7c5.2-1.6,8.1-7.1,6.6-12.3c-0.8-2.5-2.5-4.6-4.8-5.8
								c-1.2-0.6-2.4-1-3.7-1.1c3-2.5,4.4-6.6,3.2-10.5c-1.6-5.2-7.1-8.1-12.3-6.6l-43.9,13.4c-2.5,0.8-4.6,2.5-5.8,4.8
								c-1.2,2.3-1.5,5-0.7,7.5c0.8,2.5,2.5,4.6,4.8,5.8c1.2,0.6,2.4,1,3.7,1.1c-3,2.5-4.4,6.6-3.2,10.5c0.8,2.5,2.5,4.6,4.8,5.8
								C785.9,278.6,787.5,278.9,789.1,278.9z"/>
						</g>
					</g>
				</g>
				<g>
					<g>
						<g>
							<path class="st3" d="M806.8,273.3l-17.7,5.4c4.4,14.4,13.6,24.4,28.1,20l9.1-2.8c14.4-4.4,15.6-17.5,11.2-32l-16.6,5
								L806.8,273.3z"/>
						</g>
					</g>
					<g>
						<g>
							<path class="st2" d="M810.6,300.4c2.2,0,4.4-0.4,6.8-1.1l9.1-2.8c13-3.9,17-15.3,11.6-32.9l-0.2-0.7l-17.3,5.3
								c-0.4,0.1-0.6,0.5-0.5,0.9c0.1,0.4,0.5,0.6,0.9,0.5l15.9-4.8c4.8,16.5,1.2,26.7-10.9,30.3l-9.1,2.8
								c-12.2,3.7-21.9-3.2-26.9-18.8l17-5.2c0.4-0.1,0.6-0.5,0.5-0.9c-0.1-0.4-0.5-0.6-0.9-0.5l-18.4,5.6l0.2,0.7
								C792.6,292.9,800.6,300.4,810.6,300.4z"/>
						</g>
					</g>
				</g>
				<g>
					<g>
						<g>
							<path class="st6" d="M830.4,247l-24.6,7.5L830.4,247z"/>
						</g>
					</g>
					<g>
						<g>
							<path class="st2" d="M805.7,255.3c0.1,0,0.1,0,0.2,0l24.6-7.5c0.4-0.1,0.6-0.5,0.5-0.9c-0.1-0.4-0.5-0.6-0.9-0.5l-24.6,7.5
								c-0.4,0.1-0.6,0.5-0.5,0.9C805.1,255,805.4,255.3,805.7,255.3z"/>
						</g>
					</g>
				</g>
				<g>
					<g>
						<g>
							<path class="st6" d="M786.5,260.4l6.2-1.9L786.5,260.4z"/>
						</g>
					</g>
					<g>
						<g>
							<path class="st2" d="M786.5,261.1c0.1,0,0.1,0,0.2,0l6.2-1.9c0.4-0.1,0.6-0.5,0.5-0.9c-0.1-0.4-0.5-0.6-0.9-0.5l-6.2,1.9
								c-0.4,0.1-0.6,0.5-0.5,0.9C785.9,260.9,786.1,261.1,786.5,261.1z"/>
						</g>
					</g>
				</g>
			</g>
		</g>
		<g>
			<g>
				<g>
					<g>
						<g>
							<path class="st0" d="M860.2,235.7c0,0,2.1,2.7,4.8,3.9l2.2-6.2C867.2,233.5,863.4,233.1,860.2,235.7z"/>
						</g>
					</g>
				</g>
			</g>
			<g>
				<g>
					<g>
						<g>
							<path class="st2" d="M867.2,233.5L858,259l-63.5-5.5l-4.5,11.1l60.7,21c5.4,1.7,11.1,1.7,16.5,0l0,0
								c7.2-2.2,13.1-7.2,16.5-13.9l9.9-19.4c0,0-10.3,1.8-15-9.9C878.6,242.4,874.5,231.9,867.2,233.5z"/>
						</g>
					</g>
				</g>
			</g>
			<g>
				<g>
					<g>
						<path class="st2" d="M802.8,254.7l-6.8,9.5c0,0-9.7,2.4-12.2,3.2c-1,0.3-1.9,0.3-2.3-0.4c-0.5-1-0.2-1.6,0.7-2
							c-0.7,0.3-1.6,0-2-0.6c-0.5-0.7-0.2-1.7,0.6-2.2c-0.2,0-1.4,0-2.1-1c-0.7-0.9-0.8-2.3,0-3.4c-0.1,0-1.1-0.1-1.6-1
							c-0.5-0.7-0.4-1.7,0.1-2.4l11.9-3.8l-4.7-4.7c0.2-0.5,0.5-1.1,0.9-1.5c1.3,0.1,2.6,0.6,3.7,1.4l2.3,1.5L802.8,254.7z"/>
					</g>
				</g>
			</g>
			<g>
				<g>
					<g>
						<path class="st3" d="M859.9,235.9l17.7-35.4c0,0,4.2-9,12.3-7.7l14.7,30.7l-10.6,28.6c0,0-6.8,2.6-11.5-3.2
							C877.6,243.2,873,234.2,859.9,235.9z"/>
					</g>
				</g>
			</g>
			<g>
				<g>
					<g>
						<path class="st2" d="M894.5,252.4c0.2,0,0.4-0.1,0.5-0.3l7.9-20.2c0.1-0.3,0-0.6-0.3-0.7c-0.3-0.1-0.6,0-0.7,0.3l-7.9,20.2
							c-0.1,0.3,0,0.6,0.3,0.7C894.4,252.4,894.4,252.4,894.5,252.4z"/>
					</g>
				</g>
			</g>
			<g>
				<g>
					<g>
						<path class="st2" d="M861,235.3c0.2,0,0.4-0.1,0.5-0.3l18.3-38.1c0.1-0.3,0-0.6-0.3-0.7c-0.3-0.1-0.6,0-0.7,0.3l-18.3,38.1
							c-0.1,0.3,0,0.6,0.3,0.7C860.8,235.3,860.9,235.3,861,235.3z"/>
					</g>
				</g>
			</g>
		</g>
	</g>
	<g>
		<g>
			<g>
				<path class="st4" d="M363.1,359.5c0,0-0.4,8.8-9.9,14.1L352,363C352,363,355.4,353.2,363.1,359.5z"/>
			</g>
		</g>
		<g>
			<g>
				<path class="st2" d="M313.3,328.2l-40.2,239l-13.3-11.4c0,0-17.6-63.4,5.8-119.8c0,0-12-43.2-0.6-109.4
					C265,326.5,284.5,298.8,313.3,328.2z"/>
			</g>
		</g>
		<g>
			<g>
				<g>
					<path class="st3" d="M271.2,545.4c-0.5,3.5-2.4,6.7-5.3,8c-0.2,0.1-0.5,0.2-0.7,0.3c-4.3,1.4-7.2-6.3-7.2-6.3l-1.2,15.4
						c0,1.5,0.5,3,1.3,4.1l0,0c1,1.3,2.4,2.1,4,2.1l32.9,0.7c0.9,0,1.8-0.6,2.2-1.5l0,0c0.6-1.3,0.4-2.8-0.6-3.7l-16-14.4l3.8-12.4
						l-5.6-2c-3-1.1-6.1,1.1-6.8,4.6L271.2,545.4z"/>
				</g>
			</g>
			<g>
				<g>
					<g>
						<path class="st2" d="M282.7,561.6c0.2,0,0.3-0.1,0.4-0.2l4.4-5.2c0.2-0.2,0.2-0.6-0.1-0.8c-0.2-0.2-0.6-0.2-0.8,0.1l-4.4,5.2
							c-0.2,0.2-0.2,0.6,0.1,0.8C282.5,561.6,282.6,561.6,282.7,561.6z"/>
					</g>
				</g>
				<g>
					<g>
						<path class="st2" d="M280.6,559.9c0.2,0,0.3-0.1,0.4-0.2l4.4-5.2c0.2-0.2,0.2-0.6-0.1-0.8c-0.2-0.2-0.6-0.2-0.8,0.1l-4.4,5.2
							c-0.2,0.2-0.2,0.6,0.1,0.8C280.3,559.8,280.5,559.9,280.6,559.9z"/>
					</g>
				</g>
				<g>
					<g>
						<path class="st2" d="M278.4,557.9c0.2,0,0.3-0.1,0.4-0.2l4.4-5.2c0.2-0.2,0.2-0.6-0.1-0.8c-0.2-0.2-0.6-0.2-0.8,0.1L278,557
							c-0.2,0.2-0.2,0.6,0.1,0.8C278.1,557.9,278.3,557.9,278.4,557.9z"/>
					</g>
				</g>
			</g>
		</g>
		<g>
			<g>
				<path class="st2" d="M348.5,324.3l20.6,230.4l-13.1,4.3c0,0-32.7-54.1-25-115.8c0,0-22.7-37.3-29-104.4
					C302,338.7,313.4,305.8,348.5,324.3z"/>
			</g>
		</g>
		<g>
			<g>
				<g>
					<path class="st3" d="M363.2,543.3c0.5,3.5-0.5,7.2-3,9.4c-0.2,0.2-0.4,0.3-0.6,0.5c-3.8,2.8-8.5-3.7-8.5-3.7l2.9,15.1
						c0.4,1.5,1.2,2.7,2.4,3.5l0,0c1.3,0.9,2.9,1.2,4.4,0.7l31.7-10.2c0.9-0.3,1.6-1.1,1.8-2.2l0,0c0.3-1.4-0.4-2.8-1.6-3.4
						l-19.1-8.4l0.4-13.2l-5.9-0.1c-3.1,0-5.6,3.1-5.3,6.7L363.2,543.3z"/>
				</g>
			</g>
			<g>
				<g>
					<g>
						<path class="st2" d="M378.4,555.1c0.2,0,0.4-0.1,0.5-0.3l2.9-6.4c0.1-0.3,0-0.6-0.3-0.7c-0.3-0.1-0.6,0-0.7,0.3l-2.9,6.4
							c-0.1,0.3,0,0.6,0.3,0.7C378.2,555.1,378.3,555.1,378.4,555.1z"/>
					</g>
				</g>
				<g>
					<g>
						<path class="st2" d="M375.8,554.1c0.2,0,0.4-0.1,0.5-0.3l2.9-6.4c0.1-0.3,0-0.6-0.3-0.7c-0.3-0.1-0.6,0-0.7,0.3l-2.9,6.4
							c-0.1,0.3,0,0.6,0.3,0.7C375.7,554.1,375.8,554.1,375.8,554.1z"/>
					</g>
				</g>
				<g>
					<g>
						<path class="st2" d="M373.2,553c0.2,0,0.4-0.1,0.5-0.3l2.9-6.4c0.1-0.3,0-0.6-0.3-0.7c-0.3-0.1-0.6,0-0.7,0.3l-2.9,6.4
							c-0.1,0.3,0,0.6,0.3,0.7C373.1,553,373.2,553,373.2,553z"/>
					</g>
				</g>
			</g>
		</g>
		<g>
			<g>
				<path class="st3" d="M259.8,556.4c-0.3,0-0.5-0.2-0.6-0.5c0,0-0.9-3.2-1.9-8.5c-3.8-18.8-10.5-67.3,7.7-111.5
					c-0.4-1.6-3.1-12.3-4.5-29.8c-1.4-17.4-1.9-45.4,4-79.7c0-0.1,0.1-0.2,0.1-0.3c0.3-0.4,7.9-11,20.6-12c9.4-0.8,19,3.8,28.6,13.6
					c0.1,0.1,0.2,0.3,0.2,0.5l-34.4,207.4c-0.1,0.3-0.4,0.6-0.7,0.5c-0.3-0.1-0.6-0.4-0.5-0.7l34.3-207.1
					c-9.2-9.3-18.4-13.7-27.4-13c-11.5,0.9-18.8,10.3-19.6,11.4c-5.8,34.1-5.3,61.9-3.9,79.2c1.5,18.8,4.5,29.7,4.5,29.8
					c0,0.1,0,0.3,0,0.4c-18.2,43.9-11.5,92.2-7.7,111c1.1,5.3,1.9,8.4,1.9,8.4c0.1,0.3-0.1,0.7-0.4,0.8
					C259.9,556.4,259.9,556.4,259.8,556.4z"/>
			</g>
		</g>
		<g>
			<g>
				<path class="st3" d="M351.1,550.2c-0.2,0-0.4-0.1-0.5-0.3c-0.1-0.1-7-11.5-13-30.2c-5.5-17.3-11.1-44.5-7.2-76.4
					c-0.8-1.4-6.2-10.8-12.1-26.9c-5.9-16.2-13.6-42.8-16.9-77.5c0-0.1,0-0.2,0-0.3c0.2-0.6,4.9-13.7,17.4-18.7
					c8.6-3.4,18.7-2.1,30,3.8c0.2,0.1,0.3,0.3,0.3,0.5l18.5,207.2c0,0.3-0.2,0.7-0.6,0.7c-0.3,0-0.7-0.2-0.7-0.6l-18.5-206.8
					c-10.9-5.6-20.5-6.8-28.6-3.6c-11.4,4.5-16.2,16.5-16.7,17.8c3.3,34.5,11,60.9,16.8,77c6.4,17.5,12,26.9,12.1,27
					c0.1,0.1,0.1,0.3,0.1,0.4c-3.9,31.7,1.7,58.9,7.1,76c5.9,18.6,12.8,29.9,12.9,30c0.2,0.3,0.1,0.7-0.2,0.9
					C351.3,550.2,351.2,550.2,351.1,550.2z"/>
			</g>
		</g>
		<g>
			<g>
				<g>
					<path class="st2" d="M329.3,151.4c0,0,6.7,29.6-11.1,31.2l-1,10.8l-23.7-1.6l3.4-37.6C297.1,154.3,314.2,132.8,329.3,151.4z"/>
				</g>
			</g>
			<g>
				<g>
					<path class="st3" d="M300.5,166.5c0,0,7,0.1,9.5-8c0.8-2.5,2.3-4.6,4.3-6.3c3.6-3,9.4-5.9,15-0.8c0,0-0.4-10.2-5.4-15.1
						c0,0-10.3-12-27.6-3.8c-11,5.1-12.8,16-12.6,23.3c0.1,5.7-1.7,11.2-5.1,15.7c-2.4,3.2-5.2,6.8-8.1,10c0,0,8,9.1,34.6,7.5
						c0,0,3-10.5-6.3-15L300.5,166.5z"/>
				</g>
			</g>
			<g>
				<g>
					<path class="st2" d="M288.6,169.1c0.2,3.6,3.2,6.3,6.7,6.2c3.6-0.2,6.3-3.2,6.2-6.7c-0.2-3.6-3.2-6.3-6.7-6.2
						C291.2,162.5,288.4,165.5,288.6,169.1z"/>
				</g>
			</g>
			<g>
				<g>
					<path class="st3" d="M293.5,134.1c0,0,0.2-19.3-24.8-15.1c0,0-1.1,18.5,19.8,19.8L293.5,134.1z"/>
				</g>
			</g>
			<g>
				<g>
					<path class="st3" d="M318.3,182.7c0,0-7.4-0.4-11-4.5c0,0,2.1,5,10.8,6L318.3,182.7z"/>
				</g>
			</g>
			<g>
				<g>
					<g>
						<path class="st3" d="M319.2,164c0,0.9-0.4,1.7-1,1.7c-0.6,0-1.1-0.7-1.1-1.6c0-0.9,0.4-1.7,1-1.7
							C318.7,162.4,319.2,163.1,319.2,164z"/>
					</g>
				</g>
				<g>
					<g>
						<path class="st3" d="M327.5,163.8c0,0.9-0.4,1.7-1,1.7c-0.6,0-1.1-0.7-1.1-1.6c0-0.9,0.4-1.7,1-1.7
							C326.9,162.2,327.4,162.9,327.5,163.8z"/>
					</g>
				</g>
				<g>
					<g>
						<path class="st3" d="M326.3,159.5c-1.2-0.3-2.2,0.1-2.5-0.2c-0.3-0.2,0.8-1.5,2.7-1.2c1.9,0.4,2.6,2.2,2.2,2.3
							C328.5,160.6,327.5,159.7,326.3,159.5z"/>
					</g>
				</g>
				<g>
					<g>
						<path class="st3" d="M317.3,160.1c-1.2,0.3-1.9,1.2-2.3,1.1c-0.4-0.1,0-1.7,1.8-2.4c1.8-0.6,3.3,0.6,3.1,0.9
							C319.7,160,318.4,159.7,317.3,160.1z"/>
					</g>
				</g>
				<g>
					<g>
						<path class="st3" d="M317.1,172.5c-0.2,1.9,1.1,3.7,3.1,4c1.9,0.3,3.7-1,4.1-2.9L317.1,172.5z"/>
					</g>
				</g>
				<g>
					<g>
						<path class="st3" d="M322.5,170.6C322.6,170.6,322.6,170.6,322.5,170.6c0.4-0.1,1.8-0.4,2-1.3c0.1-0.3,0.1-0.8-0.4-1.3
							c-0.9-0.9-1.3-3.8-1.3-4.9c0-0.3-0.3-0.5-0.5-0.5c0,0,0,0,0,0c-0.3,0-0.5,0.3-0.5,0.5c0,0.4,0.3,4.2,1.6,5.5
							c0.1,0.2,0.2,0.3,0.2,0.3c-0.1,0.2-0.7,0.5-1.2,0.6c-0.3,0.1-0.5,0.3-0.4,0.6C322.1,170.4,322.3,170.6,322.5,170.6z"/>
					</g>
				</g>
			</g>
			<g>
				<g>
					<path class="st3" d="M329.8,153.8c0,0-3.5,3.4-7.5-0.8c-4-4.3-6.7-1.8-6.7-1.8l4-9.5l8.8,3.6c0,0,8.9-0.7,8.6,11.6
						c-0.2,9.7-6.6,9.8-6.6,9.8L329.8,153.8z"/>
				</g>
			</g>
		</g>
		<g>
			<g>
				<path class="st3" d="M268.1,286.8c0,0,2.5,6.4,9.2,9.9l7.8-11.5C285,285.2,275.8,277.6,268.1,286.8z"/>
				<path class="st3" d="M277.2,297.3c-0.1,0-0.2,0-0.3-0.1c-6.8-3.6-9.4-10-9.5-10.3c-0.1-0.2,0-0.5,0.1-0.6
					c8-9.5,17.7-1.8,17.8-1.7c0.3,0.2,0.3,0.6,0.1,0.8l-7.8,11.5C277.6,297.2,277.4,297.3,277.2,297.3z M268.8,286.9
					c0.6,1.3,3,6.1,8.2,9l7.1-10.5C282.3,284,275.1,279.8,268.8,286.9z M268.1,286.8L268.1,286.8L268.1,286.8z"/>
			</g>
		</g>
		<g>
			<g>
				<path class="st3" d="M243,337.4c0.1,0.7,0.3,1.3,0.4,1.9c1.5,6.5,4,11.4,7.5,15.1l9.5-6.1c0,0-1.1,9.5,1.5,12.8
					c30.4,37.6,62.2-0.3,74.4,2.2c17.3,3.6,26.8-3.9,26.8-3.9l-22.9-73.7l-49.8-15.5l-44.8,63.3L243,337.4z"/>
			</g>
		</g>
		<g>
			<g>
				<polygon class="st2" points="354.5,261.8 376.4,301.1 365.7,302.2 343.6,286.9 345,255.7 				"/>
			</g>
		</g>
		<g>
			<g>
				<path class="st2" d="M313.5,185.2l8.2,7.5c0,0,0.6,2.1-5,3.8c-0.9,0.3-1.9,0.3-2.9,0.1l-21.3-4.7l1.8-5.7L313.5,185.2z"/>
			</g>
		</g>
		<g>
			<g>
				<path class="st0" d="M347.7,224.7l-1.7,9.4l-2.5,54.1c-9.8,8.1-23.9,10.9-36,6.8c-6.9-2.4-13-6.7-20-8.8
					c-6.4-1.9-13.2-1.7-19.5,0.5c1.4-3.8,5.4-12,16-23l-3.1-51.7l10.5-20.4l22.4,5c1,0.2,2.1,0.2,3.1-0.2c1.9-0.7,3.6-1.1,4.7-3.8
					l17,12.8C344.9,210.2,349.1,217,347.7,224.7z"/>
			</g>
		</g>
		<g>
			<g>
				<path class="st1" d="M343,220.8c0,0,0.8,3.8-0.7,8.2l-7.1-6C335.2,223,337.6,221.2,343,220.8z"/>
			</g>
		</g>
		<g>
			<g>
				<path class="st4" d="M434.3,233.7l-12.3-1.9c-3.2-0.5-5.9-2.6-7.1-5.6c0,0,0-0.1,0-0.1c-1.2-3-0.9-6.4,1.1-9l7.4-10
					c0.7-0.9,0.6-2.1-0.2-2.9l-13.6-13.6c-0.8-0.8-2-0.9-2.9-0.2l-9.9,7.3c-2.6,1.9-6.1,2.3-9.1,1.1c0,0-0.1,0-0.1,0
					c-3-1.2-5.2-3.9-5.7-7.2l-1.8-12.2c-0.2-1.1-1.1-1.9-2.2-1.9h-19.3c-1.1,0-2,0.8-2.2,1.9l-1.8,12.2c-0.5,3.2-2.6,5.9-5.7,7.2
					c0,0-0.1,0-0.1,0c-3,1.3-6.5,0.9-9.1-1.1l-9.9-7.3c-0.9-0.7-2.1-0.6-2.9,0.2l-13.6,13.6c-0.8,0.8-0.9,2-0.2,2.9l7.4,10
					c1.9,2.6,2.3,6,1.1,9c0,0,0,0.1,0,0.1c-1.2,3-3.9,5.1-7.1,5.6l-12.3,1.9c-1.1,0.2-1.9,1.1-1.9,2.2v19.3c0,1.1,0.8,2,1.9,2.2
					l12.5,1.9c3.2,0.5,5.8,2.6,7,5.5c0,0,0,0.1,0,0.1c1.2,3,0.9,6.3-1,8.9l-7.5,10.1c-0.7,0.9-0.6,2.1,0.2,2.9l13.6,13.6
					c0.8,0.8,2,0.9,2.9,0.2l10.2-7.5c2.6-1.9,5.9-2.3,8.8-1c0,0,0.1,0,0.1,0c2.9,1.2,5,3.8,5.5,7l1.9,12.6c0.2,1.1,1.1,1.9,2.2,1.9
					h19.3c1.1,0,2-0.8,2.2-1.9l1.9-12.6c0.5-3.1,2.6-5.8,5.5-7c0,0,0.1,0,0.1,0c2.9-1.2,6.3-0.8,8.8,1l10.2,7.5
					c0.9,0.7,2.1,0.6,2.9-0.2l13.6-13.6c0.8-0.8,0.9-2,0.2-2.9l-7.5-10.1c-1.9-2.6-2.3-6-1-8.9c0,0,0-0.1,0-0.1
					c1.2-2.9,3.9-5.1,7-5.5l12.5-1.9c1.1-0.2,1.9-1.1,1.9-2.2v-19.3C436.2,234.8,435.3,233.9,434.3,233.7z M368.3,270.6
					c-14,0.1-25.3-11.2-25.2-25.2c0.1-13.6,11.2-24.6,24.8-24.8c14-0.1,25.3,11.2,25.2,25.2C393,259.4,381.9,270.4,368.3,270.6z"/>
			</g>
		</g>
		<g>
			<g>
				<path class="st2" d="M324.2,251.8l8.6,7.5c4,3.5,12.6,4.7,17.8,3.8c2.5-0.4,4.8-1.3,6.8-2.7c2-1.4,3.8-3.1,5.1-5.2l25.7-41.6
					l-9.6-6.2L351.8,237l-16.6-14c-3.9,2.5-3.4,7.1-2.6,17.1C333.2,248.1,327.6,250.7,324.2,251.8z"/>
			</g>
		</g>
		<g>
			<g>
				<path class="st2" d="M377.4,213.2l10.6,0.4c0,0,7.2-5.7,9.1-7c0.8-0.6,1.3-1.2,1-1.9c-0.4-0.9-1.1-1-1.8-0.7
					c0.7-0.4,0.9-1.1,0.7-1.8c-0.3-0.7-1.1-1.1-1.9-0.8c0.1-0.1,0.8-1,0.5-2.1c-0.3-1.1-1.3-1.9-2.5-1.9c0.1-0.1,0.5-0.8,0.2-1.7
					c-0.3-0.7-1-1.2-1.8-1.3l-9.4,6.5l-0.8-6c-0.4-0.1-1.1-0.2-1.6-0.1c-0.6,1-1,2.2-1.1,3.4l-0.2,2.5L377.4,213.2z"/>
			</g>
		</g>
		<g>
			<g>
				<path class="st0" d="M309.6,191.8c0,0-12-11.4-23.1-2c-11.6,9.9-5.1,28.1-5.1,28.1l28,35.3c0,0,24.5,2.4,23.2-13.2
					c-1.1-14.2-1.7-17.6,10.5-19.3"/>
			</g>
		</g>
		<g>
			<g>
				<path class="st3" d="M322.4,203.4c0.1,0,0.3-0.1,0.4-0.2c0.2-0.2,0.2-0.5-0.1-0.7l-5.8-5c-0.2-0.2-0.5-0.2-0.7,0.1
					c-0.2,0.2-0.2,0.5,0.1,0.7l5.8,5C322.2,203.4,322.3,203.4,322.4,203.4z"/>
			</g>
		</g>
		<g>
			<g>
				<path class="st3" d="M313.9,254c5.2,0.1,6.8-0.3,9.1-1.4c0.2-0.1,0.4-0.4,0.3-0.6c-0.1-0.3-0.4-0.4-0.6-0.3
					c-5,1.9-11.8,1.2-13,1.1l-26.4-33.3c-0.2-0.2-0.5-0.2-0.7-0.1c-0.2,0.2-0.3,0.5-0.1,0.7l26.5,33.5c0.1,0.1,0.2,0.2,0.3,0.2
					C309.5,253.8,311.4,254,313.9,254z"/>
			</g>
		</g>
		<g>
			<g>
				<path class="st3" d="M343,220.8c0,0-0.3,3.7-2.5,6.7l-5.4-4.5C335.2,223,338.3,220.8,343,220.8z"/>
			</g>
		</g>
		<g>
			<g>
				<path class="st2" d="M380.9,310.8L380.9,310.8c0,0-5.1-2-7-2.6c-0.8-0.2-1.3-0.6-1.4-1.5c-0.1-1.1,0.3-1.4,1-1.4
					c-0.6-0.1-1.1-0.8-1.2-1.5c-0.1-0.8,0.3-1.6,1-1.6c-0.1-0.1-0.9-0.7-1.2-1.9c-0.3-1.2,0.1-2.4,0.9-2.9c-0.1-0.1-0.7-0.6-0.8-1.6
					c-0.1-0.8,0.2-1.6,0.7-2l9,2.7l-1.9-6.3c0.2-0.3,0.7-0.7,1-0.8c0.9,0.8,1.6,1.8,2.1,3l1.1,2.4l1.4,3
					C388.2,302.9,385.9,308.7,380.9,310.8z"/>
			</g>
		</g>
		<g>
			<path class="st3" d="M268.1,287.4c-0.1,0-0.1,0-0.2,0c-0.3-0.1-0.5-0.5-0.4-0.8c1.5-4,5.5-12.2,15.9-23l-2.8-45.9
				c-1-3.3-5.2-19.1,5.5-28.2c4.7-4,10.4-4.9,16.3-2.7c4.5,1.7,7.5,4.5,7.6,4.7c0.3,0.2,0.3,0.6,0,0.9c-0.2,0.3-0.6,0.3-0.9,0
				c0,0-3-2.8-7.2-4.4c-5.6-2.1-10.6-1.3-15,2.4c-10.2,8.7-6,24-5.1,27c0,0,0,0.1,0,0.2l2.8,46.2c0,0.2-0.1,0.3-0.2,0.5
				c-10.4,10.8-14.4,18.9-15.8,22.8C268.6,287.2,268.3,287.4,268.1,287.4z"/>
		</g>
	</g>
	<g>
		<path class="st3" d="M329.7,301.4c-0.2,0-0.4-0.1-0.5-0.3c-0.2-0.3-0.1-0.7,0.1-0.9l10.2-7.5c2.7-2,6.3-2.4,9.4-1.1
			c0.3,0.1,0.5,0.5,0.3,0.8c-0.1,0.3-0.5,0.5-0.8,0.3c-2.7-1.1-5.9-0.8-8.2,1l-10.2,7.5C329.9,301.3,329.8,301.4,329.7,301.4z"/>
	</g>
	<g>
		<path class="st3" d="M328.4,301.8c-0.7,0-1.5-0.3-2-0.8c-0.2-0.2-0.2-0.6,0-0.9c0.2-0.2,0.6-0.2,0.9,0c0.5,0.6,1.4,0.6,2.1,0.2
			c0.3-0.2,0.7-0.1,0.9,0.1c0.2,0.3,0.1,0.7-0.1,0.9C329.6,301.6,329,301.8,328.4,301.8z"/>
	</g>
	<g>
		<path class="st3" d="M326.8,301.1c-0.2,0-0.3-0.1-0.4-0.2l-7.3-7.3c-0.2-0.2-0.2-0.6,0-0.9c0.2-0.2,0.6-0.2,0.9,0l7.3,7.3
			c0.2,0.2,0.2,0.6,0,0.9C327.1,301.1,327,301.1,326.8,301.1z"/>
	</g>
</g>
</svg>
