<?xml version="1.0" encoding="utf-8"?>
<!-- Generator: Adobe Illustrator 23.0.6, SVG Export Plug-In . SVG Version: 6.00 Build 0)  -->
<svg version="1.1" id="Layer_1" xmlns="http://www.w3.org/2000/svg" xmlns:xlink="http://www.w3.org/1999/xlink" x="0px" y="0px"
	 viewBox="0 0 418.5 418.5" style="enable-background:new 0 0 418.5 418.5;" xml:space="preserve">
<style type="text/css">
	.st0{fill:none;stroke:#03304F;stroke-width:1.25;stroke-miterlimit:10;}
</style>
<title>ilustras</title>
<g>
	<line class="st0" x1="290.8" y1="-158.4" x2="-149" y2="281.5"/>
	<line class="st0" x1="298.8" y1="-150.4" x2="-141" y2="289.5"/>
	<line class="st0" x1="306.8" y1="-142.4" x2="-133" y2="297.4"/>
	<line class="st0" x1="314.8" y1="-134.4" x2="-125.1" y2="305.4"/>
	<line class="st0" x1="322.8" y1="-126.4" x2="-117.1" y2="313.4"/>
	<line class="st0" x1="330.7" y1="-118.4" x2="-109.1" y2="321.4"/>
	<line class="st0" x1="338.7" y1="-110.4" x2="-101.1" y2="329.4"/>
	<line class="st0" x1="346.7" y1="-102.4" x2="-93.1" y2="337.4"/>
	<line class="st0" x1="354.7" y1="-94.4" x2="-85.1" y2="345.4"/>
	<line class="st0" x1="362.7" y1="-86.4" x2="-77.1" y2="353.4"/>
	<line class="st0" x1="370.7" y1="-78.5" x2="-69.1" y2="361.4"/>
	<line class="st0" x1="378.7" y1="-70.5" x2="-61.1" y2="369.4"/>
	<line class="st0" x1="210.9" y1="-238.2" x2="-228.9" y2="201.6"/>
	<line class="st0" x1="218.9" y1="-230.3" x2="-220.9" y2="209.6"/>
	<line class="st0" x1="226.9" y1="-222.3" x2="-212.9" y2="217.6"/>
	<line class="st0" x1="234.9" y1="-214.3" x2="-204.9" y2="225.5"/>
	<line class="st0" x1="242.9" y1="-206.3" x2="-196.9" y2="233.5"/>
	<line class="st0" x1="250.9" y1="-198.3" x2="-189" y2="241.5"/>
	<line class="st0" x1="258.8" y1="-190.3" x2="-181" y2="249.5"/>
	<line class="st0" x1="266.8" y1="-182.3" x2="-173" y2="257.5"/>
	<line class="st0" x1="274.8" y1="-174.3" x2="-165" y2="265.5"/>
	<line class="st0" x1="282.8" y1="-166.3" x2="-157" y2="273.5"/>
	<line class="st0" x1="650.3" y1="201.2" x2="210.5" y2="641"/>
	<line class="st0" x1="570.4" y1="121.3" x2="130.6" y2="561.1"/>
	<line class="st0" x1="578.4" y1="129.3" x2="138.6" y2="569.1"/>
	<line class="st0" x1="586.4" y1="137.2" x2="146.6" y2="577.1"/>
	<line class="st0" x1="594.4" y1="145.2" x2="154.6" y2="585"/>
	<line class="st0" x1="602.4" y1="153.2" x2="162.6" y2="593"/>
	<line class="st0" x1="610.4" y1="161.2" x2="170.5" y2="601"/>
	<line class="st0" x1="618.3" y1="169.2" x2="178.5" y2="609"/>
	<line class="st0" x1="626.3" y1="177.2" x2="186.5" y2="617"/>
	<line class="st0" x1="634.3" y1="185.2" x2="194.5" y2="625"/>
	<line class="st0" x1="642.3" y1="193.2" x2="202.5" y2="633"/>
	<line class="st0" x1="386.7" y1="-62.5" x2="-53.2" y2="377.3"/>
	<line class="st0" x1="394.6" y1="-54.5" x2="-45.2" y2="385.3"/>
	<line class="st0" x1="402.6" y1="-46.5" x2="-37.2" y2="393.3"/>
	<line class="st0" x1="410.6" y1="-38.5" x2="-29.2" y2="401.3"/>
	<line class="st0" x1="418.6" y1="-30.5" x2="-21.2" y2="409.3"/>
	<line class="st0" x1="426.6" y1="-22.5" x2="-13.2" y2="417.3"/>
	<line class="st0" x1="434.6" y1="-14.6" x2="-5.2" y2="425.3"/>
	<line class="st0" x1="442.6" y1="-6.6" x2="2.8" y2="433.3"/>
	<line class="st0" x1="450.6" y1="1.4" x2="10.8" y2="441.3"/>
	<line class="st0" x1="458.6" y1="9.4" x2="18.8" y2="449.2"/>
	<line class="st0" x1="466.6" y1="17.4" x2="26.7" y2="457.2"/>
	<line class="st0" x1="474.5" y1="25.4" x2="34.7" y2="465.2"/>
	<line class="st0" x1="482.5" y1="33.4" x2="42.7" y2="473.2"/>
	<line class="st0" x1="490.5" y1="41.4" x2="50.7" y2="481.2"/>
	<line class="st0" x1="498.5" y1="49.4" x2="58.7" y2="489.2"/>
	<line class="st0" x1="506.5" y1="57.3" x2="66.7" y2="497.2"/>
	<line class="st0" x1="514.5" y1="65.3" x2="74.7" y2="505.2"/>
	<line class="st0" x1="522.5" y1="73.3" x2="82.7" y2="513.2"/>
	<line class="st0" x1="530.5" y1="81.3" x2="90.7" y2="521.1"/>
	<line class="st0" x1="538.5" y1="89.3" x2="98.6" y2="529.1"/>
	<line class="st0" x1="546.5" y1="97.3" x2="106.6" y2="537.1"/>
	<line class="st0" x1="554.4" y1="105.3" x2="114.6" y2="545.1"/>
	<line class="st0" x1="562.4" y1="113.3" x2="122.6" y2="553.1"/>
</g>
</svg>
