<svg xmlns="http://www.w3.org/2000/svg" xmlns:xlink="http://www.w3.org/1999/xlink" viewBox="0 0 119.05662 106.70929"><defs><style>.cls-1,.cls-4,.cls-8{fill:none;}.cls-2,.cls-7{fill:#2bd88d;}.cls-2,.cls-4,.cls-8,.cls-9{stroke:#03304f;}.cls-2,.cls-4{stroke-miterlimit:10;}.cls-3{fill:#03304f;}.cls-4{stroke-width:0.75px;}.cls-5{clip-path:url(#clip-path);}.cls-6,.cls-9{fill:#fff;}.cls-8,.cls-9{stroke-linecap:round;stroke-linejoin:round;}</style><clipPath id="clip-path"><rect class="cls-1" x="27.03917" y="21.90887" width="49.75251" height="80.48555"/></clipPath></defs><g id="Conteudo"><rect class="cls-2" x="23.44062" y="11.60891" width="56.94962" height="101.71108" rx="5.76398"/><path class="cls-3" d="M53.60934,17.68938H46.99981a.48592.48592,0,1,1,0-.97184h6.60953a.48592.48592,0,0,1,0,.97184Z"/><circle class="cls-4" cx="56.86333" cy="17.20346" r="0.84689"/><g class="cls-5"><rect class="cls-6" x="12.77377" y="11.26598" width="78.15116" height="135.89581"/><rect class="cls-7" x="29.89332" y="24.33955" width="44.04421" height="56.30655"/><rect class="cls-6" x="32.70465" y="27.34258" width="38.42156" height="35.03515"/><rect class="cls-3" x="33.02796" y="66.90097" width="27.02715" height="0.67138"/><rect class="cls-3" x="33.02796" y="70.16633" width="24.52453" height="0.67138"/><rect class="cls-3" x="33.02796" y="73.35395" width="24.52453" height="0.67144"/><path class="cls-3" d="M57.12671,48.24677l-1.5363,2.12562a.5408.5408,0,0,1-.8885-.01713L49.653,42.7711a.54084.54084,0,0,0-.9004,0L40.35293,55.3886a.54082.54082,0,0,0,.4502.8405H62.71452a.54083.54083,0,0,0,.43834-.85764l-5.14951-7.12469A.54086.54086,0,0,0,57.12671,48.24677Z"/><circle class="cls-3" cx="59.37742" cy="37.50474" r="3.85332"/><rect class="cls-7" x="29.89332" y="84.78447" width="44.04421" height="56.30655"/><rect class="cls-6" x="32.70465" y="87.7875" width="38.42156" height="35.03515"/></g><path class="cls-6" d="M73.79348,122.06207,68.356,112.55394l-14.29821-7.57381a12.78236,12.78236,0,0,1-2.7654-2.25781L44.84279,94.529a6.81885,6.81885,0,0,1-1.35244-2.16919l-3.69014-8.61707a2.49658,2.49658,0,0,1,.76795-2.84911h0a2.49655,2.49655,0,0,1,3.53816.42492l4.30547,5.58792a3.09923,3.09923,0,0,0,.48111.49774l7.0142,5.79456L47.1566,53.35733a2.70862,2.70862,0,0,1,2.04683-3.22168h0a2.70863,2.70863,0,0,1,3.14121,1.70673L58.90025,69.67h0a4.39021,4.39021,0,0,1,3.22205-5.5046l.62785-.14572a4.39011,4.39011,0,0,1,5.13423,2.81921L69.455,72.171l-.5387-1.77835a4.16364,4.16364,0,0,1,3.2397-5.30359h0a4.16368,4.16368,0,0,1,4.70267,2.8026L78.32137,72.366h0a2.807,2.807,0,0,1,2.244-3.64715l.71192-.10882a2.8071,2.8071,0,0,1,3.03655,1.74782l9.49895,24.16292a10.43251,10.43251,0,0,1,.60358,2.24083l.75668,4.95067,6.22737,7.77589A20.53816,20.53816,0,0,1,91.453,120.17583C84.24808,123.612,73.79348,122.06207,73.79348,122.06207Z"/><path class="cls-8" d="M68.356,112.55394l-14.29821-7.57381a12.78236,12.78236,0,0,1-2.7654-2.25781L44.84279,94.529a6.81885,6.81885,0,0,1-1.35244-2.16919l-3.69014-8.61707a2.49658,2.49658,0,0,1,.76795-2.84911h0a2.49655,2.49655,0,0,1,3.53816.42492l4.30547,5.58792a3.09923,3.09923,0,0,0,.48111.49774l7.0142,5.79456L47.1566,53.35733a2.70862,2.70862,0,0,1,2.04683-3.22168h0a2.70863,2.70863,0,0,1,3.14121,1.70673L58.90025,69.67h0a4.39021,4.39021,0,0,1,3.22205-5.5046l.62785-.14572a4.39011,4.39011,0,0,1,5.13423,2.81921L69.455,72.171l-.5387-1.77835a4.16364,4.16364,0,0,1,3.2397-5.30359h0a4.16368,4.16368,0,0,1,4.70267,2.8026L78.32137,72.366h0a2.807,2.807,0,0,1,2.244-3.64715l.71192-.10882a2.8071,2.8071,0,0,1,3.03655,1.74782l9.49895,24.16292a10.43251,10.43251,0,0,1,.60358,2.24083l.75668,4.95067,6.22737,7.77589"/><line class="cls-9" x1="58.90025" y1="69.67002" x2="60.467" y2="74.36802"/><line class="cls-9" x1="69.45498" y1="72.17101" x2="70.18767" y2="74.36802"/><line class="cls-9" x1="78.26787" y1="72.17101" x2="78.80593" y2="73.78441"/></g></svg>